<?xml version="1.0" encoding="UTF-8"?>
<svg id="Layer_1" data-name="Layer 1" xmlns="http://www.w3.org/2000/svg" xmlns:xlink="http://www.w3.org/1999/xlink" viewBox="0 0 595.28 841.89">
  <defs>
    <style>
      .cls-1 {
        fill: #085a96;
      }

      .cls-1, .cls-2, .cls-3, .cls-4, .cls-5, .cls-6, .cls-7, .cls-8, .cls-9, .cls-10, .cls-11, .cls-12, .cls-13, .cls-14, .cls-15, .cls-16, .cls-17, .cls-18, .cls-19, .cls-20, .cls-21, .cls-22, .cls-23, .cls-24, .cls-25, .cls-26, .cls-27, .cls-28, .cls-29, .cls-30, .cls-31, .cls-32, .cls-33, .cls-34, .cls-35, .cls-36, .cls-37, .cls-38, .cls-39, .cls-40, .cls-41, .cls-42, .cls-43, .cls-44, .cls-45, .cls-46, .cls-47, .cls-48, .cls-49, .cls-50, .cls-51, .cls-52, .cls-53, .cls-54, .cls-55, .cls-56, .cls-57, .cls-58, .cls-59, .cls-60, .cls-61, .cls-62, .cls-63, .cls-64, .cls-65, .cls-66, .cls-67, .cls-68, .cls-69, .cls-70, .cls-71, .cls-72, .cls-73, .cls-74, .cls-75, .cls-76, .cls-77, .cls-78, .cls-79 {
        stroke-width: 0px;
      }

      .cls-2 {
        fill: #fefefe;
      }

      .cls-3 {
        fill: #fccb95;
      }

      .cls-4 {
        fill: #bdc3c7;
      }

      .cls-80 {
        clip-path: url(#clippath-20);
      }

      .cls-81 {
        clip-path: url(#clippath-11);
      }

      .cls-5 {
        fill: #454a71;
      }

      .cls-82 {
        clip-path: url(#clippath-16);
      }

      .cls-6 {
        fill: #6a707c;
      }

      .cls-7 {
        fill: #f9fafa;
      }

      .cls-8 {
        fill: url(#linear-gradient);
      }

      .cls-9 {
        fill: #ced3e0;
      }

      .cls-10 {
        fill: #0b2f49;
      }

      .cls-11 {
        fill: #c7c5c3;
      }

      .cls-12 {
        fill: #ffde17;
      }

      .cls-13 {
        fill: #603913;
      }

      .cls-14 {
        fill: #262626;
      }

      .cls-15 {
        fill: #0d3659;
      }

      .cls-16 {
        fill: #ff7443;
      }

      .cls-17 {
        fill: #0a2b38;
      }

      .cls-18 {
        fill: #08273a;
      }

      .cls-19 {
        fill: #dd5626;
      }

      .cls-20 {
        fill: #00aeef;
      }

      .cls-21 {
        fill: #fcfdfd;
      }

      .cls-22 {
        fill: #8eb021;
      }

      .cls-23 {
        fill: #5e4534;
      }

      .cls-24 {
        fill: #f2f5f6;
      }

      .cls-83 {
        clip-path: url(#clippath-2);
      }

      .cls-84 {
        clip-path: url(#clippath-13);
      }

      .cls-85 {
        isolation: isolate;
      }

      .cls-25 {
        fill: #4be0ff;
      }

      .cls-86 {
        clip-path: url(#clippath-25);
      }

      .cls-27 {
        fill: #f8f9fa;
      }

      .cls-87 {
        clip-path: url(#clippath-15);
      }

      .cls-28 {
        fill: #bc8133;
      }

      .cls-88 {
        clip-path: url(#clippath-6);
      }

      .cls-89 {
        clip-path: url(#clippath-26);
      }

      .cls-29 {
        fill: #f0f3f4;
      }

      .cls-30 {
        fill: #08a6de;
      }

      .cls-31 {
        fill: #082263;
      }

      .cls-32 {
        fill: #676f95;
      }

      .cls-33 {
        fill: none;
      }

      .cls-90 {
        clip-path: url(#clippath-7);
      }

      .cls-91 {
        clip-path: url(#clippath-21);
      }

      .cls-92 {
        clip-path: url(#clippath-1);
      }

      .cls-93 {
        clip-path: url(#clippath-4);
      }

      .cls-94 {
        clip-path: url(#clippath-27);
      }

      .cls-34 {
        fill: #0072bf;
      }

      .cls-35 {
        fill: #51e0e0;
      }

      .cls-36 {
        fill: #db9645;
      }

      .cls-37 {
        fill: #8e725e;
      }

      .cls-38 {
        fill: #b3efff;
      }

      .cls-39 {
        fill: #2b1990;
      }

      .cls-40 {
        fill: #f76627;
      }

      .cls-95 {
        clip-path: url(#clippath-12);
      }

      .cls-41 {
        fill: #503b2c;
      }

      .cls-42 {
        fill: #fff;
      }

      .cls-43 {
        fill: #1e160d;
      }

      .cls-44 {
        fill: #9bb214;
      }

      .cls-96 {
        clip-path: url(#clippath-24);
      }

      .cls-45 {
        fill: #52bbe7;
      }

      .cls-97 {
        clip-path: url(#clippath-30);
      }

      .cls-46 {
        fill: #785571;
      }

      .cls-47 {
        fill: #eef2f3;
      }

      .cls-98 {
        clip-path: url(#clippath-22);
      }

      .cls-48 {
        fill: #b1b2b2;
      }

      .cls-49 {
        fill: #f6f8f8;
      }

      .cls-50 {
        fill: #b58143;
      }

      .cls-51 {
        fill: #bbd32d;
      }

      .cls-52 {
        fill: #a5c63b;
      }

      .cls-99 {
        clip-path: url(#clippath-9);
      }

      .cls-53 {
        fill: #edf1f2;
      }

      .cls-54 {
        fill: #084373;
      }

      .cls-100 {
        clip-path: url(#clippath);
      }

      .cls-55 {
        fill: #c2c2c7;
      }

      .cls-56 {
        fill: #d6a15c;
      }

      .cls-57 {
        fill: #2e3192;
      }

      .cls-101 {
        clip-path: url(#clippath-19);
      }

      .cls-58 {
        fill: #ffd8a6;
      }

      .cls-59 {
        fill: #a3c412;
      }

      .cls-102 {
        clip-path: url(#clippath-3);
      }

      .cls-60 {
        fill: #5bc9ef;
      }

      .cls-61 {
        fill: #70513c;
      }

      .cls-62 {
        fill: #f1f1f1;
      }

      .cls-63 {
        fill: #c6c6c6;
      }

      .cls-103 {
        clip-path: url(#clippath-8);
      }

      .cls-64 {
        fill: #eff3f3;
      }

      .cls-65 {
        fill: #fbfcfc;
      }

      .cls-66 {
        fill: #49a9ff;
      }

      .cls-104 {
        clip-path: url(#clippath-29);
      }

      .cls-105 {
        clip-path: url(#clippath-18);
      }

      .cls-106 {
        clip-path: url(#clippath-14);
      }

      .cls-107 {
        clip-path: url(#clippath-17);
      }

      .cls-108 {
        clip-path: url(#clippath-5);
      }

      .cls-67 {
        fill: #fdfdfd;
      }

      .cls-68 {
        fill: #f7f8f9;
      }

      .cls-69 {
        fill: #1e170e;
      }

      .cls-70 {
        fill: #c44620;
      }

      .cls-71 {
        fill: #fafbfb;
      }

      .cls-72 {
        fill: #c49a6c;
      }

      .cls-73 {
        fill: #092a42;
      }

      .cls-109 {
        clip-path: url(#clippath-10);
      }

      .cls-110 {
        clip-path: url(#clippath-23);
      }

      .cls-74 {
        fill: #a38671;
      }

      .cls-75 {
        fill: #f4f7f7;
      }

      .cls-76 {
        fill: #ecf0f1;
      }

      .cls-77 {
        fill: #f1f4f5;
      }

      .cls-111 {
        clip-path: url(#clippath-28);
      }

      .cls-78 {
        fill: #a99fb8;
      }

      .cls-79 {
        fill: #f3f6f6;
      }
    </style>
    <clipPath id="clippath">
      <rect class="cls-33" x="18.88" y="164.63" width="553.55" height="572.87"/>
    </clipPath>
    <clipPath id="clippath-1">
      <path class="cls-33" d="M285.75,344.74c-.02-6.28,4.41-13.96,9.88-17.12,5.47-3.16,9.93-.61,9.94,5.67.02,6.28-4.41,13.96-9.88,17.11-1.59.92-3.1,1.36-4.44,1.36-3.25,0-5.49-2.57-5.5-7.02M295.62,325.22c-6.62,3.82-11.99,13.12-11.96,20.72.02,7.6,5.42,10.68,12.04,6.86,6.62-3.82,11.98-13.12,11.96-20.72-.01-5.39-2.73-8.5-6.67-8.5-1.62,0-3.44.53-5.37,1.64"/>
    </clipPath>
    <clipPath id="clippath-2">
      <rect class="cls-33" x="18.88" y="164.63" width="553.55" height="572.87"/>
    </clipPath>
    <clipPath id="clippath-3">
      <path class="cls-33" d="M288.46,432.01c-4.16,5.22-1.21,11.41-.76,13.05.68,2.48,5.24,6.36,6.17,6.03.68-.24-.91-5.03-.95-5.48-.09-.98.11-1.76.15-2.7.07-1.12-.21-2.93,1.12-3.3.33-.09.83-.09,1.29-.08.26,0,.51,0,.71,0,.87-.07,1.81-.2,2.68-.4,1.45-.33,2.78-.75,3.98-1.65.58-.44,2.74-2.69,2.09-3.47,0,0-1.07-3.05-3.51-3.73-1.9-.52-3.92-.82-5.83-.82-3,0-5.69.75-7.13,2.56"/>
    </clipPath>
    <linearGradient id="linear-gradient" x1="9.69" y1="850.36" x2="11.03" y2="850.36" gradientTransform="translate(136.76 13556.61) scale(15.42 -15.42)" gradientUnits="userSpaceOnUse">
      <stop offset="0" stop-color="#231f20"/>
      <stop offset="1" stop-color="#231f20"/>
    </linearGradient>
    <clipPath id="clippath-4">
      <rect class="cls-33" x="18.88" y="164.63" width="553.55" height="572.87"/>
    </clipPath>
    <clipPath id="clippath-5">
      <rect class="cls-33" x="370.96" y="545.72" width="26.68" height="19.36"/>
    </clipPath>
    <clipPath id="clippath-6">
      <rect class="cls-33" x="370.96" y="545.72" width="26.68" height="19.36"/>
    </clipPath>
    <clipPath id="clippath-7">
      <rect class="cls-33" x="381.66" y="546.12" width="15.82" height="12.52"/>
    </clipPath>
    <clipPath id="clippath-8">
      <rect class="cls-33" x="371.13" y="549.56" width="26.36" height="15.11"/>
    </clipPath>
    <clipPath id="clippath-9">
      <rect class="cls-33" x="370.96" y="551.95" width="15.83" height="13.13"/>
    </clipPath>
    <clipPath id="clippath-10">
      <rect class="cls-33" x="370.96" y="545.72" width="26.68" height="15.31"/>
    </clipPath>
    <clipPath id="clippath-11">
      <rect class="cls-33" x="397.36" y="558.36" width=".29" height=".34"/>
    </clipPath>
    <clipPath id="clippath-12">
      <rect class="cls-33" x="386.79" y="554.8" width="10.86" height="10.28"/>
    </clipPath>
    <clipPath id="clippath-13">
      <rect class="cls-33" x="386.96" y="555.2" width="10.53" height="9.48"/>
    </clipPath>
    <clipPath id="clippath-14">
      <rect class="cls-33" x="383.8" y="560.14" width=".24" height="2.7"/>
    </clipPath>
    <clipPath id="clippath-15">
      <rect class="cls-33" x="384.44" y="560.51" width=".24" height="2.71"/>
    </clipPath>
    <clipPath id="clippath-16">
      <rect class="cls-33" x="385.08" y="560.89" width=".24" height="2.71"/>
    </clipPath>
    <clipPath id="clippath-17">
      <rect class="cls-33" x="385.72" y="561.25" width=".24" height="2.71"/>
    </clipPath>
    <clipPath id="clippath-18">
      <rect class="cls-33" x="403.36" y="496.93" width="26.68" height="19.35"/>
    </clipPath>
    <clipPath id="clippath-19">
      <rect class="cls-33" x="403.36" y="496.93" width="26.68" height="19.35"/>
    </clipPath>
    <clipPath id="clippath-20">
      <rect class="cls-33" x="414.06" y="497.33" width="15.82" height="12.52"/>
    </clipPath>
    <clipPath id="clippath-21">
      <rect class="cls-33" x="403.53" y="500.77" width="26.36" height="15.11"/>
    </clipPath>
    <clipPath id="clippath-22">
      <rect class="cls-33" x="403.36" y="503.15" width="15.83" height="13.13"/>
    </clipPath>
    <clipPath id="clippath-23">
      <rect class="cls-33" x="403.36" y="496.93" width="26.68" height="15.3"/>
    </clipPath>
    <clipPath id="clippath-24">
      <rect class="cls-33" x="429.76" y="509.57" width=".29" height=".34"/>
    </clipPath>
    <clipPath id="clippath-25">
      <rect class="cls-33" x="419.19" y="506.01" width="10.86" height="10.28"/>
    </clipPath>
    <clipPath id="clippath-26">
      <rect class="cls-33" x="419.36" y="506.4" width="10.53" height="9.48"/>
    </clipPath>
    <clipPath id="clippath-27">
      <rect class="cls-33" x="416.19" y="511.35" width=".24" height="2.7"/>
    </clipPath>
    <clipPath id="clippath-28">
      <rect class="cls-33" x="416.84" y="511.72" width=".24" height="2.71"/>
    </clipPath>
    <clipPath id="clippath-29">
      <rect class="cls-33" x="417.48" y="512.09" width=".24" height="2.71"/>
    </clipPath>
    <clipPath id="clippath-30">
      <rect class="cls-33" x="418.12" y="512.46" width=".24" height="2.71"/>
    </clipPath>
  </defs>
  <polygon class="cls-72" points="40.75 545.99 56.51 555.17 19.19 576.81 39.42 588.58 39.36 588.62 295.04 737.5 540.98 594.89 540.86 594.83 572.12 576.7 536.25 555.81 542.36 552.27 286.69 403.38 40.75 545.99"/>
  <polygon class="cls-61" points="291.31 659.46 401.18 595.6 300 537.19 190.13 601.04 291.31 659.46"/>
  <g class="cls-100">
    <path class="cls-61" d="M291.15,623.73s-7.83,4.76-1.54,9.6c6.15,4.74,22.59,16.75,32.67,13.77,10.09-2.98,26.13-14.32,27.43-15.83,1.31-1.51,1.17-3.84-4.08-7.7-3.77-2.77-22.11-12.87-23.16-13.25-1.05-.37-4.45-2.37-11.38,1.26-6.53,3.43-19.94,12.15-19.94,12.15"/>
    <polygon class="cls-61" points="214.33 554.94 374.35 462.87 296.57 418.19 136.56 510.27 214.33 554.94"/>
    <polygon class="cls-39" points="572.43 576.81 295.97 417.2 295.97 164.63 572.43 324.34 572.43 576.81"/>
    <polygon class="cls-57" points="19.51 576.81 295.97 417.2 295.97 164.63 19.51 324.34 19.51 576.81"/>
    <polygon class="cls-42" points="399.45 394.14 399.45 270.39 471.15 311.78 471.15 435.53 399.45 394.14"/>
    <polygon class="cls-45" points="411.72 387.09 411.72 277.57 471.06 311.83 471.06 421.34 411.72 387.09"/>
    <polygon class="cls-60" points="471.15 344.92 420.52 392.07 418.26 390.77 471.15 341.51 471.15 344.92"/>
    <polygon class="cls-60" points="471.15 311.78 471.15 327.78 411.81 383.04 411.81 363.9 469.06 310.58 471.15 311.78"/>
    <polygon class="cls-42" points="405.84 274.08 411.81 277.53 411.81 320.58 471.15 354.83 471.15 361.75 405.84 324.05 405.84 274.08"/>
    <polygon class="cls-42" points="411.81 277.53 411.81 387.04 471.15 421.3 471.15 428.22 405.84 390.51 405.84 274.08 411.81 277.53"/>
    <polygon class="cls-78" points="404.72 310.8 471.15 349.15 471.15 352.8 401.56 312.63 404.72 310.8"/>
    <polygon class="cls-78" points="404.72 306.07 471.15 344.42 471.15 348.07 401.56 307.9 404.72 306.07"/>
    <polygon class="cls-78" points="404.72 301.35 471.15 339.7 471.15 343.35 401.56 303.18 404.72 301.35"/>
    <polygon class="cls-78" points="404.72 296.61 471.15 334.96 471.15 338.61 401.56 298.44 404.72 296.61"/>
    <polygon class="cls-78" points="404.72 291.89 471.15 330.24 471.15 333.89 401.56 293.71 404.72 291.89"/>
    <polygon class="cls-78" points="404.82 287.26 471.15 325.56 471.15 329.21 401.66 289.09 404.82 287.26"/>
    <polygon class="cls-78" points="404.82 282.54 471.15 320.83 471.15 324.48 401.66 284.37 404.82 282.54"/>
    <polygon class="cls-78" points="404.82 277.8 471.15 316.09 471.15 319.74 401.66 279.63 404.82 277.8"/>
    <polygon class="cls-78" points="404.47 273.29 471.15 311.78 471.15 315.02 401.66 274.9 404.47 273.29"/>
    <polygon class="cls-42" points="471.06 436.01 471.06 312.26 542.75 353.66 542.75 477.41 471.06 436.01"/>
    <polygon class="cls-45" points="483.33 428.96 483.33 319.45 542.66 353.7 542.66 463.22 483.33 428.96"/>
    <polygon class="cls-60" points="542.75 386.8 492.13 433.95 489.87 432.64 542.75 383.39 542.75 386.8"/>
    <polygon class="cls-60" points="542.75 353.66 542.75 369.65 483.42 424.91 483.42 405.78 540.67 352.45 542.75 353.66"/>
    <polygon class="cls-42" points="477.45 315.95 483.42 319.4 483.42 362.45 542.75 396.71 542.75 403.63 477.45 365.92 477.45 315.95"/>
    <polygon class="cls-42" points="483.42 319.4 483.42 428.92 542.75 463.17 542.75 470.09 477.44 432.39 477.44 315.95 483.42 319.4"/>
    <polygon class="cls-78" points="476.33 352.68 542.75 391.03 542.75 394.67 473.17 354.5 476.33 352.68"/>
    <polygon class="cls-78" points="476.33 347.95 542.75 386.3 542.75 389.95 473.17 349.77 476.33 347.95"/>
    <polygon class="cls-78" points="476.33 343.23 542.75 381.58 542.75 385.23 473.17 345.05 476.33 343.23"/>
    <polygon class="cls-78" points="476.33 338.49 542.75 376.84 542.75 380.49 473.17 340.31 476.33 338.49"/>
    <polygon class="cls-78" points="476.33 333.76 542.75 372.11 542.75 375.76 473.17 335.59 476.33 333.76"/>
    <polygon class="cls-78" points="476.43 329.14 542.75 367.43 542.75 371.08 473.27 330.96 476.43 329.14"/>
    <polygon class="cls-78" points="476.43 324.42 542.75 362.71 542.75 366.36 473.27 326.24 476.43 324.42"/>
    <polygon class="cls-78" points="476.43 319.68 542.75 357.97 542.75 361.62 473.27 321.5 476.43 319.68"/>
    <polygon class="cls-78" points="476.08 315.16 542.75 353.66 542.75 356.89 473.27 316.78 476.08 315.16"/>
    <path class="cls-63" d="M419.25,401.96c.96.55,2.23.86,3.57.86s2.63-.31,3.6-.87c.88-.51,1.41-1.17,1.57-1.89h0v-.07s.01-.02.02-.03l1.77-10.31h-13.88l1.78,10.34c.12.76.66,1.45,1.57,1.98"/>
    <path class="cls-74" d="M422.81,393.46c1.82,0,3.54-.42,4.85-1.17,1.4-.81,2.17-1.91,2.17-3.1s-.76-2.28-2.14-3.07c-1.29-.74-2.99-1.15-4.8-1.15s-3.54.42-4.85,1.17c-1.4.8-2.17,1.91-2.17,3.1s.76,2.28,2.14,3.07c1.29.74,2.99,1.15,4.79,1.15"/>
    <path class="cls-37" d="M416.55,390.02c.25.68.82,1.32,1.73,1.84,2.51,1.45,6.59,1.44,9.12-.02.92-.54,1.51-1.19,1.76-1.87.44-1.19-.14-2.48-1.73-3.4-2.52-1.45-6.6-1.44-9.13.02-1.62.93-2.2,2.24-1.75,3.43"/>
    <path class="cls-23" d="M416.55,390.02c.25.68.82,1.32,1.73,1.84,2.51,1.45,6.59,1.44,9.12-.02.92-.54,1.51-1.19,1.76-1.87-.25-.67-.83-1.31-1.73-1.83-2.52-1.45-6.6-1.44-9.13.01-.92.53-1.51,1.19-1.75,1.87"/>
    <path class="cls-52" d="M405.72,355.09s.47.05,1.07.25c.6.2,1.35.51,1.96,1.11,1.13,1.1,1.75,2.37,1.43,2.95.61.34,1.18.71,1.75,1.09.02-.34.09-.63.2-.89-.56-.4-.51-1.54.1-2.58.31-.53.88-.85,1.39-1.01.51-.16.95-.17.95-.17,0,0,.18.42.26.96.09.57.07,1.25-.29,1.76-.69.96-1.69,1.41-2.28,1.12-.11.25-.19.56-.19.91.42.31.86.6,1.23.96l.59.52.54.56c.1-.35.26-.66.44-.92-.22-.27-.27-.68-.17-1.18.11-.5.37-1.08.78-1.62.41-.55,1.08-.81,1.66-.9.58-.09,1.07-.02,1.07-.02,0,0,.04.12.07.33.03.21.05.5.04.82-.02.64-.19,1.37-.69,1.85-.96.89-2.13,1.2-2.66.82-.19.26-.34.57-.44.93.21.21.39.44.57.67.18.23.36.46.54.7h0c.33.51.68,1,.96,1.53.18-.35.42-.63.67-.86-.36-.6.24-1.78,1.35-2.71.57-.47,1.33-.59,1.93-.56.61.02,1.08.18,1.08.18,0,0,0,.13-.02.34-.02.21-.06.49-.17.79-.2.6-.56,1.29-1.18,1.69-1.18.75-2.44.9-2.9.4-.25.23-.49.52-.67.88.62,1.1,1.14,2.23,1.63,3.33.2-.35.46-.63.72-.84-.36-.69.38-1.89,1.66-2.78.66-.45,1.47-.53,2.12-.48.33.03.61.08.8.13.2.04.32.08.32.08,0,0-.07.51-.31,1.12-.25.6-.68,1.27-1.36,1.69-1.29.79-2.65.93-3.13.37-.27.23-.53.52-.73.9.24.56.48,1.11.71,1.66h.03s-.01.05-.01.05c.23.53.45,1.05.67,1.56.3-.39.66-.68,1.03-.89-.26-.76.81-1.89,2.42-2.55,1.64-.69,3.54.12,3.54.12,0,0-.05.12-.14.31-.1.19-.25.46-.44.75-.39.58-.98,1.25-1.81,1.59-1.56.64-3.08.6-3.5-.06-.36.21-.73.5-1.02.91h0c.54,1.31,1.06,2.59,1.47,3.84.33-.39.71-.67,1.08-.87-.24-.85.84-2.02,2.51-2.69.85-.34,1.77-.24,2.5-.05.36.09.67.22.88.33.22.1.34.18.34.18,0,0-.19.57-.6,1.2-.41.62-1.06,1.35-1.93,1.62-.83.27-1.63.33-2.28.25-.65-.08-1.15-.3-1.35-.68-.38.21-.77.49-1.09.9h0c.49,1.52.86,2.98,1.02,4.37.43-.35.89-.6,1.33-.76-.06-.52.22-1.05.8-1.55.56-.5,1.39-.97,2.36-1.24.99-.28,2.04.01,2.84.43.4.21.74.44.98.62.23.19.36.33.36.33,0,0-.29.73-.86,1.45-.55.71-1.44,1.46-2.46,1.55-.98.1-1.88-.04-2.57-.29-.72-.25-1.23-.61-1.39-1.08-.45.16-.92.41-1.35.79.19,1.51.09,2.88.12,4.08,0,1.21-.05,2.25-.17,3.08-.11.74-.28,1.27-.48,1.66h-.23c.14-.25.27-.6.37-1.01.14-.56.23-1.31.27-2.18.04-.88.03-1.89.02-3.01-.48-.26-.99-.4-1.46-.43-.1.98-1.63,1.85-3.59,2-1.03.08-2-.24-2.71-.76-.18-.13-.34-.25-.49-.43-.07-.09-.14-.16-.2-.23-.06-.07-.12-.17-.17-.17-.2-.07-.31-.12-.31-.12,0,0,.39-.22,1.05-.53.68-.29,1.51-.76,2.54-.92.99-.16,1.93-.16,2.64.02.69.17,1.14.52,1.22.96.46.03.97.13,1.47.38,0-1.36-.09-2.91-.49-4.53-.46-.13-.89-.13-1.3-.07.07.81-1.18,1.71-2.87,2.07-.89.2-1.78.08-2.43-.05-.32-.07-.59-.14-.78-.19-.19-.06-.3-.11-.3-.11,0,0,.27-.39.74-.87.48-.48,1.16-1.06,2.02-1.36,1.7-.59,3.26-.44,3.57.34.39-.06.85-.07,1.3.04-.35-1.4-.81-2.88-1.41-4.39-.46-.07-.9-.02-1.28.08.15.76-.92,1.8-2.5,2.4-1.67.62-3.51-.09-3.51-.09,0,0,.79-1.87,2.43-2.56,1.61-.67,3.16-.63,3.52.08.38-.1.81-.15,1.27-.1-.44-1.11-.92-2.25-1.42-3.42-.38-.11-.74-.13-1.07-.11.05.74-1.02,1.59-2.5,1.94-.78.19-1.56-.02-2.16-.26-.6-.26-.98-.52-.98-.52,0,0,.95-1.65,2.5-2.01,1.52-.35,2.89-.04,3.11.7.31-.03.66-.01,1.01.08-.48-1.13-.97-2.29-1.53-3.45-.36-.08-.71-.07-1.02-.01.09.64-.88,1.45-2.21,1.85-.71.21-1.42.13-1.96.03-.54-.11-.89-.26-.89-.26,0,0,.2-.33.57-.75.37-.41.9-.92,1.58-1.19,1.33-.53,2.63-.45,2.87.18.3-.05.63-.07.98-.01-.5-1.04-1.09-2.06-1.75-3.04-.33-.03-.64.03-.91.13.18.59-.65,1.45-1.83,1.98-.63.29-1.27.3-1.76.33-.49.02-.81-.02-.81-.02,0,0,.04-.08.12-.22.08-.14.19-.33.33-.53.28-.41.69-.96,1.26-1.33.56-.37,1.14-.6,1.62-.67.48-.06.85.07,1.02.33.25-.09.54-.15.86-.15-.37-.47-.71-.96-1.14-1.38-.21-.21-.4-.44-.63-.64-.23-.19-.45-.39-.68-.59-.33.02-.62.14-.86.29.33.54-.2,1.49-1.12,2.21-.49.38-1.04.55-1.47.64-.46.09-.78.09-.78.09,0,0,.04-.35.17-.82.11-.47.31-1.07.75-1.51.43-.43.92-.73,1.34-.86.42-.13.8-.08,1.03.15.22-.14.5-.26.8-.31-.86-.66-1.76-1.26-2.73-1.81-.52.42-1.83-.1-3.07-1.3-.63-.62-.97-1.41-1.12-2.06-.16-.64-.14-1.1-.14-1.1"/>
    <path class="cls-22" d="M419.93,380.8c.21-.08.52-.18.86-.26.7-.15,1.58-.15,2.34.23,1.49.77,2.41,1.98,2.11,2.75.32.21.64.5.92.87.54-1.02,1.19-2.12,1.91-3.31-.21-.34-.46-.6-.73-.8-.43.54-1.73.46-3.01-.23-.67-.36-1.11-1-1.38-1.55-.27-.55-.37-1-.37-1,0,0,.44-.15,1.04-.2.6-.05,1.35.01,2.02.38,1.3.73,2.08,1.81,1.78,2.46.27.2.53.46.74.79.62-1.03,1.29-2.13,1.96-3.29-.2-.33-.46-.59-.72-.79-.41.5-1.67.38-2.9-.31-1.3-.72-1.73-2.4-1.73-2.4,0,0,1.66-.5,2.96.23,1.27.71,2.03,1.75,1.75,2.35.26.19.51.45.73.77.5-.86,1-1.76,1.51-2.69-.12-.3-.29-.55-.48-.75-.46.41-1.57.14-2.55-.64-1.04-.82-1.14-2.42-1.14-2.42,0,0,1.59-.26,2.62.57,1.02.81,1.52,1.86,1.16,2.38.18.19.35.42.48.7.49-.9.98-1.83,1.47-2.78-.13-.28-.31-.51-.5-.68-.39.38-1.42.17-2.37-.51-1-.72-1.19-2.15-1.19-2.15,0,0,1.43-.27,2.43.44.98.7,1.51,1.64,1.21,2.12.18.17.36.39.49.65.43-.86.87-1.73,1.32-2.63-.11-.26-.25-.48-.41-.67-.41.39-1.42.25-2.29-.4-.47-.34-.65-.98-.69-1.56-.03-.57.09-1.05.09-1.05,0,0,.42-.14.94-.11.52.02,1.1.2,1.45.66.35.44.58.93.68,1.35.1.42.1.79-.1,1.02.14.17.28.38.39.63.49-.89,1.15-1.71,1.93-2.43.02-.29-.01-.55-.09-.77-.54.21-1.38-.15-1.91-.99-.28-.43-.22-1.06-.07-1.54.07-.24.17-.46.24-.62.08-.16.13-.24.13-.24,0,0,.4.02.85.18.44.15.9.47,1.1.94.38.94.28,1.89-.23,2.22.07.21.11.45.1.72.7-.65,1.49-1.22,2.3-1.75-.13-.55.91-1.37,2.3-1.69.71-.17,1.4-.06,1.92.09.51.15.86.34.86.34,0,0-.22.32-.62.68-.4.37-.98.76-1.66.93-1.27.29-2.4.25-2.73-.19-.5.33-.99.67-1.45,1.04.27.09.48.23.65.39.47-.31,1.3.12,1.84.98.27.43.33.96.35,1.36,0,.41-.03.7-.03.7,0,0-.28-.05-.63-.19-.34-.14-.8-.38-1.12-.77-.64-.75-.87-1.61-.5-2.01-.17-.16-.39-.3-.67-.38-.71.57-1.35,1.19-1.9,1.88.3.03.57.15.79.28.35-.39,1.3-.04,2.04.8.38.42.61.94.77,1.33.08.2.14.36.18.48.04.12.07.18.07.18,0,0-.23-.06-.6-.19-.34-.13-.83-.32-1.3-.65-.9-.62-1.46-1.4-1.23-1.87-.23-.14-.49-.24-.8-.26-.15.19-.3.39-.43.6-.14.2-.26.41-.37.63h0c-.24.44-.45.9-.67,1.34.33-.03.63,0,.89.08.13-.25.47-.4.9-.39.43.03.94.21,1.46.49.53.3.96.72,1.28,1,.08.07.15.14.22.2.05.09.09.17.12.23.06.14.09.22.09.22,0,0-1.33.58-2.46.1-1.08-.45-1.79-1.21-1.66-1.75-.27-.07-.58-.11-.91-.06-.47.93-.93,1.85-1.41,2.73.33-.05.65-.03.92.03.26-.58,1.43-.7,2.65-.25,1.25.45,1.85,1.93,1.85,1.93,0,0-1.42.74-2.67.29-1.19-.43-1.99-1.23-1.88-1.84-.29-.06-.62-.08-.96-.01-.24.45-.48.89-.71,1.33v.03s-.02,0-.02,0c-.23.42-.46.83-.69,1.24.42,0,.79.09,1.11.21.37-.56,1.67-.45,2.93.26,1.29.72,1.73,2.39,1.73,2.39,0,0-1.66.5-2.96-.23-1.23-.69-1.99-1.69-1.77-2.3-.33-.13-.71-.22-1.12-.2h0c-.58,1.03-1.15,2.02-1.71,2.95.42,0,.81.08,1.14.21.39-.59,1.73-.5,3.03.23,1.33.74,1.76,2.5,1.76,2.5,0,0-.43.14-1.03.18-.6.05-1.37,0-2.03-.37-1.26-.71-2.03-1.76-1.8-2.4-.34-.13-.73-.22-1.16-.2-.68,1.12-1.31,2.19-1.9,3.17.46-.01.88.08,1.25.21.42-.67,1.92-.56,3.39.26.75.42,1.26,1.1,1.59,1.67.33.57.49,1.02.49,1.02,0,0-1.82.49-3.37-.25-1.47-.7-2.42-1.81-2.18-2.54-.37-.13-.81-.22-1.27-.19-1.26,2.15-2.17,4.01-2.6,5.42-.12.35-.18.68-.27.96-.05.29-.09.54-.13.75-.01.15-.02.26-.03.36h-.17c0-.06.01-.13.01-.2,0-.16.04-.35.08-.57.03-.22.08-.47.16-.73.27-1.09.85-2.52,1.73-4.18-.26-.38-.58-.66-.91-.87-.45.65-1.92.76-3.45.15-.8-.32-1.35-1.03-1.68-1.68-.33-.64-.45-1.21-.45-1.21,0,0,.13-.07.34-.15"/>
    <path class="cls-22" d="M392.34,371.38c.17-.05.4-.08.67-.14.54-.09,1.23-.2,1.96-.04.68.14,1.31.37,1.76.65.45.28.71.6.72.89.3,0,.6.02.9.03.15,0,.3,0,.46.02l.45.07c-.12-.28-.18-.55-.2-.8-.61-.09-1.08-.98-1.1-2.09,0-.56.32-1.04.69-1.39.36-.34.75-.53.75-.53,0,0,.37.25.69.69.33.42.61.98.52,1.53-.18,1.04-.83,1.81-1.42,1.81.01.25.07.53.21.81.92.12,1.82.41,2.69.74-.06-.32-.05-.63,0-.9-.29-.11-.47-.46-.57-.9-.1-.44-.11-1.01.01-1.61.13-.61.57-1.07,1.01-1.37.45-.3.86-.42.86-.42,0,0,.29.37.5.88.23.51.33,1.17.11,1.75-.43,1.11-1.21,1.79-1.8,1.7-.05.28-.06.59,0,.92.48.22.97.42,1.43.68h0c.49.25.95.52,1.41.8,0-.35.05-.68.15-.96-.52-.33-.54-1.49-.02-2.69.26-.61.8-1.02,1.28-1.26.48-.25.9-.33.9-.33,0,0,.67,1.58.02,2.73-.59,1.11-1.49,1.79-2.06,1.6-.1.29-.17.62-.14.98.96.6,1.89,1.19,2.79,1.78-.02-.36.03-.7.13-.99-.6-.33-.57-1.57.03-2.84.3-.65.9-1.08,1.38-1.36.48-.29.88-.43.88-.43,0,0,.55,1.53-.02,2.84-.57,1.23-1.51,2.03-2.14,1.85-.09.3-.15.66-.1,1.03.46.3.91.59,1.36.88h.03s0,.02,0,.02c.43.29.85.57,1.27.85.04-.44.17-.84.34-1.17-.57-.46-.34-1.84.53-3.13.87-1.34,2.77-1.61,2.77-1.61,0,0,.11.47.1,1.09,0,.63-.11,1.45-.58,2.1-.88,1.23-2.05,1.92-2.69,1.64-.17.34-.3.73-.33,1.18h0c1.06.73,2.05,1.47,2.95,2.24.07-.45.23-.84.42-1.17-.58-.54-.32-1.97.63-3.26.49-.66,1.24-1.04,1.9-1.2.66-.17,1.2-.16,1.2-.16,0,0,.13.53.12,1.2,0,.69-.17,1.55-.72,2.16-1.04,1.17-2.32,1.7-2.99,1.35-.2.33-.36.73-.41,1.19.55.46,1.04.96,1.53,1.42.46.49.88.99,1.29,1.46.16-.46.39-.86.65-1.18-.29-.35-.3-.92-.09-1.57.21-.66.62-1.38,1.25-2.04.64-.68,1.57-.94,2.38-.96.81-.04,1.47.12,1.47.12,0,0,.03.17.04.43.02.26.01.64-.05,1.06-.11.83-.46,1.76-1.19,2.32-.7.53-1.45.86-2.11,1-.66.14-1.18.06-1.55-.2-.27.33-.5.72-.67,1.22.39.56.76,1.09,1.1,1.6.33.51.64,1,.93,1.46.58.91,1.01,1.74,1.24,2.45.23.7.27,1.29.23,1.69h-.17c.02-.27.01-.62-.07-1.04-.1-.52-.32-1.12-.69-1.81-.35-.69-.86-1.45-1.4-2.3-.49.05-.93.19-1.31.38.41.81-.35,2.17-1.76,3.23-.74.55-1.63.77-2.39.77-.74.03-1.47-.36-1.41-.26,0,0,.17-.38.5-.94.33-.56.81-1.32,1.51-1.92.69-.58,1.4-1,2.02-1.19.62-.19,1.15-.13,1.42.16.37-.2.81-.35,1.3-.4-.33-.53-.71-1.05-1.09-1.61-.4-.56-.9-1.07-1.39-1.64-.41.12-.76.33-1.04.56.23.27.18.76-.05,1.28-.23.53-.66,1.1-1.23,1.63-.6.56-1.33.87-1.87,1.08-.27.1-.51.16-.69.21-.18.04-.28.06-.28.06,0,0,.03-.42.18-1,.15-.58.42-1.35.94-1.98,1.01-1.24,2.29-1.85,2.88-1.4.28-.23.62-.44,1.02-.57-.47-.44-.94-.92-1.47-1.37-.54-.43-1.08-.9-1.67-1.33-.38.17-.69.42-.93.67.49.5.15,1.8-.78,3.01-.96,1.26-2.69,1.61-2.69,1.61,0,0-.05-.43,0-1.04.07-.6.19-1.38.65-2.04.89-1.29,2.08-2.01,2.68-1.64.24-.25.54-.5.91-.68-.86-.64-1.78-1.26-2.73-1.89-.33.1-.62.27-.85.45.41.53.01,1.69-.92,2.68-.97,1.05-2.71,1-2.71,1,0,0-.03-.42.05-.99.08-.57.29-1.26.79-1.78.98-1,2.15-1.45,2.69-1.02.22-.18.48-.34.79-.45-.92-.6-1.87-1.21-2.85-1.83-.32.11-.58.28-.79.46.36.46.04,1.53-.8,2.48-.43.5-1.09.73-1.56.88-.49.14-.86.17-.86.17,0,0-.03-.39.07-.88.09-.5.27-1.13.7-1.63.82-1,1.88-1.48,2.36-1.11.21-.18.45-.34.75-.46-.88-.56-1.76-1.13-2.71-1.62-.27.12-.5.28-.68.46.38.42.1,1.43-.62,2.36-.38.49-.9.78-1.31.96-.21.09-.39.16-.51.21-.13.05-.2.07-.2.07,0,0-.02-.33.03-.8.05-.47.16-1.06.48-1.59.62-1.05,1.54-1.59,2.03-1.29.17-.17.37-.33.63-.46-.95-.48-1.95-.92-3-1.16-.26.15-.45.35-.58.56.46.32.41,1.27-.08,2.22-.25.5-.64.85-.94,1.09-.16.12-.29.21-.38.28-.1.07-.15.1-.15.1,0,0-.08-.28-.14-.71-.06-.43-.11-.98.05-1.51.3-1.05,1.01-1.71,1.55-1.53.12-.2.29-.39.52-.54-.46-.14-.95-.17-1.42-.25-.48-.04-.96-.05-1.44-.06-.11.29-.44.47-.96.57-.5.09-1.2.09-1.98-.08-.8-.16-1.49-.67-1.88-1.11-.4-.47-.55-.85-.55-.85,0,0,.1-.03.27-.07"/>
    <path class="cls-22" d="M417,380.62c.81-.33,1.88-.59,2.94-.33,2.07.5,3.57,1.71,3.41,2.72.46.17.93.43,1.36.82.42-1.4.88-2.95,1.37-4.63-.36-.35-.76-.59-1.16-.75-.35.8-1.97,1.09-3.75.65-1.87-.46-2.97-2.51-2.97-2.51,0,0,1.94-1.28,3.8-.78,1.83.46,3.13,1.55,2.98,2.44.39.16.79.39,1.16.73.21-.73.45-1.48.64-2.27.19-.79.39-1.6.59-2.43-.36-.33-.77-.54-1.16-.68-.32.75-1.88,1.03-3.61.62-.91-.21-1.66-.76-2.19-1.24-.52-.48-.82-.9-.82-.9,0,0,.45-.26,1.13-.49.67-.25,1.57-.46,2.5-.29,1.8.34,3.17,1.29,3.04,2.12.39.14.79.34,1.16.65.32-1.22.5-2.52.73-3.84-.27-.31-.58-.53-.89-.69-.38.68-1.81.81-3.31.28-.79-.28-1.39-.87-1.79-1.38-.2-.26-.35-.5-.45-.67-.1-.18-.15-.3-.15-.3,0,0,1.77-.98,3.36-.44,1.56.53,2.63,1.58,2.4,2.35.29.15.59.36.86.64.21-1.28.39-2.6.56-3.95-.27-.28-.59-.47-.89-.61-.3.62-1.61.81-3.03.4-1.49-.43-2.34-2.06-2.34-2.06,0,0,.1-.06.27-.14.17-.09.42-.19.72-.29.59-.19,1.36-.31,2.11-.09,1.46.44,2.47,1.34,2.33,2.04.29.13.59.31.87.57.15-1.21.3-2.44.46-3.69-.24-.25-.52-.44-.79-.57-.3.6-1.53.78-2.85.38-1.39-.43-2.13-2.09-2.13-2.09,0,0,.38-.23.93-.41.54-.12,1.25-.21,1.95,0,1.37.39,2.31,1.29,2.15,1.97.26.12.52.29.76.52.14-1.27.29-2.53.34-3.82-.24-.28-.51-.46-.78-.57-.26.64-1.38.88-2.58.56-.63-.17-1.13-.61-1.47-1.01-.17-.2-.29-.38-.38-.53-.09-.15-.13-.25-.13-.25,0,0,1.35-1.04,2.62-.73,1.24.31,2.12,1.13,1.98,1.82.25.11.51.27.75.51.05-1.16.06-2.34.1-3.55-.66-.26-.8-1.9-.03-3.7.22-.46.51-.84.81-1.16.28-.32.68-.54.98-.71.62-.34,1.09-.43,1.09-.43,0,0,.06.51.03,1.16-.01.16-.03.33-.05.51,0,.19-.03.37-.06.57-.05.39-.2.76-.35,1.17-.15.37-.33.71-.52,1.02-.18.32-.36.6-.55.84-.39.48-.78.78-1.12.78-.02.75-.03,1.49-.05,2.22.31-.19.62-.28.9-.33.05-.72,1.12-1.25,2.39-1.19.65.03,1.23.37,1.65.7.42.33.68.64.68.64,0,0-.07.07-.19.2-.12.12-.3.28-.51.45-.44.32-1.03.64-1.69.63-1.24-.03-2.25-.58-2.34-1.27-.29.04-.61.15-.91.35-.03,1.12-.08,2.22-.19,3.31.35-.17.7-.25,1.03-.27.1-.71,1.27-1.23,2.69-1.2.73.02,1.37.38,1.84.74.23.18.42.36.54.5.12.15.19.24.19.24,0,0-1.31,1.5-2.75,1.31-1.37-.12-2.46-.74-2.52-1.44-.33.03-.69.11-1.04.29-.07.62-.13,1.24-.2,1.85h0s0,0,0,0c-.08.63-.15,1.26-.23,1.88.38-.18.76-.26,1.1-.28.1-.7,1.37-1.18,2.89-1.05,1.55.13,2.72,1.5,2.72,1.5,0,0-1.34,1.17-2.9,1.08-1.47-.09-2.65-.69-2.72-1.37-.36.02-.74.11-1.12.3-.17,1.31-.32,2.6-.5,3.86.38-.2.76-.31,1.11-.36.06-.8,1.39-1.44,3.04-1.43,1.68.01,3.04,1.52,3.04,1.52,0,0-1.36,1.48-3.05,1.48-1.6,0-2.9-.62-3.02-1.39-.37.05-.77.17-1.15.4-.08.64-.19,1.27-.29,1.89l.02.03-.03.03c-.1.6-.2,1.19-.3,1.77.49-.17.98-.21,1.41-.19.22-.82,1.81-1.24,3.62-.92,1.85.32,3.06,2.23,3.06,2.23,0,0-.45.34-1.13.63-.67.29-1.59.54-2.52.35-1.74-.36-3.05-1.28-3.05-2.1-.44-.02-.93.02-1.43.21h0c-.12.74-.3,1.46-.46,2.17-.17.7-.34,1.39-.51,2.07.51-.15,1.01-.18,1.45-.14.26-.87,1.92-1.27,3.77-.87.94.21,1.69.84,2.21,1.43.52.59.79,1.15.79,1.15,0,0-.49.37-1.2.66-.36.16-.77.26-1.21.3-.44.04-.91.03-1.38-.09-1.78-.45-3.05-1.48-3.01-2.38-.45-.05-.96-.02-1.47.15-.42,1.62-.9,3.11-1.31,4.51.56-.16,1.1-.18,1.59-.13.32-.96,2.2-1.32,4.26-.8,1.05.27,1.9.96,2.47,1.57.29.31.51.6.66.82.15.22.23.35.23.35,0,0-.53.32-1.32.58-.79.26-1.86.47-2.91.23-2.02-.46-3.5-1.57-3.44-2.55-.5-.05-1.05-.03-1.62.15-.43,1.52-.88,2.89-1.2,4.13-.32,1.23-.68,2.29-.86,3.19-.22.89-.39,1.59-.51,2.08-.04.15-.07.27-.1.37h-.22c.02-.06.04-.13.06-.21.09-.35.22-.87.38-1.53.28-1.32.84-3.17,1.46-5.46-.42-.4-.89-.66-1.35-.83-.4.91-2.18,1.35-4.21.95-1.07-.21-1.94-.92-2.53-1.58-.58-.64-.9-1.23-.9-1.23,0,0,.54-.4,1.35-.73"/>
    <path class="cls-52" d="M426.63,389.51c-.41.47-.74.84-.92,1.15-.04.05-.07.1-.09.14h-.17s.04-.06.07-.1c.15-.22.35-.54.67-.87.6-.72,1.56-1.6,2.81-2.57-.08-.38-.23-.71-.41-.98-.56.35-1.72-.08-2.68-1.08-.5-.52-.69-1.25-.74-1.85-.02-.31-.03-.56-.02-.74,0-.18.02-.29.02-.29,0,0,.46-.02,1.02.12.55.15,1.21.44,1.69.98.94,1.06,1.3,2.28.82,2.77.18.27.34.6.42.97.76-.6,1.62-1.25,2.5-2.02-.08-.33-.22-.61-.39-.84-.47.34-1.47-.11-2.29-1.01-.43-.48-.64-1.06-.74-1.55-.1-.49-.1-.86-.1-.86,0,0,1.45.03,2.36.94.88.9,1.26,1.96.87,2.4.16.23.31.5.4.83.74-.69,1.55-1.41,2.35-2.22-.09-.31-.24-.58-.41-.8-.44.32-1.43-.06-2.28-.9-.9-.86-.9-2.32-.9-2.32,0,0,1.45-.04,2.35.83.88.85,1.28,1.87.92,2.3.17.22.32.48.43.79.59-.6,1.19-1.23,1.8-1.88-.03-.27-.13-.51-.24-.72-.46.24-1.3-.22-1.94-1.07-.65-.91-.47-2.17-.47-2.17,0,0,.33.04.75.17.42.14.93.39,1.27.83.67.87.88,1.83.48,2.18.11.19.2.42.24.67.59-.63,1.17-1.3,1.76-1.99-.05-.25-.15-.48-.28-.66-.4.24-1.2-.14-1.84-.88-.34-.39-.47-.89-.52-1.3-.05-.4,0-.72,0-.72,0,0,1.26.03,1.91.84.65.78.88,1.66.54,2,.12.18.22.39.28.63.53-.62,1.06-1.25,1.62-1.88-.03-.23-.12-.44-.21-.61-.4.22-1.15-.14-1.72-.86-.3-.38-.39-.88-.4-1.28,0-.4.09-.71.09-.71,0,0,.31,0,.69.12.38.11.82.33,1.1.73.54.78.69,1.64.33,1.94.09.16.17.35.21.57.29-.31.57-.62.86-.94.31-.3.6-.62.92-.92.02-.24-.02-.46-.09-.64-.44.19-1.13-.17-1.57-.87-.24-.37-.22-.85-.13-1.24.08-.39.24-.69.24-.69.02-.04,1.21.16,1.6.93.4.76.36,1.53-.05,1.82.07.17.11.38.1.6.57-.56,1.21-1.03,1.82-1.54-.08-.22.07-.52.37-.83.15-.15.35-.31.56-.46.21-.14.45-.27.72-.39,1.07-.47,2.36-.08,2.36-.08,0,0-.13.3-.4.66-.27.36-.69.79-1.25,1.04-1.03.46-1.98.52-2.29.18-.39.31-.77.63-1.15.93.23.07.42.18.57.31.39-.28,1.13.01,1.67.68.54.68.36,1.74.36,1.74,0,0-.27,0-.62-.1-.36-.09-.72-.25-1.02-.57-.55-.6-.79-1.36-.46-1.69-.15-.13-.35-.24-.59-.3-.28.26-.56.51-.83.76-.26.27-.52.53-.78.79.26.06.47.16.65.29.33-.31,1.13-.04,1.78.66.33.35.5.79.61,1.15.1.36.12.63.12.63,0,0-.25,0-.6-.09-.35-.09-.8-.22-1.16-.54-.69-.6-1.05-1.36-.81-1.73-.18-.13-.41-.24-.67-.28-.28.31-.56.6-.83.91h0s0,0,0,0c-.28.32-.56.63-.82.95.27.04.51.14.71.25.32-.35,1.19-.12,1.97.52.4.33.63.79.77,1.16.14.37.18.66.18.66,0,0-.28.02-.67-.02-.39-.04-.89-.16-1.3-.47-.78-.59-1.22-1.36-1.01-1.77-.2-.11-.45-.21-.73-.24-.58.67-1.14,1.33-1.69,1.97.28.02.53.1.75.2.33-.43,1.31-.29,2.22.32.93.62,1.15,1.94,1.15,1.94,0,0-.33.08-.78.09-.45.01-1.01-.06-1.48-.37-.89-.59-1.38-1.41-1.17-1.89-.23-.11-.49-.19-.79-.2-.29.32-.57.63-.86.94v.02s-.02,0-.02,0c-.28.29-.55.58-.82.87.34.09.62.24.86.41.42-.38,1.45,0,2.33.84.9.87.89,2.34.89,2.34,0,0-1.47.06-2.36-.82-.85-.83-1.25-1.81-.95-2.26-.24-.18-.53-.33-.87-.41h0c-.69.72-1.36,1.41-2.04,2.03.35.09.64.25.88.43.47-.39,1.53-.03,2.43.85.45.45.69,1.05.77,1.56.09.5.05.9.05.9,0,0-1.59.11-2.48-.82-.85-.88-1.21-1.92-.87-2.39-.24-.18-.54-.34-.9-.43-.81.76-1.57,1.48-2.34,2.08.37.13.68.32.93.53.55-.42,1.73.03,2.71,1.06.49.52.72,1.24.78,1.82.06.59-.02,1.05-.02,1.05,0,0-.12,0-.31,0-.18-.02-.42-.06-.7-.13-.55-.14-1.23-.42-1.71-.97-.91-1.04-1.27-2.21-.86-2.73-.26-.21-.57-.41-.95-.53-1.66,1.3-3.03,2.36-3.88,3.28"/>
    <polygon class="cls-46" points="112.59 418.66 112.59 353.72 74.97 375.44 74.97 440.38 112.59 418.66"/>
    <polygon class="cls-42" points="77.09 376.67 110.47 357.39 110.47 417.44 77.09 436.71 77.09 376.67"/>
    <polygon class="cls-59" points="82.39 379.73 105.17 366.57 105.17 414.37 82.39 427.53 82.39 379.73"/>
    <path class="cls-42" d="M58.93,326.48c6.02-3.48,10.92-.68,10.92,6.23s-4.9,15.37-10.92,18.84c-6.02,3.48-10.92.68-10.92-6.23s4.9-15.37,10.92-18.84"/>
    <path class="cls-41" d="M58.93,329.56c.31-.18.57-.04.57.32v9.08c0,.36-.25.8-.57.98-.31.18-.56.03-.56-.32v-9.08c0-.36.25-.79.56-.97"/>
    <path class="cls-41" d="M55.18,336.23l4.15,2.37c.22.13.22.54,0,.92-.11.19-.25.34-.4.42s-.29.1-.4.04l-4.15-2.37c-.22-.13-.22-.54,0-.92.22-.38.58-.59.8-.46"/>
    <path class="cls-4" d="M51.07,350.53c.09.04.18.08.26.11.03.01.07.02.1.03.21.07.41.13.63.17.02,0,.03,0,.05.01.15.03.3.05.46.07.05,0,.11,0,.16.01.1,0,.21.01.31.02.06,0,.12,0,.18,0,.08,0,.17,0,.25,0,.07,0,.14,0,.21-.01.07,0,.14-.01.21-.02.08,0,.16-.02.24-.03.07,0,.13-.02.2-.03.09-.01.17-.03.26-.05.06-.01.11-.03.17-.04.09-.02.18-.04.27-.07.06-.01.12-.03.18-.05.1-.03.2-.06.3-.09.05-.02.09-.03.15-.05.14-.05.29-.1.43-.16,0,0,.01,0,.02,0,.15-.06.3-.13.46-.19.05-.02.09-.05.14-.07.11-.05.22-.11.32-.16.05-.03.11-.05.16-.08.15-.08.29-.15.44-.24.33-.19.66-.4.99-.63.02-.01.04-.03.06-.04.3-.21.6-.44.9-.68.03-.03.07-.05.1-.08.29-.23.57-.48.84-.74.03-.03.06-.06.1-.09.28-.26.56-.54.82-.82.02-.02.04-.05.06-.07.29-.3.57-.62.84-.95,0,0,0-.01.01-.02.28-.33.55-.68.8-1.03,0-.01.02-.03.03-.04.23-.31.45-.63.66-.95.14-.21.27-.43.41-.65.11-.18.22-.35.32-.53.05-.09.09-.17.15-.26.17-.31.34-.61.5-.92.02-.03.03-.07.05-.1.19-.38.37-.76.54-1.15,0-.02.01-.04.02-.06.16-.38.32-.76.46-1.15,0-.03.02-.05.03-.07.14-.39.28-.79.4-1.18,0-.02.01-.04.02-.07.11-.38.22-.76.3-1.14,0-.04.02-.07.03-.11.09-.39.17-.78.23-1.17,0,0,0-.01,0-.02.06-.39.11-.78.14-1.17,0-.03,0-.06,0-.09.03-.39.05-.77.05-1.15,0-.38-.02-.74-.05-1.09,0-.03,0-.06,0-.09-.03-.32-.08-.63-.14-.92,0-.04-.01-.08-.02-.12-.06-.29-.13-.56-.21-.82-.02-.05-.03-.1-.05-.15-.08-.25-.18-.49-.28-.71,0-.02-.02-.05-.03-.07-.12-.25-.25-.5-.4-.72-.02-.03-.04-.06-.07-.09-.12-.18-.25-.35-.38-.5-.05-.06-.1-.11-.15-.17-.12-.13-.24-.25-.37-.36-.05-.05-.1-.09-.16-.14-.18-.15-.38-.28-.57-.4h0s0,0,0,0l1.38.8c.2.12.39.25.57.4.06.04.11.09.16.14.13.11.25.23.37.36.05.06.1.11.15.17.13.16.26.32.38.5.02.03.05.06.07.09,0,0,.01.01.02.02.13.21.26.44.37.68,0,0,0,.01.01.02.01.02.02.05.03.07.07.15.14.31.2.47.03.08.05.16.08.24.02.05.03.1.05.15.01.05.03.09.05.13.05.16.09.33.13.51.01.06.02.12.04.18,0,.04.02.08.02.12.01.06.03.12.04.19.03.15.05.31.07.47.01.09.02.18.03.27,0,.03,0,.06,0,.09,0,.04,0,.07.01.11.01.15.02.31.03.47,0,.15.01.31.01.48v.03c0,.15,0,.3,0,.45,0,.16-.01.32-.02.48,0,.07-.01.15-.02.22,0,.03,0,.06,0,.09,0,.05,0,.11-.01.16-.01.16-.03.32-.05.48-.02.17-.04.33-.07.5,0,0,0,.01,0,.02,0,0,0,.01,0,.02-.02.15-.05.31-.08.46-.03.17-.07.34-.11.52-.01.06-.03.13-.04.19-.01.03-.02.07-.03.11-.02.07-.03.15-.05.22-.04.17-.09.35-.14.53-.04.13-.08.26-.11.39,0,.02-.01.04-.02.07,0,.02-.01.04-.02.06-.05.17-.11.34-.16.51-.06.17-.11.34-.18.5-.01.03-.03.07-.04.1-.01.03-.02.05-.03.08-.04.1-.08.21-.12.31-.06.16-.13.32-.19.48-.05.12-.1.23-.15.35,0,.02-.01.04-.03.06,0,.02-.02.04-.03.07-.07.16-.14.32-.22.48-.08.17-.17.35-.25.52-.01.03-.03.05-.04.08-.02.03-.04.07-.05.1-.07.14-.14.28-.21.41-.09.17-.19.34-.28.51-.05.09-.1.17-.15.26-.02.03-.04.07-.06.1-.08.14-.18.28-.27.42-.14.22-.27.44-.41.65-.02.03-.04.07-.07.11-.19.29-.39.57-.6.84-.01.01-.02.03-.03.04,0,0,0,0,0,0-.14.19-.29.39-.44.58-.12.15-.24.3-.36.45,0,0-.01.01-.01.02,0,0,0,0,0,.01-.13.15-.25.3-.38.45-.13.15-.26.29-.39.43-.02.02-.04.04-.06.06-.02.02-.04.05-.06.07-.09.1-.19.2-.28.29-.14.14-.28.28-.42.41-.04.04-.08.08-.13.12-.03.03-.06.06-.09.09-.07.07-.14.13-.21.2-.14.13-.29.26-.44.38-.06.05-.13.1-.19.16-.03.03-.07.05-.1.08-.05.04-.1.08-.15.12-.14.11-.29.22-.44.33-.1.08-.21.15-.31.22-.02.01-.04.03-.06.04-.02.01-.04.03-.06.04-.14.1-.28.19-.42.28-.14.09-.28.17-.42.25-.03.02-.07.04-.1.06-.1.06-.21.12-.31.18-.04.02-.08.04-.12.06-.05.03-.11.06-.16.08-.04.02-.08.04-.12.06-.07.03-.13.06-.2.1-.05.02-.09.05-.14.07-.02,0-.04.02-.06.03-.13.06-.27.12-.4.17h0s0,0-.02,0c-.13.05-.25.1-.38.14-.02,0-.04.01-.05.02-.05.02-.1.03-.14.05-.07.02-.13.04-.2.06-.03.01-.07.02-.1.03-.06.02-.12.03-.17.05-.04.01-.09.03-.13.03-.05.01-.09.02-.14.03-.06.01-.11.03-.17.04-.03,0-.06.01-.09.02-.06,0-.11.02-.17.03-.07.01-.13.02-.2.03-.02,0-.04,0-.07.01-.06,0-.11.01-.17.02-.07,0-.14.02-.21.02-.02,0-.04,0-.06,0-.05,0-.1,0-.15,0-.09,0-.17,0-.25,0-.02,0-.05,0-.07,0-.04,0-.07,0-.11,0-.11,0-.21,0-.31-.02-.03,0-.06,0-.09,0-.02,0-.05,0-.07,0-.16-.02-.31-.04-.46-.07-.01,0-.03,0-.04,0,0,0,0,0,0,0-.22-.04-.43-.1-.63-.17-.02,0-.04,0-.05-.02-.01,0-.03-.01-.04-.02-.09-.03-.18-.07-.26-.11-.04-.02-.09-.03-.13-.05-.12-.06-.25-.12-.37-.19l-1.38-.8c.12.07.25.13.37.19.04.02.09.03.13.05"/>
    <path class="cls-4" d="M45.6,344.5c0-.07,0-.14,0-.21,0-.09,0-.17.01-.26,0-.07.01-.13.01-.2,0-.08.01-.15.02-.23,0-.05,0-.1.01-.15.01-.11.03-.23.04-.34,0-.06.01-.12.02-.19,0-.02,0-.04,0-.06.03-.2.05-.4.09-.6,0,0,0-.01,0-.02,0-.03.01-.07.02-.1.03-.16.05-.32.08-.49,0-.03.01-.06.02-.1.01-.08.03-.16.05-.24.02-.09.04-.19.06-.29.01-.06.03-.11.04-.17.02-.09.04-.17.06-.26.01-.07.03-.13.05-.2.02-.08.04-.17.07-.25.02-.09.04-.17.07-.26.01-.04.02-.08.03-.12.03-.12.07-.24.11-.36.02-.07.04-.14.06-.21,0-.02.01-.04.02-.06.06-.21.13-.41.2-.62,0,0,0,0,0-.01,0-.03.02-.06.03-.09.06-.17.12-.34.18-.51.01-.03.02-.06.03-.09.03-.07.05-.14.08-.21.04-.09.07-.19.11-.29.03-.06.05-.13.08-.19.03-.08.06-.15.09-.23.02-.05.04-.11.07-.16.05-.11.1-.22.15-.34.03-.06.05-.12.08-.17,0-.02.02-.04.02-.06.09-.19.17-.39.27-.58,0,0,0-.02.01-.03.03-.06.06-.11.08-.17.07-.15.14-.29.21-.44.01-.02.03-.05.04-.07.06-.12.12-.24.18-.36.05-.1.1-.19.15-.29.01-.02.02-.03.03-.05.17-.31.34-.62.52-.92.02-.03.03-.05.05-.08.02-.03.04-.06.05-.09.26-.43.52-.86.8-1.28.01-.02.03-.05.04-.07.03-.04.05-.07.08-.11.22-.33.44-.65.68-.97t0,0s.04-.06.06-.08c.15-.19.29-.39.44-.58,0-.01.02-.02.03-.03.12-.15.23-.29.35-.43.03-.04.07-.09.11-.13,0,0,0,0,0,0,.15-.18.31-.37.46-.54,0,0,.01-.01.02-.02.05-.05.09-.1.14-.15.1-.11.21-.23.31-.34.02-.02.03-.04.05-.06.07-.07.14-.14.2-.21.08-.08.15-.17.23-.25.03-.03.05-.05.08-.08.07-.07.15-.15.22-.22.07-.07.13-.13.2-.2.04-.03.07-.07.11-.1.08-.08.16-.15.24-.23.06-.05.12-.11.18-.16.04-.04.09-.08.13-.11.08-.07.17-.15.25-.22.05-.04.1-.09.15-.13.05-.04.11-.09.16-.13.08-.07.16-.13.24-.2.04-.04.08-.07.13-.11.07-.05.13-.1.2-.15.07-.06.15-.12.23-.17.03-.03.06-.05.09-.07.09-.07.18-.13.28-.19.06-.05.13-.09.19-.14.02-.01.03-.03.05-.04.17-.11.34-.23.51-.33,0,0,0,0,0,0,.01,0,.02-.01.03-.02.16-.1.31-.19.47-.29.04-.02.08-.05.12-.07.13-.07.25-.14.38-.21.05-.03.1-.05.14-.07.07-.03.13-.07.2-.1.05-.03.1-.05.15-.08.08-.04.17-.08.25-.11.06-.03.11-.06.17-.08.02,0,.05-.02.07-.03.16-.07.32-.14.48-.2,0,0,0,0,0,0,0,0,.01,0,.02,0,.15-.06.3-.12.46-.17.02,0,.05-.01.07-.02.06-.02.12-.04.17-.06.08-.03.16-.05.24-.08.04-.01.08-.02.13-.03.07-.02.14-.04.21-.06.05-.01.11-.03.16-.04.06-.01.12-.03.17-.04.07-.01.14-.03.21-.05.03,0,.07-.01.11-.02.07-.01.13-.02.2-.03.08-.01.16-.03.24-.04.03,0,.06,0,.08-.01.07-.01.14-.01.2-.02.09,0,.17-.02.26-.03.02,0,.05,0,.07,0,.06,0,.11,0,.17,0,.1,0,.21,0,.31,0,.03,0,.05,0,.08,0,.04,0,.09,0,.13,0,.13,0,.25,0,.38.02.04,0,.08,0,.11,0,.03,0,.06,0,.08.01.19.02.37.05.56.08.02,0,.04,0,.05,0,0,0,.01,0,.02,0,.04,0,.08.02.12.03.11.02.22.05.33.08.06.02.11.03.16.05.07.02.14.04.21.07.02,0,.03.02.05.02.11.04.21.08.31.13.05.02.11.04.16.07.15.07.3.15.45.23l1.38.8c-.15-.08-.3-.16-.45-.23-.05-.02-.1-.04-.15-.07-.11-.05-.21-.09-.32-.13-.09-.03-.17-.06-.26-.09-.05-.02-.11-.03-.17-.05-.11-.03-.22-.06-.33-.08-.04-.01-.08-.02-.12-.03-.02,0-.05,0-.07-.01-.18-.03-.37-.06-.56-.08-.07,0-.13-.01-.2-.02-.12,0-.25-.01-.38-.02-.07,0-.14,0-.21,0-.1,0-.2,0-.31,0-.08,0-.16,0-.25.01-.08,0-.17.02-.25.03-.1.01-.19.02-.28.03-.08.01-.16.03-.25.04-.1.02-.2.04-.31.06-.07.01-.14.03-.21.05-.11.03-.22.05-.33.08-.07.02-.14.04-.21.06-.12.03-.24.07-.36.11-.06.02-.12.04-.17.06-.17.06-.35.12-.52.19,0,0-.01,0-.02,0-.18.07-.37.15-.55.24-.06.02-.11.05-.17.08-.13.06-.26.13-.4.19-.06.03-.13.07-.19.1-.17.09-.35.19-.52.29-.2.11-.4.23-.59.36-.01,0-.02.01-.03.02-.19.12-.38.24-.56.37-.06.04-.13.09-.19.14-.12.09-.25.18-.37.27-.08.06-.15.12-.23.17-.11.09-.22.17-.33.26-.08.06-.16.13-.24.2-.11.09-.21.18-.32.27-.08.07-.16.14-.25.22-.1.09-.2.18-.3.28-.08.08-.16.15-.25.23-.1.1-.21.2-.31.3-.07.07-.15.15-.22.22-.11.11-.21.22-.32.33-.07.07-.13.14-.2.21-.12.13-.24.26-.36.4-.05.05-.09.1-.14.15-.17.19-.33.38-.49.57-.04.04-.07.09-.1.13-.13.15-.25.31-.38.47-.15.19-.29.38-.44.57-.03.03-.05.07-.07.1-.23.32-.46.64-.68.97-.04.06-.08.12-.12.18-.28.42-.55.84-.8,1.28-.03.05-.07.11-.1.16-.18.31-.35.62-.52.93-.06.11-.12.23-.18.34-.06.12-.12.24-.18.36-.09.17-.17.34-.25.51-.03.06-.05.11-.08.17-.1.22-.2.44-.3.67-.03.06-.05.12-.08.18-.07.17-.14.33-.21.5-.03.08-.06.15-.09.23-.06.16-.13.32-.19.48-.03.07-.05.14-.08.21-.08.2-.15.41-.22.61,0,.03-.02.05-.03.08-.08.23-.15.46-.22.69-.02.07-.04.15-.07.22-.05.16-.09.32-.14.48-.02.09-.05.17-.07.26-.04.15-.07.3-.11.44-.02.09-.04.17-.06.26-.03.15-.07.3-.1.46-.02.08-.03.16-.05.24-.04.19-.07.39-.1.58,0,.03-.01.07-.02.1-.04.23-.07.45-.1.68,0,.06-.01.12-.02.19-.02.16-.04.33-.05.49,0,.08-.01.15-.02.23-.01.15-.02.31-.03.46,0,.07,0,.15,0,.22,0,.21-.01.43-.01.64,0,.22,0,.44.02.66,0,.06,0,.12.01.18,0,.15.02.29.03.44,0,.09.02.17.03.25.02.12.03.24.04.36.01.09.03.18.04.26.02.11.04.22.06.33.02.1.04.19.06.29.02.1.04.19.07.29.03.11.05.22.09.33.02.09.05.17.07.25.04.13.08.25.13.38.02.07.05.14.07.21.08.21.16.41.26.61,0,.02.02.03.03.05.13.26.26.51.41.74.01.02.02.04.04.06.12.19.25.37.39.54.03.04.07.08.1.12.13.16.27.31.41.45.01.01.02.03.03.04.15.15.32.29.48.42.04.03.08.06.12.09.17.13.35.25.53.35h0,0l-1.38-.8c-.18-.11-.36-.23-.53-.35-.04-.03-.08-.06-.12-.09-.17-.13-.33-.27-.48-.42-.01-.01-.02-.03-.03-.04-.14-.14-.28-.29-.41-.45-.03-.04-.07-.08-.1-.12-.14-.17-.27-.35-.39-.54,0,0,0-.01-.01-.02,0-.01-.02-.03-.02-.04-.15-.23-.28-.48-.41-.74,0-.01-.01-.02-.02-.04,0,0,0-.01,0-.02-.09-.19-.18-.4-.26-.61,0-.02-.02-.04-.02-.05-.02-.05-.03-.1-.05-.15-.04-.12-.09-.25-.12-.38-.01-.03-.02-.07-.03-.1-.01-.05-.02-.1-.04-.15-.03-.11-.06-.22-.09-.33-.01-.05-.03-.09-.04-.14,0-.05-.02-.1-.03-.15-.02-.09-.04-.19-.06-.29,0-.05-.02-.1-.03-.15-.01-.06-.02-.12-.03-.17-.01-.09-.03-.17-.04-.26,0-.05-.01-.09-.02-.14-.01-.07-.01-.15-.02-.23,0-.08-.02-.16-.03-.25,0-.03,0-.07-.01-.1,0-.11-.01-.23-.02-.34,0-.06,0-.12,0-.18,0-.01,0-.03,0-.05,0-.19-.01-.38-.01-.58v-.03c0-.18,0-.36,0-.54,0-.03,0-.07,0-.11"/>
  </g>
  <g class="cls-92">
    <rect class="cls-2" x="305.13" y="324.47" width=".46" height="29.09"/>
    <rect class="cls-67" x="303.87" y="324.47" width="1.26" height="29.09"/>
    <rect class="cls-21" x="302.61" y="324.47" width="1.26" height="29.09"/>
    <rect class="cls-65" x="301.34" y="324.47" width="1.27" height="29.09"/>
    <rect class="cls-71" x="300.08" y="324.47" width="1.26" height="29.09"/>
    <rect class="cls-7" x="298.81" y="324.47" width="1.27" height="29.09"/>
    <rect class="cls-27" x="297.55" y="324.47" width="1.26" height="29.09"/>
    <rect class="cls-68" x="296.29" y="324.47" width="1.26" height="29.09"/>
    <rect class="cls-49" x="295.02" y="324.47" width="1.27" height="29.09"/>
    <rect class="cls-75" x="293.76" y="324.47" width="1.26" height="29.09"/>
    <rect class="cls-79" x="292.5" y="324.47" width="1.26" height="29.09"/>
    <rect class="cls-24" x="291.24" y="324.47" width="1.27" height="29.09"/>
    <rect class="cls-77" x="289.97" y="324.47" width="1.26" height="29.09"/>
    <rect class="cls-29" x="288.71" y="324.47" width="1.26" height="29.09"/>
    <rect class="cls-64" x="287.44" y="324.47" width="1.26" height="29.09"/>
    <rect class="cls-47" x="286.18" y="324.47" width="1.26" height="29.09"/>
    <rect class="cls-53" x="285.73" y="324.47" width=".46" height="29.09"/>
    <rect class="cls-42" x="307.66" y="321.4" width=".02" height="35.22"/>
    <rect class="cls-42" x="306.4" y="321.4" width="1.26" height="35.22"/>
    <rect class="cls-2" x="305.13" y="321.4" width="1.26" height="35.22"/>
    <rect class="cls-67" x="303.87" y="321.4" width="1.26" height="35.22"/>
    <rect class="cls-21" x="302.61" y="321.4" width="1.26" height="35.22"/>
    <rect class="cls-65" x="301.34" y="321.4" width="1.27" height="35.22"/>
    <rect class="cls-71" x="300.08" y="321.4" width="1.26" height="35.22"/>
    <rect class="cls-7" x="298.81" y="321.4" width="1.27" height="35.22"/>
    <rect class="cls-27" x="297.55" y="321.4" width="1.26" height="35.22"/>
    <rect class="cls-68" x="296.29" y="321.4" width="1.26" height="35.22"/>
    <rect class="cls-49" x="295.02" y="321.4" width="1.27" height="35.22"/>
    <rect class="cls-75" x="293.76" y="321.4" width="1.26" height="35.22"/>
    <rect class="cls-79" x="292.5" y="321.4" width="1.26" height="35.22"/>
    <rect class="cls-24" x="291.24" y="321.4" width="1.27" height="35.22"/>
    <rect class="cls-77" x="289.97" y="321.4" width="1.26" height="35.22"/>
    <rect class="cls-29" x="288.71" y="321.4" width="1.26" height="35.22"/>
    <rect class="cls-64" x="287.44" y="321.4" width="1.26" height="35.22"/>
    <rect class="cls-47" x="286.18" y="321.4" width="1.26" height="35.22"/>
    <rect class="cls-53" x="284.92" y="321.4" width="1.26" height="35.22"/>
    <rect class="cls-76" x="283.65" y="321.4" width="1.26" height="35.22"/>
    <rect class="cls-76" x="283.63" y="321.4" width=".02" height="35.22"/>
  </g>
  <g class="cls-83">
    <polygon class="cls-12" points="186.93 556.32 114.89 597.9 209.42 650.86 281.46 609.28 186.93 556.32"/>
    <polygon class="cls-36" points="286.15 237.31 286.15 424.9 291.81 428.17 291.96 233.95 286.15 237.31"/>
    <polygon class="cls-50" points="298.89 236.49 298.89 424.08 291.81 428.17 291.81 240.58 298.89 236.49"/>
    <polygon class="cls-56" points="291.81 240.58 298.89 236.49 293.23 233.22 286.15 237.31 291.81 240.58"/>
    <polygon class="cls-36" points="361.77 276.97 298.89 240.94 293.23 244.2 361.77 283.69 361.77 276.97"/>
    <polygon class="cls-50" points="356.12 288.41 293.23 252.37 293.23 244.2 356.12 280.24 356.12 288.41"/>
    <polygon class="cls-56" points="356.12 280.24 356.12 288.41 361.77 285.14 361.77 276.97 356.12 280.24"/>
    <polygon class="cls-36" points="147.05 320.02 285.93 239.73 291.58 243 147.05 326.73 147.05 320.02"/>
    <polygon class="cls-50" points="152.7 331.45 291.58 251.17 291.58 243 152.7 323.28 152.7 331.45"/>
    <polygon class="cls-56" points="152.7 323.28 152.7 331.45 147.04 328.19 147.04 320.02 152.7 323.28"/>
    <polygon class="cls-36" points="147.05 440.6 285.93 360.32 291.58 363.58 147.05 447.32 147.05 440.6"/>
    <polygon class="cls-50" points="152.7 452.04 291.58 371.76 291.58 363.58 152.7 443.87 152.7 452.04"/>
    <polygon class="cls-56" points="152.7 443.87 152.7 452.04 147.04 448.77 147.04 440.6 152.7 443.87"/>
    <polygon class="cls-36" points="356.04 277.54 356.04 465.13 361.7 468.4 361.85 274.18 356.04 277.54"/>
    <polygon class="cls-50" points="368.77 276.72 368.77 464.31 361.7 468.4 361.7 280.81 368.77 276.72"/>
    <polygon class="cls-56" points="361.7 280.81 368.77 276.72 363.11 273.45 356.04 277.54 361.7 280.81"/>
    <polygon class="cls-36" points="143.49 319.32 143.49 506.91 149.14 510.18 149.3 315.96 143.49 319.32"/>
    <polygon class="cls-50" points="156.22 318.5 156.22 506.1 149.14 510.18 149.14 322.59 156.22 318.5"/>
    <polygon class="cls-56" points="149.14 322.59 156.22 318.5 150.56 315.23 143.49 319.32 149.14 322.59"/>
    <polygon class="cls-50" points="143.44 462.56 143.44 480.18 220.09 524.01 220.09 506.39 143.44 462.56"/>
    <polygon class="cls-50" points="361.18 424.88 361.18 442.5 220.09 524.01 220.09 506.4 361.18 424.88"/>
    <polygon class="cls-56" points="220.09 506.39 361.18 424.88 284.52 381.05 143.44 462.56 220.09 506.39"/>
    <polygon class="cls-42" points="350.28 425.13 282.91 386.59 152.72 461.81 220.09 500.35 350.28 425.13"/>
    <path class="cls-42" d="M350.28,425.13s-2.39-7.67-14.44-14.63c-12.05-6.96-48.23-29.76-58.7-28.65-10.48,1.11-120.81,64.91-124.41,71.89-3.6,6.97,0,8.07,0,8.07l197.56-36.68Z"/>
    <polygon class="cls-50" points="143.44 337.79 143.44 355.41 220.09 399.24 220.09 381.62 143.44 337.79"/>
    <polygon class="cls-36" points="143.49 319.32 143.49 506.91 149.14 510.18 149.3 315.96 143.49 319.32"/>
    <polygon class="cls-50" points="361.18 300.1 361.18 317.73 220.09 399.24 220.09 381.62 361.18 300.1"/>
    <polygon class="cls-56" points="220.09 381.62 361.18 300.11 284.52 256.28 143.44 337.79 220.09 381.62"/>
    <polygon class="cls-36" points="143.49 319.32 143.49 506.91 149.14 510.18 149.3 315.96 143.49 319.32"/>
    <polygon class="cls-42" points="350.28 300.36 282.91 261.82 152.72 337.04 220.09 375.58 350.28 300.36"/>
    <path class="cls-42" d="M350.28,300.36s-2.39-7.67-14.44-14.63c-12.05-6.96-48.23-29.76-58.7-28.65-10.48,1.11-120.81,64.91-124.41,71.89-3.6,6.97,0,8.07,0,8.07l197.56-36.68Z"/>
    <path class="cls-38" d="M327.1,393.63s-30.86-22.11-38.08-20.46c-7.22,1.64-17.56,12.57-21.61,19.44-4.05,6.86,29.95,25.43,39.11,27.48,9.16,2.04,26.89-22.1,20.59-26.45"/>
    <polygon class="cls-36" points="254.04 379.63 253.9 487.26 248.24 484 248.24 382.98 254.04 379.63"/>
    <polygon class="cls-50" points="260.97 373.57 260.97 500.57 253.89 504.66 253.89 377.65 260.97 373.57"/>
    <path class="cls-51" d="M329.29,270.51s-33.08-23.7-40.82-21.93c-7.74,1.76-18.82,13.48-23.16,20.83-4.34,7.36,32.09,27.26,41.91,29.45,9.82,2.19,28.82-23.68,22.07-28.35"/>
    <polygon class="cls-36" points="219.31 358.46 156.22 322.28 150.57 325.54 219.31 365.17 219.31 358.46"/>
    <polygon class="cls-50" points="213.66 369.89 150.57 333.72 150.57 325.54 213.66 361.72 213.66 369.89"/>
    <polygon class="cls-56" points="213.66 361.72 213.66 369.89 219.31 366.63 219.31 358.46 213.66 361.72"/>
    <polygon class="cls-36" points="361.77 396.81 298.89 360.77 293.23 364.03 361.77 403.52 361.77 396.81"/>
    <polygon class="cls-50" points="356.12 408.24 293.23 372.2 293.23 364.03 356.12 400.07 356.12 408.24"/>
    <polygon class="cls-36" points="219.31 478.29 156.22 442.11 150.57 445.38 219.31 485 219.31 478.29"/>
    <polygon class="cls-50" points="213.66 489.73 150.57 453.55 150.57 445.38 213.66 481.56 213.66 489.73"/>
    <polygon class="cls-56" points="213.66 481.56 213.66 489.73 219.31 486.46 219.31 478.29 213.66 481.56"/>
    <polygon class="cls-36" points="221.4 427.72 248.5 412.56 252.04 414.6 221.4 431.92 221.4 427.72"/>
    <polygon class="cls-50" points="224.95 434.88 252.04 419.72 252.04 414.6 224.95 429.76 224.95 434.88"/>
    <polygon class="cls-56" points="224.95 429.76 224.95 434.88 221.4 432.84 221.4 427.72 224.95 429.76"/>
    <polygon class="cls-36" points="221.4 407.91 248.5 392.74 252.04 394.78 221.4 412.11 221.4 407.91"/>
    <polygon class="cls-50" points="224.95 415.06 252.04 399.9 252.04 394.78 224.95 409.95 224.95 415.06"/>
    <polygon class="cls-56" points="224.95 409.95 224.95 415.06 221.4 413.02 221.4 407.9 224.95 409.95"/>
    <polygon class="cls-36" points="221.4 447.09 248.5 431.92 252.04 433.97 221.4 451.29 221.4 447.09"/>
    <polygon class="cls-50" points="224.95 454.25 252.04 439.09 252.04 433.97 224.95 449.13 224.95 454.25"/>
    <polygon class="cls-56" points="224.95 449.13 224.95 454.25 221.4 452.2 221.4 447.09 224.95 449.13"/>
    <polygon class="cls-36" points="221.4 466.55 248.5 451.39 252.04 453.43 221.4 470.76 221.4 466.55"/>
    <polygon class="cls-50" points="224.95 473.72 252.04 458.55 252.04 453.43 224.95 468.6 224.95 473.72"/>
    <polygon class="cls-56" points="224.95 468.6 224.95 473.72 221.4 471.67 221.4 466.55 224.95 468.6"/>
    <polygon class="cls-36" points="221.4 485.83 248.5 470.66 252.04 472.7 221.4 490.02 221.4 485.83"/>
    <polygon class="cls-50" points="224.95 492.99 252.04 477.82 252.04 472.7 224.95 487.87 224.95 492.99"/>
    <polygon class="cls-56" points="224.95 487.87 224.95 492.99 221.4 490.94 221.4 485.83 224.95 487.87"/>
    <polygon class="cls-36" points="213.98 360.06 213.98 547.66 219.63 550.92 219.79 356.7 213.98 360.06"/>
    <polygon class="cls-50" points="226.71 359.24 226.71 546.83 219.63 550.92 219.63 363.33 226.71 359.24"/>
    <polygon class="cls-56" points="219.63 363.33 226.71 359.24 221.05 355.97 213.98 360.06 219.63 363.33"/>
    <path class="cls-28" d="M219.42,525.17v-19.16l.33-.19,142.09-82.1v19.17l-142.42,82.28ZM220.76,506.78v16.08l139.76-80.74v-16.09l-139.76,80.75Z"/>
    <path class="cls-48" d="M440.29,561.97s9.37,5.7,1.85,11.49c-7.37,5.68-27.04,20.06-39.12,16.49-12.08-3.57-31.28-17.16-32.83-18.96-1.56-1.81-1.4-4.59,4.89-9.22,4.51-3.32,26.46-15.42,27.73-15.87,1.26-.44,5.33-2.83,13.61,1.52,7.81,4.1,23.87,14.55,23.87,14.55"/>
    <path class="cls-43" d="M461.94,552.13c1.04.21,1.62,1.6,2.06,2.42.58,1.09.85,2.57-.46,4.09-1.31,1.51-3.99,1.51-5.02,2.54-.94.94-5.04,3.4-7.99,4.98-1.51.81-4.84.9-5.87-.41-.75-.96-.45-3.62.17-4.17,2.2-1.89,2.65-2.91,4.04-4.34,1.23-1.26,1.07-.94,2.12-2.34.43-.57,2.05-3.37,3.02-2.67l7.94-.1Z"/>
    <path class="cls-15" d="M467.68,490.46c-.92,4.7-.52,9.48-1.08,14.24-.67,5.65.44,12.29-2.16,17.55-.78,1.59-3.33,4.19-6.49,3.92-1.83-.15-5.75-.7-5.48-1.96.27-1.32-.77-3.68-.72-4.85.12-2.2.06-15.32-.08-19.55-.12-3.45-.05-5.59-.02-9.41,0,0-.82-7.12,7.47-5.97,8.29,1.16,8.69,5.34,8.56,6.03"/>
    <path class="cls-15" d="M465.49,521.99c-.46-3.04-.09-5.46-.15-8.85-.04-2.5-13.24.2-13.48,6.24,0,0,2.44,23.55.72,30.99l-.23,1.25s-.4,1.12.5,1.92c.06.05,1.31,1.1,2.97,1.49,2.31.55,5.4.32,7.02-1.42,3.97-4.25,4.2-21.39,2.66-31.62"/>
    <path class="cls-43" d="M480.13,561.37c1.04.21,1.61,1.6,2.05,2.42.59,1.08.98,2.69-.46,4.08-.54.53-3.98,1.51-5.02,2.54-.94.94-5.42,4.02-6.62,4.68-1.07.58-2.22,1.31-3.45,1.42-1.51.14-3.6-.18-4.63-1.5-.75-.96-.8-2.04-.17-2.58,2.2-1.89,3.16-3.85,4.55-5.28,1.23-1.26,1.74-1.61,2.79-3.01.44-.58,2.05-3.37,3.02-2.68l7.94-.1Z"/>
    <path class="cls-15" d="M478.28,495.57c-.53,4.77.83,9.78.66,14.56-.21,5.69,1.45,12.21-.71,17.67-.65,1.65-2.97,4.46-6.15,4.45-1.83,0-5.79-.23-5.62-1.51.17-1.33-1.07-3.6-1.11-4.78-.07-2.2-1.2-15.27-1.7-19.47-.4-3.43-.72-6.56-2.01-9.91,0,0-.96-7.35,7.41-7.4,6.99-.04,9.3,5.69,9.22,6.38"/>
    <path class="cls-15" d="M480.18,531.12c-.71-2.99-.53-5.43-.87-8.81-.24-2.49-13.6-1.23-13.35,4.82,0,0,4.79,25.78,3.68,33.34l-.13,1.26s-.31,1.15.65,1.87c.07.04,1.4.98,3.08,1.24,2.35.36,5.41-.13,6.89-1.99,3.61-4.57,2.43-21.67.05-31.73"/>
    <path class="cls-70" d="M455.25,446.7c-2.24,9.06-5.29,18.14-8.63,17.32-1.25-.31-5.8-2.12-4.98-5.01,1.92-6.75,1.04-10.61,2.45-16.28,2.24-9.06,4.95-10.08,8.29-9.25,3.34.82,5.12,4.16,2.87,13.23"/>
    <path class="cls-19" d="M467.61,433.24c.77.16,8.28,7.72,11.92,11.85,2.66,3.02,2.99,10.17,2.95,11.11-.1,3.05-2.89,19.78-3.36,25.02-.37,4.17.47,9.99.47,12.78,0,2.59-3.79,7.04-11.42,7.04-4.8,0-17.39-2.36-18.16-10.06-.61-6.21,1.05-28.33.19-31.68-.87-3.35-7.4-20.54-2.24-25.11,1.32-1.17,3.98-1.93,5.58-1.84,5.71.28,13.11.71,14.06.91"/>
    <path class="cls-19" d="M454.43,447.9c-.59,3.58-.27,7.26.38,10.84.66,3.63,1.31,5.59,1.72,9.92,2.96-12.12,3.32-12.56,7.15-18.57,1.2-1.89,2.65-3.97,4.02-5.64,1.12-1.36,1.33-3.65.96-5.16-.8-3.22-3.44-3-5.68-3.02-3.49-.03-6.24,1.52-7.63,5.76,0,0-.59,3.9-.91,5.88"/>
    <path class="cls-40" d="M459.02,435.75c-1.71,1.18-2.45,5.61-2.53,7.47-.07,1.68-.09,3.41.47,5.16.24-.93.97-2.33,1.8-2.85,1.02-.65.94-.4,1.54.44.82,1.17,1.29,3.4,2.4,4.2.52-1.4.82-2.61,1.93-3.76,1.02-1.07,1.98-2.14,3.23-3.01,2.87-1.99,3.7-7.56.8-9.55-5.16-3.53-9.64,1.9-9.64,1.9"/>
    <path class="cls-40" d="M481.1,464.3c-1.98,9.53-7.33,20.83-10.61,19.84-1.23-.37-5.98-3.24-4.98-6.2,2.33-6.93,2.08-13.82,3.83-19.64,2.78-9.32,5.92-11.72,9.21-10.74,3.29.98,5.62,2.03,2.56,16.74"/>
    <path class="cls-3" d="M467.75,426.78c0,2.69-.44,4.05-.08,7.29.12,1.03.59,2.34.59,3.79,0,2.45-3.65,3.35-4.42,3.98-1.08.88-2.67,1.31-4.57,3.06-.48-2.04-1.34-3.9-1.04-5.63.24-1.4-.05-3.44.43-4.82.53-1.53,1.97-2.36,1.97-3.96l7.12-3.7Z"/>
    <path class="cls-58" d="M453.73,416.79c.04,1.48-.6,2.9-.92,4.33-.22,1-.32,1.3.07,2.2.59,1.37.43,2.63.09,3.99-.41,1.63.1,3.38.57,5.01.37,1.27.56,2.77,1.72,3.55,2.87,1.92,6.09-.16,9-1.17,2.88-1.01,2.42-5.17,3.31-7.55,1.62-4.31.42-10.34-4.33-12.22-2.12-.84-5.63-1.25-7.8-.41-.76.29-2.25,1.96-1.55,2.78l-.17-.51Z"/>
    <path class="cls-13" d="M469.61,410.17c-2.81-2.5-8.42-1.64-12.99.51-2.28,1.08-2.8,4.25-2.8,4.25-.51.87,1.99,2.73,2.64,3.05,1.33.68,2.71.87,4.17.94.9.05,1.84.02,2.7-.06.56-.06,1.44-.31,1.97-.25,1.37.13,1.41,1.95,1.66,3.03.21.92.53,1.65.61,2.63.04.45-.7,5.41,0,5.53.96.17,4.78-4.42,5.01-6.97.16-1.68,2-8.24-2.97-12.65"/>
    <path class="cls-58" d="M469.87,426.76c-.62,1.59-1.69,2.66-2.38,2.39-.7-.27-1.46-1.79-.84-3.38.62-1.59,2.38-2.66,3.08-2.38.7.27.76,1.78.14,3.37"/>
    <path class="cls-69" d="M336.54,608.34c.13,1.74.29,2.04.36,2.45,0,0,1.05,1.43,3.13,1.28,2.08-.15,3.82-1.07,4.09-1.43.98-1.29,5.75-2.59,7.1-2.96,1.34-.37,2.51-1.63,2.88-2.28.54-.97,1.37-3.41-.13-4.9-1.06-1.04-3.54.94-6.51,1.06-7.53.3-11.2,2.92-10.92,6.77"/>
    <path class="cls-69" d="M344.26,613.69c.21,1.73.39,2.02.49,2.44,0,0,1.12,1.37,3.19,1.12,2.06-.25,3.76-1.26,4.01-1.63.9-1.34,5.62-2.86,6.94-3.31,1.32-.43,2.43-1.75,2.77-2.41.5-.99,1.2-3.47-.37-4.88-1.11-1-3.49,1.1-6.45,1.37-7.5.67-11.03,3.47-10.57,7.3"/>
    <path class="cls-15" d="M349.1,579.5c-1.83-.11-3.36.68-4.63,1.83-.12.67-.23,1.34-.31,2.01-1,8.58,1.45,17.54.33,25.59-.31,2.21,3.4,2.95,5.59,2.58,1.58-.26,3.36-.81,4.05-1.83.9-1.17.68-1.93.68-1.93l-.83-2.37c-.48-3.02.39-13.82,1.54-25.21-1.74-.44-3.96-.54-6.43-.67"/>
    <path class="cls-17" d="M335.31,631.56l-2.64-1.52s-.1-.07-.15-.11c-1.02-.6-2.7.37-3.75,2.16-1.03,1.79-1.05,3.73-.03,4.32.08.04,2.87,1.63,2.87,1.63l2.01-3.48-.03-.02,1.72-2.98Z"/>
    <path class="cls-26" d="M331.47,637.97c1.02.6,2.7-.37,3.75-2.16,1.04-1.79,1.06-3.73.03-4.33-1.02-.6-2.7.37-3.74,2.16-1.05,1.79-1.05,3.73-.03,4.32"/>
    <path class="cls-17" d="M307.62,615.48l-2.64-1.53s-.1-.07-.15-.1c-1.03-.6-2.71.37-3.75,2.16-1.04,1.79-1.05,3.73-.03,4.33.07.04,2.86,1.63,2.86,1.63l2.02-3.48-.03-.02,1.72-2.98Z"/>
    <path class="cls-26" d="M303.78,621.89c1.02.6,2.7-.37,3.74-2.16,1.05-1.79,1.06-3.74.03-4.33-1.03-.6-2.71.37-3.75,2.16-1.04,1.79-1.06,3.73-.03,4.33"/>
    <path class="cls-17" d="M335.16,615.92l-2.64-1.53c-.05-.04-.1-.07-.15-.11-1.02-.6-2.7.37-3.74,2.16-1.04,1.79-1.06,3.73-.03,4.32.07.04,2.87,1.63,2.87,1.63l2.01-3.49h-.03s1.72-2.99,1.72-2.99Z"/>
    <path class="cls-26" d="M331.32,622.34c1.02.59,2.7-.37,3.74-2.17,1.04-1.79,1.06-3.73.03-4.33-1.03-.6-2.7.37-3.74,2.17-1.04,1.79-1.06,3.73-.03,4.33"/>
    <path class="cls-17" d="M307.64,631.3l-2.64-1.52s-.1-.07-.16-.1c-1.02-.6-2.7.37-3.74,2.16-1.04,1.79-1.05,3.73-.03,4.33.08.04,2.87,1.62,2.87,1.62l2.01-3.48-.03-.02,1.73-2.99Z"/>
    <path class="cls-26" d="M303.79,637.72c1.03.6,2.7-.37,3.75-2.16,1.04-1.79,1.06-3.73.03-4.33-1.02-.6-2.7.38-3.74,2.16-1.04,1.79-1.05,3.73-.03,4.33"/>
    <polygon class="cls-26" points="334.62 630.82 334.62 628.34 301.24 612.06 301.24 614.54 332.03 632.31 334.62 630.82"/>
    <polygon class="cls-26" points="301.04 630.82 301.04 628.34 334.41 612.06 334.41 614.54 303.63 632.31 301.04 630.82"/>
    <polygon class="cls-17" points="334.62 628.34 303.83 610.57 301.24 612.06 332.03 629.83 334.62 628.34"/>
    <polygon class="cls-17" points="301.04 628.34 331.83 610.57 334.41 612.06 303.63 629.83 301.04 628.34"/>
    <path class="cls-26" d="M319.89,621.78h0v-25h-4.65v25c0,.73,1.04,1.33,2.32,1.34,1.28,0,2.32-.59,2.33-1.33h0Z"/>
    <path class="cls-26" d="M292.55,591.32s-7.82,4.76-1.55,9.61c6.15,4.75,22.58,16.75,32.67,13.77,10.09-2.98,26.13-14.33,27.43-15.84,1.3-1.51,1.17-3.84-4.09-7.7-3.76-2.78-22.1-12.87-23.16-13.25-1.05-.38-4.45-2.37-11.38,1.26-6.53,3.43-19.94,12.15-19.94,12.15"/>
    <path class="cls-14" d="M345.77,571.23c-.77-1.08-3.12-2.24-5.86-1.56-14.68,5.23-30.83,10.52-30.83,10.52-5.19,2.28,2.4,18.1,4.7,18.54,12.54,2.37,27.57-18.48,30.38-19.12,1.1-.25,1.57.09,2.65-.29,1.07-5.41.04-6.55-1.04-8.09"/>
    <path class="cls-15" d="M353.98,575.9c-.76-1.08-3.12-2.24-5.86-1.56-14.68,5.23-30.83,10.52-30.83,10.52-5.19,2.28,2.4,18.1,4.7,18.54,12.54,2.38,27.57-18.48,30.39-19.11,1.1-.25,1.57.09,2.65-.29,1.07-5.41.04-6.56-1.05-8.1"/>
    <path class="cls-26" d="M382.16,655.45h0v-68.78h-4.37v68.78c0,.69.97,1.25,2.18,1.25,1.21,0,2.19-.55,2.19-1.24h0Z"/>
    <path class="cls-26" d="M290.16,600.8h0v-56.55h-4.58v56.55c0,.72,1.02,1.32,2.29,1.32,1.26,0,2.29-.58,2.29-1.3v-.02Z"/>
    <path class="cls-26" d="M483.96,596.28h0v-62.57h-4.37v62.57c0,.68.98,1.25,2.18,1.26,1.21,0,2.18-.55,2.18-1.25h0Z"/>
    <polygon class="cls-17" points="329.55 492.54 329.55 501.12 329.55 502.31 329.55 510.89 325.37 508.48 325.37 499.9 325.37 498.71 325.37 490.13 329.55 492.54"/>
    <polygon class="cls-26" points="333.72 490.12 333.72 498.69 333.72 499.88 333.72 508.47 329.55 510.87 329.55 502.29 329.55 501.11 329.55 492.53 333.72 490.12"/>
    <polygon class="cls-17" points="329.55 502 329.55 510.59 329.55 511.77 329.55 520.35 325.37 517.94 325.37 509.36 325.37 508.18 325.37 499.59 329.55 502"/>
    <polygon class="cls-26" points="333.72 499.58 333.72 508.16 333.72 509.35 333.72 517.93 329.55 520.34 329.55 511.76 329.55 510.57 329.55 502 333.72 499.58"/>
    <polygon class="cls-6" points="329.55 492.53 325.37 490.11 329.55 487.71 333.72 490.11 329.55 492.53"/>
    <path class="cls-26" d="M328.55,448.73s-9.12,2.24-11.29,12.31c-.9,4.19-10.84,41.19-.22,48.03,10.63,6.83,28.11-5.87,29.16-11.46,2.19-11.67.01-57.4-17.66-48.88"/>
    <path class="cls-17" d="M333.37,558.56l2.65-1.53s.09-.07.15-.1c1.03-.6,2.71.37,3.75,2.16,1.04,1.79,1.05,3.73.03,4.33-.07.04-2.87,1.63-2.87,1.63l-2.01-3.48h.03s-1.72-3-1.72-3Z"/>
    <path class="cls-26" d="M337.21,564.98c-1.02.6-2.7-.37-3.74-2.16-1.04-1.79-1.06-3.73-.03-4.33,1.02-.6,2.7.37,3.74,2.16,1.04,1.79,1.06,3.73.03,4.33"/>
    <path class="cls-17" d="M361.06,542.48l2.65-1.52s.1-.07.15-.11c1.03-.6,2.71.37,3.75,2.16,1.04,1.79,1.06,3.73.03,4.32-.08.04-2.87,1.63-2.87,1.63l-2.01-3.48.03-.02-1.72-2.98Z"/>
    <path class="cls-26" d="M364.9,548.89c-1.03.6-2.71-.37-3.74-2.16-1.04-1.79-1.06-3.74-.03-4.33,1.02-.6,2.7.37,3.74,2.16,1.04,1.79,1.06,3.73.03,4.32"/>
    <path class="cls-17" d="M333.52,542.92l2.65-1.52s.09-.08.15-.11c1.02-.59,2.7.38,3.74,2.16,1.04,1.79,1.06,3.73.03,4.33-.07.04-2.87,1.62-2.87,1.62l-2.01-3.48h.03s-1.73-3-1.73-3Z"/>
    <path class="cls-26" d="M337.36,549.33c-1.02.61-2.7-.37-3.74-2.16-1.04-1.79-1.06-3.73-.03-4.33,1.02-.6,2.7.37,3.74,2.16,1.05,1.79,1.06,3.73.03,4.32"/>
    <path class="cls-17" d="M361.05,558.3l2.64-1.52s.1-.07.15-.1c1.02-.6,2.71.37,3.75,2.16,1.04,1.79,1.06,3.73.03,4.32-.08.05-2.87,1.63-2.87,1.63l-2.01-3.48.03-.02-1.73-2.99Z"/>
    <path class="cls-26" d="M364.89,564.72c-1.02.6-2.7-.37-3.75-2.16-1.04-1.79-1.06-3.73-.03-4.32,1.02-.6,2.7.37,3.74,2.16,1.04,1.79,1.06,3.73.03,4.32"/>
    <polygon class="cls-26" points="334.07 557.82 334.07 555.34 367.44 539.06 367.44 541.54 336.65 559.32 334.07 557.82"/>
    <polygon class="cls-26" points="367.64 557.82 367.64 555.34 334.26 539.06 334.26 541.54 365.05 559.32 367.64 557.82"/>
    <polygon class="cls-17" points="334.07 555.34 364.85 537.57 367.44 539.06 336.65 556.84 334.07 555.34"/>
    <polygon class="cls-17" points="367.64 555.34 336.86 537.57 334.26 539.06 365.05 556.84 367.64 555.34"/>
    <path class="cls-26" d="M348.8,548.78h0v-25h4.65v25c0,.73-1.04,1.33-2.32,1.34-1.28,0-2.33-.59-2.33-1.32,0,0,0-.01,0-.01"/>
    <path class="cls-26" d="M373.94,516.69s7.82,4.76,1.54,9.61c-6.14,4.74-22.58,16.75-32.67,13.77-10.1-2.98-23.94-12.7-25.24-14.2-1.3-1.5-1.17-3.84,4.08-7.7,3.77-2.77,22.11-12.87,23.16-13.25,1.05-.37,4.45-2.37,11.38,1.26,6.53,3.43,19.93,12.15,19.93,12.15l-2.19-1.63Z"/>
    <path class="cls-3" d="M349.11,467.35c4.83,8.51,10.85,14.73,14.22,20.28.67,1.11,6.31-5.22,4.67-7.9-3.83-6.27-8.01-13.28-11.03-18.6-4.83-8.51-5.91-9.52-8.92-7.82-3,1.7-3.76,5.52,1.06,14.03"/>
    <path class="cls-10" d="M346.62,467.01c.67,2.54,3.49,1.89,5.6,1.89,2.81,0,5.32-1.25,7.01-3.21-.18-.79-.37-1.57-.56-2.33-2.4-9.48-5.94-10.68-9.28-9.84-3.31.84-5.05,4.26-2.78,13.49"/>
    <path class="cls-15" d="M335.06,456.88c-.78.17-9,4.3-12.65,8.44-2.68,3.04-3.01,10.22-2.98,11.17.11,3.07,4.33,21.71,4.98,25.87.65,4.16.15,8.73.15,11.54,0,2.61-.8,10.38-.57,11.64.79,4.18,11.69,3.34,13.79,3.22,6.74-.4,15.21-5.51,14.51-8.8-2.01-9.47-1.27-37-.4-40.36.86-3.36,7.44-20.65,2.25-25.25-1.33-1.17-4-1.94-5.61-1.86-5.74.28-12.51,4.19-13.48,4.38"/>
    <path class="cls-3" d="M334.26,446.91c0,2.71.45,4.07.08,7.33-.12,1.04-.59,2.36-.59,3.81,0,2.46,2.68,3.52,4.04,4.22,1.24.64,6.34-1.07,6.05-2.81-.24-1.41.05-3.46-.43-4.85-.54-1.53-1.99-2.37-1.99-3.98l-7.16-3.72Z"/>
    <path class="cls-58" d="M344.12,435.83c.22,1.48,1.1,2.77,1.66,4.13.39.96.54,1.24.31,2.2-.35,1.47.03,2.68.61,3.97.68,1.55.48,3.36.3,5.06-.15,1.32-.08,2.84-1.1,3.81-2.52,2.4-6.06.9-9.12.39-3.02-.5-3.28-4.71-4.59-6.92-2.34-3.98-2.2-10.17,2.18-12.85,1.96-1.19,5.36-2.2,7.66-1.76.8.15,2.56,1.55,2.01,2.49l.08-.54Z"/>
  </g>
  <g class="cls-102">
    <rect class="cls-8" x="280.35" y="425.71" width="29.17" height="29.45" transform="translate(-174.21 193.71) rotate(-28.45)"/>
  </g>
  <g class="cls-93">
    <path class="cls-58" d="M329.86,448.49c.89,1.47,2.13,2.34,2.78,1.96.64-.39,1.14-2.02.25-3.49-.89-1.47-2.83-2.22-3.46-1.84-.65.39-.45,1.9.44,3.37"/>
    <path class="cls-43" d="M431.83,609.97c.43,1.01,1.17,6,.72,6.86-.59,1.14-1.7,2.24-3.78,2.01-2.07-.23-3.64-2.54-5.13-2.81-1.36-.25-5.9-2.33-8.98-3.93-1.59-.82-3.62-3.62-3.09-5.28.38-1.21,2.84-2.52,3.67-2.3,2.92.77,4.06.55,6.1.91,1.81.32,1.44.36,3.26.45.75.04,4.1-.23,4.07,1.02l3.17,3.08Z"/>
    <path class="cls-18" d="M433.37,579.27c-.54-3.16-.21-5.69-.33-9.21-.09-2.61-13.77.47-13.9,6.76,0,0,3.01,24.46,1.35,32.24l-.22,1.29s-.39,1.18.55,1.99c.07.04,1.39,1.12,3.12,1.5,2.42.53,5.63.22,7.28-1.62,4.05-4.51,3.95-22.35,2.14-32.96"/>
    <path class="cls-43" d="M409.13,619.04c.17,1.09,1.39,5.09-.4,8.44-.6,1.14-2.26,1.94-4.15,1.05-.71-.33-2.93-3.33-4.32-3.95-1.26-.56-5.91-3.79-6.99-4.73-.96-.83-2.09-1.67-2.65-2.83-.69-1.42-1.14-3.57-.24-5.06.65-1.08,1.69-1.52,2.44-1.11,2.66,1.45,4.92,1.66,6.82,2.49,1.68.73,2.21,1.09,3.95,1.61.72.21,5.52,4.1,5.52,4.1"/>
    <path class="cls-15" d="M419.25,588.88c.25-3.19,1.2-5.56,1.95-9,.55-2.54-12.93-5.27-14.61.79,0,0-2.99,25.51-6.52,32.64l-.53,1.21s-1.31,2.32-.6,3.34c.06.07,1.54,2.36,3.13,3.15,2.21,1.11,7.23,2.43,8.27.19,3.45-7.42,8.05-21.58,8.91-32.31"/>
    <path class="cls-61" d="M413.76,623.73s-7.83,4.76-1.54,9.6c6.15,4.74,22.59,16.75,32.67,13.77,10.1-2.98,26.13-14.32,27.43-15.83,1.31-1.51,1.17-3.84-4.08-7.7-3.77-2.77-22.11-12.87-23.16-13.25-1.05-.37-4.45-2.37-11.38,1.26-6.53,3.43-19.94,12.15-19.94,12.15"/>
    <path class="cls-17" d="M459.69,634.42l-2.64-1.53s-.1-.07-.15-.1c-1.03-.6-2.7.36-3.74,2.16-1.04,1.79-1.06,3.73-.03,4.33.08.04,2.86,1.62,2.86,1.62l2.01-3.48h-.03s1.72-3,1.72-3Z"/>
    <path class="cls-26" d="M455.85,640.84c1.02.6,2.7-.37,3.74-2.16,1.04-1.79,1.06-3.73.03-4.33-1.02-.6-2.71.37-3.75,2.16-1.04,1.79-1.06,3.73-.03,4.33"/>
    <path class="cls-17" d="M431.99,618.34l-2.64-1.53s-.09-.07-.15-.11c-1.02-.6-2.7.38-3.75,2.16-1.04,1.79-1.05,3.73-.03,4.32.08.05,2.86,1.63,2.86,1.63l2.01-3.48h-.03s1.72-3,1.72-3Z"/>
    <path class="cls-26" d="M428.15,624.76c1.02.59,2.7-.38,3.74-2.17,1.05-1.79,1.06-3.73.03-4.32-1.02-.6-2.7.37-3.74,2.16-1.04,1.79-1.06,3.73-.03,4.33"/>
    <path class="cls-17" d="M459.54,618.78l-2.64-1.53c-.05-.04-.1-.07-.15-.1-1.03-.6-2.7.37-3.75,2.16-1.04,1.79-1.05,3.73-.03,4.32.08.04,2.87,1.63,2.87,1.63l2.01-3.49h-.03s1.73-2.99,1.73-2.99Z"/>
    <path class="cls-26" d="M455.69,625.2c1.02.6,2.7-.37,3.75-2.16,1.04-1.8,1.05-3.74.03-4.33-1.03-.6-2.7.37-3.74,2.16-1.04,1.79-1.06,3.73-.03,4.33"/>
    <path class="cls-17" d="M432.01,634.16l-2.64-1.52s-.1-.07-.15-.11c-1.02-.59-2.7.37-3.75,2.16-1.04,1.79-1.05,3.73-.03,4.33.08.04,2.87,1.63,2.87,1.63l2.01-3.48-.03-.02,1.72-2.98Z"/>
    <path class="cls-26" d="M428.16,640.58c1.03.6,2.71-.37,3.75-2.16,1.04-1.79,1.05-3.73.03-4.32-1.03-.6-2.7.37-3.75,2.16-1.05,1.79-1.06,3.73-.03,4.33"/>
    <polygon class="cls-26" points="458.99 633.68 458.99 631.2 425.62 614.92 425.62 617.41 456.4 635.17 458.99 633.68"/>
    <polygon class="cls-26" points="425.42 633.68 425.42 631.2 458.79 614.92 458.79 617.41 428.01 635.17 425.42 633.68"/>
    <polygon class="cls-17" points="458.99 631.2 428.21 613.43 425.62 614.92 456.4 632.69 458.99 631.2"/>
    <polygon class="cls-17" points="425.42 631.2 456.2 613.43 458.79 614.92 428.01 632.69 425.42 631.2"/>
    <path class="cls-26" d="M444.26,624.64h0v-25h-4.64v25c0,.73,1.03,1.33,2.32,1.34,1.28,0,2.32-.59,2.33-1.32h0Z"/>
    <path class="cls-26" d="M416.92,594.18s-7.83,4.76-1.54,9.6c6.15,4.74,22.59,16.75,32.67,13.77,10.09-2.98,26.13-14.32,27.43-15.83,1.31-1.51,1.17-3.84-4.08-7.7-3.76-2.77-22.11-12.87-23.16-13.25-1.05-.37-4.45-2.37-11.38,1.26-6.53,3.43-19.94,12.15-19.94,12.15"/>
    <path class="cls-73" d="M445.98,601.08c-3.24-3.81-7.39-6.57-10.9-10.11-4.17-4.21-10.3-7.6-12.9-13.13-.79-1.67-1.26-5.43,1.01-7.83,1.31-1.39,4.29-4.23,5.15-3.19.9,1.07,3.5,1.75,4.42,2.56,1.71,1.51,12.44,9.97,15.97,12.59,2.89,2.14,4.59,3.58,7.68,6.09,0,0,4.07,1.83-2.24,7.83-6.31,6.01-7.72,5.74-8.19,5.2"/>
    <path class="cls-15" d="M434.99,608.29c-3.28-1.85-9.51-5.77-13.34-8.98-4.53-3.81-10.94-6.63-14.04-11.9-.93-1.6-1.75-5.3.3-7.89,1.18-1.5,3.5-3.54,4.83-3.65,2.14-.2,3.64,1.43,4.63,2.15,1.84,1.36,13.29,8.8,17.05,11.09,3.07,1.87,10.95,6.79,14.79,10.48,0,0,2.88,3.89-2.22,6.39-6.53,3.2-11.38,2.68-12.01,2.32"/>
    <path class="cls-15" d="M458.45,588.9c2.24-.92,4.5,3.12,4.35,4.75-.41,4.45-8.49,9.8-12.04,11.66-3.84,2-9.7,4-12.99,3.84-1.65-.08-5.22-1.83-6.04-3.31-1.49-2.66.37-10.38,2.02-13.19.59-1,1.39-1.77,2.33-2.55l22.37-1.21Z"/>
    <polygon class="cls-50" points="380.14 603.26 490.02 539.4 490.02 535.56 388.83 477.14 278.95 541 278.95 544.85 380.14 603.26"/>
    <polygon class="cls-42" points="353.4 550.34 338.73 558.81 358.35 570.14 373.02 561.67 353.4 550.34"/>
    <polygon class="cls-50" points="380.14 603.26 490.02 539.4 490.02 535.56 388.83 477.14 278.95 541 278.95 544.85 380.14 603.26"/>
    <polygon class="cls-56" points="380.14 599.41 490.01 535.55 388.83 477.14 278.96 540.99 380.14 599.41"/>
    <path class="cls-58" d="M405.95,546.37c-.07.61.19,1.15.19,1.76,0,1.08-.56,2.04-.75,3.08-.22,1.15-.22,2.45.21,3.38.56,1.23,1.96,4.24,3.27,4.72,2.94,1.07,3.76-3.84,4.26-5.75,1.03-3.97-1.14-10.77-6.57-9.37l-.61,2.18Z"/>
    <polygon class="cls-15" points="415.65 520.59 430.06 549.55 412.21 559.85 397.8 530.89 415.65 520.59"/>
    <polygon class="cls-42" points="399.39 530.75 414.77 521.87 427.73 547.91 412.35 556.8 399.39 530.75"/>
    <polygon class="cls-34" points="403.73 527.9 410.56 523.97 411.57 526.09 404.74 530.03 403.73 527.9"/>
    <path class="cls-58" d="M411.27,548.45c-.02-.24-.18-.52-.25-.77-1.1.06-1.18,1.27-1.55,2-.37.73-1.05,1.17-1.23,2.02-.21.98.45,1.54.45,2.46,0,.91-.47,1.67-.56,2.58-.2,2.02,2.23,4.04,3.17,1.55.72-1.94.68-3.87-.17-5.69-.52-1.11-.18-1.32.16-2.45.22-.69.45-2.12-.27-2.47-.1.25-.44,1.08-.43,1.33l.68-.56Z"/>
    <path class="cls-35" d="M463.15,544.72c1.78,8.81,3.99,20.37.74,21.02-1.22.25-6.11.62-6.59-2.22-1.11-6.66-4.39-12.14-5.51-17.66-1.78-8.8.16-10.81,3.4-11.47,3.24-.65,6.17,1.52,7.95,10.33"/>
    <path class="cls-35" d="M458.42,565.75c-8.09-2.27-22.15-8.72-21.3-11.55.32-1.05,1.09-4.38,3.76-4.07,4.19.48,13.45,5.52,21.91,7.62,1.85.46,2.93,2.15,2.08,4.97-.85,2.82-.72,4.63-6.45,3.03"/>
    <path class="cls-44" d="M441.06,539.08c-.69.19-4.89,2.18-7.94,6.14-2.24,2.9-2.12,9.41-2.03,10.25.28,2.77,1.7,29.95,1.04,32.41-1.03,3.82-1.76,10.42,3.32,12.4,4.35,1.7,8.37.92,10.25.69,6.07-.76,14.81-5.56,14.29-8.57-.96-5.59-1.22-29.88-.64-32.97.59-3.09,3.59-17.51-.48-23.16-.94-1.31-2.88-2.02-4.33-1.85-5.16.59-12.64,4.43-13.5,4.67"/>
    <path class="cls-59" d="M439.42,559.12c-2.82,10.1-6,23.64-9.37,22.77-1.26-.33-6.68-2.63-5.68-5.85,2.36-7.51,2.08-14.85,3.84-21.16,2.82-10.1,5.66-11.27,9.03-10.4,3.37.86,5,4.55,2.18,14.65"/>
    <path class="cls-59" d="M422.52,581.46c-6.67-5.55-17.02-18.13-14.82-21.12.82-1.13,3.2-4.74,5.61-3.43,3.79,2.06,10.23,11.28,17.32,16.76,1.56,1.2,4.04,1.25,2.74,4.9-1.25,3.5-6.13,6.81-10.85,2.89"/>
    <path class="cls-58" d="M436.97,513.06c.05,1.55-1.1,3.51-1.43,5.02-.23,1.06-.33,1.36.07,2.31.62,1.44.45,2.75.09,4.17-.43,1.71.1,3.53.6,5.23.38,1.33.59,2.91,1.79,3.72,3.01,2.01,6.4.82,9.44-.23,3-1.06,2.5-6.4,3.44-8.89,1.68-4.51.44-10.81-4.53-12.78-2.23-.88-5.89-1.3-8.16-.43-.79.3,1.1,1.03,1.84,1.89h-3.16Z"/>
    <path class="cls-58" d="M441.48,531.02s1.98,5.97.76,7.64c-.47.64,1.93,2.07,4.18,2.12,3.57.07,7.7-1.87,6.49-4.83-.65-1.59-2.36-3.16-1.27-9.62.34-2.03-10.15,4.69-10.15,4.69"/>
    <path class="cls-26" d="M452.43,508.74c-4.67-3.16-10.96-2.73-13.97.78-1.72,2.01-1.79,4.57-1.79,4.57-.53.92,2.03.79,2.64,4.48,3.17,19.07,12.08,12.21,12.37,11.53,2.29-5.43,3.82-4.19,4.88-7.44,1.59-4.92,2.43-9.47-4.12-13.91"/>
    <path class="cls-58" d="M442.31,525.78c-.65,1.67-1.02,3.22-1.75,2.94-.73-.29-1.53-1.87-.87-3.53.65-1.67,1.01-3.26,1.79-3.28,1.48-.03,1.48,2.21.83,3.86"/>
    <path class="cls-59" d="M455.72,535.43c.59,1.03.72,3.26-1.48,5.09-1.79,1.49-3.19,2.51-5.39,2.8-2.53.33-8.32-1.79-9.13-1.88-.82-.09-1.79-.22-2.57-.19,1.3-1.25,2.73-1.23,4.04-3.09.2-.29,1-1.38,1.35-1.46.59-.15.03.72.51,1.14.72.64,1.13.74,2.1,1.1,1.79.67,5.25.46,6.55-.97,1.72-1.9,1.23-3.5.9-4.46,1.86,1.23,2.55.96,3.12,1.93"/>
    <polygon class="cls-17" points="460.72 590.51 460.72 599.09 460.72 600.28 460.72 608.85 464.89 606.44 464.89 597.86 464.89 596.68 464.89 588.1 460.72 590.51"/>
    <polygon class="cls-26" points="458.29 589.1 458.29 598.05 458.29 599.96 458.29 607.45 460.72 608.84 460.72 600.26 460.72 599.08 460.72 590.49 458.29 589.1"/>
    <path class="cls-26" d="M456.87,536.18s-9.13,2.24-11.29,12.31c-.9,4.19-10.84,41.19-.22,48.03,10.63,6.83,28.11-5.87,29.16-11.46,2.19-11.67.02-57.4-17.66-48.88"/>
    <path class="cls-58" d="M321.26,480.52c2.4,9.48,8.34,26.26,11.68,25.4,1.26-.31,5.75-6.72,4.87-9.73-2.04-7.06-3.07-13.73-4.57-19.66-2.4-9.48-5.94-10.68-9.28-9.84-3.35.85-5.1,4.34-2.7,13.82"/>
    <path class="cls-58" d="M334.06,505.96c9.23,1.37,22.07-5.2,28-6.42,1.18-.25,2.65-7.19-.17-6.26-4.92,1.62-17.84,3.8-27.44,2.72-2.1-.24-3.56,1.64-3.76,4.87-.2,3.21.52,4.67,3.38,5.09"/>
    <path class="cls-3" d="M366.9,488.01c8.84-2.98,11.73-15.28,20.54-19.51,2.17-1.04-1.81-8.28-3.74-6.01-2.98,3.52-13.12,11.28-21.71,15.83-1.87.99-1.7,3.73-.42,6.69,1.29,2.95,2.58,3.92,5.32,3"/>
    <polygon class="cls-43" points="363.32 576.1 363.32 577.34 358.54 580.09 350.48 575.44 350.48 574.21 363.32 576.1"/>
    <polygon class="cls-17" points="355.25 571.45 363.32 576.1 358.54 578.86 350.48 574.21 355.25 571.45"/>
    <polygon class="cls-43" points="466.12 534.61 466.12 535.79 470.68 538.42 478.38 533.97 478.38 532.81 466.12 534.61"/>
    <polygon class="cls-17" points="473.81 530.17 466.13 534.61 470.68 537.25 478.38 532.81 473.81 530.17"/>
    <path class="cls-3" d="M368.12,490.92h.02,0s0,0,0,0"/>
    <path class="cls-19" d="M328.28,547.48c2.97,3.73,3.6,29.73-1.68,15.72-2.28-6.06,3.22,14.39,3.8,22.03.4,5.25,1.05,14.25,1.05,14.25-4.64,1.47-11.55-.89-13.52-1.12-6.38-.74-12.44-7-12.84-9.94-1.01-7.33-1.32-7.84,2.86-11.19,4.9-3.93-6.98-26.86-.87-36.5.86-1.36,3.03-1.97,4.55-1.81,5.42.58,13.53,4.66,16.65,8.57"/>
    <path class="cls-40" d="M323.65,559.7c2.5,7.07,5.96,18.85,8.45,17.97.93-.32,3.91-2.71,3.03-4.95-2.05-5.25-1.68-9.05-2.35-13.69-1.34-9.25-4.16-12.41-6.65-11.53-2.5.88-4.99,4.44-2.48,12.2"/>
    <path class="cls-58" d="M324.71,520.24c-.04,1.39.99,3.14,1.29,4.49.21.95-.46,4.54-.14,5.81.38,1.54-.1,3.16-.54,4.69-.34,1.2-.61,2.48-1.61,3.33-1.23,1.04-5.86-.56-8.59-1.51-2.7-.94-2.11-4.44-2.95-6.68-1.52-4.04-.39-9.69,4.06-11.45,1.99-.79,5.27-1.17,7.31-.4.71.27-.98.94-1.64,1.7h2.83Z"/>
    <path class="cls-58" d="M320.71,536.15s-1.04,2.5,0,5.25c.25.64-.32,2.41-2.2,2.84-2.99.69-6.8-.21-6.3-2.91.27-1.45,1.42-3.07-.63-8.3-.64-1.64,9.13,3.11,9.13,3.11"/>
    <path class="cls-26" d="M311.11,515.68c5.76-1.98,9.56-1.76,12.25,1.39,1.54,1.79,1.61,4.1,1.61,4.1.47.82-1.82.7-2.37,4.02-2.84,17.09-10.82,10.94-11.08,10.33-2.05-4.86-3.42-3.75-4.37-6.67-1.43-4.4-1.67-10.71,3.96-13.16"/>
    <path class="cls-26" d="M322.94,516.46s5.81,2.92,3.32,9.08c-2.48,6.17-2.56,4.9-2.65,6.72-.09,1.81-3.1-4.03-3.1-4.36l2.44-11.44Z"/>
    <path class="cls-58" d="M322.15,530.4c-.07-.68-.09-1.48-.56-2-.59-.63-1.24-.31-1.49.46-.19.57-.1,1.23-.1,1.84,0,.49.5,4.1,2.15,2.05v-2.35Z"/>
    <path class="cls-15" d="M306.54,577.21s-1.32,5.08,8.17,7.04c16.6,3.43,14.69-5.67,14.69-5.67.47,1.68,1.39,6.21,2.01,8.53,2.83,10.53,1.62,13.54,1.62,13.54-4.63,3.87-12.24,3.76-14.08,3.57-9-.97-15.57-6.72-16.22-9.62-1.11-4.99,1.52-9.76,3.8-17.39"/>
    <polygon class="cls-17" points="302.39 587.66 302.39 596.24 302.39 597.43 302.39 606.01 298.21 603.59 298.21 595.02 298.21 593.83 298.21 585.25 302.39 587.66"/>
    <polygon class="cls-26" points="304.81 586.25 304.81 595.19 304.81 597.11 304.81 604.59 302.38 605.99 302.38 597.41 302.38 596.23 302.38 587.64 304.81 586.25"/>
    <path class="cls-26" d="M306.23,533.33s9.12,2.24,11.29,12.31c.9,4.19,10.84,41.2.21,48.03-10.63,6.83-28.11-5.87-29.16-11.46-2.19-11.67-.02-57.41,17.66-48.88"/>
    <path class="cls-70" d="M450.38,460.67c-.4-.56-.98-1.12-1.6-1.81-2.08-2.32-4.21-2.26-5.66-.82-6.64,6.57-16.41,12.29-19.19,15.84-1.77,2.27.82,4.8,1.6,5.66,2.08,2.32,15.82-6.99,22.4-13.14,1.3-1.21,2.09-2.15,2.52-2.93,0-1.1-.02-2.06-.07-2.8"/>
    <path class="cls-26" d="M306.29,523.71s-.08,7.89-2.48,11.41c0,0,2.51,7.48,15.63,6.15,5.93-.6,6.59-2.7,6.59-2.7v-.31s-3.89-8.34-2.96-10.53l-16.78-4.03Z"/>
    <polygon class="cls-42" points="380.84 584.38 406.12 569.68 388.14 559.17 362.85 573.87 380.84 584.38"/>
    <polygon class="cls-5" points="345.92 531.33 373.03 546.97 374.3 546.61 380.72 524.88 353.43 509.19 352.28 509.39 345.92 531.33"/>
    <polygon class="cls-32" points="345.92 531.33 373.03 546.97 379.38 525.04 352.28 509.39 345.92 531.33"/>
    <polygon class="cls-31" points="378.2 525.51 352.88 510.9 347.11 530.85 372.42 545.47 378.2 525.51"/>
    <polygon class="cls-30" points="372.42 545.47 347.11 530.85 347.57 529.23 372.89 543.84 372.42 545.47"/>
    <polygon class="cls-9" points="369.37 522.47 354.49 513.88 351.1 525.61 365.97 534.2 369.37 522.47"/>
    <polygon class="cls-25" points="375.61 525.67 376.9 526.41 376.42 528.09 375.13 527.34 375.61 525.67"/>
    <polygon class="cls-66" points="374.86 528.02 376.15 528.76 375.66 530.43 374.38 529.69 374.86 528.02"/>
    <polygon class="cls-20" points="374.45 533.72 371.67 543.32 369.07 541.83 371.85 532.23 374.45 533.72"/>
    <polygon class="cls-5" points="353.26 559.85 326.16 544.2 326.16 542.65 345.87 531.27 372.97 546.91 372.97 548.47 353.26 559.85"/>
    <polygon class="cls-32" points="353.26 558.3 326.16 542.65 345.87 531.27 372.97 546.91 353.26 558.3"/>
    <polygon class="cls-5" points="370.63 547.01 361.14 552.5 336.01 537.98 345.5 532.51 370.63 547.01"/>
    <polygon class="cls-5" points="346.6 551.98 339.37 547.8 345.18 544.45 352.41 548.63 346.6 551.98"/>
    <path class="cls-58" d="M355.25,563.33c1.3-1.16,3.22-1.1,3.67-2.98-.81-.49-.89.12-1.61.41-1.06.41-1.72.58-2.46,1.51l.4,1.07Z"/>
    <path class="cls-58" d="M347.26,564.4c.76-.05,2-2.32,2.57-2.95.56-.62,1.16-1.67,1.97-1.79,1.33-.21,3.5,1.39,3.77,2.7.38,1.83-2.6,2.72-3.73,3.58-.52.4-1.95.92-2.48,1.15-.89.4-.99-.23-1.53-.82-.4-.44-1-.93-.76-1.61l.19-.25Z"/>
    <path class="cls-58" d="M352.15,559.86c.3-.14.59-.6.78-.87.23-.33.37-.65.63-.95.36-.41.71-.77,1.28-.86.54-.09.96-.4,1.5-.42.42-.01.86.12,1.26.07.35-.04.66-.06,1-.12.16-.04.44,0,.6.02.06.17.08.51-.05.64.16.17.13,0,.34.03.15.02.45-.02.46.19.06.61-.53.78-.53.78.11,0,.21-.04.32-.01.16.66-.19.93-.47,1.08-.26.13-1.25.39-1.52.53-.56.26-.94.78-1.36,1.21-.34.35-.87.51-1.3.7-.24.11-1.02.32-1.11.57l-1.82-2.58Z"/>
    <path class="cls-58" d="M348.84,563.36c.57-.86.49-2.06,1.22-3.06.88-1.21,1.71-2.26,2.35-3.59.46-.06.7.5.65.99-.09.9-.9,2.13-.96,2.6l-3.26,3.06Z"/>
    <path class="cls-40" d="M332.1,577.67c7.55-1.54,16.19-8.99,18.45-10.65.87-.64-2.28-4.69-3.17-3.18-1.47,2.47-10.12,4.65-13.73,7.47-1.01.78-3.84.48-2.65,3.09l1.11,3.27Z"/>
    <path class="cls-42" d="M391.73,509.23s-9.58,4.37-13.16,7.92l-17.55-9.56s11.44-9.74,13.19-8.62l17.52,10.26Z"/>
    <path class="cls-42" d="M403.3,501.26s-7.99,4.43-11.57,7.97l-17.95-10.38s10.23-8.98,11.99-7.85l17.52,10.26Z"/>
    <polygon class="cls-62" points="398.56 560.58 382.74 551.51 382.74 554.95 398.56 564.03 398.56 560.58"/>
    <polygon class="cls-62" points="398.56 564.03 382.74 554.95 372.21 560.99 388.04 570.06 398.56 564.03"/>
    <polygon class="cls-1" points="387.87 566.42 372.05 557.34 372.05 561.39 387.87 570.47 387.87 566.42"/>
    <polygon class="cls-10" points="398.73 560.19 382.9 551.11 372.04 557.34 387.87 566.42 398.73 560.19"/>
    <polygon class="cls-55" points="398.73 563.93 398.43 563.76 398.43 564.1 398.73 563.93"/>
    <polygon class="cls-10" points="398.56 560.59 398.56 560.58 388.04 566.63 388.04 570.06 398.56 564.03 398.56 564.02 398.73 563.93 398.73 564.24 387.87 570.47 387.87 566.42 398.73 560.19 398.73 560.49 398.56 560.59"/>
    <polygon class="cls-62" points="398.26 560.76 398.56 560.59 398.56 564.02 398.21 564.23 398.56 564.02 398.56 564.03 388.04 570.06 388.04 566.63 398.56 560.58 398.56 560.59 398.26 560.76"/>
    <path class="cls-62" d="M384.87,565.62v2.4c0,.07.06.17.13.2.06.04.12,0,.12-.07v-2.39c0-.08-.05-.17-.12-.21-.07-.04-.13,0-.13.07"/>
    <path class="cls-62" d="M385.52,565.99v2.4c0,.07.05.17.12.2.06.04.12.01.12-.07v-2.4c0-.07-.06-.17-.12-.21-.07-.04-.12,0-.12.07"/>
    <path class="cls-62" d="M386.16,566.36v2.39c0,.08.05.17.12.21.07.04.12,0,.12-.07v-2.39c0-.08-.06-.17-.12-.21-.06-.04-.12,0-.12.07"/>
    <path class="cls-62" d="M386.8,566.73v2.39c0,.08.06.17.13.21.06.04.12,0,.12-.07v-2.4c0-.07-.06-.17-.12-.21-.07-.04-.13,0-.13.07"/>
    <polygon class="cls-62" points="397.82 509.74 414.61 500.12 414.61 503.77 397.82 513.4 397.82 509.74"/>
    <polygon class="cls-62" points="397.82 513.4 414.61 503.77 425.78 510.17 408.98 519.8 397.82 513.4"/>
    <polygon class="cls-1" points="409.16 515.94 425.96 506.3 425.96 510.59 409.16 520.23 409.16 515.94"/>
    <polygon class="cls-10" points="397.64 509.33 414.44 499.69 425.96 506.3 409.16 515.94 397.64 509.33"/>
    <polygon class="cls-55" points="397.64 513.29 397.95 513.12 397.95 513.47 397.64 513.29"/>
    <polygon class="cls-10" points="397.82 509.75 397.82 509.74 408.98 516.16 408.98 519.8 397.82 513.4 397.82 513.39 397.64 513.29 397.64 513.62 409.16 520.23 409.16 515.94 397.64 509.33 397.64 509.65 397.82 509.75"/>
    <polygon class="cls-62" points="398.14 509.93 397.82 509.75 397.82 513.39 398.2 513.62 397.82 513.39 397.82 513.4 408.98 519.8 408.98 516.15 397.82 509.74 397.82 509.75 398.14 509.93"/>
    <path class="cls-62" d="M412.34,515.09v2.54c0,.08-.06.18-.13.22-.07.04-.13,0-.13-.07v-2.54c0-.09.06-.18.13-.22.07-.04.13,0,.13.07"/>
    <path class="cls-62" d="M411.66,515.48v2.54c0,.08-.06.18-.13.22-.07.05-.13,0-.13-.08v-2.53c0-.08.06-.19.13-.23.07-.04.13,0,.13.07"/>
    <path class="cls-62" d="M410.98,515.88v2.54c0,.08-.06.18-.13.22-.07.05-.13,0-.13-.08v-2.54c0-.08.06-.18.13-.22.07-.04.13,0,.13.08"/>
    <path class="cls-62" d="M410.3,516.27v2.54c0,.08-.06.18-.13.22-.07.04-.13,0-.13-.07v-2.54c0-.08.06-.18.13-.22.07-.04.13-.01.13.07"/>
    <g class="cls-108">
      <g class="cls-85">
        <g class="cls-88">
          <g class="cls-90">
            <polygon class="cls-62" points="397.48 555.2 381.66 546.12 381.66 549.56 397.48 558.63 397.48 555.2"/>
          </g>
          <g class="cls-103">
            <polygon class="cls-62" points="397.48 558.63 381.66 549.56 371.13 555.59 386.96 564.67 397.48 558.63"/>
          </g>
          <g class="cls-99">
            <polygon class="cls-40" points="386.79 561.02 370.96 551.95 370.96 555.99 386.79 565.07 386.79 561.02"/>
          </g>
          <g class="cls-109">
            <polygon class="cls-16" points="397.65 554.8 381.82 545.72 370.96 551.95 386.79 561.02 397.65 554.8"/>
          </g>
          <g class="cls-81">
            <polygon class="cls-11" points="397.65 558.54 397.36 558.36 397.36 558.71 397.65 558.54"/>
          </g>
          <g class="cls-95">
            <polygon class="cls-16" points="397.48 555.2 397.48 555.2 386.96 561.24 386.96 564.67 397.48 558.63 397.48 558.63 397.65 558.54 397.65 558.84 386.79 565.07 386.79 561.02 397.65 554.8 397.65 555.1 397.48 555.2"/>
          </g>
          <g class="cls-84">
            <polygon class="cls-62" points="397.18 555.37 397.48 555.2 397.48 558.63 397.13 558.83 397.48 558.63 397.48 558.63 386.96 564.67 386.96 561.24 397.48 555.2 397.18 555.37"/>
          </g>
          <g class="cls-106">
            <path class="cls-62" d="M383.79,560.23v2.4c0,.07.06.17.12.2.06.04.12.01.12-.07v-2.39c0-.08-.06-.17-.12-.21-.07-.05-.12,0-.12.06"/>
          </g>
          <g class="cls-87">
            <path class="cls-62" d="M384.44,560.6v2.39c0,.08.06.17.11.21.07.04.13,0,.13-.07v-2.39c0-.08-.05-.17-.13-.22-.06-.04-.11,0-.11.08"/>
          </g>
          <g class="cls-82">
            <path class="cls-62" d="M385.08,560.97v2.39c0,.08.05.17.12.21.06.04.12,0,.12-.07v-2.39c0-.08-.06-.17-.12-.21-.07-.04-.12,0-.12.07"/>
          </g>
          <g class="cls-107">
            <path class="cls-62" d="M385.72,561.34v2.4c0,.08.05.17.12.21.06.03.12,0,.12-.07v-2.39c0-.08-.06-.18-.12-.21-.07-.04-.12,0-.12.07"/>
          </g>
        </g>
      </g>
    </g>
    <g class="cls-105">
      <g class="cls-85">
        <g class="cls-101">
          <g class="cls-80">
            <polygon class="cls-62" points="429.88 506.4 414.06 497.33 414.06 500.77 429.88 509.85 429.88 506.4"/>
          </g>
          <g class="cls-91">
            <polygon class="cls-62" points="429.88 509.85 414.06 500.77 403.53 506.8 419.36 515.88 429.88 509.85"/>
          </g>
          <g class="cls-98">
            <polygon class="cls-40" points="419.19 512.23 403.36 503.15 403.36 507.2 419.19 516.28 419.19 512.23"/>
          </g>
          <g class="cls-110">
            <polygon class="cls-16" points="430.05 506.01 414.22 496.93 403.36 503.15 419.19 512.23 430.05 506.01"/>
          </g>
          <g class="cls-96">
            <polygon class="cls-11" points="430.05 509.74 429.76 509.57 429.76 509.91 430.05 509.74"/>
          </g>
          <g class="cls-86">
            <polygon class="cls-16" points="429.88 506.4 429.88 506.4 419.36 512.45 419.36 515.88 429.88 509.85 429.88 509.84 430.05 509.74 430.05 510.06 419.19 516.28 419.19 512.23 430.05 506 430.05 506.31 429.88 506.4"/>
          </g>
          <g class="cls-89">
            <polygon class="cls-62" points="429.58 506.58 429.88 506.4 429.88 509.84 429.52 510.05 429.88 509.84 429.88 509.85 419.36 515.88 419.36 512.44 429.88 506.4 429.58 506.58"/>
          </g>
          <g class="cls-94">
            <path class="cls-62" d="M416.19,511.44v2.4c0,.07.06.17.12.2.06.04.12.01.12-.07v-2.39c0-.08-.06-.17-.12-.21-.07-.04-.12,0-.12.07"/>
          </g>
          <g class="cls-111">
            <path class="cls-62" d="M416.84,511.81v2.4c0,.07.05.17.11.2.07.04.13,0,.13-.07v-2.39c0-.08-.06-.17-.13-.22-.06-.04-.11,0-.11.07"/>
          </g>
          <g class="cls-104">
            <path class="cls-62" d="M417.48,512.18v2.39c0,.08.05.17.12.21.07.03.12,0,.12-.07v-2.39c0-.07-.06-.17-.12-.21-.06-.03-.12,0-.12.07"/>
          </g>
          <g class="cls-97">
            <path class="cls-62" d="M418.12,512.55v2.4c0,.08.06.17.12.21.07.03.12,0,.12-.07v-2.39c0-.08-.06-.18-.12-.21-.06-.04-.12,0-.12.07"/>
          </g>
        </g>
      </g>
    </g>
    <path class="cls-58" d="M426.08,474.97h0c-.64-.45-1.57-.68-2.87-.48-.81-.21-1.62-.37-2.35-.22-2.01.41-3.79.86-5.82.92-.33.54.23,1.16.87,1.37.82.27,2,.21,2.87.21,0,.03,0,.06-.01.08-.37.15-.84.21-1.16.27-.55.09-1.03.09-1.55.25-.72.22-1.37.45-1.81,1.11-.42.62-1.04.97-1.37,1.64-.25.52-.34,1.15-.62,1.63-.25.41-.44.79-.72,1.17-.13.18-.26.55-.31.77.18.16.59.38.84.3.13.29-.06.16-.16.44-.06.21-.27.55-.02.7.73.42,1.28-.23,1.28-.23-.05.14-.17.25-.2.39.73.57,1.28.29,1.62.03.32-.25,1.2-1.34,1.52-1.61.6-.51,1.4-.72,2.13-.96-.27.26-.56.54-.88.86-.77.74-1.58.49-1.42,1.78,2.43.48,3.49-1.6,5.4-2.67,1.92.21,4.15-2.23,5.61-3.02.56-.3,1.01-3.42-.83-4.71"/>
    <path class="cls-58" d="M367.9,498.74c2.34-.51,4.6.87,6.41-1.08-.63-1.14-1.14-.46-2.19-.61-1.55-.22-2.46-.47-3.96.13l-.25,1.55Z"/>
    <path class="cls-58" d="M362.71,492.82c1.07-.43,2.51-1.21,3.57-.8,1.73.64,3.24,4.02,2.67,5.78-.79,2.45-4.96,1.48-6.88,1.75-.9.12-4.96-4.46.65-6.72"/>
    <path class="cls-58" d="M366.56,492.5c.46.04,1.11-.32,1.52-.51.5-.25.88-.54,1.41-.71.72-.25,1.37-.45,2.11-.17.7.25,1.41.17,2.07.52.51.27.95.73,1.46.95.44.18.83.38,1.27.52.21.07.54.29.7.43-.05.24-.25.66-.5.73.07.31.14.09.39.26.17.13.54.29.43.55-.34.76-1.17.56-1.17.56.13.09.28.1.39.2-.25.89-.86.99-1.29.98-.41-.01-1.76-.38-2.18-.41-.84-.06-1.67.29-2.45.52-.64.19-1.38.02-2.03-.04-.36-.03-1.44-.31-1.72-.07l-.42-4.32Z"/>
    <path class="cls-58" d="M359.96,495.24c1.27-.64,2.25-2.94,3.81-3.64,1.87-.85,3.57-1.54,5.25-2.69.59.25.5,1.08.1,1.62-.73,1.02-2.51,1.94-2.91,2.45l-6.25,2.25Z"/>
    <path class="cls-58" d="M436,471.07c.52.19,1.03.41,1.54.62.52.21,1.03.47,1.57.66.03,0,.06.02.11.04,1.74,1.24,4.99,1.73,6.52,2.28l1.92-4.19c-.52-.98-1.26-2.7-2.25-3.89-.38-.6-.81-1.17-1.38-1.62-.78-.63-1.36-.67-2.25-.95-.73-.22-1.35-.89-2.07-1.11-.68-.22-1.75-.35-1.59.75.09.65,1.49,1.17,1.95,1.45.38.23.8.56,1.2.94-.17.12-.33.24-.5.37-.37,0-.74-.26-1.08-.37-.38-.12-.74-.25-1.12-.38-.46-.15-1.04-.15-1.37-.53-.76-.85-1.37-1.69-2.29-2.36-.38-.28-1.22-.22-1.14.48.04.34.29.59.49.88.2.3.35.62.54.93.03.05.07.11.11.16-.22-.21-.43-.42-.62-.62-.33-.35-.87-1.08-1.43-1.16-.76-.11-.98.57-.66,1.21.08.17.2.33.33.49-.08-.03-.16-.05-.25-.07-.18-.04-.61.03-.68.3-.05.17.2.57.29.7.22.35.48.68.68,1.04.23.38.44.63.74.88-.3-.09-.74-.22-.83.09-.05.14.16.43.22.55.12.26.24.33.45.52.58.5,1.08,1.01,1.75,1.42.36.22.74.33,1.14.47"/>
    <path class="cls-40" d="M467.47,483.73c-6.53-1.35-19.7-6.84-23.39-9.78,0,0,1.02.31,1.92-1.64,1.02-2.23.72-3.66.72-3.66,4.51.22,15.61,4.7,24.81,6.33,2.01.35,3.29,2.06,2.6,5.1-.7,3.05-.41,4.95-6.65,3.66"/>
    <polygon class="cls-62" points="423.9 504.38 408.07 495.3 408.07 498.75 423.9 507.82 423.9 504.38"/>
    <polygon class="cls-62" points="423.9 507.82 408.07 498.75 397.55 504.78 413.38 513.85 423.9 507.82"/>
    <polygon class="cls-1" points="413.21 510.21 397.38 501.13 397.38 505.18 413.21 514.26 413.21 510.21"/>
    <polygon class="cls-10" points="424.07 503.98 408.24 494.9 397.38 501.13 413.21 510.21 424.07 503.98"/>
    <polygon class="cls-55" points="424.07 507.72 423.77 507.55 423.77 507.89 424.07 507.72"/>
    <polygon class="cls-10" points="423.9 504.39 423.9 504.38 413.38 510.42 413.38 513.85 423.9 507.82 423.9 507.82 424.07 507.72 424.07 508.03 413.21 514.26 413.21 510.21 424.07 503.98 424.07 504.28 423.9 504.39"/>
    <polygon class="cls-62" points="423.6 504.56 423.9 504.39 423.9 507.82 423.54 508.02 423.9 507.82 423.9 507.82 413.38 513.85 413.38 510.42 423.9 504.38 423.9 504.39 423.6 504.56"/>
    <path class="cls-62" d="M410.21,509.41v2.39c0,.08.06.17.13.21.06.04.12,0,.12-.07v-2.39c0-.08-.05-.17-.12-.21-.07-.04-.13-.01-.13.07"/>
    <path class="cls-62" d="M410.85,509.79v2.4c0,.07.06.17.12.2.06.04.12.01.12-.07v-2.4c0-.08-.06-.17-.12-.21-.06-.03-.12,0-.12.07"/>
    <path class="cls-62" d="M411.5,510.16v2.39c0,.08.05.17.11.21.07.04.13,0,.13-.07v-2.4c0-.07-.06-.17-.13-.21-.06-.04-.11,0-.11.07"/>
    <path class="cls-62" d="M412.14,510.53v2.39c0,.07.06.17.12.21.07.04.13.01.13-.07v-2.4c0-.07-.06-.17-.13-.21-.06-.04-.12,0-.12.07"/>
    <path class="cls-54" d="M321.19,480.2c.67,2.54,3.49,1.89,5.6,1.89,2.81,0,5.32-1.25,7.01-3.21-.18-.79-.37-1.57-.56-2.33-2.4-9.48-5.94-10.68-9.28-9.84-3.31.84-5.05,4.26-2.78,13.49"/>
    <path class="cls-3" d="M382.66,466.41c-.04-1.02,1.23-5.06,2.01-5.71.71-.6,1.41-1.69,1.98-2.45.29-.39.59-.79.85-1.19.21-.31.21-.79.59-.8.48-.01.69.61.68,1.01-.02.56-.1,1.16-.44,1.57-.6.7-1.11,1.31-.95,1.76.13.38.8-.35,1.18-.61.98-.67,1.6-1.18,2.24-2.23.45-.77,1.09-1.83,1.5-2.63.25-.49,1.63-1.55,1.9-.66.13.42-.19.78-.33,1.14-.16.37-.23.77-.42,1.15-.4.81-.86,1.56-1.27,2.38-.19.38-.96,1.14-.73,1.24,0,0,2.04-1.77,2.39-1.92,0,0,.74-1.33,1.53-2.13,0,0,.23-1.11.97-1.26.61-.13.63.22.57.71-.05.33-.15.98-.32,1.24.19-.27.4-.72,1.02-.84.95-.18.55,1.06.44,1.33-.25.59-.95,2.04-1.15,2.64-.36,1.16-1.44,1.8-2.24,2.73-.23.27-.68.47-.68.47,0,0,.55-.17.95-.25.75-.15,2.32-2.58,2.8-.84-.79.56-1.76,2.09-2.63,2.35-.36.11-.93.76-1.49.97-.65.23-1.41.75-2.05,1-.65.26-.52.37-1.14.69-.85.44-2.54,1.32-4.28,1.47-1.69.15-3.42-.93-3.43-2.11v-.21Z"/>
  </g>
</svg>