<svg id="Layer_1" data-name="Layer 1" xmlns="http://www.w3.org/2000/svg" xmlns:xlink="http://www.w3.org/1999/xlink" viewBox="0 0 852.91 1003.47"><defs><style>.cls-1{fill:none;}.cls-2{fill:#5356ff;stroke:#231f20;stroke-miterlimit:10;}.cls-3{fill:#5334ff;}.cls-4{font-size:35.34px;font-family:Montserrat-Black, Montserrat;font-weight:800;}.cls-14,.cls-4{fill:#fff;}.cls-5{letter-spacing:-0.01em;}.cls-6{letter-spacing:0em;}.cls-7{letter-spacing:0.01em;}.cls-8{letter-spacing:-0.01em;}.cls-9{fill:#c49a6c;}.cls-10{fill:#70513c;}.cls-11{clip-path:url(#clip-path);}.cls-12{fill:#2b1990;}.cls-13{fill:#2e3192;}.cls-15{fill:#52bbe7;}.cls-16{fill:#5bc9ef;}.cls-17{fill:#a99fb8;}.cls-18{fill:#c6c6c6;}.cls-19{fill:#a38671;}.cls-20{fill:#8e725e;}.cls-21{fill:#5e4534;}.cls-22{fill:#a5c63b;}.cls-23{fill:#8eb021;}.cls-24{fill:#785571;}.cls-25{fill:#a3c412;}.cls-26{fill:#503b2c;}.cls-27{fill:#bdc3c7;}.cls-28{clip-path:url(#clip-path-2);}.cls-29{fill:#fefefe;}.cls-30{fill:#fdfdfd;}.cls-31{fill:#fcfdfd;}.cls-32{fill:#fbfcfc;}.cls-33{fill:#fafbfb;}.cls-34{fill:#f9fafa;}.cls-35{fill:#f8f9fa;}.cls-36{fill:#f7f8f9;}.cls-37{fill:#f6f8f8;}.cls-38{fill:#f4f7f7;}.cls-39{fill:#f3f6f6;}.cls-40{fill:#f2f5f6;}.cls-41{fill:#f1f4f5;}.cls-42{fill:#f0f3f4;}.cls-43{fill:#eff3f3;}.cls-44{fill:#eef2f3;}.cls-45{fill:#edf1f2;}.cls-46{fill:#ecf0f1;}.cls-47{fill:#ffde17;}.cls-48{fill:#db9645;}.cls-49{fill:#b58143;}.cls-50{fill:#d6a15c;}.cls-51{fill:#b3efff;}.cls-52{fill:#bbd32d;}.cls-53{fill:#bc8133;}.cls-54{fill:#b1b2b2;}.cls-55{fill:#1e160d;}.cls-56{fill:#0d3659;}.cls-57{fill:#c44620;}.cls-58{fill:#dd5626;}.cls-59{fill:#f76627;}.cls-60{fill:#fccb95;}.cls-61{fill:#ffd8a6;}.cls-62{fill:#603913;}.cls-63{fill:#1e170e;}.cls-64{fill:#0a2b38;}.cls-65{fill:#262626;}.cls-66{fill:#6a707c;}.cls-67{fill:#0b2f49;}.cls-68{clip-path:url(#clip-path-4);}.cls-69{fill:url(#linear-gradient);}.cls-70{fill:#08273a;}.cls-71{fill:#092a42;}.cls-72{fill:#0072bf;}.cls-73{fill:#51e0e0;}.cls-74{fill:#9bb214;}.cls-75{fill:#454a71;}.cls-76{fill:#676f95;}.cls-77{fill:#082263;}.cls-78{fill:#08a6de;}.cls-79{fill:#ced3e0;}.cls-80{fill:#4be0ff;}.cls-81{fill:#49a9ff;}.cls-82{fill:#00aeef;}.cls-83{fill:#f1f1f1;}.cls-84{fill:#085a96;}.cls-85{fill:#c2c2c7;}.cls-86{clip-path:url(#clip-path-6);}.cls-87{isolation:isolate;}.cls-88{clip-path:url(#clip-path-8);}.cls-89{clip-path:url(#clip-path-9);}.cls-90{clip-path:url(#clip-path-10);}.cls-91{clip-path:url(#clip-path-11);}.cls-92{fill:#ff7443;}.cls-93{clip-path:url(#clip-path-12);}.cls-94{fill:#c7c5c3;}.cls-95{clip-path:url(#clip-path-13);}.cls-96{clip-path:url(#clip-path-14);}.cls-97{clip-path:url(#clip-path-15);}.cls-98{clip-path:url(#clip-path-16);}.cls-99{clip-path:url(#clip-path-17);}.cls-100{clip-path:url(#clip-path-18);}.cls-101{clip-path:url(#clip-path-19);}.cls-102{clip-path:url(#clip-path-21);}.cls-103{clip-path:url(#clip-path-22);}.cls-104{clip-path:url(#clip-path-23);}.cls-105{clip-path:url(#clip-path-24);}.cls-106{clip-path:url(#clip-path-25);}.cls-107{clip-path:url(#clip-path-26);}.cls-108{clip-path:url(#clip-path-27);}.cls-109{clip-path:url(#clip-path-28);}.cls-110{clip-path:url(#clip-path-29);}.cls-111{clip-path:url(#clip-path-30);}.cls-112{clip-path:url(#clip-path-31);}.cls-113{fill:#084373;}</style><clipPath id="clip-path" transform="translate(105.11 54.05)"><rect class="cls-1" x="78.9" y="153.37" width="414.79" height="429.27"/></clipPath><clipPath id="clip-path-2" transform="translate(105.11 54.05)"><path class="cls-1" d="M278.86,288.32a16.34,16.34,0,0,1,7.41-12.82c4.1-2.37,7.44-.46,7.45,4.25a16.37,16.37,0,0,1-7.4,12.82,6.79,6.79,0,0,1-3.33,1c-2.44,0-4.12-1.93-4.13-5.27m7.4-14.62c-5,2.86-9,9.83-9,15.53s4.06,8,9,5.14,9-9.83,9-15.53c0-4-2-6.37-5-6.37a8.15,8.15,0,0,0-4,1.23"/></clipPath><clipPath id="clip-path-4" transform="translate(105.11 54.05)"><path class="cls-1" d="M280.9,353.72c-3.12,3.92-.91,8.55-.57,9.78.5,1.86,3.92,4.76,4.62,4.52.5-.18-.69-3.77-.72-4.11a13.45,13.45,0,0,1,.12-2c0-.84-.16-2.2.84-2.47a3.58,3.58,0,0,1,1-.06h.54a13.8,13.8,0,0,0,2-.3,7.61,7.61,0,0,0,3-1.23c.44-.33,2.06-2,1.57-2.61,0,0-.8-2.28-2.63-2.79a16.87,16.87,0,0,0-4.37-.61c-2.25,0-4.27.56-5.34,1.91"/></clipPath><linearGradient id="linear-gradient" x1="11.79" y1="855.23" x2="12.79" y2="855.23" gradientTransform="matrix(15.42, 0, 0, -15.42, 97.34, 13551.27)" gradientUnits="userSpaceOnUse"><stop offset="0" stop-color="#231f20"/><stop offset="1" stop-color="#231f20"/></linearGradient><clipPath id="clip-path-6" transform="translate(105.11 54.05)"><rect class="cls-1" x="342.72" y="438.92" width="19.99" height="14.51"/></clipPath><clipPath id="clip-path-8" transform="translate(105.11 54.05)"><rect class="cls-1" x="350.73" y="439.22" width="11.86" height="9.38"/></clipPath><clipPath id="clip-path-9" transform="translate(105.11 54.05)"><rect class="cls-1" x="342.84" y="441.8" width="19.75" height="11.32"/></clipPath><clipPath id="clip-path-10" transform="translate(105.11 54.05)"><rect class="cls-1" x="342.72" y="443.59" width="11.86" height="9.84"/></clipPath><clipPath id="clip-path-11" transform="translate(105.11 54.05)"><rect class="cls-1" x="342.72" y="438.92" width="19.99" height="11.47"/></clipPath><clipPath id="clip-path-12" transform="translate(105.11 54.05)"><rect class="cls-1" x="362.5" y="448.4" width="0.22" height="0.26"/></clipPath><clipPath id="clip-path-13" transform="translate(105.11 54.05)"><rect class="cls-1" x="354.58" y="445.73" width="8.13" height="7.7"/></clipPath><clipPath id="clip-path-14" transform="translate(105.11 54.05)"><rect class="cls-1" x="354.7" y="446.02" width="7.89" height="7.1"/></clipPath><clipPath id="clip-path-15" transform="translate(105.11 54.05)"><rect class="cls-1" x="352.34" y="449.73" width="0.18" height="2.03"/></clipPath><clipPath id="clip-path-16" transform="translate(105.11 54.05)"><rect class="cls-1" x="352.82" y="450.01" width="0.18" height="2.03"/></clipPath><clipPath id="clip-path-17" transform="translate(105.11 54.05)"><rect class="cls-1" x="353.3" y="450.29" width="0.18" height="2.03"/></clipPath><clipPath id="clip-path-18" transform="translate(105.11 54.05)"><rect class="cls-1" x="353.78" y="450.56" width="0.18" height="2.03"/></clipPath><clipPath id="clip-path-19" transform="translate(105.11 54.05)"><rect class="cls-1" x="367" y="402.36" width="19.99" height="14.5"/></clipPath><clipPath id="clip-path-21" transform="translate(105.11 54.05)"><rect class="cls-1" x="375.01" y="402.66" width="11.86" height="9.38"/></clipPath><clipPath id="clip-path-22" transform="translate(105.11 54.05)"><rect class="cls-1" x="367.12" y="405.24" width="19.75" height="11.32"/></clipPath><clipPath id="clip-path-23" transform="translate(105.11 54.05)"><rect class="cls-1" x="367" y="407.03" width="11.86" height="9.84"/></clipPath><clipPath id="clip-path-24" transform="translate(105.11 54.05)"><rect class="cls-1" x="367" y="402.36" width="19.99" height="11.47"/></clipPath><clipPath id="clip-path-25" transform="translate(105.11 54.05)"><rect class="cls-1" x="386.78" y="411.84" width="0.22" height="0.25"/></clipPath><clipPath id="clip-path-26" transform="translate(105.11 54.05)"><rect class="cls-1" x="378.86" y="409.17" width="8.13" height="7.7"/></clipPath><clipPath id="clip-path-27" transform="translate(105.11 54.05)"><rect class="cls-1" x="378.98" y="409.46" width="7.89" height="7.1"/></clipPath><clipPath id="clip-path-28" transform="translate(105.11 54.05)"><rect class="cls-1" x="376.61" y="413.17" width="0.18" height="2.03"/></clipPath><clipPath id="clip-path-29" transform="translate(105.11 54.05)"><rect class="cls-1" x="377.1" y="413.45" width="0.18" height="2.03"/></clipPath><clipPath id="clip-path-30" transform="translate(105.11 54.05)"><rect class="cls-1" x="377.58" y="413.73" width="0.18" height="2.03"/></clipPath><clipPath id="clip-path-31" transform="translate(105.11 54.05)"><rect class="cls-1" x="378.06" y="414" width="0.18" height="2.03"/></clipPath></defs><rect class="cls-2" x="99.11" y="48.05" width="606" height="859"/><path class="cls-3" d="M122.26,181.26c25.72-19.25,48.82-43.37,79-54.43S265,119.24,296.75,114c58-9.6,109.77-50.77,132.18-105.12,6.37-15.43,9.91-34.74-.8-47.53-9.23-11-25.27-12.69-39.62-13.38A1749.06,1749.06,0,0,0,5-28.12C-26.68-22.6-60.89-14.64-81.06,10.4-95.23,28-100,51.27-102.23,73.75c-4.14,41.92-11.73,149.57,43.07,162.39C-1.17,249.7,77.28,214.92,122.26,181.26Z" transform="translate(105.11 54.05)"/><path class="cls-3" d="M291.74,758.45c31.78-40.52,74.84-70.34,116-101.33s82-64.93,106.47-110.24c18.55-34.34,26.69-73.41,44-108.41s48.21-67.71,87.2-69.57c40.17-1.93,75.52,30.6,90.1,68.08s13,79,11.19,119.21q-5.83,130-11.68,260.1c-1.47,32.8-4,68.28-25.37,93.18-23.27,27.07-62.06,33.69-97.63,36.64a982.61,982.61,0,0,1-281.48-17.5c-37.79-7.9-77.27-6.92-79.9-51.44C248.05,834,265.4,792,291.74,758.45Z" transform="translate(105.11 54.05)"/><text class="cls-4" transform="translate(146.45 714.89)">Bikin <tspan class="cls-5" x="110.97" y="0">P</tspan><tspan class="cls-6" x="136.88" y="0">e</tspan><tspan class="cls-7" x="159.95" y="0">n</tspan><tspan x="185.12" y="0">gajuan </tspan><tspan class="cls-8" x="327.3" y="0">K</tspan><tspan x="353.98" y="0">amarmu</tspan><tspan x="0" y="42.41">J</tspan><tspan class="cls-7" x="20.29" y="42.41">a</tspan><tspan class="cls-6" x="43.22" y="42.41">di Lebih Mudah</tspan></text><polygon class="cls-9" points="200.39 493.18 212.2 500.06 184.24 516.27 199.4 525.1 199.35 525.12 390.94 636.69 575.23 529.83 575.14 529.78 598.57 516.2 571.69 500.54 576.27 497.89 384.68 386.32 200.39 493.18"/><polygon class="cls-10" points="388.15 578.21 470.48 530.36 394.66 486.59 312.33 534.44 388.15 578.21"/><g class="cls-11"><path class="cls-10" d="M282.91,497.38s-5.86,3.56-1.16,7.19,16.93,12.56,24.49,10.32,19.58-10.73,20.55-11.86.88-2.88-3.06-5.78c-2.82-2.07-16.56-9.64-17.36-9.92s-3.33-1.78-8.52.94c-4.89,2.57-14.94,9.11-14.94,9.11" transform="translate(105.11 54.05)"/><polygon class="cls-10" points="330.46 499.89 450.37 430.9 392.09 397.42 272.19 466.42 330.46 499.89"/><polygon class="cls-12" points="598.8 516.28 391.64 396.68 391.64 207.42 598.8 327.1 598.8 516.28"/><polygon class="cls-13" points="184.48 516.28 391.64 396.68 391.64 207.42 184.48 327.1 184.48 516.28"/><polygon class="cls-14" points="469.18 379.4 469.18 286.67 522.9 317.69 522.9 410.41 469.18 379.4"/><polygon class="cls-15" points="478.38 374.11 478.38 292.05 522.84 317.72 522.84 399.78 478.38 374.11"/><polygon class="cls-16" points="522.9 342.52 484.97 377.85 483.28 376.87 522.9 339.96 522.9 342.52"/><polygon class="cls-16" points="522.9 317.68 522.9 329.67 478.44 371.08 478.44 356.74 521.34 316.78 522.9 317.68"/><polygon class="cls-14" points="473.96 289.43 478.44 292.01 478.44 324.27 522.9 349.94 522.9 355.13 473.96 326.87 473.96 289.43"/><polygon class="cls-14" points="478.44 292.01 478.44 374.08 522.9 399.75 522.9 404.93 473.96 376.68 473.96 289.43 478.44 292.01"/><polygon class="cls-17" points="473.13 316.95 522.9 345.68 522.9 348.42 470.76 318.32 473.13 316.95"/><polygon class="cls-17" points="473.13 313.41 522.9 342.14 522.9 344.88 470.76 314.77 473.13 313.41"/><polygon class="cls-17" points="473.13 309.87 522.9 338.61 522.9 341.34 470.76 311.24 473.13 309.87"/><polygon class="cls-17" points="473.13 306.32 522.9 335.05 522.9 337.79 470.76 307.68 473.13 306.32"/><polygon class="cls-17" points="473.13 302.78 522.9 331.51 522.9 334.25 470.76 304.14 473.13 302.78"/><polygon class="cls-17" points="473.21 299.31 522.9 328 522.9 330.74 470.83 300.68 473.21 299.31"/><polygon class="cls-17" points="473.21 295.77 522.9 324.46 522.9 327.2 470.83 297.14 473.21 295.77"/><polygon class="cls-17" points="473.21 292.22 522.9 320.92 522.9 323.65 470.83 293.59 473.21 292.22"/><polygon class="cls-17" points="472.94 288.84 522.9 317.68 522.9 320.11 470.84 290.05 472.94 288.84"/><polygon class="cls-14" points="522.84 410.77 522.84 318.04 576.56 349.06 576.56 441.79 522.84 410.77"/><polygon class="cls-15" points="532.03 405.49 532.03 323.43 576.49 349.09 576.49 431.16 532.03 405.49"/><polygon class="cls-16" points="576.56 373.89 538.63 409.23 536.93 408.25 576.56 371.34 576.56 373.89"/><polygon class="cls-16" points="576.56 349.06 576.56 361.05 532.1 402.45 532.1 388.12 575 348.16 576.56 349.06"/><polygon class="cls-14" points="527.62 320.81 532.1 323.39 532.1 355.65 576.56 381.32 576.56 386.5 527.62 358.25 527.62 320.81"/><polygon class="cls-14" points="532.1 323.39 532.1 405.46 576.56 431.13 576.56 436.31 527.62 408.06 527.62 320.81 532.1 323.39"/><polygon class="cls-17" points="526.79 348.33 576.56 377.06 576.56 379.8 524.42 349.69 526.79 348.33"/><polygon class="cls-17" points="526.79 344.78 576.56 373.52 576.56 376.25 524.42 346.15 526.79 344.78"/><polygon class="cls-17" points="526.79 341.25 576.56 369.98 576.56 372.72 524.42 342.61 526.79 341.25"/><polygon class="cls-17" points="526.79 337.69 576.56 366.43 576.56 369.17 524.42 339.06 526.79 337.69"/><polygon class="cls-17" points="526.79 334.15 576.56 362.89 576.56 365.63 524.42 335.52 526.79 334.15"/><polygon class="cls-17" points="526.86 330.69 576.56 359.38 576.56 362.12 524.49 332.06 526.86 330.69"/><polygon class="cls-17" points="526.86 327.15 576.56 355.84 576.56 358.58 524.49 328.52 526.86 327.15"/><polygon class="cls-17" points="526.86 323.6 576.56 352.29 576.56 355.03 524.49 324.97 526.86 323.6"/><polygon class="cls-17" points="526.6 320.21 576.56 349.06 576.56 351.49 524.49 321.43 526.6 320.21"/><path class="cls-18" d="M378.9,331.2a5.93,5.93,0,0,0,5.38,0,2.23,2.23,0,0,0,1.17-1.42h0v-.07L386.8,322H376.39l1.34,7.75a2.16,2.16,0,0,0,1.17,1.48" transform="translate(105.11 54.05)"/><path class="cls-19" d="M381.57,324.83a7.44,7.44,0,0,0,3.63-.87,2.8,2.8,0,0,0,1.63-2.33,2.76,2.76,0,0,0-1.61-2.3,7.36,7.36,0,0,0-3.59-.86,7.28,7.28,0,0,0-3.63.88,2.78,2.78,0,0,0-1.63,2.32A2.75,2.75,0,0,0,378,324a7.25,7.25,0,0,0,3.59.86" transform="translate(105.11 54.05)"/><path class="cls-20" d="M376.88,322.25a2.72,2.72,0,0,0,1.29,1.38,7.56,7.56,0,0,0,6.84,0,2.79,2.79,0,0,0,1.31-1.4c.33-.89-.1-1.86-1.29-2.55a7.56,7.56,0,0,0-6.84,0c-1.21.7-1.65,1.68-1.31,2.57" transform="translate(105.11 54.05)"/><path class="cls-21" d="M376.88,322.25a2.72,2.72,0,0,0,1.29,1.38,7.56,7.56,0,0,0,6.84,0,1.39,1.39,0,0,0,0-2.78,7.56,7.56,0,0,0-6.84,0,2.74,2.74,0,0,0-1.31,1.39" transform="translate(105.11 54.05)"/><path class="cls-22" d="M368.76,296.08a4.38,4.38,0,0,1,.81.19,3.87,3.87,0,0,1,1.47.83c.85.83,1.31,1.78,1.07,2.21.46.25.88.53,1.31.82a2.13,2.13,0,0,1,.15-.67c-.41-.3-.38-1.15.08-1.93a1.82,1.82,0,0,1,1-.76,2.92,2.92,0,0,1,.71-.13,3.3,3.3,0,0,1,.19.72,1.81,1.81,0,0,1-.22,1.32c-.51.72-1.27,1.05-1.71.84a1.71,1.71,0,0,0-.14.68,9,9,0,0,1,.92.71l.44.39.4.42a2.6,2.6,0,0,1,.33-.69,1,1,0,0,1-.12-.88,3.11,3.11,0,0,1,.58-1.21,1.89,1.89,0,0,1,1.25-.68,2.76,2.76,0,0,1,.8,0,1.43,1.43,0,0,1,.05.25,3.58,3.58,0,0,1,0,.61,2,2,0,0,1-.52,1.39c-.71.67-1.59.9-2,.61a1.88,1.88,0,0,0-.32.7c.15.16.29.33.42.5l.4.53h0c.25.38.51.75.72,1.15a2.19,2.19,0,0,1,.5-.64c-.27-.46.18-1.34,1-2a2.1,2.1,0,0,1,1.44-.43,3.19,3.19,0,0,1,.81.14s0,.1,0,.25a2.85,2.85,0,0,1-.13.6,2.38,2.38,0,0,1-.88,1.26c-.89.57-1.83.67-2.17.3a2.32,2.32,0,0,0-.51.66,25,25,0,0,1,1.22,2.5,2.29,2.29,0,0,1,.54-.64c-.27-.51.28-1.41,1.25-2.08a2.44,2.44,0,0,1,1.58-.36c.25,0,.46.07.6.1l.24.06a4,4,0,0,1-.23.84,2.73,2.73,0,0,1-1,1.27c-1,.59-2,.7-2.35.28a2.17,2.17,0,0,0-.55.67l.54,1.24h0v0c.17.39.34.78.5,1.17a2.65,2.65,0,0,1,.77-.67c-.19-.57.61-1.42,1.82-1.91a3.83,3.83,0,0,1,2.65.09,1.43,1.43,0,0,1-.11.23,4.9,4.9,0,0,1-.33.56,3.05,3.05,0,0,1-1.35,1.19c-1.17.48-2.31.45-2.62,0a2.46,2.46,0,0,0-.77.68h0c.41,1,.79,1.94,1.1,2.88a2.7,2.7,0,0,1,.81-.65c-.18-.64.63-1.51,1.88-2a3,3,0,0,1,1.87,0,3.68,3.68,0,0,1,.66.25l.25.13a4.41,4.41,0,0,1-.44.9A2.89,2.89,0,0,1,384,312a4,4,0,0,1-1.7.19,1.3,1.3,0,0,1-1-.51,2.63,2.63,0,0,0-.81.67h0a17.91,17.91,0,0,1,.76,3.28,3.32,3.32,0,0,1,1-.58,1.38,1.38,0,0,1,.59-1.16,4.57,4.57,0,0,1,1.77-.93,3,3,0,0,1,2.13.32,5.18,5.18,0,0,1,.73.47,2.83,2.83,0,0,1,.27.25,5.13,5.13,0,0,1-.64,1.08,2.89,2.89,0,0,1-1.85,1.17,4.44,4.44,0,0,1-1.92-.22,1.57,1.57,0,0,1-1.05-.81,3.21,3.21,0,0,0-1,.59,25.4,25.4,0,0,1,.1,3.06,16.63,16.63,0,0,1-.13,2.3,3.92,3.92,0,0,1-.36,1.25h-.17a3.13,3.13,0,0,0,.28-.76,9.15,9.15,0,0,0,.2-1.63c0-.66,0-1.42,0-2.26a2.56,2.56,0,0,0-1.09-.32c-.08.73-1.22,1.38-2.69,1.49a3.08,3.08,0,0,1-2-.57,1.36,1.36,0,0,1-.36-.32l-.15-.17c-.05-.06-.09-.13-.13-.13l-.23-.09s.3-.16.79-.39a7.3,7.3,0,0,1,1.9-.69,5.22,5.22,0,0,1,2,0c.52.13.86.39.91.72a2.71,2.71,0,0,1,1.1.28,14,14,0,0,0-.36-3.39,2.53,2.53,0,0,0-1-.05c.05.61-.88,1.28-2.15,1.55a4.57,4.57,0,0,1-1.82,0,4.71,4.71,0,0,1-.58-.15l-.23-.08a5.23,5.23,0,0,1,.56-.65,4.09,4.09,0,0,1,1.51-1c1.28-.44,2.45-.33,2.68.25a2.67,2.67,0,0,1,1,0,24.78,24.78,0,0,0-1.05-3.28,2.33,2.33,0,0,0-1,.06c.11.57-.69,1.35-1.88,1.8a4.18,4.18,0,0,1-2.62-.07,4,4,0,0,1,1.82-1.92c1.21-.51,2.37-.48,2.64.06a2.61,2.61,0,0,1,.94-.07c-.32-.84-.69-1.69-1.06-2.56a2,2,0,0,0-.8-.08c0,.55-.77,1.19-1.87,1.45a2.7,2.7,0,0,1-1.62-.2,5.73,5.73,0,0,1-.74-.39,3.41,3.41,0,0,1,1.88-1.51c1.13-.26,2.16,0,2.33.53a2.51,2.51,0,0,1,.76.05c-.37-.84-.73-1.71-1.15-2.58a2,2,0,0,0-.77,0c.07.48-.66,1.08-1.66,1.39a3.19,3.19,0,0,1-1.47,0,3.51,3.51,0,0,1-.67-.2,5.32,5.32,0,0,1,.43-.56,3.29,3.29,0,0,1,1.19-.89c1-.4,2-.34,2.15.13a2.22,2.22,0,0,1,.73,0,17.4,17.4,0,0,0-1.31-2.28,1.65,1.65,0,0,0-.68.1c.13.44-.49,1.09-1.38,1.48a3.4,3.4,0,0,1-1.32.25,3.78,3.78,0,0,1-.61,0,1.32,1.32,0,0,0,.09-.17l.25-.39a3.54,3.54,0,0,1,.95-1,3.06,3.06,0,0,1,1.21-.51.75.75,0,0,1,.76.25,2.15,2.15,0,0,1,.65-.11c-.28-.34-.53-.71-.85-1-.16-.16-.3-.33-.47-.48l-.51-.44a1.43,1.43,0,0,0-.64.22c.24.4-.15,1.12-.84,1.66a2.61,2.61,0,0,1-1.11.47,3.18,3.18,0,0,1-.58.07,4.19,4.19,0,0,1,.13-.62,2.31,2.31,0,0,1,.56-1.13,2.45,2.45,0,0,1,1-.64.74.74,0,0,1,.77.11,1.84,1.84,0,0,1,.61-.23,18.14,18.14,0,0,0-2.05-1.35c-.39.32-1.37-.08-2.3-1a3.15,3.15,0,0,1-.84-1.54,3.39,3.39,0,0,1-.11-.83" transform="translate(105.11 54.05)"/><path class="cls-23" d="M379.42,315.34a5.17,5.17,0,0,1,.64-.19,2.72,2.72,0,0,1,1.76.18c1.12.58,1.81,1.48,1.58,2.06a2.79,2.79,0,0,1,.69.65c.41-.76.89-1.59,1.43-2.48a2.13,2.13,0,0,0-.55-.6c-.32.4-1.3.34-2.25-.17a2.53,2.53,0,0,1-1-1.16,3.28,3.28,0,0,1-.28-.75,3.79,3.79,0,0,1,.78-.15,2.64,2.64,0,0,1,1.51.29c1,.54,1.56,1.35,1.33,1.84a2.09,2.09,0,0,1,.55.59c.47-.77,1-1.59,1.47-2.46a2.06,2.06,0,0,0-.54-.59c-.31.37-1.25.28-2.17-.24a3.19,3.19,0,0,1-1.3-1.79,3.26,3.26,0,0,1,2.22.17c.95.53,1.53,1.31,1.31,1.76a2.15,2.15,0,0,1,.54.58c.38-.65.76-1.32,1.13-2a1.74,1.74,0,0,0-.36-.56c-.34.3-1.17.1-1.91-.48a1.12,1.12,0,1,1,1.11-1.39c.76.61,1.14,1.4.87,1.79a2.07,2.07,0,0,1,.36.52c.36-.67.73-1.37,1.1-2.08a1.71,1.71,0,0,0-.38-.52c-.29.29-1.06.13-1.77-.38a2.59,2.59,0,0,1-.89-1.61,2.7,2.7,0,0,1,1.82.33c.73.53,1.13,1.23.9,1.59a1.71,1.71,0,0,1,.37.49c.32-.65.65-1.3,1-2a2,2,0,0,0-.3-.5c-.31.29-1.07.18-1.72-.3a1.56,1.56,0,0,1-.52-1.17,3,3,0,0,1,.07-.79,2.26,2.26,0,0,1,.71-.08,1.42,1.42,0,0,1,1.08.49,2.6,2.6,0,0,1,.51,1,.86.86,0,0,1-.07.77,1.64,1.64,0,0,1,.29.47,7.64,7.64,0,0,1,1.45-1.83,1.46,1.46,0,0,0-.07-.57,1.34,1.34,0,0,1-1.43-.75,1.43,1.43,0,0,1-.06-1.15c.06-.18.13-.34.18-.46a1.85,1.85,0,0,1,.1-.18,2.32,2.32,0,0,1,.64.13,1.35,1.35,0,0,1,.82.7c.29.71.21,1.42-.17,1.66a1.8,1.8,0,0,1,.08.54,13.92,13.92,0,0,1,1.72-1.31c-.1-.41.68-1,1.72-1.27a2.84,2.84,0,0,1,1.44.07,3.61,3.61,0,0,1,.64.26,3,3,0,0,1-.46.51,3,3,0,0,1-1.25.7c-1,.22-1.79.18-2-.15-.37.25-.74.5-1.09.78a1.3,1.3,0,0,1,.49.29c.35-.23,1,.09,1.38.74a2,2,0,0,1,.25,1c0,.3,0,.53,0,.53a2.64,2.64,0,0,1-.46-.15,2.09,2.09,0,0,1-.84-.58c-.48-.56-.66-1.21-.38-1.5a1.1,1.1,0,0,0-.5-.29,9.47,9.47,0,0,0-1.42,1.41,1.34,1.34,0,0,1,.59.21c.27-.29,1,0,1.53.6a3.26,3.26,0,0,1,.58,1l.14.35.05.14a4.67,4.67,0,0,1-.45-.14,4.24,4.24,0,0,1-1-.49c-.67-.46-1.09-1.05-.92-1.39a1.3,1.3,0,0,0-.6-.2c-.12.15-.22.3-.32.45a4.48,4.48,0,0,0-.28.47h0c-.18.33-.33.68-.5,1a2,2,0,0,1,.67.06.73.73,0,0,1,.68-.29,2.75,2.75,0,0,1,1.1.37,5.35,5.35,0,0,1,1,.75l.16.15a1,1,0,0,1,.09.17,1.1,1.1,0,0,1,.07.17,2.68,2.68,0,0,1-1.84.08c-.81-.34-1.34-.91-1.25-1.31a1.69,1.69,0,0,0-.68-.05c-.35.7-.7,1.39-1.06,2.05a2,2,0,0,1,.7,0c.19-.43,1.07-.52,2-.19a2.8,2.8,0,0,1,1.39,1.45,2.84,2.84,0,0,1-2,.22c-.89-.33-1.49-.93-1.41-1.38a1.73,1.73,0,0,0-.72,0l-.53,1v0h0l-.51.93a2.15,2.15,0,0,1,.83.17c.28-.42,1.25-.34,2.2.19a3.16,3.16,0,0,1,1.29,1.8,3.19,3.19,0,0,1-2.21-.18c-.92-.51-1.49-1.26-1.33-1.72a2.21,2.21,0,0,0-.84-.15h0c-.44.77-.86,1.51-1.28,2.21a2.3,2.3,0,0,1,.85.16c.29-.44,1.29-.37,2.27.17a3.25,3.25,0,0,1,1.32,1.87,3.45,3.45,0,0,1-.78.14,2.64,2.64,0,0,1-1.52-.27c-.94-.53-1.52-1.32-1.34-1.81a2.18,2.18,0,0,0-.87-.14L385,316.67a2.76,2.76,0,0,1,.94.16c.31-.5,1.44-.41,2.54.2a3.35,3.35,0,0,1,1.19,1.25,5.26,5.26,0,0,1,.37.76,4.06,4.06,0,0,1-2.52-.19c-1.11-.52-1.82-1.35-1.64-1.9a2.4,2.4,0,0,0-.95-.15,20.53,20.53,0,0,0-1.95,4.07,7.38,7.38,0,0,0-.2.72c0,.22-.07.41-.1.56s0,.2,0,.27h-.13a.66.66,0,0,0,0-.15,4.22,4.22,0,0,1,.06-.42c0-.17.07-.35.12-.55a14.34,14.34,0,0,1,1.3-3.13,2.49,2.49,0,0,0-.68-.66c-.34.49-1.44.57-2.58.12a2.57,2.57,0,0,1-1.26-1.26,4.14,4.14,0,0,1-.34-.91l.26-.12" transform="translate(105.11 54.05)"/><path class="cls-23" d="M358.74,308.28l.5-.1a3.81,3.81,0,0,1,1.48,0,4.18,4.18,0,0,1,1.32.48,1,1,0,0,1,.54.67l.68,0h.34l.33.05a1.69,1.69,0,0,1-.14-.6c-.46-.06-.81-.74-.83-1.57a1.42,1.42,0,0,1,.52-1,.55.55,0,0,1,1.08.11,1.58,1.58,0,0,1,.39,1.15c-.14.78-.63,1.36-1.07,1.35a1.63,1.63,0,0,0,.16.61,8.81,8.81,0,0,1,2,.55,2.21,2.21,0,0,1,0-.68.9.9,0,0,1-.43-.67,3,3,0,0,1,0-1.2,1.73,1.73,0,0,1,.76-1,2.33,2.33,0,0,1,.65-.31,3.1,3.1,0,0,1,.37.66,1.73,1.73,0,0,1,.09,1.31c-.32.83-.91,1.34-1.35,1.27a1.78,1.78,0,0,0,0,.69,10.48,10.48,0,0,1,1.07.51h0c.37.18.72.39,1.06.59a1.8,1.8,0,0,1,.12-.71c-.39-.25-.41-1.12,0-2a2,2,0,0,1,1-.95,3.25,3.25,0,0,1,.68-.25,2.69,2.69,0,0,1,0,2.05c-.45.83-1.12,1.34-1.55,1.2a1.75,1.75,0,0,0-.11.73c.72.45,1.41.9,2.09,1.34a2.38,2.38,0,0,1,.09-.74c-.44-.26-.42-1.18,0-2.13a2.42,2.42,0,0,1,1-1,3.71,3.71,0,0,1,.65-.32,3.2,3.2,0,0,1,0,2.12c-.43.93-1.14,1.52-1.61,1.39a1.93,1.93,0,0,0-.07.77l1,.66h0v0l.95.63a2.53,2.53,0,0,1,.25-.87c-.43-.34-.25-1.38.4-2.35a3.32,3.32,0,0,1,2.08-1.21,4.07,4.07,0,0,1,.08.82,2.76,2.76,0,0,1-.44,1.57c-.66.93-1.53,1.44-2,1.23a2.21,2.21,0,0,0-.25.88h0c.79.55,1.53,1.1,2.21,1.68a2.54,2.54,0,0,1,.31-.88c-.44-.4-.24-1.47.47-2.44a2.57,2.57,0,0,1,1.42-.9,4.34,4.34,0,0,1,.91-.12,3.81,3.81,0,0,1,.09.9,2.51,2.51,0,0,1-.54,1.62c-.78.88-1.74,1.28-2.24,1a2.24,2.24,0,0,0-.31.89c.41.35.78.72,1.14,1.06s.66.75,1,1.1a2.73,2.73,0,0,1,.49-.89,1.24,1.24,0,0,1-.07-1.18,4,4,0,0,1,.93-1.53,2.55,2.55,0,0,1,1.78-.72,4.37,4.37,0,0,1,1.11.09s0,.13,0,.32a4.7,4.7,0,0,1,0,.79,2.64,2.64,0,0,1-.89,1.74,4.19,4.19,0,0,1-1.58.75,1.48,1.48,0,0,1-1.16-.15,2.84,2.84,0,0,0-.51.91c.3.42.58.81.83,1.2l.69,1.09a8.09,8.09,0,0,1,.93,1.83,3.09,3.09,0,0,1,.18,1.27h-.14a2.76,2.76,0,0,0,0-.78,5.29,5.29,0,0,0-.51-1.36c-.27-.52-.64-1.08-1-1.72a2.88,2.88,0,0,0-1,.28c.3.61-.27,1.63-1.32,2.42a3,3,0,0,1-1.79.58,6.82,6.82,0,0,1-1.06-.19,7.72,7.72,0,0,1,.38-.71,5.33,5.33,0,0,1,1.13-1.44,4.44,4.44,0,0,1,1.52-.89,1,1,0,0,1,1.06.12,2.63,2.63,0,0,1,1-.3c-.24-.4-.53-.78-.82-1.21s-.67-.8-1-1.23a2.28,2.28,0,0,0-.77.42,1,1,0,0,1,0,1,4,4,0,0,1-.91,1.22,4.13,4.13,0,0,1-1.41.81l-.52.16-.21,0a4.18,4.18,0,0,1,.14-.75,3.81,3.81,0,0,1,.7-1.48c.76-.93,1.72-1.39,2.16-1.05a2.36,2.36,0,0,1,.77-.42c-.36-.34-.71-.7-1.1-1s-.81-.68-1.25-1a2.32,2.32,0,0,0-.7.5c.37.38.11,1.36-.58,2.26a3.82,3.82,0,0,1-2,1.21,4.82,4.82,0,0,1,0-.78,3.19,3.19,0,0,1,.49-1.53c.66-1,1.56-1.51,2-1.23a2.42,2.42,0,0,1,.68-.51c-.64-.48-1.33-.94-2.05-1.41a1.73,1.73,0,0,0-.63.34c.3.39,0,1.26-.69,2a3,3,0,0,1-2,.76,4.14,4.14,0,0,1,0-.75,2.44,2.44,0,0,1,.59-1.33c.73-.75,1.61-1.09,2-.76a1.74,1.74,0,0,1,.6-.34l-2.14-1.37a1.7,1.7,0,0,0-.59.34c.27.35,0,1.15-.6,1.86a2.53,2.53,0,0,1-1.17.66,3.37,3.37,0,0,1-.65.13,2.87,2.87,0,0,1,0-.66,2.68,2.68,0,0,1,.53-1.23c.61-.75,1.4-1.11,1.77-.83a1.9,1.9,0,0,1,.56-.34c-.66-.42-1.32-.84-2-1.21a1.54,1.54,0,0,0-.5.35c.28.31.08,1.07-.47,1.76a2.36,2.36,0,0,1-1,.72l-.38.16-.15.06a4.33,4.33,0,0,1,0-.6,2.71,2.71,0,0,1,.36-1.19c.46-.79,1.15-1.2,1.52-1a1.67,1.67,0,0,1,.47-.34,10.11,10.11,0,0,0-2.25-.88,1.44,1.44,0,0,0-.43.42c.34.25.3,1-.06,1.67a2.4,2.4,0,0,1-.71.81l-.29.22-.11.07a3.88,3.88,0,0,1-.1-.53,2.56,2.56,0,0,1,0-1.13c.22-.79.76-1.29,1.16-1.15a1.5,1.5,0,0,1,.39-.41,9.38,9.38,0,0,0-1.06-.18c-.36,0-.72,0-1.07-.05-.09.22-.34.35-.72.43a4.31,4.31,0,0,1-1.49-.06A2.66,2.66,0,0,1,359,309a2.62,2.62,0,0,1-.41-.64l.2-.06" transform="translate(105.11 54.05)"/><path class="cls-23" d="M377.21,315.21a3.67,3.67,0,0,1,2.21-.25c1.55.38,2.67,1.28,2.55,2a3.21,3.21,0,0,1,1,.61c.31-1.05.66-2.21,1-3.47a2.69,2.69,0,0,0-.87-.56c-.26.6-1.48.82-2.81.49a4.08,4.08,0,0,1-2.22-1.88,4,4,0,0,1,2.85-.58c1.37.35,2.35,1.16,2.23,1.83a2.87,2.87,0,0,1,.87.55c.15-.55.33-1.11.48-1.7s.29-1.2.44-1.82a2.45,2.45,0,0,0-.87-.51c-.24.56-1.41.77-2.71.47a3.84,3.84,0,0,1-1.64-.93,4.82,4.82,0,0,1-.61-.67,4.89,4.89,0,0,1,.85-.37,3.53,3.53,0,0,1,1.87-.22c1.35.26,2.38,1,2.28,1.59a2.64,2.64,0,0,1,.87.49c.23-.92.37-1.89.54-2.88a2.26,2.26,0,0,0-.66-.52c-.29.51-1.36.61-2.49.21a3.11,3.11,0,0,1-1.34-1,3.52,3.52,0,0,1-.33-.51,2.08,2.08,0,0,1-.12-.22,3.54,3.54,0,0,1,2.52-.33c1.17.4,2,1.18,1.8,1.76a2.37,2.37,0,0,1,.65.48c.16-1,.29-1.95.42-3a2.13,2.13,0,0,0-.67-.45c-.23.46-1.21.6-2.27.3a3.41,3.41,0,0,1-1.76-1.55l.21-.11a4.49,4.49,0,0,1,.53-.21,2.62,2.62,0,0,1,1.58-.07c1.09.33,1.85,1,1.75,1.52a2.52,2.52,0,0,1,.65.43c.11-.91.22-1.83.34-2.77a2.12,2.12,0,0,0-.59-.43c-.23.46-1.15.59-2.14.29a3.07,3.07,0,0,1-1.6-1.57,3.79,3.79,0,0,1,.7-.3,2.88,2.88,0,0,1,1.46,0c1,.29,1.73,1,1.61,1.48a2.11,2.11,0,0,1,.58.39c.1-.95.21-1.89.25-2.86a1.62,1.62,0,0,0-.58-.43c-.2.48-1,.66-1.94.42a2.27,2.27,0,0,1-1.1-.76,2.47,2.47,0,0,1-.28-.4,1.41,1.41,0,0,1-.1-.18,2.71,2.71,0,0,1,2-.55c.93.23,1.59.85,1.49,1.37a1.74,1.74,0,0,1,.56.38c0-.87,0-1.75.07-2.66-.5-.19-.6-1.42,0-2.77a3.3,3.3,0,0,1,.61-.87,2.71,2.71,0,0,1,.73-.53,2.79,2.79,0,0,1,.81-.32,5,5,0,0,1,0,.86c0,.13,0,.25,0,.38s0,.29,0,.43a4,4,0,0,1-.27.88,4.53,4.53,0,0,1-.39.76,3.81,3.81,0,0,1-.41.63,1.26,1.26,0,0,1-.84.58c0,.56,0,1.12,0,1.67a2,2,0,0,1,.68-.25c0-.54.83-.93,1.79-.89a2.26,2.26,0,0,1,1.24.52,3.57,3.57,0,0,1,.51.48l-.14.15a3.86,3.86,0,0,1-.39.33,2.05,2.05,0,0,1-1.26.48c-.93,0-1.69-.44-1.75-1a1.67,1.67,0,0,0-.68.27c0,.84-.06,1.66-.15,2.48a2.41,2.41,0,0,1,.77-.21c.08-.52.95-.92,2-.89a2.39,2.39,0,0,1,1.38.55,4,4,0,0,1,.41.38,1.45,1.45,0,0,1,.14.18,2.8,2.8,0,0,1-2.06,1c-1-.09-1.84-.56-1.89-1.08a2,2,0,0,0-.78.22l-.15,1.38h0c-.06.47-.11.94-.17,1.4a2.37,2.37,0,0,1,.82-.21c.08-.52,1-.88,2.17-.78a3.5,3.5,0,0,1,2,1.12,3.46,3.46,0,0,1-2.17.81c-1.11-.07-2-.52-2-1a2.08,2.08,0,0,0-.84.23c-.12,1-.24,1.95-.37,2.89a2.59,2.59,0,0,1,.83-.27c.05-.6,1.05-1.07,2.28-1.07a3.6,3.6,0,0,1,2.28,1.14,3.62,3.62,0,0,1-2.29,1.11c-1.19,0-2.17-.47-2.26-1a2.27,2.27,0,0,0-.86.3c-.07.48-.15,1-.22,1.42l0,0,0,0c-.08.44-.15.89-.23,1.33a2.7,2.7,0,0,1,1.06-.15c.17-.62,1.36-.93,2.71-.69a4,4,0,0,1,2.29,1.67,4.13,4.13,0,0,1-.84.48,3.32,3.32,0,0,1-1.89.26c-1.3-.27-2.29-1-2.28-1.58a2.73,2.73,0,0,0-1.07.16h0c-.09.55-.23,1.09-.35,1.62s-.25,1-.38,1.55a3,3,0,0,1,1.09-.1c.2-.65,1.44-.95,2.82-.65a3.13,3.13,0,0,1,1.66,1.07,4.67,4.67,0,0,1,.59.86,4.43,4.43,0,0,1-.9.49,2.9,2.9,0,0,1-.91.23,3,3,0,0,1-1-.07c-1.33-.34-2.29-1.11-2.26-1.78a2.51,2.51,0,0,0-1.1.11c-.31,1.21-.67,2.33-1,3.38a3.09,3.09,0,0,1,1.19-.09c.24-.73,1.65-1,3.2-.6a4,4,0,0,1,1.85,1.18,5,5,0,0,1,.5.61l.17.26a5.22,5.22,0,0,1-1,.44,4,4,0,0,1-2.18.17c-1.51-.34-2.62-1.17-2.58-1.9a3,3,0,0,0-1.21.11c-.32,1.14-.66,2.17-.9,3.1s-.51,1.72-.64,2.39-.29,1.19-.38,1.56c0,.11-.06.2-.08.28h-.16a1.24,1.24,0,0,1,0-.16c.07-.27.16-.66.28-1.15.21-1,.63-2.37,1.1-4.08a3.07,3.07,0,0,0-1-.63c-.3.68-1.63,1-3.16.71a3.62,3.62,0,0,1-1.9-1.19,5.47,5.47,0,0,1-.67-.92,5.4,5.4,0,0,1,1-.55" transform="translate(105.11 54.05)"/><path class="cls-22" d="M384.43,321.88a9.28,9.28,0,0,0-.69.85l-.07.11h-.13a.35.35,0,0,1,0-.08,4.58,4.58,0,0,1,.5-.65,14.46,14.46,0,0,1,2.1-1.93,2,2,0,0,0-.31-.73c-.42.26-1.29-.06-2-.81a2.24,2.24,0,0,1-.55-1.38c0-.23,0-.42,0-.56s0-.22,0-.22a3.23,3.23,0,0,1,.76.09,2.63,2.63,0,0,1,1.27.73c.71.8,1,1.71.62,2.08a2.44,2.44,0,0,1,.32.73c.57-.45,1.21-.94,1.87-1.52a2,2,0,0,0-.29-.63c-.36.26-1.11-.08-1.72-.76a2.38,2.38,0,0,1-.55-1.16,3.35,3.35,0,0,1-.08-.64,2.87,2.87,0,0,1,1.77.7c.66.67.94,1.47.65,1.8a2.1,2.1,0,0,1,.3.62c.55-.51,1.16-1.06,1.76-1.66a1.88,1.88,0,0,0-.31-.6c-.33.24-1.08-.05-1.71-.67a2.71,2.71,0,0,1-.67-1.74,2.67,2.67,0,0,1,1.76.62c.65.64.95,1.4.68,1.72a1.86,1.86,0,0,1,.32.59l1.35-1.4a1.63,1.63,0,0,0-.18-.54c-.34.18-1-.16-1.45-.8a2.51,2.51,0,0,1-.35-1.63,3.57,3.57,0,0,1,.56.13,2,2,0,0,1,.95.62c.51.65.66,1.37.36,1.63a1.54,1.54,0,0,1,.18.51q.66-.72,1.32-1.5a1.35,1.35,0,0,0-.21-.49c-.29.18-.89-.1-1.37-.66a1.83,1.83,0,0,1-.4-1,2,2,0,0,1,0-.54,2.14,2.14,0,0,1,1.43.63c.49.59.66,1.25.41,1.5a1.55,1.55,0,0,1,.2.47l1.21-1.4a1.25,1.25,0,0,0-.16-.46c-.29.16-.86-.11-1.29-.65a1.57,1.57,0,0,1-.29-1,2.33,2.33,0,0,1,.06-.53,1.94,1.94,0,0,1,.52.09,1.5,1.5,0,0,1,.82.55c.4.58.51,1.22.25,1.45a1.82,1.82,0,0,1,.16.43c.21-.23.43-.46.64-.7s.45-.47.7-.69a1.26,1.26,0,0,0-.07-.49c-.34.14-.85-.12-1.18-.65a1.21,1.21,0,0,1-.1-.93,2,2,0,0,1,.18-.51,1.63,1.63,0,0,1,1.2.69c.3.57.27,1.15,0,1.37a1.25,1.25,0,0,1,.08.45c.43-.42.9-.77,1.37-1.16-.06-.17,0-.39.27-.62a2.15,2.15,0,0,1,.43-.34,3.85,3.85,0,0,1,.53-.3,2.93,2.93,0,0,1,1.77-.06,2.76,2.76,0,0,1-.29.5,2.57,2.57,0,0,1-.94.78c-.77.34-1.48.39-1.72.14l-.86.69a1.27,1.27,0,0,1,.43.24c.29-.21.84,0,1.25.51a1.82,1.82,0,0,1,.27,1.3,2.92,2.92,0,0,1-.46-.07,1.57,1.57,0,0,1-.77-.43c-.41-.45-.59-1-.34-1.27a1.12,1.12,0,0,0-.45-.22l-.62.57-.58.59a1.7,1.7,0,0,1,.49.22c.25-.23.84,0,1.33.49a2.17,2.17,0,0,1,.46.87,3.44,3.44,0,0,1,.09.47,2.9,2.9,0,0,1-.45-.07,2,2,0,0,1-.87-.41c-.52-.45-.79-1-.61-1.29a1.18,1.18,0,0,0-.5-.21c-.21.23-.42.45-.62.68h0l-.62.72a1.66,1.66,0,0,1,.53.18c.24-.26.89-.09,1.47.4a2,2,0,0,1,.58.87,2.43,2.43,0,0,1,.14.49,4.76,4.76,0,0,1-.5,0,1.91,1.91,0,0,1-1-.36c-.59-.44-.91-1-.75-1.32a1.37,1.37,0,0,0-.55-.18l-1.27,1.47a1.9,1.9,0,0,1,.57.15c.24-.32,1-.22,1.66.24a2.43,2.43,0,0,1,.85,1.46,3,3,0,0,1-.58.07,2,2,0,0,1-1.11-.28c-.66-.44-1-1.06-.87-1.41a1.55,1.55,0,0,0-.59-.15l-.64.71h0l-.61.66a1.82,1.82,0,0,1,.64.31c.31-.29,1.08,0,1.75.63a1,1,0,1,1-1.1,1.14c-.64-.62-.94-1.36-.71-1.7a1.87,1.87,0,0,0-.65-.31h0c-.52.54-1,1.06-1.53,1.52a2,2,0,0,1,.65.33c.35-.3,1.15,0,1.82.64a2.1,2.1,0,0,1,.58,1.16,2.68,2.68,0,0,1,0,.68,2.6,2.6,0,0,1-1.85-.62c-.64-.66-.91-1.43-.66-1.79a1.67,1.67,0,0,0-.67-.32c-.61.57-1.18,1.11-1.75,1.56a2.54,2.54,0,0,1,.69.39c.41-.31,1.3,0,2,.79a2.36,2.36,0,0,1,.58,1.37,3.11,3.11,0,0,1,0,.79h-.23a2.66,2.66,0,0,1-.53-.1,2.49,2.49,0,0,1-1.28-.72c-.68-.78-.95-1.66-.64-2.05a2.11,2.11,0,0,0-.71-.39,26.49,26.49,0,0,0-2.91,2.46" transform="translate(105.11 54.05)"/><polygon class="cls-24" points="254.23 397.77 254.23 349.11 226.04 365.39 226.04 414.05 254.23 397.77"/><polygon class="cls-14" points="227.63 366.3 252.64 351.86 252.64 396.85 227.63 411.29 227.63 366.3"/><polygon class="cls-25" points="231.6 368.6 248.67 358.74 248.67 394.56 231.6 404.42 231.6 368.6"/><path class="cls-14" d="M108.91,274.64c4.51-2.61,8.18-.51,8.18,4.67s-3.67,11.51-8.18,14.12-8.19.51-8.19-4.67,3.67-11.52,8.19-14.12" transform="translate(105.11 54.05)"/><path class="cls-26" d="M108.91,277c.23-.14.42,0,.42.24V284a.93.93,0,0,1-.42.73c-.24.14-.43,0-.43-.24v-6.8a.91.91,0,0,1,.43-.73" transform="translate(105.11 54.05)"/><path class="cls-26" d="M106.09,281.94l3.11,1.78c.17.09.17.4,0,.69a.88.88,0,0,1-.29.31.28.28,0,0,1-.3,0L105.49,283c-.16-.1-.16-.4,0-.69s.44-.44.6-.35" transform="translate(105.11 54.05)"/><path class="cls-27" d="M103,292.66l.2.09.07,0a3.76,3.76,0,0,0,.48.13h0l.34,0H105l.16,0,.18,0,.15,0,.19,0,.13,0,.2,0,.14,0,.22-.07.11,0,.32-.12h0l.34-.14.11-.05.24-.12.12-.07.32-.17.75-.48,0,0c.23-.16.45-.33.67-.5l.08-.06c.21-.18.42-.36.63-.56a.46.46,0,0,0,.07-.07c.21-.19.42-.4.62-.61a.12.12,0,0,1,0-.05l.63-.71v0c.2-.25.4-.5.6-.77l0,0c.17-.23.33-.47.49-.71s.21-.33.31-.49.17-.26.24-.39a2,2,0,0,0,.11-.2c.13-.23.26-.46.38-.69a.3.3,0,0,1,0-.08c.14-.28.28-.57.4-.86,0,0,0,0,0,0,.12-.29.24-.57.35-.86a.14.14,0,0,1,0-.06c.11-.29.21-.59.3-.88a.09.09,0,0,1,0-.05c.08-.29.16-.57.23-.86a.31.31,0,0,1,0-.08c.06-.29.12-.58.17-.87v0c0-.29.08-.58.11-.87V280c0-.29,0-.57,0-.86s0-.55,0-.81c0,0,0-.05,0-.07,0-.24-.06-.47-.1-.69,0,0,0-.06,0-.09a5.61,5.61,0,0,0-.16-.62l0-.11-.21-.53,0-.05a5.44,5.44,0,0,0-.29-.54l0-.07a3.8,3.8,0,0,0-.29-.38.69.69,0,0,1-.11-.13l-.28-.27-.12-.1a4.15,4.15,0,0,0-.43-.3h0l1,.6a3.3,3.3,0,0,1,.43.3l.12.11a2.37,2.37,0,0,1,.28.27l.12.12c.1.12.19.25.28.38a.18.18,0,0,1,0,.07h0a4.16,4.16,0,0,1,.28.51v0l0,.05c0,.12.11.23.15.35l.06.19,0,.1,0,.11c0,.12.07.24.1.37l0,.14,0,.09c0,.05,0,.09,0,.14l.06.35a1.36,1.36,0,0,0,0,.2v.07a.28.28,0,0,1,0,.09c0,.11,0,.23,0,.35s0,.23,0,.35v.36c0,.12,0,.24,0,.36s0,.11,0,.16a.15.15,0,0,1,0,.07.57.57,0,0,1,0,.13c0,.12,0,.24,0,.36s0,.25,0,.37v0h0a2.14,2.14,0,0,1-.06.35c0,.13-.05.25-.07.38s0,.1,0,.15a.31.31,0,0,1,0,.08l0,.16c0,.13-.07.26-.11.4s0,.19-.08.29l0,.05s0,0,0,.05-.08.26-.13.38-.08.26-.13.38l0,.08,0,.05-.08.24-.15.36c0,.08-.07.17-.11.26l0,0,0,.05-.17.36c-.06.13-.12.26-.19.39l0,.07a.25.25,0,0,1,0,.07,3,3,0,0,1-.16.31l-.21.38-.11.2a.2.2,0,0,0,0,.08l-.2.31c-.1.17-.2.33-.31.49l-.05.08c-.14.21-.29.43-.44.63l0,0h0l-.33.43-.27.34h0l-.29.33c-.1.11-.19.22-.29.32l0,0,0,.05-.21.22-.32.31-.09.09-.07.07a1.07,1.07,0,0,0-.16.14l-.33.29-.15.12-.07.06-.11.09-.33.25-.23.17,0,0,0,0-.31.2-.32.2-.07,0-.24.13-.09.05-.12.06-.09.05-.15.07-.11.05,0,0-.29.12h0l-.28.11h0l-.11,0-.15,0-.08,0-.13,0-.1,0-.11,0-.13,0-.06,0-.13,0-.15,0h-.17l-.16,0h-.83l-.35-.05h0a3.62,3.62,0,0,1-.47-.13h-.07l-.2-.08-.1,0-.28-.15-1-.6.28.15.09,0" transform="translate(105.11 54.05)"/><path class="cls-27" d="M98.92,288.14V288a1.21,1.21,0,0,0,0-.19.76.76,0,0,0,0-.15c0-.06,0-.12,0-.18a.45.45,0,0,1,0-.11c0-.08,0-.17,0-.25s0-.09,0-.14v0c0-.15,0-.3.07-.45h0s0-.05,0-.08a2.25,2.25,0,0,1,.06-.36v-.07c0-.06,0-.12,0-.18s0-.15,0-.22l0-.13c0-.06,0-.13,0-.19l0-.15a1.33,1.33,0,0,0,0-.19,1.33,1.33,0,0,0,0-.19l0-.1a2.76,2.76,0,0,1,.08-.27c0-.05,0-.1,0-.16l0,0a4.26,4.26,0,0,1,.15-.47h0s0,0,0-.06l.14-.39a.14.14,0,0,1,0-.06L100,283c0-.07,0-.15.08-.22l.06-.14c0-.06,0-.12.07-.17a1.12,1.12,0,0,1,0-.13c0-.08.07-.16.11-.25s0-.09,0-.13l0-.05c.07-.14.13-.29.2-.43v0l.06-.13.16-.33,0-.05c0-.09.09-.18.14-.27l.11-.22a.05.05,0,0,0,0,0l.39-.69,0-.06,0-.06.6-1,0-.05.06-.08c.16-.25.33-.49.51-.73h0l0-.07c.1-.14.21-.29.33-.43l0,0c.08-.11.17-.21.26-.32l.08-.1h0c.12-.14.23-.28.35-.41v0l.11-.11c.07-.09.15-.17.23-.26l0,0,.15-.16.18-.18.06-.07.17-.16.15-.15.08-.07.18-.18.13-.12.1-.08.19-.16.11-.11.12-.09.18-.15.1-.08.15-.12a1.09,1.09,0,0,0,.17-.13l.07,0,.21-.15.15-.1,0,0,.38-.25h0l0,0,.35-.21.09,0,.29-.16.1-.06.15-.07.11-.06.19-.09.12-.06.06,0a2.63,2.63,0,0,1,.35-.15h0l.34-.13.05,0,.14,0,.17-.06.1,0,.16,0,.11,0,.14,0,.15,0h.08l.15,0,.18,0h.22l.19,0H112l.28,0h.15l.42.06h0l.09,0,.24.06.13,0,.16.05h0l.23.1.12.05a2.79,2.79,0,0,1,.34.18l1,.6-.34-.18-.11,0-.24-.09-.2-.07-.12,0-.25-.06-.09,0h0l-.42-.06h-.14l-.29,0h-.57l-.19,0-.22,0-.18,0-.23.05-.16,0-.25.06-.16.05-.27.08-.13.05-.39.14h0l-.41.17-.13.06-.29.15-.15.07-.39.22-.44.27h0l-.42.28-.14.1-.28.2-.17.13-.25.2L107,275l-.24.2-.18.16-.23.21-.19.17-.23.22-.16.17-.24.24-.15.16-.28.3-.1.11c-.12.15-.25.29-.37.43a.86.86,0,0,1-.07.1c-.1.12-.2.23-.29.35l-.32.43-.06.07-.51.73-.09.13c-.21.32-.41.63-.6,1l-.07.12c-.14.23-.27.46-.39.7l-.14.25-.13.27-.19.38-.06.13c-.08.17-.16.33-.23.5l-.06.13c0,.13-.1.25-.16.38l-.06.17c0,.12-.1.24-.14.36l-.06.16c-.06.15-.11.3-.16.46l0,.05c-.06.18-.12.35-.17.52l-.05.17c0,.12-.07.24-.1.36a1.17,1.17,0,0,0,0,.2l-.09.33c0,.06,0,.13,0,.2s0,.22-.08.34l0,.18c0,.15-.06.29-.08.43v.08c0,.17-.05.34-.08.51a.66.66,0,0,1,0,.14c0,.12,0,.24,0,.37s0,.11,0,.17,0,.23,0,.34,0,.11,0,.17,0,.32,0,.48,0,.33,0,.49a.66.66,0,0,1,0,.14l0,.32c0,.07,0,.13,0,.19a2.51,2.51,0,0,1,0,.27l0,.2a2,2,0,0,0,0,.24c0,.07,0,.14,0,.21s0,.15,0,.22a2.17,2.17,0,0,0,.07.24,1.05,1.05,0,0,0,0,.19l.09.28.06.16c.06.15.12.31.19.45l0,0c.1.2.2.38.31.56l0,.05c.09.14.19.27.29.4l.07.09a3.39,3.39,0,0,0,.31.34l0,0a3.47,3.47,0,0,0,.36.31l.09.07a3.51,3.51,0,0,0,.4.27h0l-1-.6a2.7,2.7,0,0,1-.39-.27l-.1-.07-.36-.31,0,0a3.39,3.39,0,0,1-.31-.34l-.08-.09a4.27,4.27,0,0,1-.29-.41h0l0,0c-.11-.18-.21-.36-.31-.56v0h0c-.07-.14-.14-.3-.2-.45s0,0,0,0a.36.36,0,0,1,0-.11c0-.09-.07-.18-.1-.28a.24.24,0,0,0,0-.08l0-.11-.06-.24,0-.11a.36.36,0,0,1,0-.11c0-.07,0-.14-.05-.21a.5.5,0,0,0,0-.12s0-.08,0-.13l0-.19v-.1c0-.06,0-.12,0-.17s0-.13,0-.19,0-.05,0-.07,0-.17,0-.26a.57.57,0,0,1,0-.13v0c0-.14,0-.28,0-.43v-.43a.25.25,0,0,1,0-.08" transform="translate(105.11 54.05)"/></g><g class="cls-28"><rect class="cls-29" x="398.5" y="327.19" width="0.34" height="21.8"/><rect class="cls-30" x="397.56" y="327.19" width="0.94" height="21.8"/><rect class="cls-31" x="396.61" y="327.19" width="0.95" height="21.8"/><rect class="cls-32" x="395.66" y="327.19" width="0.95" height="21.8"/><rect class="cls-33" x="394.72" y="327.19" width="0.95" height="21.8"/><rect class="cls-34" x="393.77" y="327.19" width="0.95" height="21.8"/><rect class="cls-35" x="392.82" y="327.19" width="0.95" height="21.8"/><rect class="cls-36" x="391.88" y="327.19" width="0.95" height="21.8"/><rect class="cls-37" x="390.93" y="327.19" width="0.95" height="21.8"/><rect class="cls-38" x="389.98" y="327.19" width="0.95" height="21.8"/><rect class="cls-39" x="389.04" y="327.19" width="0.94" height="21.8"/><rect class="cls-40" x="388.09" y="327.19" width="0.95" height="21.8"/><rect class="cls-41" x="387.14" y="327.19" width="0.95" height="21.8"/><rect class="cls-42" x="386.2" y="327.19" width="0.95" height="21.8"/><rect class="cls-43" x="385.25" y="327.19" width="0.95" height="21.8"/><rect class="cls-44" x="384.3" y="327.19" width="0.95" height="21.8"/><rect class="cls-45" x="383.96" y="327.19" width="0.34" height="21.8"/><rect class="cls-14" x="400.4" y="324.89" width="0.02" height="26.39"/><rect class="cls-14" x="399.45" y="324.89" width="0.95" height="26.39"/><rect class="cls-29" x="398.5" y="324.89" width="0.95" height="26.39"/><rect class="cls-30" x="397.56" y="324.89" width="0.94" height="26.39"/><rect class="cls-31" x="396.61" y="324.89" width="0.95" height="26.39"/><rect class="cls-32" x="395.66" y="324.89" width="0.95" height="26.39"/><rect class="cls-33" x="394.72" y="324.89" width="0.95" height="26.39"/><rect class="cls-34" x="393.77" y="324.89" width="0.95" height="26.39"/><rect class="cls-35" x="392.82" y="324.89" width="0.95" height="26.39"/><rect class="cls-36" x="391.88" y="324.89" width="0.95" height="26.39"/><rect class="cls-37" x="390.93" y="324.89" width="0.95" height="26.39"/><rect class="cls-38" x="389.98" y="324.89" width="0.95" height="26.39"/><rect class="cls-39" x="389.04" y="324.89" width="0.94" height="26.39"/><rect class="cls-40" x="388.09" y="324.89" width="0.95" height="26.39"/><rect class="cls-41" x="387.14" y="324.89" width="0.95" height="26.39"/><rect class="cls-42" x="386.2" y="324.89" width="0.95" height="26.39"/><rect class="cls-43" x="385.25" y="324.89" width="0.95" height="26.39"/><rect class="cls-44" x="384.3" y="324.89" width="0.95" height="26.39"/><rect class="cls-45" x="383.36" y="324.89" width="0.95" height="26.39"/><rect class="cls-46" x="382.41" y="324.89" width="0.95" height="26.39"/><rect class="cls-46" x="382.4" y="324.89" width="0.01" height="26.39"/></g><g class="cls-11"><polygon class="cls-47" points="309.93 500.92 255.95 532.08 326.79 571.77 380.76 540.61 309.93 500.92"/><polygon class="cls-48" points="384.28 261.88 384.28 402.45 388.52 404.9 388.64 259.36 384.28 261.88"/><polygon class="cls-49" points="393.82 261.26 393.82 401.83 388.52 404.89 388.52 264.33 393.82 261.26"/><polygon class="cls-50" points="388.52 264.33 393.82 261.26 389.58 258.82 384.28 261.88 388.52 264.33"/><polygon class="cls-48" points="440.94 291.6 393.82 264.6 389.58 267.04 440.95 296.63 440.94 291.6"/><polygon class="cls-49" points="436.71 300.17 389.58 273.17 389.58 267.04 436.71 294.05 436.71 300.17"/><polygon class="cls-50" points="436.71 294.05 436.71 300.17 440.95 297.72 440.94 291.6 436.71 294.05"/><polygon class="cls-48" points="280.05 323.85 384.12 263.69 388.35 266.14 280.05 328.88 280.05 323.85"/><polygon class="cls-49" points="284.28 332.42 388.35 272.26 388.35 266.14 284.28 326.3 284.28 332.42"/><polygon class="cls-50" points="284.28 326.3 284.28 332.42 280.05 329.98 280.05 323.85 284.28 326.3"/><polygon class="cls-48" points="280.05 414.21 384.12 354.05 388.35 356.5 280.05 419.24 280.05 414.21"/><polygon class="cls-49" points="284.28 422.78 388.35 362.62 388.35 356.5 284.28 416.66 284.28 422.78"/><polygon class="cls-50" points="284.28 416.66 284.28 422.78 280.05 420.33 280.05 414.21 284.28 416.66"/><polygon class="cls-48" points="436.65 292.03 436.65 432.59 440.89 435.04 441.01 289.51 436.65 292.03"/><polygon class="cls-49" points="446.19 291.41 446.19 431.98 440.89 435.04 440.89 294.47 446.19 291.41"/><polygon class="cls-50" points="440.89 294.47 446.19 291.41 441.95 288.96 436.65 292.03 440.89 294.47"/><polygon class="cls-48" points="277.38 323.33 277.38 463.9 281.62 466.35 281.74 320.81 277.38 323.33"/><polygon class="cls-49" points="286.92 322.71 286.92 463.29 281.62 466.35 281.62 325.78 286.92 322.71"/><polygon class="cls-50" points="281.62 325.78 286.92 322.71 282.68 320.27 277.38 323.33 281.62 325.78"/><polygon class="cls-49" points="277.34 430.67 277.34 443.87 334.78 476.71 334.78 463.51 277.34 430.67"/><polygon class="cls-49" points="440.5 402.43 440.5 415.64 334.78 476.71 334.78 463.51 440.5 402.43"/><polygon class="cls-50" points="334.78 463.51 440.5 402.43 383.06 369.58 277.34 430.67 334.78 463.51"/><polygon class="cls-14" points="432.34 402.62 381.85 373.74 284.3 430.1 334.78 458.98 432.34 402.62"/><path class="cls-14" d="M327.22,348.57s-1.79-5.75-10.82-11-36.14-22.3-44-21.47S181.88,364.78,179.19,370s0,6.05,0,6.05Z" transform="translate(105.11 54.05)"/><polygon class="cls-49" points="277.34 337.17 277.34 350.38 334.78 383.22 334.78 370.01 277.34 337.17"/><polygon class="cls-48" points="277.38 323.33 277.38 463.9 281.62 466.35 281.74 320.81 277.38 323.33"/><polygon class="cls-49" points="440.5 308.93 440.5 322.14 334.78 383.22 334.78 370.02 440.5 308.93"/><polygon class="cls-50" points="334.78 370.01 440.5 308.93 383.06 276.09 277.34 337.17 334.78 370.01"/><polygon class="cls-48" points="277.38 323.33 277.38 463.9 281.62 466.35 281.74 320.81 277.38 323.33"/><polygon class="cls-14" points="432.34 309.13 381.85 280.24 284.3 336.61 334.78 365.49 432.34 309.13"/><path class="cls-14" d="M327.22,255.07s-1.79-5.75-10.82-11-36.14-22.3-44-21.47-90.53,48.64-93.22,53.87,0,6,0,6Z" transform="translate(105.11 54.05)"/><path class="cls-51" d="M309.85,325s-23.13-16.57-28.54-15.33-13.16,9.42-16.2,14.56,22.44,19.06,29.31,20.59,20.15-16.56,15.43-19.82" transform="translate(105.11 54.05)"/><polygon class="cls-48" points="360.22 368.52 360.11 449.18 355.87 446.73 355.87 371.03 360.22 368.52"/><polygon class="cls-49" points="365.42 363.98 365.42 459.15 360.11 462.21 360.11 367.04 365.42 363.98"/><path class="cls-52" d="M311.5,232.7s-24.79-17.76-30.59-16.44-14.1,10.1-17.36,15.61S287.6,252.3,295,253.94s21.6-17.74,16.54-21.24" transform="translate(105.11 54.05)"/><polygon class="cls-48" points="334.19 352.66 286.92 325.55 282.69 328 334.2 357.69 334.19 352.66"/><polygon class="cls-49" points="329.96 361.23 282.69 334.12 282.69 328 329.96 355.11 329.96 361.23"/><polygon class="cls-50" points="329.96 355.1 329.96 361.23 334.2 358.78 334.2 352.66 329.96 355.1"/><polygon class="cls-48" points="440.94 381.39 393.82 354.39 389.58 356.84 440.95 386.42 440.94 381.39"/><polygon class="cls-49" points="436.71 389.96 389.58 362.96 389.58 356.84 436.71 383.84 436.71 389.96"/><polygon class="cls-48" points="334.19 442.45 286.92 415.34 282.69 417.79 334.2 447.48 334.19 442.45"/><polygon class="cls-49" points="329.96 451.02 282.69 423.92 282.69 417.79 329.96 444.9 329.96 451.02"/><polygon class="cls-50" points="329.96 444.9 329.96 451.02 334.2 448.57 334.2 442.45 329.96 444.9"/><polygon class="cls-48" points="335.76 404.56 356.07 393.2 358.72 394.73 335.76 407.71 335.76 404.56"/><polygon class="cls-49" points="338.42 409.92 358.72 398.56 358.72 394.73 338.42 406.09 338.42 409.92"/><polygon class="cls-50" points="338.42 406.09 338.42 409.92 335.76 408.39 335.76 404.56 338.42 406.09"/><polygon class="cls-48" points="335.76 389.71 356.07 378.35 358.72 379.88 335.76 392.86 335.76 389.71"/><polygon class="cls-49" points="338.42 395.08 358.72 383.71 358.72 379.88 338.42 391.24 338.42 395.08"/><polygon class="cls-50" points="338.42 391.24 338.42 395.08 335.76 393.54 335.76 389.71 338.42 391.24"/><polygon class="cls-48" points="335.76 419.07 356.07 407.71 358.72 409.24 335.76 422.22 335.76 419.07"/><polygon class="cls-49" points="338.42 424.44 358.72 413.08 358.72 409.24 338.42 420.61 338.42 424.44"/><polygon class="cls-50" points="338.42 420.6 338.42 424.44 335.76 422.9 335.76 419.07 338.42 420.6"/><polygon class="cls-48" points="335.76 433.66 356.07 422.29 358.72 423.83 335.76 436.81 335.76 433.66"/><polygon class="cls-49" points="338.42 439.02 358.72 427.66 358.72 423.83 338.42 435.19 338.42 439.02"/><polygon class="cls-50" points="338.42 435.19 338.42 439.02 335.76 437.49 335.76 433.66 338.42 435.19"/><polygon class="cls-48" points="335.76 448.1 356.07 436.73 358.72 438.26 335.76 451.25 335.76 448.1"/><polygon class="cls-49" points="338.42 453.46 358.72 442.1 358.72 438.26 338.42 449.63 338.42 453.46"/><polygon class="cls-50" points="338.42 449.63 338.42 453.46 335.76 451.93 335.76 448.1 338.42 449.63"/><polygon class="cls-48" points="330.2 353.86 330.2 494.43 334.44 496.88 334.56 351.34 330.2 353.86"/><polygon class="cls-49" points="339.74 353.25 339.74 493.81 334.44 496.88 334.44 356.31 339.74 353.25"/><polygon class="cls-50" points="334.44 356.31 339.74 353.25 335.5 350.8 330.2 353.86 334.44 356.31"/><path class="cls-53" d="M229.17,423.53V409.17l.25-.15,106.47-61.51v14.36Zm1-13.78v12l104.72-60.5V349.24Z" transform="translate(105.11 54.05)"/><path class="cls-54" d="M394.67,451.1s7,4.27,1.38,8.61-20.26,15-29.31,12.36-23.43-12.85-24.6-14.21-1.05-3.44,3.66-6.91c3.38-2.48,19.83-11.55,20.78-11.89s4-2.12,10.2,1.14c5.86,3.07,17.89,10.9,17.89,10.9" transform="translate(105.11 54.05)"/><path class="cls-55" d="M410.89,443.72c.78.16,1.21,1.2,1.54,1.81a2.53,2.53,0,0,1-.35,3.07c-1,1.13-3,1.13-3.76,1.9a41.07,41.07,0,0,1-6,3.74c-1.13.6-3.63.67-4.4-.31a3.3,3.3,0,0,1,.13-3.12,32.12,32.12,0,0,0,3-3.25,11.5,11.5,0,0,0,1.59-1.76c.32-.43,1.53-2.53,2.26-2Z" transform="translate(105.11 54.05)"/><path class="cls-56" d="M415.19,397.52c-.69,3.52-.39,7.1-.8,10.67-.51,4.23.33,9.21-1.62,13.15a5.45,5.45,0,0,1-4.87,2.94c-1.36-.11-4.3-.53-4.1-1.47s-.58-2.76-.54-3.63c.09-1.65.05-11.48-.06-14.65-.1-2.58-.05-4.19,0-7,0,0-.62-5.34,5.6-4.48s6.51,4,6.41,4.52" transform="translate(105.11 54.05)"/><path class="cls-56" d="M413.55,421.14a48.19,48.19,0,0,1-.11-6.63c0-1.87-9.91.15-10.1,4.68,0,0,1.83,17.64.54,23.22l-.18.94a1.38,1.38,0,0,0,.38,1.44,6,6,0,0,0,2.22,1.11c1.73.42,4.05.24,5.26-1.06,3-3.19,3.15-16,2-23.7" transform="translate(105.11 54.05)"/><path class="cls-55" d="M424.52,450.65c.78.16,1.21,1.2,1.54,1.82a2.38,2.38,0,0,1-.34,3c-.41.4-3,1.13-3.76,1.91a44.2,44.2,0,0,1-5,3.51,7.07,7.07,0,0,1-2.59,1.06,4.09,4.09,0,0,1-3.47-1.12c-.56-.72-.6-1.53-.12-1.94,1.64-1.42,2.36-2.89,3.4-4a17.75,17.75,0,0,0,2.09-2.25c.33-.43,1.54-2.53,2.26-2Z" transform="translate(105.11 54.05)"/><path class="cls-56" d="M423.13,401.34c-.4,3.58.63,7.33.5,10.92-.15,4.26,1.09,9.15-.53,13.24-.49,1.23-2.23,3.34-4.61,3.33-1.37,0-4.33-.17-4.21-1.13s-.81-2.7-.83-3.58c-.05-1.64-.9-11.44-1.27-14.59a28.63,28.63,0,0,0-1.51-7.42s-.72-5.51,5.56-5.55c5.23,0,7,4.27,6.9,4.78" transform="translate(105.11 54.05)"/><path class="cls-56" d="M424.56,428a47.92,47.92,0,0,1-.65-6.6c-.19-1.87-10.19-.92-10,3.61,0,0,3.6,19.31,2.76,25l-.1.94a1.4,1.4,0,0,0,.49,1.41,6.2,6.2,0,0,0,2.31.93c1.76.27,4.05-.1,5.16-1.5,2.71-3.42,1.82-16.23,0-23.77" transform="translate(105.11 54.05)"/><path class="cls-57" d="M405.88,364.73c-1.68,6.79-4,13.59-6.47,13-.93-.23-4.34-1.58-3.73-3.75,1.44-5.06.78-7.95,1.84-12.2,1.67-6.79,3.7-7.55,6.21-6.93s3.83,3.11,2.15,9.91" transform="translate(105.11 54.05)"/><path class="cls-58" d="M415.14,354.64c.58.12,6.21,5.79,8.93,8.88,2,2.26,2.24,7.62,2.21,8.32-.08,2.29-2.16,14.82-2.51,18.75-.28,3.12.35,7.49.35,9.58,0,1.93-2.84,5.27-8.56,5.27-3.6,0-13-1.77-13.6-7.54-.46-4.65.78-21.23.14-23.74s-5.55-15.39-1.68-18.82A7,7,0,0,1,404.6,354c4.28.21,9.82.53,10.54.68" transform="translate(105.11 54.05)"/><path class="cls-58" d="M405.27,365.62a23.6,23.6,0,0,0,.28,8.12,69,69,0,0,1,1.29,7.43c2.22-9.08,2.49-9.41,5.36-13.91a45.79,45.79,0,0,1,3-4.23,4.81,4.81,0,0,0,.72-3.87c-.6-2.41-2.58-2.25-4.26-2.26-2.62,0-4.68,1.14-5.72,4.32,0,0-.44,2.92-.68,4.4" transform="translate(105.11 54.05)"/><path class="cls-59" d="M408.71,356.52c-1.29.88-1.84,4.2-1.9,5.6a10.66,10.66,0,0,0,.35,3.86,4.11,4.11,0,0,1,1.35-2.14c.76-.49.7-.3,1.15.33.62.88,1,2.55,1.8,3.15a7.23,7.23,0,0,1,1.45-2.82,15.7,15.7,0,0,1,2.42-2.25c2.15-1.49,2.77-5.67.6-7.16-3.87-2.64-7.22,1.43-7.22,1.43" transform="translate(105.11 54.05)"/><path class="cls-59" d="M425.25,377.91c-1.49,7.14-5.49,15.61-8,14.87-.92-.28-4.48-2.43-3.73-4.65,1.74-5.19,1.56-10.35,2.87-14.71,2.09-7,4.44-8.79,6.9-8.05s4.21,1.52,1.92,12.54" transform="translate(105.11 54.05)"/><path class="cls-60" d="M415.24,349.8a37.49,37.49,0,0,0-.06,5.46,18.74,18.74,0,0,1,.44,2.84c0,1.84-2.73,2.51-3.31,3a27.47,27.47,0,0,0-3.42,2.29c-.36-1.53-1-2.92-.78-4.22.17-1-.05-2.58.32-3.61s1.48-1.78,1.48-3Z" transform="translate(105.11 54.05)"/><path class="cls-61" d="M404.74,342.32a13.58,13.58,0,0,1-.69,3.24,2.12,2.12,0,0,0,.05,1.66,4.33,4.33,0,0,1,.07,3,7.47,7.47,0,0,0,.43,3.75c.28,1,.42,2.08,1.29,2.66,2.16,1.44,4.57-.12,6.74-.88s1.82-3.87,2.48-5.66c1.21-3.23.32-7.75-3.24-9.16a9.43,9.43,0,0,0-5.84-.31c-.57.22-1.69,1.47-1.16,2.09Z" transform="translate(105.11 54.05)"/><path class="cls-62" d="M416.64,337.35c-2.1-1.87-6.31-1.23-9.73.39-1.72.81-2.1,3.18-2.1,3.18-.38.66,1.49,2,2,2.28a7.19,7.19,0,0,0,3.13.7,13.57,13.57,0,0,0,2,0,8.57,8.57,0,0,1,1.48-.19c1,.09,1,1.46,1.24,2.27a12.83,12.83,0,0,1,.46,2c0,.34-.52,4,0,4.14.73.13,3.58-3.31,3.76-5.22.12-1.26,1.49-6.17-2.23-9.48" transform="translate(105.11 54.05)"/><path class="cls-61" d="M416.83,349.78c-.46,1.2-1.26,2-1.78,1.79a2,2,0,0,1-.63-2.53c.46-1.19,1.78-2,2.31-1.79s.57,1.34.1,2.53" transform="translate(105.11 54.05)"/><path class="cls-63" d="M316.93,485.85a8.55,8.55,0,0,0,.27,1.84,2.75,2.75,0,0,0,2.34.95,5.54,5.54,0,0,0,3.07-1.07c.73-1,4.31-1.94,5.32-2.21a4.2,4.2,0,0,0,2.16-1.71c.4-.72,1-2.56-.1-3.67-.8-.78-2.65.71-4.88.8-5.64.22-8.39,2.18-8.18,5.07" transform="translate(105.11 54.05)"/><path class="cls-63" d="M322.71,489.86a9.53,9.53,0,0,0,.36,1.82,2.75,2.75,0,0,0,2.39.84,5.57,5.57,0,0,0,3-1.22c.68-1,4.21-2.15,5.2-2.48a4.18,4.18,0,0,0,2.08-1.81c.37-.74.89-2.6-.28-3.65-.84-.75-2.61.83-4.84,1-5.62.5-8.26,2.6-7.92,5.47" transform="translate(105.11 54.05)"/><path class="cls-56" d="M326.34,464.24a4.7,4.7,0,0,0-3.47,1.37c-.09.5-.17,1-.23,1.51-.75,6.43,1.09,13.14.24,19.17-.23,1.66,2.55,2.21,4.2,1.94,1.18-.2,2.52-.61,3-1.38a1.79,1.79,0,0,0,.51-1.44l-.62-1.77c-.36-2.26.29-10.36,1.16-18.9a27.39,27.39,0,0,0-4.82-.5" transform="translate(105.11 54.05)"/><path class="cls-64" d="M316,503.24l-2-1.13a.42.42,0,0,0-.12-.08c-.76-.45-2,.27-2.81,1.62s-.79,2.79,0,3.24l2.15,1.21,1.51-2.6,0,0Z" transform="translate(105.11 54.05)"/><path d="M313.13,508.05c.77.46,2-.27,2.81-1.61s.79-2.8,0-3.24-2,.27-2.81,1.61-.79,2.8,0,3.24" transform="translate(105.11 54.05)"/><path class="cls-64" d="M295.26,491.19l-2-1.14-.12-.08c-.77-.44-2,.28-2.81,1.62s-.78,2.79,0,3.25l2.14,1.21,1.51-2.61h0Z" transform="translate(105.11 54.05)"/><path d="M292.38,496c.77.45,2-.28,2.8-1.62s.79-2.79,0-3.24-2,.28-2.81,1.62-.79,2.8,0,3.24" transform="translate(105.11 54.05)"/><path class="cls-64" d="M315.89,491.53l-2-1.15-.11-.08c-.77-.44-2,.28-2.81,1.63s-.79,2.79,0,3.24l2.15,1.22,1.5-2.62h0Z" transform="translate(105.11 54.05)"/><path d="M313,496.34c.77.44,2-.28,2.81-1.62s.79-2.8,0-3.25-2,.28-2.8,1.63-.8,2.79,0,3.24" transform="translate(105.11 54.05)"/><path class="cls-64" d="M295.27,503.05l-2-1.14-.12-.08c-.76-.45-2,.28-2.8,1.62s-.79,2.8,0,3.24l2.15,1.22L294,505.3h0Z" transform="translate(105.11 54.05)"/><path d="M292.39,507.86c.77.45,2-.28,2.81-1.62s.79-2.79,0-3.24-2,.28-2.81,1.62-.79,2.79,0,3.24" transform="translate(105.11 54.05)"/><polygon points="420.6 556.75 420.6 554.89 395.59 542.69 395.59 544.55 418.66 557.87 420.6 556.75"/><polygon points="395.44 556.75 395.44 554.89 420.44 542.69 420.44 544.55 397.38 557.87 395.44 556.75"/><polygon class="cls-64" points="420.6 554.89 397.53 541.57 395.59 542.69 418.66 556.01 420.6 554.89"/><polygon class="cls-64" points="395.44 554.89 418.51 541.57 420.44 542.69 397.38 556.01 395.44 554.89"/><path d="M304.45,495.92h0V477.19H301v18.73c0,.55.77,1,1.73,1s1.75-.44,1.75-1Z" transform="translate(105.11 54.05)"/><path d="M284,473.09s-5.86,3.57-1.15,7.2,16.92,12.55,24.48,10.32,19.58-10.74,20.55-11.86.88-2.88-3.06-5.78c-2.82-2.08-16.56-9.64-17.35-9.93s-3.34-1.77-8.53.95c-4.89,2.57-14.94,9.1-14.94,9.1" transform="translate(105.11 54.05)"/><path class="cls-65" d="M323.85,458a4.4,4.4,0,0,0-4.4-1.17c-11,3.92-23.1,7.88-23.1,7.88-3.89,1.71,1.79,13.57,3.52,13.9,9.4,1.77,20.66-13.85,22.77-14.33.83-.18,1.17.07,2-.21.8-4.06,0-4.91-.78-6.07" transform="translate(105.11 54.05)"/><path class="cls-56" d="M330,461.54a4.37,4.37,0,0,0-4.39-1.17c-11,3.92-23.1,7.89-23.1,7.89-3.89,1.71,1.79,13.56,3.52,13.89,9.39,1.78,20.66-13.85,22.77-14.33.83-.18,1.17.07,2-.21.8-4.06,0-4.91-.79-6.07" transform="translate(105.11 54.05)"/><path d="M351.11,521.15h0V469.61h-3.27v51.54c0,.52.73.93,1.63.94s1.64-.41,1.64-.93Z" transform="translate(105.11 54.05)"/><path d="M282.17,480.2h0V437.82h-3.43V480.2c0,.54.77,1,1.71,1s1.72-.44,1.72-1Z" transform="translate(105.11 54.05)"/><path d="M427.39,476.81h0V429.93h-3.27v46.88c0,.51.73.94,1.63.94s1.64-.41,1.64-.93Z" transform="translate(105.11 54.05)"/><polygon class="cls-64" points="416.8 453.13 416.8 459.56 416.8 460.45 416.8 466.88 413.67 465.07 413.67 458.64 413.67 457.75 413.67 451.32 416.8 453.13"/><polygon points="419.93 451.31 419.93 457.74 419.93 458.63 419.93 465.06 416.8 466.87 416.8 460.44 416.8 459.55 416.8 453.12 419.93 451.31"/><polygon class="cls-64" points="416.8 460.22 416.8 466.65 416.8 467.54 416.8 473.97 413.67 472.16 413.67 465.74 413.67 464.85 413.67 458.41 416.8 460.22"/><polygon points="419.93 458.4 419.93 464.83 419.93 465.72 419.93 472.15 416.8 473.96 416.8 467.53 416.8 466.64 416.8 460.22 419.93 458.4"/><polygon class="cls-66" points="416.8 453.12 413.67 451.31 416.8 449.51 419.93 451.31 416.8 453.12"/><path d="M310.94,366.24a12.25,12.25,0,0,0-8.46,9.23c-.67,3.14-8.12,30.87-.16,36s21.07-4.4,21.85-8.59c1.64-8.74,0-43-13.23-36.63" transform="translate(105.11 54.05)"/><path class="cls-64" d="M314.55,448.55l2-1.15.11-.07c.77-.45,2,.27,2.81,1.62s.79,2.79,0,3.24l-2.14,1.22-1.51-2.61h0Z" transform="translate(105.11 54.05)"/><path d="M317.43,453.36c-.77.44-2-.28-2.81-1.62s-.79-2.8,0-3.24,2,.27,2.8,1.61.8,2.8,0,3.25" transform="translate(105.11 54.05)"/><path class="cls-64" d="M335.3,436.49l2-1.14.11-.08c.77-.45,2,.28,2.81,1.63s.8,2.79,0,3.24l-2.15,1.21-1.51-2.61h0Z" transform="translate(105.11 54.05)"/><path d="M338.18,441.3c-.77.45-2-.27-2.81-1.61s-.79-2.8,0-3.25,2,.28,2.81,1.62.79,2.8,0,3.24" transform="translate(105.11 54.05)"/><path class="cls-64" d="M314.66,436.83l2-1.14a.48.48,0,0,1,.11-.09c.77-.44,2,.29,2.81,1.63s.79,2.79,0,3.24l-2.15,1.21-1.5-2.6h0Z" transform="translate(105.11 54.05)"/><path d="M317.54,441.63c-.76.46-2-.27-2.8-1.61s-.8-2.8,0-3.24,2,.27,2.81,1.61.8,2.8,0,3.24" transform="translate(105.11 54.05)"/><path class="cls-64" d="M335.29,448.35l2-1.14.11-.08c.77-.44,2,.28,2.81,1.62s.79,2.8,0,3.24c0,0-2.15,1.22-2.15,1.22l-1.5-2.61h0Z" transform="translate(105.11 54.05)"/><path d="M338.17,453.16c-.77.45-2-.28-2.81-1.62s-.79-2.79,0-3.24,2,.28,2.8,1.62.8,2.79,0,3.24" transform="translate(105.11 54.05)"/><polygon points="420.19 502.05 420.19 500.19 445.19 487.99 445.19 489.85 422.12 503.17 420.19 502.05"/><polygon points="445.34 502.05 445.34 500.19 420.33 487.99 420.33 489.85 443.4 503.17 445.34 502.05"/><polygon class="cls-64" points="420.19 500.19 443.25 486.87 445.19 487.99 422.12 501.31 420.19 500.19"/><polygon class="cls-64" points="445.34 500.19 422.28 486.87 420.33 487.99 443.4 501.31 445.34 500.19"/><path d="M326.11,441.22h0V422.49h3.49v18.73c0,.55-.78,1-1.74,1s-1.74-.44-1.75-1h0" transform="translate(105.11 54.05)"/><path d="M345,417.17s5.86,3.57,1.16,7.2-16.92,12.56-24.48,10.32-17.94-9.52-18.92-10.64-.87-2.88,3.06-5.78c2.83-2.07,16.57-9.64,17.36-9.92s3.34-1.78,8.53.94c4.89,2.57,14.93,9.11,14.93,9.11Z" transform="translate(105.11 54.05)"/><path class="cls-60" d="M326.34,380.2c3.62,6.38,8.13,11,10.66,15.2.5.83,4.72-3.91,3.49-5.92-2.87-4.69-6-10-8.26-13.94-3.61-6.37-4.43-7.13-6.68-5.85s-2.82,4.14.79,10.51" transform="translate(105.11 54.05)"/><path class="cls-67" d="M324.48,380c.5,1.9,2.62,1.41,4.2,1.41a6.91,6.91,0,0,0,5.25-2.41q-.19-.88-.42-1.74c-1.8-7.1-4.44-8-6.95-7.37S322.78,373,324.48,380" transform="translate(105.11 54.05)"/><path class="cls-56" d="M315.82,372.36c-.58.12-6.74,3.22-9.48,6.32-2,2.28-2.26,7.66-2.23,8.37.08,2.3,3.24,16.27,3.73,19.39s.12,6.55.12,8.65-.61,7.78-.43,8.72c.59,3.13,8.76,2.51,10.33,2.42,5.05-.31,11.4-4.13,10.88-6.6-1.51-7.1-.95-27.72-.3-30.25s5.58-15.47,1.68-18.92a7,7,0,0,0-4.2-1.39c-4.31.21-9.38,3.14-10.1,3.29" transform="translate(105.11 54.05)"/><path class="cls-60" d="M315.22,364.88a38.07,38.07,0,0,1,.06,5.5,20.13,20.13,0,0,0-.45,2.85c0,1.85,2,2.64,3,3.17s4.76-.8,4.53-2.11c-.17-1.06,0-2.59-.32-3.64s-1.49-1.77-1.49-3Z" transform="translate(105.11 54.05)"/><path class="cls-61" d="M322.61,356.58a13.57,13.57,0,0,0,1.24,3.1,2.16,2.16,0,0,1,.24,1.65,4.41,4.41,0,0,0,.45,3,7.49,7.49,0,0,1,.22,3.8c-.11,1-.06,2.13-.82,2.85-1.89,1.8-4.54.67-6.83.3s-2.46-3.53-3.44-5.19c-1.75-3-1.64-7.61,1.64-9.62a9.42,9.42,0,0,1,5.73-1.32c.6.12,1.92,1.16,1.51,1.86Z" transform="translate(105.11 54.05)"/></g><g class="cls-68"><rect class="cls-69" x="274.82" y="349" width="21.86" height="22.07" transform="translate(-31.9 233.68) rotate(-28.45)"/></g><g class="cls-11"><path class="cls-61" d="M311.92,366.07c.67,1.1,1.6,1.75,2.09,1.46a2.07,2.07,0,0,0,.18-2.61c-.67-1.1-2.12-1.67-2.6-1.38s-.34,1.43.33,2.53" transform="translate(105.11 54.05)"/><path class="cls-55" d="M388.33,487.07c.32.76.87,4.49.54,5.14a2.63,2.63,0,0,1-2.83,1.5c-1.56-.17-2.73-1.9-3.85-2.11a42.87,42.87,0,0,1-6.73-2.94c-1.19-.62-2.71-2.72-2.32-4a3.43,3.43,0,0,1,2.75-1.72,32.13,32.13,0,0,0,4.58.67,11.21,11.21,0,0,0,2.44.34c.56,0,3.07-.17,3,.77Z" transform="translate(105.11 54.05)"/><path class="cls-70" d="M389.48,464.07c-.4-2.37-.15-4.26-.24-6.9-.07-1.95-10.32.35-10.42,5.07,0,0,2.25,18.32,1,24.15l-.16,1a1.46,1.46,0,0,0,.41,1.49,6.33,6.33,0,0,0,2.34,1.12c1.81.4,4.22.17,5.46-1.21,3-3.38,3-16.74,1.6-24.69" transform="translate(105.11 54.05)"/><path class="cls-55" d="M371.32,493.87c.13.81,1,3.82-.3,6.32a2.3,2.3,0,0,1-3.1.79c-.54-.25-2.2-2.49-3.24-3a42,42,0,0,1-5.24-3.55,7.27,7.27,0,0,1-2-2.12,4.22,4.22,0,0,1-.18-3.79c.49-.81,1.26-1.14,1.83-.83,2,1.08,3.68,1.24,5.11,1.86a20,20,0,0,0,3,1.21,43.8,43.8,0,0,1,4.14,3.07" transform="translate(105.11 54.05)"/><path class="cls-56" d="M378.91,471.27c.18-2.39.9-4.17,1.46-6.75.41-1.9-9.69-3.95-10.95.59,0,0-2.25,19.12-4.89,24.46l-.39.9s-1,1.74-.46,2.51a8.26,8.26,0,0,0,2.35,2.36c1.66.83,5.42,1.82,6.2.14,2.58-5.56,6-16.18,6.68-24.21" transform="translate(105.11 54.05)"/><path class="cls-10" d="M374.79,497.38s-5.87,3.56-1.16,7.19,16.92,12.56,24.48,10.32,19.58-10.73,20.56-11.86.87-2.88-3.06-5.78c-2.82-2.07-16.57-9.64-17.36-9.92s-3.34-1.78-8.52.94c-4.9,2.57-14.94,9.11-14.94,9.11" transform="translate(105.11 54.05)"/><path class="cls-64" d="M409.2,505.39l-2-1.14-.12-.08c-.77-.44-2,.28-2.8,1.62s-.8,2.79,0,3.24l2.15,1.22,1.5-2.61h0Z" transform="translate(105.11 54.05)"/><path d="M406.33,510.2c.76.45,2-.28,2.8-1.62s.79-2.8,0-3.24-2,.28-2.81,1.62-.79,2.79,0,3.24" transform="translate(105.11 54.05)"/><path class="cls-64" d="M388.45,493.34l-2-1.14-.11-.08c-.77-.45-2,.28-2.81,1.62s-.79,2.79,0,3.24l2.15,1.22,1.5-2.61h0Z" transform="translate(105.11 54.05)"/><path d="M385.57,498.15c.77.44,2-.28,2.81-1.62s.79-2.8,0-3.24-2,.27-2.8,1.62-.8,2.79,0,3.24" transform="translate(105.11 54.05)"/><path class="cls-64" d="M409.09,493.67l-2-1.14-.11-.08c-.77-.45-2,.28-2.81,1.62s-.79,2.79,0,3.24l2.16,1.22,1.5-2.61h0Z" transform="translate(105.11 54.05)"/><path d="M406.21,498.48c.77.45,2-.28,2.81-1.62s.79-2.8,0-3.24-2,.28-2.81,1.62-.79,2.79,0,3.24" transform="translate(105.11 54.05)"/><path class="cls-64" d="M388.46,505.19l-2-1.14-.12-.08c-.77-.44-2,.28-2.81,1.62s-.79,2.8,0,3.25l2.15,1.22,1.5-2.62h0Z" transform="translate(105.11 54.05)"/><path d="M385.58,510c.77.45,2-.27,2.81-1.62s.79-2.79,0-3.24-2,.28-2.81,1.62-.79,2.8,0,3.24" transform="translate(105.11 54.05)"/><polygon points="513.79 558.89 513.79 557.03 488.79 544.83 488.79 546.7 511.86 560.01 513.79 558.89"/><polygon points="488.64 558.89 488.64 557.03 513.64 544.83 513.64 546.7 490.58 560.01 488.64 558.89"/><polygon class="cls-64" points="513.79 557.03 490.73 543.72 488.79 544.84 511.86 558.15 513.79 557.03"/><polygon class="cls-64" points="488.64 557.03 511.7 543.72 513.64 544.84 490.58 558.15 488.64 557.03"/><path d="M397.65,498.06h0V479.33h-3.48v18.73c0,.55.77,1,1.73,1s1.74-.43,1.75-1Z" transform="translate(105.11 54.05)"/><path d="M377.16,475.24s-5.87,3.57-1.16,7.2,16.93,12.55,24.48,10.31S420.07,482,421,480.89s.88-2.88-3.06-5.77c-2.82-2.08-16.56-9.65-17.36-9.93s-3.33-1.78-8.52.94c-4.89,2.57-14.94,9.11-14.94,9.11" transform="translate(105.11 54.05)"/><path class="cls-71" d="M398.93,480.4c-2.42-2.85-5.53-4.92-8.16-7.57-3.13-3.16-7.72-5.7-9.67-9.84-.59-1.25-1-4.07.75-5.87,1-1,3.22-3.17,3.86-2.39s2.62,1.31,3.31,1.92c1.29,1.13,9.32,7.47,12,9.43,2.17,1.6,3.44,2.68,5.76,4.56,0,0,3.05,1.37-1.68,5.87s-5.79,4.3-6.14,3.89" transform="translate(105.11 54.05)"/><path class="cls-56" d="M390.69,485.81a77.92,77.92,0,0,1-10-6.73c-3.4-2.85-8.2-5-10.52-8.92-.7-1.19-1.31-4,.22-5.91.89-1.13,2.63-2.65,3.63-2.74,1.6-.14,2.72,1.07,3.47,1.61,1.38,1,10,6.6,12.78,8.31,2.3,1.4,8.2,5.09,11.08,7.85,0,0,2.15,2.92-1.67,4.79-4.89,2.39-8.53,2-9,1.74" transform="translate(105.11 54.05)"/><path class="cls-56" d="M408.28,471.28c1.68-.69,3.37,2.34,3.26,3.56-.31,3.33-6.37,7.34-9,8.73-2.88,1.5-7.27,3-9.73,2.88-1.23-.06-3.91-1.37-4.53-2.48-1.11-2,.28-7.78,1.52-9.88a7.1,7.1,0,0,1,1.74-1.9Z" transform="translate(105.11 54.05)"/><polygon class="cls-49" points="454.71 536.1 537.05 488.25 537.05 485.37 461.22 441.59 378.89 489.44 378.89 492.33 454.71 536.1"/><polygon class="cls-14" points="434.67 496.44 423.68 502.79 438.38 511.28 449.37 504.93 434.67 496.44"/><polygon class="cls-49" points="454.71 536.1 537.05 488.25 537.05 485.37 461.22 441.59 378.89 489.44 378.89 492.33 454.71 536.1"/><polygon class="cls-50" points="454.71 533.21 537.04 485.36 461.22 441.59 378.89 489.44 454.71 533.21"/><path class="cls-61" d="M368.94,439.41a9.85,9.85,0,0,0,.14,1.32,12.38,12.38,0,0,1-.57,2.31,4.47,4.47,0,0,0,.16,2.53c.42.92,1.47,3.17,2.45,3.53,2.21.8,2.82-2.87,3.19-4.3.78-3-.85-8.07-4.92-7Z" transform="translate(105.11 54.05)"/><polygon class="cls-56" points="481.32 474.15 492.12 495.85 478.74 503.57 467.94 481.87 481.32 474.15"/><polygon class="cls-14" points="469.13 481.76 480.66 475.11 490.37 494.62 478.84 501.28 469.13 481.76"/><polygon class="cls-72" points="472.39 479.63 477.5 476.68 478.26 478.27 473.14 481.22 472.39 479.63"/><path class="cls-61" d="M372.92,441a3.13,3.13,0,0,0-.18-.57c-.83,0-.89,1-1.16,1.5s-.79.87-.93,1.51.34,1.15.34,1.84-.36,1.25-.42,1.94c-.15,1.51,1.67,3,2.37,1.16a5.37,5.37,0,0,0-.13-4.27c-.38-.83-.13-1,.13-1.83.16-.52.33-1.59-.2-1.85a4.8,4.8,0,0,0-.33,1Z" transform="translate(105.11 54.05)"/><path class="cls-73" d="M411.8,438.18c1.34,6.6,3,15.26.56,15.75-.91.19-4.58.47-4.94-1.66-.83-5-3.29-9.1-4.13-13.24-1.33-6.59.12-8.1,2.55-8.59s4.63,1.14,6,7.74" transform="translate(105.11 54.05)"/><path class="cls-73" d="M408.26,453.93c-6.06-1.7-16.6-6.54-16-8.65.24-.79.82-3.29,2.82-3,3.13.35,10.08,4.13,16.41,5.71,1.39.35,2.19,1.61,1.56,3.72s-.54,3.47-4.83,2.27" transform="translate(105.11 54.05)"/><path class="cls-74" d="M395.25,434a15,15,0,0,0-5.95,4.59c-1.67,2.18-1.58,7-1.52,7.69.21,2.07,1.27,22.44.78,24.28-.77,2.87-1.32,7.81,2.49,9.29a14.78,14.78,0,0,0,7.68.52c4.55-.57,11.1-4.17,10.71-6.42-.72-4.19-.92-22.39-.48-24.7s2.69-13.13-.35-17.36a3.8,3.8,0,0,0-3.25-1.39c-3.87.44-9.47,3.32-10.11,3.5" transform="translate(105.11 54.05)"/><path class="cls-25" d="M394,449c-2.12,7.57-4.5,17.71-7,17.07-.95-.25-5-2-4.26-4.39,1.77-5.63,1.56-11.13,2.88-15.85,2.11-7.57,4.24-8.45,6.76-7.8s3.75,3.41,1.64,11" transform="translate(105.11 54.05)"/><path class="cls-25" d="M381.36,465.71c-5-4.16-12.76-13.59-11.11-15.83.61-.84,2.4-3.55,4.2-2.57,2.84,1.54,7.67,8.45,13,12.56,1.16.9,3,.94,2.05,3.67s-4.6,5.11-8.13,2.17" transform="translate(105.11 54.05)"/><path class="cls-61" d="M392.18,414.45c0,1.17-.83,2.64-1.07,3.76a2.16,2.16,0,0,0,.05,1.73,4.56,4.56,0,0,1,.07,3.13,7.69,7.69,0,0,0,.45,3.92c.29,1,.44,2.18,1.34,2.79,2.26,1.5,4.8.61,7.08-.18s1.87-4.79,2.58-6.66c1.26-3.38.33-8.1-3.4-9.58a9.84,9.84,0,0,0-6.11-.32c-.59.23.83.77,1.38,1.41Z" transform="translate(105.11 54.05)"/><path class="cls-61" d="M395.56,427.91s1.48,4.47.57,5.73c-.35.48,1.45,1.55,3.13,1.58,2.68,0,5.77-1.4,4.86-3.61-.48-1.2-1.77-2.37-.95-7.21.25-1.52-7.61,3.51-7.61,3.51" transform="translate(105.11 54.05)"/><path d="M403.77,411.21c-3.5-2.36-8.21-2-10.47.59a6,6,0,0,0-1.34,3.42c-.4.68,1.52.59,2,3.36,2.37,14.28,9.05,9.14,9.26,8.63,1.72-4.06,2.87-3.13,3.66-5.57,1.19-3.69,1.82-7.1-3.09-10.43" transform="translate(105.11 54.05)"/><path class="cls-61" d="M396.18,424c-.48,1.26-.76,2.42-1.31,2.21a2.15,2.15,0,0,1-.65-2.64c.49-1.25.75-2.45,1.34-2.46,1.11,0,1.11,1.65.62,2.89" transform="translate(105.11 54.05)"/><path class="cls-25" d="M406.23,431.21a3.09,3.09,0,0,1-1.11,3.82,7.58,7.58,0,0,1-4,2.1c-1.89.24-6.23-1.35-6.84-1.41a14.16,14.16,0,0,0-1.92-.15c1-.93,2-.92,3-2.31.15-.22.75-1,1-1.1.44-.11,0,.54.38.86a3.86,3.86,0,0,0,1.57.82c1.34.5,3.94.34,4.91-.72a3,3,0,0,0,.67-3.35c1.4.92,1.91.72,2.34,1.44" transform="translate(105.11 54.05)"/><polygon class="cls-64" points="515.09 526.54 515.09 532.97 515.09 533.86 515.09 540.29 518.22 538.48 518.22 532.05 518.22 531.16 518.22 524.74 515.09 526.54"/><polygon points="513.27 525.48 513.27 532.19 513.27 533.62 513.27 539.23 515.09 540.28 515.09 533.85 515.09 532.96 515.09 526.53 513.27 525.48"/><path d="M407.09,431.77a12.24,12.24,0,0,0-8.46,9.23c-.67,3.14-8.12,30.87-.16,36s21.07-4.4,21.86-8.59c1.64-8.74,0-43-13.24-36.63" transform="translate(105.11 54.05)"/><path class="cls-61" d="M305.48,390.07c1.8,7.1,6.25,19.68,8.75,19,.94-.24,4.31-5,3.65-7.29-1.53-5.29-2.3-10.29-3.43-14.73-1.8-7.11-4.44-8-6.95-7.37s-3.82,3.24-2,10.35" transform="translate(105.11 54.05)"/><path class="cls-61" d="M315.07,409.13c6.91,1,16.53-3.89,21-4.81.89-.18,2-5.39-.13-4.69a59.75,59.75,0,0,1-20.56,2c-1.58-.18-2.67,1.23-2.82,3.65s.39,3.49,2.53,3.81" transform="translate(105.11 54.05)"/><path class="cls-60" d="M339.68,395.68c6.62-2.23,8.78-11.45,15.39-14.62,1.62-.78-1.36-6.21-2.8-4.51C350,379.19,342.43,385,336,388.42c-1.4.74-1.27,2.79-.31,5s1.93,2.94,4,2.25" transform="translate(105.11 54.05)"/><polygon class="cls-55" points="442.11 515.75 442.11 516.67 438.52 518.74 432.48 515.25 432.48 514.33 442.11 515.75"/><polygon class="cls-64" points="436.06 512.26 442.11 515.75 438.52 517.82 432.48 514.33 436.06 512.26"/><polygon class="cls-55" points="519.14 484.66 519.14 485.54 522.56 487.51 528.32 484.18 528.32 483.3 519.14 484.66"/><polygon class="cls-64" points="524.9 481.33 519.14 484.66 522.56 486.63 528.32 483.3 524.9 481.33"/><path class="cls-60" d="M340.59,397.86h0" transform="translate(105.11 54.05)"/><path class="cls-58" d="M310.73,440.24c2.23,2.8,2.7,22.28-1.26,11.78-1.71-4.54,2.42,10.79,2.85,16.51.3,3.93.79,10.67.79,10.67-3.47,1.11-8.65-.67-10.13-.84-4.78-.55-9.32-5.24-9.62-7.45-.76-5.5-1-5.87,2.14-8.39,3.67-2.94-5.23-20.12-.65-27.35a3.86,3.86,0,0,1,3.41-1.35c4.06.43,10.14,3.49,12.47,6.42" transform="translate(105.11 54.05)"/><path class="cls-59" d="M307.27,449.4c1.87,5.3,4.46,14.13,6.33,13.47.7-.25,2.93-2,2.27-3.71-1.54-3.93-1.26-6.79-1.76-10.26-1-6.93-3.12-9.29-5-8.64s-3.75,3.33-1.86,9.14" transform="translate(105.11 54.05)"/><path class="cls-61" d="M308.06,419.84c0,1,.74,2.35,1,3.36.16.71-.34,3.4-.1,4.36a7,7,0,0,1-.41,3.52,4.71,4.71,0,0,1-1.21,2.49c-.92.78-4.39-.42-6.43-1.13s-1.59-3.33-2.21-5c-1.14-3-.3-7.26,3-8.58a8.77,8.77,0,0,1,5.47-.3c.54.2-.74.7-1.23,1.28Z" transform="translate(105.11 54.05)"/><path class="cls-61" d="M305.06,431.75a5.84,5.84,0,0,0,0,3.94,2,2,0,0,1-1.65,2.13c-2.24.51-5.09-.16-4.72-2.18.2-1.09,1.07-2.3-.47-6.22-.49-1.23,6.83,2.33,6.83,2.33" transform="translate(105.11 54.05)"/><path d="M297.87,416.41c4.32-1.48,7.16-1.32,9.19,1a5.46,5.46,0,0,1,1.2,3.07c.36.61-1.36.53-1.78,3-2.12,12.81-8.11,8.2-8.3,7.74-1.54-3.64-2.56-2.81-3.27-5-1.07-3.3-1.26-8,3-9.86" transform="translate(105.11 54.05)"/><path d="M306.73,417s4.35,2.19,2.49,6.81-1.91,3.67-2,5-2.33-3-2.33-3.27Z" transform="translate(105.11 54.05)"/><path class="cls-61" d="M306.14,427.44a2.57,2.57,0,0,0-.42-1.49c-.44-.48-.93-.24-1.12.34a4.89,4.89,0,0,0-.07,1.38c0,.37.37,3.07,1.61,1.54Z" transform="translate(105.11 54.05)"/><path class="cls-56" d="M294.45,462.52s-1,3.81,6.12,5.28c12.44,2.56,11-4.25,11-4.25.35,1.26,1,4.66,1.51,6.39,2.11,7.89,1.21,10.15,1.21,10.15-3.46,2.9-9.17,2.82-10.55,2.67-6.74-.72-11.66-5-12.15-7.2-.83-3.74,1.14-7.31,2.85-13" transform="translate(105.11 54.05)"/><polygon class="cls-64" points="396.45 524.41 396.45 530.83 396.45 531.73 396.45 538.15 393.32 536.35 393.32 529.92 393.32 529.03 393.32 522.6 396.45 524.41"/><polygon points="398.26 523.35 398.26 530.05 398.26 531.49 398.26 537.09 396.44 538.14 396.44 531.71 396.44 530.83 396.44 524.39 398.26 523.35"/><path d="M294.22,429.64a12.21,12.21,0,0,1,8.45,9.22c.68,3.14,8.13,30.87.16,36s-21.06-4.4-21.85-8.59c-1.64-8.74,0-43,13.24-36.62" transform="translate(105.11 54.05)"/><path class="cls-57" d="M402.23,375.19a16.09,16.09,0,0,0-1.2-1.35c-1.55-1.75-3.15-1.7-4.24-.62-5,4.93-12.29,9.21-14.38,11.87-1.32,1.7.61,3.6,1.2,4.25,1.56,1.73,11.85-5.24,16.78-9.85a9.72,9.72,0,0,0,1.9-2.2c0-.82,0-1.54-.06-2.1" transform="translate(105.11 54.05)"/><path d="M294.26,422.43s-.06,5.92-1.86,8.56c0,0,1.88,5.6,11.71,4.61,4.44-.46,4.94-2,4.94-2v-.23s-2.91-6.25-2.22-7.89Z" transform="translate(105.11 54.05)"/><polygon class="cls-14" points="455.23 521.95 474.18 510.94 460.7 503.06 441.75 514.07 455.23 521.95"/><polygon class="cls-75" points="429.07 482.2 449.38 493.92 450.33 493.65 455.15 477.36 434.7 465.61 433.83 465.75 429.07 482.2"/><polygon class="cls-76" points="429.07 482.2 449.38 493.92 454.14 477.49 433.83 465.75 429.07 482.2"/><polygon class="cls-77" points="453.26 477.84 434.28 466.89 429.96 481.84 448.93 492.8 453.26 477.84"/><polygon class="cls-78" points="448.93 492.8 429.96 481.84 430.31 480.62 449.28 491.57 448.93 492.8"/><polygon class="cls-79" points="446.64 475.56 435.49 469.12 432.95 477.91 444.09 484.35 446.64 475.56"/><polygon class="cls-80" points="451.32 477.96 452.28 478.51 451.92 479.77 450.95 479.21 451.32 477.96"/><polygon class="cls-81" points="450.75 479.71 451.72 480.27 451.36 481.52 450.39 480.97 450.75 479.71"/><polygon class="cls-82" points="450.45 483.99 448.36 491.18 446.42 490.06 448.5 482.87 450.45 483.99"/><polygon class="cls-75" points="434.57 503.57 414.26 491.84 414.26 490.68 429.03 482.15 449.34 493.87 449.34 495.04 434.57 503.57"/><polygon class="cls-76" points="434.57 502.41 414.26 490.68 429.03 482.15 449.34 493.87 434.57 502.41"/><polygon class="cls-75" points="447.58 493.95 440.48 498.06 421.64 487.18 428.75 483.08 447.58 493.95"/><polygon class="cls-75" points="429.58 497.67 424.16 494.54 428.52 492.02 433.93 495.16 429.58 497.67"/><path class="cls-61" d="M330.94,452.12c1-.87,2.42-.83,2.75-2.24-.61-.37-.67.09-1.2.31a3.47,3.47,0,0,0-1.85,1.13Z" transform="translate(105.11 54.05)"/><path class="cls-61" d="M325,452.92c.57,0,1.5-1.73,1.92-2.21s.87-1.25,1.48-1.34a3.15,3.15,0,0,1,2.82,2c.29,1.37-1.95,2-2.79,2.68a12.46,12.46,0,0,1-1.86.87c-.67.29-.74-.18-1.14-.62s-.76-.7-.57-1.21Z" transform="translate(105.11 54.05)"/><path class="cls-61" d="M328.63,449.52a2,2,0,0,0,.58-.65,6.84,6.84,0,0,1,.47-.72,1.55,1.55,0,0,1,1-.64,7.85,7.85,0,0,1,1.12-.32c.31,0,.65.09.94.06s.5,0,.75-.09a1.36,1.36,0,0,1,.45,0,.57.57,0,0,1,0,.48c.12.13.09,0,.26,0s.33,0,.34.15a.55.55,0,0,1-.39.58.89.89,0,0,1,.23,0,.65.65,0,0,1-.34.81c-.2.1-.94.29-1.15.39a4,4,0,0,0-1,.91,3.33,3.33,0,0,1-1,.53c-.18.08-.76.24-.83.42Z" transform="translate(105.11 54.05)"/><path class="cls-61" d="M326.15,452.14c.43-.65.36-1.54.91-2.29a18,18,0,0,0,1.76-2.69c.35,0,.53.38.49.74a14.9,14.9,0,0,1-.72,2Z" transform="translate(105.11 54.05)"/><path class="cls-59" d="M313.6,462.87c5.66-1.15,12.13-6.74,13.82-8,.65-.47-1.7-3.51-2.38-2.38-1.1,1.86-7.58,3.49-10.29,5.6-.75.59-2.88.36-2,2.31Z" transform="translate(105.11 54.05)"/><path class="cls-14" d="M358.28,411.58s-7.18,3.28-9.86,5.94l-13.15-7.17s8.57-7.29,9.88-6.45Z" transform="translate(105.11 54.05)"/><path class="cls-14" d="M367,405.61s-6,3.32-8.67,6l-13.45-7.77s7.67-6.73,9-5.89Z" transform="translate(105.11 54.05)"/><polygon class="cls-83" points="468.51 504.12 456.66 497.32 456.66 499.9 468.51 506.7 468.51 504.12"/><polygon class="cls-83" points="468.51 506.7 456.66 499.9 448.77 504.42 460.63 511.22 468.51 506.7"/><polygon class="cls-84" points="460.5 508.49 448.64 501.69 448.64 504.72 460.5 511.52 460.5 508.49"/><polygon class="cls-67" points="468.64 503.82 456.78 497.02 448.64 501.69 460.5 508.49 468.64 503.82"/><polygon class="cls-85" points="468.64 506.62 468.42 506.5 468.42 506.75 468.64 506.62"/><polygon class="cls-67" points="468.51 504.13 468.51 504.12 460.63 508.64 460.63 511.22 468.51 506.7 468.51 506.69 468.64 506.62 468.64 506.86 460.5 511.52 460.5 508.49 468.64 503.82 468.64 504.05 468.51 504.13"/><polygon class="cls-83" points="468.29 504.25 468.51 504.13 468.51 506.69 468.25 506.85 468.51 506.69 468.51 506.7 460.63 511.22 460.63 508.64 468.51 504.12 468.51 504.13 468.29 504.25"/><path class="cls-83" d="M353.14,453.84v1.79a.21.21,0,0,0,.1.16c.05,0,.09,0,.09-.05v-1.8a.17.17,0,0,0-.09-.15c-.05,0-.1,0-.1,0" transform="translate(105.11 54.05)"/><path class="cls-83" d="M353.63,454.12v1.79a.17.17,0,0,0,.09.15s.09,0,.09-.05v-1.79a.24.24,0,0,0-.09-.16c-.05,0-.09,0-.09.06" transform="translate(105.11 54.05)"/><path class="cls-83" d="M354.11,454.39v1.8a.19.19,0,0,0,.09.15c.05,0,.09,0,.09,0V454.5a.2.2,0,0,0-.09-.16.06.06,0,0,0-.09.05" transform="translate(105.11 54.05)"/><path class="cls-83" d="M354.59,454.67v1.8a.19.19,0,0,0,.09.15c.05,0,.09,0,.09-.05v-1.8a.2.2,0,0,0-.09-.15c-.05,0-.09,0-.09.05" transform="translate(105.11 54.05)"/><polygon class="cls-83" points="467.96 466.02 480.54 458.81 480.54 461.54 467.96 468.76 467.96 466.02"/><polygon class="cls-83" points="467.96 468.76 480.54 461.54 488.91 466.34 476.32 473.56 467.96 468.76"/><polygon class="cls-84" points="476.46 470.66 489.04 463.44 489.04 466.66 476.46 473.88 476.46 470.66"/><polygon class="cls-67" points="467.82 465.71 480.41 458.49 489.04 463.44 476.46 470.66 467.82 465.71"/><polygon class="cls-85" points="467.82 468.68 468.06 468.55 468.06 468.81 467.82 468.68"/><polygon class="cls-67" points="467.96 466.03 467.96 466.02 476.32 470.83 476.32 473.56 467.96 468.76 467.96 468.76 467.82 468.68 467.82 468.93 476.46 473.88 476.46 470.66 467.82 465.71 467.82 465.95 467.96 466.03"/><polygon class="cls-83" points="468.2 466.16 467.96 466.03 467.96 468.76 468.24 468.92 467.96 468.76 467.96 468.76 476.32 473.56 476.32 470.82 467.96 466.02 467.96 466.03 468.2 466.16"/><path class="cls-83" d="M373.73,416v1.91a.21.21,0,0,1-.1.16c-.06,0-.1,0-.1-.05v-1.91a.19.19,0,0,1,.1-.16c.05,0,.1,0,.1.05" transform="translate(105.11 54.05)"/><path class="cls-83" d="M373.22,416.27v1.9a.23.23,0,0,1-.1.17.06.06,0,0,1-.1-.06v-1.9a.23.23,0,0,1,.1-.17.06.06,0,0,1,.1.06" transform="translate(105.11 54.05)"/><path class="cls-83" d="M372.7,416.56v1.91a.2.2,0,0,1-.09.16c-.05,0-.1,0-.1-.06v-1.9a.21.21,0,0,1,.1-.16c.05,0,.09,0,.09.05" transform="translate(105.11 54.05)"/><path class="cls-83" d="M372.19,416.86v1.9a.22.22,0,0,1-.09.17c-.06,0-.1,0-.1-.06V417a.21.21,0,0,1,.1-.17s.09,0,.09.06" transform="translate(105.11 54.05)"/><g class="cls-86"><g class="cls-87"><g class="cls-86"><g class="cls-88"><polygon class="cls-83" points="467.7 500.08 455.85 493.28 455.85 495.86 467.7 502.66 467.7 500.08"/></g><g class="cls-89"><polygon class="cls-83" points="467.7 502.66 455.85 495.86 447.96 500.38 459.82 507.18 467.7 502.66"/></g><g class="cls-90"><polygon class="cls-59" points="459.69 504.45 447.83 497.64 447.83 500.68 459.69 507.48 459.69 504.45"/></g><g class="cls-91"><polygon class="cls-92" points="467.83 499.78 455.97 492.98 447.83 497.64 459.69 504.45 467.83 499.78"/></g><g class="cls-93"><polygon class="cls-94" points="467.83 502.58 467.61 502.45 467.61 502.71 467.83 502.58"/></g><g class="cls-95"><polygon class="cls-92" points="467.7 500.08 467.7 500.08 459.82 504.61 459.82 507.18 467.7 502.66 467.7 502.65 467.83 502.58 467.83 502.81 459.69 507.48 459.69 504.45 467.83 499.78 467.83 500.01 467.7 500.08"/></g><g class="cls-96"><polygon class="cls-83" points="467.48 500.21 467.71 500.08 467.71 502.65 467.44 502.81 467.71 502.65 467.71 502.66 459.82 507.18 459.82 504.61 467.71 500.08 467.48 500.21"/></g><g class="cls-97"><path class="cls-83" d="M352.33,449.79v1.8a.18.18,0,0,0,.1.15s.08,0,.08-.05V449.9a.19.19,0,0,0-.08-.15c-.05,0-.1,0-.1,0" transform="translate(105.11 54.05)"/></g><g class="cls-98"><path class="cls-83" d="M352.82,450.08v1.79a.19.19,0,0,0,.08.15c.06,0,.1,0,.1,0v-1.79a.19.19,0,0,0-.1-.16s-.08,0-.08.06" transform="translate(105.11 54.05)"/></g><g class="cls-99"><path class="cls-83" d="M353.3,450.35v1.79a.2.2,0,0,0,.09.16c.05,0,.09,0,.09-.05v-1.79a.2.2,0,0,0-.09-.16.06.06,0,0,0-.09.05" transform="translate(105.11 54.05)"/></g><g class="cls-100"><path class="cls-83" d="M353.78,450.63v1.8a.2.2,0,0,0,.09.15.06.06,0,0,0,.09-.05v-1.79a.21.21,0,0,0-.09-.17c-.05,0-.09,0-.09.06" transform="translate(105.11 54.05)"/></g></g></g></g><g class="cls-101"><g class="cls-87"><g class="cls-101"><g class="cls-102"><polygon class="cls-83" points="491.98 463.52 480.13 456.72 480.13 459.3 491.98 466.1 491.98 463.52"/></g><g class="cls-103"><polygon class="cls-83" points="491.98 466.1 480.13 459.3 472.23 463.82 484.1 470.62 491.98 466.1"/></g><g class="cls-104"><polygon class="cls-59" points="483.97 467.89 472.11 461.08 472.11 464.12 483.97 470.92 483.97 467.89"/></g><g class="cls-105"><polygon class="cls-92" points="492.11 463.22 480.25 456.42 472.11 461.08 483.97 467.89 492.11 463.22"/></g><g class="cls-106"><polygon class="cls-94" points="492.11 466.02 491.89 465.89 491.89 466.15 492.11 466.02"/></g><g class="cls-107"><polygon class="cls-92" points="491.98 463.52 491.98 463.52 484.1 468.05 484.1 470.62 491.98 466.1 491.98 466.09 492.11 466.02 492.11 466.26 483.97 470.92 483.97 467.89 492.11 463.22 492.11 463.45 491.98 463.52"/></g><g class="cls-108"><polygon class="cls-83" points="491.76 463.65 491.98 463.52 491.98 466.09 491.71 466.25 491.98 466.09 491.98 466.1 484.1 470.62 484.1 468.05 491.98 463.52 491.76 463.65"/></g><g class="cls-109"><path class="cls-83" d="M376.61,413.23V415a.2.2,0,0,0,.09.16c.05,0,.09,0,.09-.06v-1.79a.2.2,0,0,0-.09-.16c-.05,0-.09,0-.09.05" transform="translate(105.11 54.05)"/></g><g class="cls-110"><path class="cls-83" d="M377.1,413.51v1.8a.19.19,0,0,0,.08.15c.05,0,.1,0,.1,0v-1.79a.21.21,0,0,0-.1-.16s-.08,0-.08.05" transform="translate(105.11 54.05)"/></g><g class="cls-111"><path class="cls-83" d="M377.58,413.79v1.79a.23.23,0,0,0,.08.16s.1,0,.1-.05V413.9a.21.21,0,0,0-.1-.16s-.08,0-.08.05" transform="translate(105.11 54.05)"/></g><g class="cls-112"><path class="cls-83" d="M378.06,414.07v1.79a.2.2,0,0,0,.09.16.06.06,0,0,0,.09,0v-1.79a.19.19,0,0,0-.09-.16s-.09,0-.09.05" transform="translate(105.11 54.05)"/></g></g></g></g><path class="cls-61" d="M384,385.91h0a2.91,2.91,0,0,0-2.15-.36,4.15,4.15,0,0,0-1.76-.16,25.19,25.19,0,0,1-4.36.69c-.25.41.17.87.65,1a7.33,7.33,0,0,0,2.15.16.13.13,0,0,0,0,.06,4.48,4.48,0,0,1-.87.2,11.41,11.41,0,0,0-1.17.19,2.23,2.23,0,0,0-1.35.83c-.31.47-.78.73-1,1.23s-.25.86-.46,1.22-.34.59-.54.88a1.92,1.92,0,0,0-.24.57c.14.12.44.29.63.22.09.22-.05.12-.12.33s-.21.42,0,.52a.76.76,0,0,0,1-.17c0,.11-.13.19-.15.29a.89.89,0,0,0,1.21,0c.24-.19.89-1,1.14-1.21a4.59,4.59,0,0,1,1.59-.72l-.66.65c-.58.55-1.18.36-1.06,1.33,1.82.36,2.61-1.2,4-2,1.44.16,3.11-1.68,4.21-2.26.42-.23.75-2.57-.63-3.54" transform="translate(105.11 54.05)"/><path class="cls-61" d="M340.43,403.72c1.75-.38,3.45.65,4.8-.81-.47-.85-.86-.34-1.65-.45a4.86,4.86,0,0,0-3,.1Z" transform="translate(105.11 54.05)"/><path class="cls-61" d="M336.53,399.28c.8-.32,1.88-.9,2.68-.59,1.29.48,2.43,3,2,4.32-.59,1.84-3.71,1.12-5.16,1.31-.67.09-3.71-3.34.48-5" transform="translate(105.11 54.05)"/><path class="cls-61" d="M339.42,399a2.75,2.75,0,0,0,1.14-.38,8.61,8.61,0,0,1,1.05-.53,2.19,2.19,0,0,1,1.59-.13,11.72,11.72,0,0,1,1.55.39c.38.21.71.55,1.09.71a9.51,9.51,0,0,0,1,.39,1.82,1.82,0,0,1,.53.33c0,.18-.19.49-.37.55.05.23.1.06.29.19s.41.22.32.41a.79.79,0,0,1-.88.43,2.75,2.75,0,0,1,.3.14.91.91,0,0,1-1,.74c-.3,0-1.31-.29-1.63-.31a5.23,5.23,0,0,0-1.83.4,4.31,4.31,0,0,1-1.52,0c-.28,0-1.08-.23-1.29-.06Z" transform="translate(105.11 54.05)"/><path class="cls-61" d="M334.47,401.1c1-.48,1.69-2.2,2.86-2.73a25.07,25.07,0,0,0,3.93-2c.44.18.37.81.08,1.21-.55.76-1.89,1.45-2.18,1.84Z" transform="translate(105.11 54.05)"/><path class="cls-61" d="M391.45,383c.39.14.77.3,1.15.46s.78.35,1.18.49l.08,0c1.31.93,3.74,1.29,4.89,1.71l1.43-3.14a16.83,16.83,0,0,0-1.68-2.91,4.84,4.84,0,0,0-1-1.22,4.19,4.19,0,0,0-1.69-.71c-.55-.16-1-.66-1.55-.83s-1.31-.27-1.2.56c.07.49,1.12.88,1.46,1.09a5,5,0,0,1,.9.71l-.38.28a3.12,3.12,0,0,1-.81-.28l-.84-.28c-.34-.11-.78-.12-1-.4a10.24,10.24,0,0,0-1.72-1.76c-.28-.21-.91-.17-.85.35a1.48,1.48,0,0,0,.36.66c.15.22.27.47.41.7l.08.12c-.17-.15-.32-.31-.47-.46s-.65-.81-1.07-.87-.73.43-.49.91a2.41,2.41,0,0,0,.25.37l-.19-.06c-.14,0-.46,0-.51.23s.15.42.22.52c.16.26.35.51.51.78a2.39,2.39,0,0,0,.55.66c-.23-.07-.55-.16-.63.07s.12.32.17.41a1,1,0,0,0,.34.39,11.31,11.31,0,0,0,1.31,1.07,5.24,5.24,0,0,0,.85.35" transform="translate(105.11 54.05)"/><path class="cls-59" d="M415,392.48c-4.89-1-14.77-5.13-17.53-7.33,0,0,.77.23,1.44-1.23a4.89,4.89,0,0,0,.54-2.75c3.38.17,11.7,3.53,18.59,4.75,1.5.26,2.46,1.54,1.94,3.82s-.3,3.71-5,2.74" transform="translate(105.11 54.05)"/><polygon class="cls-83" points="487.5 462 475.64 455.2 475.64 457.78 487.5 464.58 487.5 462"/><polygon class="cls-83" points="487.5 464.58 475.64 457.78 467.75 462.3 479.62 469.1 487.5 464.58"/><polygon class="cls-84" points="479.49 466.37 467.63 459.57 467.63 462.6 479.49 469.4 479.49 466.37"/><polygon class="cls-67" points="487.62 461.7 475.76 454.9 467.63 459.57 479.49 466.37 487.62 461.7"/><polygon class="cls-85" points="487.62 464.51 487.4 464.38 487.4 464.63 487.62 464.51"/><polygon class="cls-67" points="487.5 462.01 487.5 462 479.62 466.53 479.62 469.1 487.5 464.58 487.5 464.58 487.62 464.51 487.62 464.74 479.49 469.4 479.49 466.37 487.62 461.7 487.62 461.93 487.5 462.01"/><polygon class="cls-83" points="487.27 462.13 487.5 462.01 487.5 464.58 487.23 464.73 487.5 464.58 487.5 464.58 479.62 469.1 479.62 466.53 487.5 462 487.5 462.01 487.27 462.13"/><path class="cls-83" d="M372.13,411.72v1.79a.2.2,0,0,0,.09.16s.09,0,.09-.05v-1.79a.2.2,0,0,0-.09-.16c-.05,0-.09,0-.09.05" transform="translate(105.11 54.05)"/><path class="cls-83" d="M372.61,412v1.79a.2.2,0,0,0,.09.16c.05,0,.09,0,.09-.05v-1.8a.2.2,0,0,0-.09-.16c-.05,0-.09,0-.09.06" transform="translate(105.11 54.05)"/><path class="cls-83" d="M373.09,412.28v1.79a.2.2,0,0,0,.09.16c.05,0,.1,0,.1-.06v-1.79a.21.21,0,0,0-.1-.16c-.05,0-.09,0-.09.06" transform="translate(105.11 54.05)"/><path class="cls-83" d="M373.57,412.55v1.8a.21.21,0,0,0,.09.15s.1,0,.1-.05v-1.8a.22.22,0,0,0-.1-.15s-.09,0-.09.05" transform="translate(105.11 54.05)"/><path class="cls-113" d="M305.42,389.82c.5,1.91,2.62,1.42,4.2,1.42a6.91,6.91,0,0,0,5.25-2.41q-.19-.88-.42-1.74c-1.8-7.11-4.44-8-6.95-7.37s-3.78,3.19-2.08,10.1" transform="translate(105.11 54.05)"/><path class="cls-60" d="M351.49,379.5c0-.77.92-3.79,1.5-4.28a12.17,12.17,0,0,0,1.48-1.84c.22-.29.44-.59.64-.89s.16-.59.45-.6.51.46.5.76a1.85,1.85,0,0,1-.33,1.17c-.45.53-.83,1-.71,1.32s.6-.26.88-.46a4.88,4.88,0,0,0,1.68-1.67c.34-.58.81-1.37,1.12-2,.18-.37,1.22-1.16,1.42-.49.1.31-.14.58-.25.85s-.17.58-.31.86c-.3.61-.64,1.17-.95,1.79-.14.28-.73.85-.55.93,0,0,1.53-1.33,1.79-1.45a9.15,9.15,0,0,1,1.15-1.59s.17-.84.72-.95.48.17.43.54a3,3,0,0,1-.24.92,1.16,1.16,0,0,1,.76-.63c.72-.13.42.8.33,1-.19.44-.72,1.52-.86,2-.27.86-1.08,1.35-1.68,2a1.73,1.73,0,0,1-.51.36s.41-.13.71-.19c.56-.11,1.74-1.93,2.1-.63-.59.42-1.32,1.57-2,1.77-.28.08-.7.57-1.12.72s-1.06.57-1.54.75-.39.28-.85.52a9.24,9.24,0,0,1-3.21,1.1c-1.27.11-2.56-.7-2.57-1.58Z" transform="translate(105.11 54.05)"/></g><rect class="cls-14" x="146.45" y="779.05" width="272.66" height="14" rx="7"/><rect class="cls-14" x="424.5" y="779.05" width="58.25" height="14" rx="7"/></svg>