<svg id="Layer_1" data-name="Layer 1" xmlns="http://www.w3.org/2000/svg" xmlns:xlink="http://www.w3.org/1999/xlink" viewBox="0 0 595.28 841.89"><defs><style>.cls-1{fill:none;}.cls-2{fill:#5356ff;stroke:#231f20;stroke-miterlimit:10;}.cls-3{fill:#5334ff;}.cls-4{font-size:35.34px;font-family:Montserrat-Black, Montserrat;font-weight:800;}.cls-14,.cls-4{fill:#fff;}.cls-5{letter-spacing:-0.01em;}.cls-6{letter-spacing:0em;}.cls-7{letter-spacing:0.01em;}.cls-8{letter-spacing:-0.01em;}.cls-9{fill:#c49a6c;}.cls-10{fill:#70513c;}.cls-11{clip-path:url(#clip-path);}.cls-12{fill:#2b1990;}.cls-13{fill:#2e3192;}.cls-15{fill:#52bbe7;}.cls-16{fill:#5bc9ef;}.cls-17{fill:#a99fb8;}.cls-18{fill:#c6c6c6;}.cls-19{fill:#a38671;}.cls-20{fill:#8e725e;}.cls-21{fill:#5e4534;}.cls-22{fill:#a5c63b;}.cls-23{fill:#8eb021;}.cls-24{fill:#785571;}.cls-25{fill:#a3c412;}.cls-26{fill:#503b2c;}.cls-27{fill:#bdc3c7;}.cls-28{clip-path:url(#clip-path-2);}.cls-29{fill:#fefefe;}.cls-30{fill:#fdfdfd;}.cls-31{fill:#fcfdfd;}.cls-32{fill:#fbfcfc;}.cls-33{fill:#fafbfb;}.cls-34{fill:#f9fafa;}.cls-35{fill:#f8f9fa;}.cls-36{fill:#f7f8f9;}.cls-37{fill:#f6f8f8;}.cls-38{fill:#f4f7f7;}.cls-39{fill:#f3f6f6;}.cls-40{fill:#f2f5f6;}.cls-41{fill:#f1f4f5;}.cls-42{fill:#f0f3f4;}.cls-43{fill:#eff3f3;}.cls-44{fill:#eef2f3;}.cls-45{fill:#edf1f2;}.cls-46{fill:#ecf0f1;}.cls-47{fill:#ffde17;}.cls-48{fill:#db9645;}.cls-49{fill:#b58143;}.cls-50{fill:#d6a15c;}.cls-51{fill:#b3efff;}.cls-52{fill:#bbd32d;}.cls-53{fill:#bc8133;}.cls-54{fill:#b1b2b2;}.cls-55{fill:#1e160d;}.cls-56{fill:#0d3659;}.cls-57{fill:#c44620;}.cls-58{fill:#dd5626;}.cls-59{fill:#f76627;}.cls-60{fill:#fccb95;}.cls-61{fill:#ffd8a6;}.cls-62{fill:#603913;}.cls-63{fill:#1e170e;}.cls-64{fill:#0a2b38;}.cls-65{fill:#262626;}.cls-66{fill:#6a707c;}.cls-67{fill:#0b2f49;}.cls-68{clip-path:url(#clip-path-4);}.cls-69{fill:url(#linear-gradient);}.cls-70{fill:#08273a;}.cls-71{fill:#092a42;}.cls-72{fill:#0072bf;}.cls-73{fill:#51e0e0;}.cls-74{fill:#9bb214;}.cls-75{fill:#454a71;}.cls-76{fill:#676f95;}.cls-77{fill:#082263;}.cls-78{fill:#08a6de;}.cls-79{fill:#ced3e0;}.cls-80{fill:#4be0ff;}.cls-81{fill:#49a9ff;}.cls-82{fill:#00aeef;}.cls-83{fill:#f1f1f1;}.cls-84{fill:#085a96;}.cls-85{fill:#c2c2c7;}.cls-86{clip-path:url(#clip-path-6);}.cls-87{isolation:isolate;}.cls-88{clip-path:url(#clip-path-8);}.cls-89{clip-path:url(#clip-path-9);}.cls-90{clip-path:url(#clip-path-10);}.cls-91{clip-path:url(#clip-path-11);}.cls-92{fill:#ff7443;}.cls-93{clip-path:url(#clip-path-12);}.cls-94{fill:#c7c5c3;}.cls-95{clip-path:url(#clip-path-13);}.cls-96{clip-path:url(#clip-path-14);}.cls-97{clip-path:url(#clip-path-15);}.cls-98{clip-path:url(#clip-path-16);}.cls-99{clip-path:url(#clip-path-17);}.cls-100{clip-path:url(#clip-path-18);}.cls-101{clip-path:url(#clip-path-19);}.cls-102{clip-path:url(#clip-path-21);}.cls-103{clip-path:url(#clip-path-22);}.cls-104{clip-path:url(#clip-path-23);}.cls-105{clip-path:url(#clip-path-24);}.cls-106{clip-path:url(#clip-path-25);}.cls-107{clip-path:url(#clip-path-26);}.cls-108{clip-path:url(#clip-path-27);}.cls-109{clip-path:url(#clip-path-28);}.cls-110{clip-path:url(#clip-path-29);}.cls-111{clip-path:url(#clip-path-30);}.cls-112{clip-path:url(#clip-path-31);}.cls-113{fill:#084373;}</style><clipPath id="clip-path"><rect class="cls-1" x="78.9" y="153.37" width="414.79" height="429.27"/></clipPath><clipPath id="clip-path-2"><path class="cls-1" d="M278.86,288.32a16.34,16.34,0,0,1,7.41-12.82c4.1-2.37,7.44-.46,7.45,4.25a16.37,16.37,0,0,1-7.4,12.82,6.79,6.79,0,0,1-3.33,1c-2.44,0-4.12-1.93-4.13-5.27m7.4-14.62c-5,2.86-9,9.83-9,15.53s4.06,8,9,5.14,9-9.83,9-15.53c0-4-2-6.37-5-6.37a8.15,8.15,0,0,0-4,1.23"/></clipPath><clipPath id="clip-path-4"><path class="cls-1" d="M280.9,353.72c-3.12,3.92-.91,8.55-.57,9.78.5,1.86,3.92,4.76,4.62,4.52.5-.18-.69-3.77-.72-4.11a13.45,13.45,0,0,1,.12-2c0-.84-.16-2.2.84-2.47a3.58,3.58,0,0,1,1-.06h.54a13.8,13.8,0,0,0,2-.3,7.61,7.61,0,0,0,3-1.23c.44-.33,2.06-2,1.57-2.61,0,0-.8-2.28-2.63-2.79a16.87,16.87,0,0,0-4.37-.61c-2.25,0-4.27.56-5.34,1.91"/></clipPath><linearGradient id="linear-gradient" x1="11.79" y1="855.23" x2="12.79" y2="855.23" gradientTransform="matrix(15.42, 0, 0, -15.42, 97.34, 13551.27)" gradientUnits="userSpaceOnUse"><stop offset="0" stop-color="#231f20"/><stop offset="1" stop-color="#231f20"/></linearGradient><clipPath id="clip-path-6"><rect class="cls-1" x="342.72" y="438.92" width="19.99" height="14.51"/></clipPath><clipPath id="clip-path-8"><rect class="cls-1" x="350.73" y="439.22" width="11.86" height="9.38"/></clipPath><clipPath id="clip-path-9"><rect class="cls-1" x="342.84" y="441.8" width="19.75" height="11.32"/></clipPath><clipPath id="clip-path-10"><rect class="cls-1" x="342.72" y="443.59" width="11.86" height="9.84"/></clipPath><clipPath id="clip-path-11"><rect class="cls-1" x="342.72" y="438.92" width="19.99" height="11.47"/></clipPath><clipPath id="clip-path-12"><rect class="cls-1" x="362.5" y="448.4" width="0.22" height="0.26"/></clipPath><clipPath id="clip-path-13"><rect class="cls-1" x="354.58" y="445.73" width="8.13" height="7.7"/></clipPath><clipPath id="clip-path-14"><rect class="cls-1" x="354.7" y="446.02" width="7.89" height="7.1"/></clipPath><clipPath id="clip-path-15"><rect class="cls-1" x="352.34" y="449.73" width="0.18" height="2.03"/></clipPath><clipPath id="clip-path-16"><rect class="cls-1" x="352.82" y="450.01" width="0.18" height="2.03"/></clipPath><clipPath id="clip-path-17"><rect class="cls-1" x="353.3" y="450.29" width="0.18" height="2.03"/></clipPath><clipPath id="clip-path-18"><rect class="cls-1" x="353.78" y="450.56" width="0.18" height="2.03"/></clipPath><clipPath id="clip-path-19"><rect class="cls-1" x="367" y="402.36" width="19.99" height="14.5"/></clipPath><clipPath id="clip-path-21"><rect class="cls-1" x="375.01" y="402.66" width="11.86" height="9.38"/></clipPath><clipPath id="clip-path-22"><rect class="cls-1" x="367.12" y="405.24" width="19.75" height="11.32"/></clipPath><clipPath id="clip-path-23"><rect class="cls-1" x="367" y="407.03" width="11.86" height="9.84"/></clipPath><clipPath id="clip-path-24"><rect class="cls-1" x="367" y="402.36" width="19.99" height="11.47"/></clipPath><clipPath id="clip-path-25"><rect class="cls-1" x="386.78" y="411.84" width="0.22" height="0.25"/></clipPath><clipPath id="clip-path-26"><rect class="cls-1" x="378.86" y="409.17" width="8.13" height="7.7"/></clipPath><clipPath id="clip-path-27"><rect class="cls-1" x="378.98" y="409.46" width="7.89" height="7.1"/></clipPath><clipPath id="clip-path-28"><rect class="cls-1" x="376.61" y="413.17" width="0.18" height="2.03"/></clipPath><clipPath id="clip-path-29"><rect class="cls-1" x="377.1" y="413.45" width="0.18" height="2.03"/></clipPath><clipPath id="clip-path-30"><rect class="cls-1" x="377.58" y="413.73" width="0.18" height="2.03"/></clipPath><clipPath id="clip-path-31"><rect class="cls-1" x="378.06" y="414" width="0.18" height="2.03"/></clipPath></defs><rect class="cls-2" x="-6" y="-6" width="606" height="859"/><path class="cls-3" d="M122.26,181.26c25.72-19.25,48.82-43.37,79-54.43S265,119.24,296.75,114c58-9.6,109.77-50.77,132.18-105.12,6.37-15.43,9.91-34.74-.8-47.53-9.23-11-25.27-12.69-39.62-13.38A1749.06,1749.06,0,0,0,5-28.12C-26.68-22.6-60.89-14.64-81.06,10.4-95.23,28-100,51.27-102.23,73.75c-4.14,41.92-11.73,149.57,43.07,162.39C-1.17,249.7,77.28,214.92,122.26,181.26Z"/><path class="cls-3" d="M291.74,758.45c31.78-40.52,74.84-70.34,116-101.33s82-64.93,106.47-110.24c18.55-34.34,26.69-73.41,44-108.41s48.21-67.71,87.2-69.57c40.17-1.93,75.52,30.6,90.1,68.08s13,79,11.19,119.21q-5.83,130-11.68,260.1c-1.47,32.8-4,68.28-25.37,93.18-23.27,27.07-62.06,33.69-97.63,36.64a982.61,982.61,0,0,1-281.48-17.5c-37.79-7.9-77.27-6.92-79.9-51.44C248.05,834,265.4,792,291.74,758.45Z"/><text class="cls-4" transform="translate(41.34 660.84)">Bikin <tspan class="cls-5" x="110.97" y="0">P</tspan><tspan class="cls-6" x="136.88" y="0">e</tspan><tspan class="cls-7" x="159.95" y="0">n</tspan><tspan x="185.12" y="0">gajuan </tspan><tspan class="cls-8" x="327.3" y="0">K</tspan><tspan x="353.98" y="0">amarmu</tspan><tspan x="0" y="42.41">J</tspan><tspan class="cls-7" x="20.29" y="42.41">a</tspan><tspan class="cls-6" x="43.22" y="42.41">di Lebih Mudah</tspan></text><polygon class="cls-9" points="95.28 439.13 107.09 446.01 79.13 462.22 94.28 471.04 94.24 471.07 285.83 582.63 470.12 475.77 470.03 475.72 493.45 462.14 466.57 446.49 471.15 443.83 279.57 332.27 95.28 439.13"/><polygon class="cls-10" points="283.04 524.15 365.36 476.3 289.55 432.53 207.22 480.38 283.04 524.15"/><g class="cls-11"><path class="cls-10" d="M282.91,497.38s-5.86,3.56-1.16,7.19,16.93,12.56,24.49,10.32,19.58-10.73,20.55-11.86.88-2.88-3.06-5.78c-2.82-2.07-16.56-9.64-17.36-9.92s-3.33-1.78-8.52.94c-4.89,2.57-14.94,9.11-14.94,9.11"/><polygon class="cls-10" points="225.35 445.83 345.26 376.84 286.97 343.36 167.07 412.36 225.35 445.83"/><polygon class="cls-12" points="493.69 462.22 286.53 342.62 286.53 153.37 493.69 273.04 493.69 462.22"/><polygon class="cls-13" points="79.36 462.22 286.53 342.62 286.53 153.37 79.36 273.04 79.36 462.22"/><polygon class="cls-14" points="364.06 325.34 364.06 232.61 417.79 263.63 417.79 356.36 364.06 325.34"/><polygon class="cls-15" points="373.26 320.06 373.26 237.99 417.72 263.66 417.72 345.73 373.26 320.06"/><polygon class="cls-16" points="417.79 288.46 379.86 323.79 378.16 322.82 417.79 285.91 417.79 288.46"/><polygon class="cls-16" points="417.79 263.63 417.79 275.61 373.33 317.02 373.33 302.69 416.23 262.73 417.79 263.63"/><polygon class="cls-14" points="368.85 235.38 373.33 237.96 373.33 270.22 417.79 295.89 417.79 301.07 368.85 272.82 368.85 235.38"/><polygon class="cls-14" points="373.33 237.96 373.33 320.02 417.79 345.69 417.79 350.88 368.85 322.62 368.85 235.38 373.33 237.96"/><polygon class="cls-17" points="368.01 262.89 417.79 291.63 417.79 294.37 365.65 264.26 368.01 262.89"/><polygon class="cls-17" points="368.01 259.35 417.79 288.09 417.79 290.82 365.65 260.72 368.01 259.35"/><polygon class="cls-17" points="368.01 255.81 417.79 284.55 417.79 287.28 365.65 257.18 368.01 255.81"/><polygon class="cls-17" points="368.01 252.26 417.79 281 417.79 283.73 365.65 253.63 368.01 252.26"/><polygon class="cls-17" points="368.01 248.72 417.79 277.46 417.79 280.19 365.65 250.09 368.01 248.72"/><polygon class="cls-17" points="368.09 245.26 417.79 273.95 417.79 276.69 365.72 246.62 368.09 245.26"/><polygon class="cls-17" points="368.09 241.72 417.79 270.41 417.79 273.14 365.72 243.09 368.09 241.72"/><polygon class="cls-17" points="368.09 238.17 417.79 266.86 417.79 269.59 365.72 239.53 368.09 238.17"/><polygon class="cls-17" points="367.83 234.78 417.79 263.63 417.79 266.05 365.72 235.99 367.83 234.78"/><polygon class="cls-14" points="417.72 356.72 417.72 263.99 471.45 295.01 471.45 387.74 417.72 356.72"/><polygon class="cls-15" points="426.92 351.43 426.92 269.37 471.38 295.04 471.38 377.1 426.92 351.43"/><polygon class="cls-16" points="471.45 319.84 433.51 355.17 431.82 354.19 471.45 317.29 471.45 319.84"/><polygon class="cls-16" points="471.45 295.01 471.45 306.99 426.99 348.4 426.99 334.06 469.89 294.11 471.45 295.01"/><polygon class="cls-14" points="422.51 266.75 426.99 269.34 426.99 301.6 471.45 327.26 471.45 332.45 422.51 304.19 422.51 266.75"/><polygon class="cls-14" points="426.99 269.34 426.99 351.4 471.45 377.07 471.45 382.25 422.51 354 422.51 266.75 426.99 269.34"/><polygon class="cls-17" points="421.67 294.27 471.45 323.01 471.45 325.74 419.31 295.64 421.67 294.27"/><polygon class="cls-17" points="421.67 290.73 471.45 319.46 471.45 322.2 419.31 292.1 421.67 290.73"/><polygon class="cls-17" points="421.67 287.19 471.45 315.93 471.45 318.66 419.31 288.56 421.67 287.19"/><polygon class="cls-17" points="421.67 283.64 471.45 312.38 471.45 315.11 419.31 285.01 421.67 283.64"/><polygon class="cls-17" points="421.67 280.1 471.45 308.84 471.45 311.57 419.31 281.47 421.67 280.1"/><polygon class="cls-17" points="421.75 276.63 471.45 305.33 471.45 308.06 419.38 278 421.75 276.63"/><polygon class="cls-17" points="421.75 273.1 471.45 301.79 471.45 304.52 419.38 274.46 421.75 273.1"/><polygon class="cls-17" points="421.75 269.54 471.45 298.24 471.45 300.97 419.38 270.91 421.75 269.54"/><polygon class="cls-17" points="421.49 266.16 471.45 295.01 471.45 297.43 419.38 267.37 421.49 266.16"/><path class="cls-18" d="M378.9,331.2a5.93,5.93,0,0,0,5.38,0,2.23,2.23,0,0,0,1.17-1.42h0v-.07L386.8,322H376.39l1.34,7.75a2.16,2.16,0,0,0,1.17,1.48"/><path class="cls-19" d="M381.57,324.83a7.44,7.44,0,0,0,3.63-.87,2.8,2.8,0,0,0,1.63-2.33,2.76,2.76,0,0,0-1.61-2.3,7.36,7.36,0,0,0-3.59-.86,7.28,7.28,0,0,0-3.63.88,2.78,2.78,0,0,0-1.63,2.32A2.75,2.75,0,0,0,378,324a7.25,7.25,0,0,0,3.59.86"/><path class="cls-20" d="M376.88,322.25a2.72,2.72,0,0,0,1.29,1.38,7.56,7.56,0,0,0,6.84,0,2.79,2.79,0,0,0,1.31-1.4c.33-.89-.1-1.86-1.29-2.55a7.56,7.56,0,0,0-6.84,0c-1.21.7-1.65,1.68-1.31,2.57"/><path class="cls-21" d="M376.88,322.25a2.72,2.72,0,0,0,1.29,1.38,7.56,7.56,0,0,0,6.84,0,1.39,1.39,0,0,0,0-2.78,7.56,7.56,0,0,0-6.84,0,2.74,2.74,0,0,0-1.31,1.39"/><path class="cls-22" d="M368.76,296.08a4.38,4.38,0,0,1,.81.19,3.87,3.87,0,0,1,1.47.83c.85.83,1.31,1.78,1.07,2.21.46.25.88.53,1.31.82a2.13,2.13,0,0,1,.15-.67c-.41-.3-.38-1.15.08-1.93a1.82,1.82,0,0,1,1-.76,2.92,2.92,0,0,1,.71-.13,3.3,3.3,0,0,1,.19.72,1.81,1.81,0,0,1-.22,1.32c-.51.72-1.27,1.05-1.71.84a1.71,1.71,0,0,0-.14.68,9,9,0,0,1,.92.71l.44.39.4.42a2.6,2.6,0,0,1,.33-.69,1,1,0,0,1-.12-.88,3.11,3.11,0,0,1,.58-1.21,1.89,1.89,0,0,1,1.25-.68,2.76,2.76,0,0,1,.8,0,1.43,1.43,0,0,1,.05.25,3.58,3.58,0,0,1,0,.61,2,2,0,0,1-.52,1.39c-.71.67-1.59.9-2,.61a1.88,1.88,0,0,0-.32.7c.15.16.29.33.42.5l.4.53h0c.25.38.51.75.72,1.15a2.19,2.19,0,0,1,.5-.64c-.27-.46.18-1.34,1-2a2.1,2.1,0,0,1,1.44-.43,3.19,3.19,0,0,1,.81.14s0,.1,0,.25a2.85,2.85,0,0,1-.13.6,2.38,2.38,0,0,1-.88,1.26c-.89.57-1.83.67-2.17.3a2.32,2.32,0,0,0-.51.66,25,25,0,0,1,1.22,2.5,2.29,2.29,0,0,1,.54-.64c-.27-.51.28-1.41,1.25-2.08a2.44,2.44,0,0,1,1.58-.36c.25,0,.46.07.6.1l.24.06a4,4,0,0,1-.23.84,2.73,2.73,0,0,1-1,1.27c-1,.59-2,.7-2.35.28a2.17,2.17,0,0,0-.55.67l.54,1.24h0v0c.17.39.34.78.5,1.17a2.65,2.65,0,0,1,.77-.67c-.19-.57.61-1.42,1.82-1.91a3.83,3.83,0,0,1,2.65.09,1.43,1.43,0,0,1-.11.23,4.9,4.9,0,0,1-.33.56,3.05,3.05,0,0,1-1.35,1.19c-1.17.48-2.31.45-2.62,0a2.46,2.46,0,0,0-.77.68h0c.41,1,.79,1.94,1.1,2.88a2.7,2.7,0,0,1,.81-.65c-.18-.64.63-1.51,1.88-2a3,3,0,0,1,1.87,0,3.68,3.68,0,0,1,.66.25l.25.13a4.41,4.41,0,0,1-.44.9A2.89,2.89,0,0,1,384,312a4,4,0,0,1-1.7.19,1.3,1.3,0,0,1-1-.51,2.63,2.63,0,0,0-.81.67h0a17.91,17.91,0,0,1,.76,3.28,3.32,3.32,0,0,1,1-.58,1.38,1.38,0,0,1,.59-1.16,4.57,4.57,0,0,1,1.77-.93,3,3,0,0,1,2.13.32,5.18,5.18,0,0,1,.73.47,2.83,2.83,0,0,1,.27.25,5.13,5.13,0,0,1-.64,1.08,2.89,2.89,0,0,1-1.85,1.17,4.44,4.44,0,0,1-1.92-.22,1.57,1.57,0,0,1-1.05-.81,3.21,3.21,0,0,0-1,.59,25.4,25.4,0,0,1,.1,3.06,16.63,16.63,0,0,1-.13,2.3,3.92,3.92,0,0,1-.36,1.25h-.17a3.13,3.13,0,0,0,.28-.76,9.15,9.15,0,0,0,.2-1.63c0-.66,0-1.42,0-2.26a2.56,2.56,0,0,0-1.09-.32c-.08.73-1.22,1.38-2.69,1.49a3.08,3.08,0,0,1-2-.57,1.36,1.36,0,0,1-.36-.32l-.15-.17c-.05-.06-.09-.13-.13-.13l-.23-.09s.3-.16.79-.39a7.3,7.3,0,0,1,1.9-.69,5.22,5.22,0,0,1,2,0c.52.13.86.39.91.72a2.71,2.71,0,0,1,1.1.28,14,14,0,0,0-.36-3.39,2.53,2.53,0,0,0-1-.05c.05.61-.88,1.28-2.15,1.55a4.57,4.57,0,0,1-1.82,0,4.71,4.71,0,0,1-.58-.15l-.23-.08a5.23,5.23,0,0,1,.56-.65,4.09,4.09,0,0,1,1.51-1c1.28-.44,2.45-.33,2.68.25a2.67,2.67,0,0,1,1,0,24.78,24.78,0,0,0-1.05-3.28,2.33,2.33,0,0,0-1,.06c.11.57-.69,1.35-1.88,1.8a4.18,4.18,0,0,1-2.62-.07,4,4,0,0,1,1.82-1.92c1.21-.51,2.37-.48,2.64.06a2.61,2.61,0,0,1,.94-.07c-.32-.84-.69-1.69-1.06-2.56a2,2,0,0,0-.8-.08c0,.55-.77,1.19-1.87,1.45a2.7,2.7,0,0,1-1.62-.2,5.73,5.73,0,0,1-.74-.39,3.41,3.41,0,0,1,1.88-1.51c1.13-.26,2.16,0,2.33.53a2.51,2.51,0,0,1,.76.05c-.37-.84-.73-1.71-1.15-2.58a2,2,0,0,0-.77,0c.07.48-.66,1.08-1.66,1.39a3.19,3.19,0,0,1-1.47,0,3.51,3.51,0,0,1-.67-.2,5.32,5.32,0,0,1,.43-.56,3.29,3.29,0,0,1,1.19-.89c1-.4,2-.34,2.15.13a2.22,2.22,0,0,1,.73,0,17.4,17.4,0,0,0-1.31-2.28,1.65,1.65,0,0,0-.68.1c.13.44-.49,1.09-1.38,1.48a3.4,3.4,0,0,1-1.32.25,3.78,3.78,0,0,1-.61,0,1.32,1.32,0,0,0,.09-.17l.25-.39a3.54,3.54,0,0,1,.95-1,3.06,3.06,0,0,1,1.21-.51.75.75,0,0,1,.76.25,2.15,2.15,0,0,1,.65-.11c-.28-.34-.53-.71-.85-1-.16-.16-.3-.33-.47-.48l-.51-.44a1.43,1.43,0,0,0-.64.22c.24.4-.15,1.12-.84,1.66a2.61,2.61,0,0,1-1.11.47,3.18,3.18,0,0,1-.58.07,4.19,4.19,0,0,1,.13-.62,2.31,2.31,0,0,1,.56-1.13,2.45,2.45,0,0,1,1-.64.74.74,0,0,1,.77.11,1.84,1.84,0,0,1,.61-.23,18.14,18.14,0,0,0-2.05-1.35c-.39.32-1.37-.08-2.3-1a3.15,3.15,0,0,1-.84-1.54,3.39,3.39,0,0,1-.11-.83"/><path class="cls-23" d="M379.42,315.34a5.17,5.17,0,0,1,.64-.19,2.72,2.72,0,0,1,1.76.18c1.12.58,1.81,1.48,1.58,2.06a2.79,2.79,0,0,1,.69.65c.41-.76.89-1.59,1.43-2.48a2.13,2.13,0,0,0-.55-.6c-.32.4-1.3.34-2.25-.17a2.53,2.53,0,0,1-1-1.16,3.28,3.28,0,0,1-.28-.75,3.79,3.79,0,0,1,.78-.15,2.64,2.64,0,0,1,1.51.29c1,.54,1.56,1.35,1.33,1.84a2.09,2.09,0,0,1,.55.59c.47-.77,1-1.59,1.47-2.46a2.06,2.06,0,0,0-.54-.59c-.31.37-1.25.28-2.17-.24a3.19,3.19,0,0,1-1.3-1.79,3.26,3.26,0,0,1,2.22.17c.95.53,1.53,1.31,1.31,1.76a2.15,2.15,0,0,1,.54.58c.38-.65.76-1.32,1.13-2a1.74,1.74,0,0,0-.36-.56c-.34.3-1.17.1-1.91-.48a1.12,1.12,0,1,1,1.11-1.39c.76.61,1.14,1.4.87,1.79a2.07,2.07,0,0,1,.36.52c.36-.67.73-1.37,1.1-2.08a1.71,1.71,0,0,0-.38-.52c-.29.29-1.06.13-1.77-.38a2.59,2.59,0,0,1-.89-1.61,2.7,2.7,0,0,1,1.82.33c.73.53,1.13,1.23.9,1.59a1.71,1.71,0,0,1,.37.49c.32-.65.65-1.3,1-2a2,2,0,0,0-.3-.5c-.31.29-1.07.18-1.72-.3a1.56,1.56,0,0,1-.52-1.17,3,3,0,0,1,.07-.79,2.26,2.26,0,0,1,.71-.08,1.42,1.42,0,0,1,1.08.49,2.6,2.6,0,0,1,.51,1,.86.86,0,0,1-.07.77,1.64,1.64,0,0,1,.29.47,7.64,7.64,0,0,1,1.45-1.83,1.46,1.46,0,0,0-.07-.57,1.34,1.34,0,0,1-1.43-.75,1.43,1.43,0,0,1-.06-1.15c.06-.18.13-.34.18-.46a1.85,1.85,0,0,1,.1-.18,2.32,2.32,0,0,1,.64.13,1.35,1.35,0,0,1,.82.7c.29.71.21,1.42-.17,1.66a1.8,1.8,0,0,1,.08.54,13.92,13.92,0,0,1,1.72-1.31c-.1-.41.68-1,1.72-1.27a2.84,2.84,0,0,1,1.44.07,3.61,3.61,0,0,1,.64.26,3,3,0,0,1-.46.51,3,3,0,0,1-1.25.7c-1,.22-1.79.18-2-.15-.37.25-.74.5-1.09.78a1.3,1.3,0,0,1,.49.29c.35-.23,1,.09,1.38.74a2,2,0,0,1,.25,1c0,.3,0,.53,0,.53a2.64,2.64,0,0,1-.46-.15,2.09,2.09,0,0,1-.84-.58c-.48-.56-.66-1.21-.38-1.5a1.1,1.1,0,0,0-.5-.29,9.47,9.47,0,0,0-1.42,1.41,1.34,1.34,0,0,1,.59.21c.27-.29,1,0,1.53.6a3.26,3.26,0,0,1,.58,1l.14.35.05.14a4.67,4.67,0,0,1-.45-.14,4.24,4.24,0,0,1-1-.49c-.67-.46-1.09-1.05-.92-1.39a1.3,1.3,0,0,0-.6-.2c-.12.15-.22.3-.32.45a4.48,4.48,0,0,0-.28.47h0c-.18.33-.33.68-.5,1a2,2,0,0,1,.67.06.73.73,0,0,1,.68-.29,2.75,2.75,0,0,1,1.1.37,5.35,5.35,0,0,1,1,.75l.16.15a1,1,0,0,1,.09.17,1.1,1.1,0,0,1,.07.17,2.68,2.68,0,0,1-1.84.08c-.81-.34-1.34-.91-1.25-1.31a1.69,1.69,0,0,0-.68-.05c-.35.7-.7,1.39-1.06,2.05a2,2,0,0,1,.7,0c.19-.43,1.07-.52,2-.19a2.8,2.8,0,0,1,1.39,1.45,2.84,2.84,0,0,1-2,.22c-.89-.33-1.49-.93-1.41-1.38a1.73,1.73,0,0,0-.72,0l-.53,1v0h0l-.51.93a2.15,2.15,0,0,1,.83.17c.28-.42,1.25-.34,2.2.19a3.16,3.16,0,0,1,1.29,1.8,3.19,3.19,0,0,1-2.21-.18c-.92-.51-1.49-1.26-1.33-1.72a2.21,2.21,0,0,0-.84-.15h0c-.44.77-.86,1.51-1.28,2.21a2.3,2.3,0,0,1,.85.16c.29-.44,1.29-.37,2.27.17a3.25,3.25,0,0,1,1.32,1.87,3.45,3.45,0,0,1-.78.14,2.64,2.64,0,0,1-1.52-.27c-.94-.53-1.52-1.32-1.34-1.81a2.18,2.18,0,0,0-.87-.14L385,316.67a2.76,2.76,0,0,1,.94.16c.31-.5,1.44-.41,2.54.2a3.35,3.35,0,0,1,1.19,1.25,5.26,5.26,0,0,1,.37.76,4.06,4.06,0,0,1-2.52-.19c-1.11-.52-1.82-1.35-1.64-1.9a2.4,2.4,0,0,0-.95-.15,20.53,20.53,0,0,0-1.95,4.07,7.38,7.38,0,0,0-.2.72c0,.22-.07.41-.1.56s0,.2,0,.27h-.13a.66.66,0,0,0,0-.15,4.22,4.22,0,0,1,.06-.42c0-.17.07-.35.12-.55a14.34,14.34,0,0,1,1.3-3.13,2.49,2.49,0,0,0-.68-.66c-.34.49-1.44.57-2.58.12a2.57,2.57,0,0,1-1.26-1.26,4.14,4.14,0,0,1-.34-.91l.26-.12"/><path class="cls-23" d="M358.74,308.28l.5-.1a3.81,3.81,0,0,1,1.48,0,4.18,4.18,0,0,1,1.32.48,1,1,0,0,1,.54.67l.68,0h.34l.33.05a1.69,1.69,0,0,1-.14-.6c-.46-.06-.81-.74-.83-1.57a1.42,1.42,0,0,1,.52-1,.55.55,0,0,1,1.08.11,1.58,1.58,0,0,1,.39,1.15c-.14.78-.63,1.36-1.07,1.35a1.63,1.63,0,0,0,.16.61,8.81,8.81,0,0,1,2,.55,2.21,2.21,0,0,1,0-.68.9.9,0,0,1-.43-.67,3,3,0,0,1,0-1.2,1.73,1.73,0,0,1,.76-1,2.33,2.33,0,0,1,.65-.31,3.1,3.1,0,0,1,.37.66,1.73,1.73,0,0,1,.09,1.31c-.32.83-.91,1.34-1.35,1.27a1.78,1.78,0,0,0,0,.69,10.48,10.48,0,0,1,1.07.51h0c.37.18.72.39,1.06.59a1.8,1.8,0,0,1,.12-.71c-.39-.25-.41-1.12,0-2a2,2,0,0,1,1-.95,3.25,3.25,0,0,1,.68-.25,2.69,2.69,0,0,1,0,2.05c-.45.83-1.12,1.34-1.55,1.2a1.75,1.75,0,0,0-.11.73c.72.45,1.41.9,2.09,1.34a2.38,2.38,0,0,1,.09-.74c-.44-.26-.42-1.18,0-2.13a2.42,2.42,0,0,1,1-1,3.71,3.71,0,0,1,.65-.32,3.2,3.2,0,0,1,0,2.12c-.43.93-1.14,1.52-1.61,1.39a1.93,1.93,0,0,0-.07.77l1,.66h0v0l.95.63a2.53,2.53,0,0,1,.25-.87c-.43-.34-.25-1.38.4-2.35a3.32,3.32,0,0,1,2.08-1.21,4.07,4.07,0,0,1,.08.82,2.76,2.76,0,0,1-.44,1.57c-.66.93-1.53,1.44-2,1.23a2.21,2.21,0,0,0-.25.88h0c.79.55,1.53,1.1,2.21,1.68a2.54,2.54,0,0,1,.31-.88c-.44-.4-.24-1.47.47-2.44a2.57,2.57,0,0,1,1.42-.9,4.34,4.34,0,0,1,.91-.12,3.81,3.81,0,0,1,.09.9,2.51,2.51,0,0,1-.54,1.62c-.78.88-1.74,1.28-2.24,1a2.24,2.24,0,0,0-.31.89c.41.35.78.72,1.14,1.06s.66.75,1,1.1a2.73,2.73,0,0,1,.49-.89,1.24,1.24,0,0,1-.07-1.18,4,4,0,0,1,.93-1.53,2.55,2.55,0,0,1,1.78-.72,4.37,4.37,0,0,1,1.11.09s0,.13,0,.32a4.7,4.7,0,0,1,0,.79,2.64,2.64,0,0,1-.89,1.74,4.19,4.19,0,0,1-1.58.75,1.48,1.48,0,0,1-1.16-.15,2.84,2.84,0,0,0-.51.91c.3.42.58.81.83,1.2l.69,1.09a8.09,8.09,0,0,1,.93,1.83,3.09,3.09,0,0,1,.18,1.27h-.14a2.76,2.76,0,0,0,0-.78,5.29,5.29,0,0,0-.51-1.36c-.27-.52-.64-1.08-1-1.72a2.88,2.88,0,0,0-1,.28c.3.61-.27,1.63-1.32,2.42a3,3,0,0,1-1.79.58,6.82,6.82,0,0,1-1.06-.19,7.72,7.72,0,0,1,.38-.71,5.33,5.33,0,0,1,1.13-1.44,4.44,4.44,0,0,1,1.52-.89,1,1,0,0,1,1.06.12,2.63,2.63,0,0,1,1-.3c-.24-.4-.53-.78-.82-1.21s-.67-.8-1-1.23a2.28,2.28,0,0,0-.77.42,1,1,0,0,1,0,1,4,4,0,0,1-.91,1.22,4.13,4.13,0,0,1-1.41.81l-.52.16-.21,0a4.18,4.18,0,0,1,.14-.75,3.81,3.81,0,0,1,.7-1.48c.76-.93,1.72-1.39,2.16-1.05a2.36,2.36,0,0,1,.77-.42c-.36-.34-.71-.7-1.1-1s-.81-.68-1.25-1a2.32,2.32,0,0,0-.7.5c.37.38.11,1.36-.58,2.26a3.82,3.82,0,0,1-2,1.21,4.82,4.82,0,0,1,0-.78,3.19,3.19,0,0,1,.49-1.53c.66-1,1.56-1.51,2-1.23a2.42,2.42,0,0,1,.68-.51c-.64-.48-1.33-.94-2.05-1.41a1.73,1.73,0,0,0-.63.34c.3.39,0,1.26-.69,2a3,3,0,0,1-2,.76,4.14,4.14,0,0,1,0-.75,2.44,2.44,0,0,1,.59-1.33c.73-.75,1.61-1.09,2-.76a1.74,1.74,0,0,1,.6-.34l-2.14-1.37a1.7,1.7,0,0,0-.59.34c.27.35,0,1.15-.6,1.86a2.53,2.53,0,0,1-1.17.66,3.37,3.37,0,0,1-.65.13,2.87,2.87,0,0,1,0-.66,2.68,2.68,0,0,1,.53-1.23c.61-.75,1.4-1.11,1.77-.83a1.9,1.9,0,0,1,.56-.34c-.66-.42-1.32-.84-2-1.21a1.54,1.54,0,0,0-.5.35c.28.31.08,1.07-.47,1.76a2.36,2.36,0,0,1-1,.72l-.38.16-.15.06a4.33,4.33,0,0,1,0-.6,2.71,2.71,0,0,1,.36-1.19c.46-.79,1.15-1.2,1.52-1a1.67,1.67,0,0,1,.47-.34,10.11,10.11,0,0,0-2.25-.88,1.44,1.44,0,0,0-.43.42c.34.25.3,1-.06,1.67a2.4,2.4,0,0,1-.71.81l-.29.22-.11.07a3.88,3.88,0,0,1-.1-.53,2.56,2.56,0,0,1,0-1.13c.22-.79.76-1.29,1.16-1.15a1.5,1.5,0,0,1,.39-.41,9.38,9.38,0,0,0-1.06-.18c-.36,0-.72,0-1.07-.05-.09.22-.34.35-.72.43a4.31,4.31,0,0,1-1.49-.06A2.66,2.66,0,0,1,359,309a2.62,2.62,0,0,1-.41-.64l.2-.06"/><path class="cls-23" d="M377.21,315.21a3.67,3.67,0,0,1,2.21-.25c1.55.38,2.67,1.28,2.55,2a3.21,3.21,0,0,1,1,.61c.31-1.05.66-2.21,1-3.47a2.69,2.69,0,0,0-.87-.56c-.26.6-1.48.82-2.81.49a4.08,4.08,0,0,1-2.22-1.88,4,4,0,0,1,2.85-.58c1.37.35,2.35,1.16,2.23,1.83a2.87,2.87,0,0,1,.87.55c.15-.55.33-1.11.48-1.7s.29-1.2.44-1.82a2.45,2.45,0,0,0-.87-.51c-.24.56-1.41.77-2.71.47a3.84,3.84,0,0,1-1.64-.93,4.82,4.82,0,0,1-.61-.67,4.89,4.89,0,0,1,.85-.37,3.53,3.53,0,0,1,1.87-.22c1.35.26,2.38,1,2.28,1.59a2.64,2.64,0,0,1,.87.49c.23-.92.37-1.89.54-2.88a2.26,2.26,0,0,0-.66-.52c-.29.51-1.36.61-2.49.21a3.11,3.11,0,0,1-1.34-1,3.52,3.52,0,0,1-.33-.51,2.08,2.08,0,0,1-.12-.22,3.54,3.54,0,0,1,2.52-.33c1.17.4,2,1.18,1.8,1.76a2.37,2.37,0,0,1,.65.48c.16-1,.29-1.95.42-3a2.13,2.13,0,0,0-.67-.45c-.23.46-1.21.6-2.27.3a3.41,3.41,0,0,1-1.76-1.55l.21-.11a4.49,4.49,0,0,1,.53-.21,2.62,2.62,0,0,1,1.58-.07c1.09.33,1.85,1,1.75,1.52a2.52,2.52,0,0,1,.65.43c.11-.91.22-1.83.34-2.77a2.12,2.12,0,0,0-.59-.43c-.23.46-1.15.59-2.14.29a3.07,3.07,0,0,1-1.6-1.57,3.79,3.79,0,0,1,.7-.3,2.88,2.88,0,0,1,1.46,0c1,.29,1.73,1,1.61,1.48a2.11,2.11,0,0,1,.58.39c.1-.95.21-1.89.25-2.86a1.62,1.62,0,0,0-.58-.43c-.2.48-1,.66-1.94.42a2.27,2.27,0,0,1-1.1-.76,2.47,2.47,0,0,1-.28-.4,1.41,1.41,0,0,1-.1-.18,2.71,2.71,0,0,1,2-.55c.93.23,1.59.85,1.49,1.37a1.74,1.74,0,0,1,.56.38c0-.87,0-1.75.07-2.66-.5-.19-.6-1.42,0-2.77a3.3,3.3,0,0,1,.61-.87,2.71,2.71,0,0,1,.73-.53,2.79,2.79,0,0,1,.81-.32,5,5,0,0,1,0,.86c0,.13,0,.25,0,.38s0,.29,0,.43a4,4,0,0,1-.27.88,4.53,4.53,0,0,1-.39.76,3.81,3.81,0,0,1-.41.63,1.26,1.26,0,0,1-.84.58c0,.56,0,1.12,0,1.67a2,2,0,0,1,.68-.25c0-.54.83-.93,1.79-.89a2.26,2.26,0,0,1,1.24.52,3.57,3.57,0,0,1,.51.48l-.14.15a3.86,3.86,0,0,1-.39.33,2.05,2.05,0,0,1-1.26.48c-.93,0-1.69-.44-1.75-1a1.67,1.67,0,0,0-.68.27c0,.84-.06,1.66-.15,2.48a2.41,2.41,0,0,1,.77-.21c.08-.52.95-.92,2-.89a2.39,2.39,0,0,1,1.38.55,4,4,0,0,1,.41.38,1.45,1.45,0,0,1,.14.18,2.8,2.8,0,0,1-2.06,1c-1-.09-1.84-.56-1.89-1.08a2,2,0,0,0-.78.22l-.15,1.38h0c-.06.47-.11.94-.17,1.4a2.37,2.37,0,0,1,.82-.21c.08-.52,1-.88,2.17-.78a3.5,3.5,0,0,1,2,1.12,3.46,3.46,0,0,1-2.17.81c-1.11-.07-2-.52-2-1a2.08,2.08,0,0,0-.84.23c-.12,1-.24,1.95-.37,2.89a2.59,2.59,0,0,1,.83-.27c.05-.6,1.05-1.07,2.28-1.07a3.6,3.6,0,0,1,2.28,1.14,3.62,3.62,0,0,1-2.29,1.11c-1.19,0-2.17-.47-2.26-1a2.27,2.27,0,0,0-.86.3c-.07.48-.15,1-.22,1.42l0,0,0,0c-.08.44-.15.89-.23,1.33a2.7,2.7,0,0,1,1.06-.15c.17-.62,1.36-.93,2.71-.69a4,4,0,0,1,2.29,1.67,4.13,4.13,0,0,1-.84.48,3.32,3.32,0,0,1-1.89.26c-1.3-.27-2.29-1-2.28-1.58a2.73,2.73,0,0,0-1.07.16h0c-.09.55-.23,1.09-.35,1.62s-.25,1-.38,1.55a3,3,0,0,1,1.09-.1c.2-.65,1.44-.95,2.82-.65a3.13,3.13,0,0,1,1.66,1.07,4.67,4.67,0,0,1,.59.86,4.43,4.43,0,0,1-.9.49,2.9,2.9,0,0,1-.91.23,3,3,0,0,1-1-.07c-1.33-.34-2.29-1.11-2.26-1.78a2.51,2.51,0,0,0-1.1.11c-.31,1.21-.67,2.33-1,3.38a3.09,3.09,0,0,1,1.19-.09c.24-.73,1.65-1,3.2-.6a4,4,0,0,1,1.85,1.18,5,5,0,0,1,.5.61l.17.26a5.22,5.22,0,0,1-1,.44,4,4,0,0,1-2.18.17c-1.51-.34-2.62-1.17-2.58-1.9a3,3,0,0,0-1.21.11c-.32,1.14-.66,2.17-.9,3.1s-.51,1.72-.64,2.39-.29,1.19-.38,1.56c0,.11-.06.2-.08.28h-.16a1.24,1.24,0,0,1,0-.16c.07-.27.16-.66.28-1.15.21-1,.63-2.37,1.1-4.08a3.07,3.07,0,0,0-1-.63c-.3.68-1.63,1-3.16.71a3.62,3.62,0,0,1-1.9-1.19,5.47,5.47,0,0,1-.67-.92,5.4,5.4,0,0,1,1-.55"/><path class="cls-22" d="M384.43,321.88a9.28,9.28,0,0,0-.69.85l-.07.11h-.13a.35.35,0,0,1,0-.08,4.58,4.58,0,0,1,.5-.65,14.46,14.46,0,0,1,2.1-1.93,2,2,0,0,0-.31-.73c-.42.26-1.29-.06-2-.81a2.24,2.24,0,0,1-.55-1.38c0-.23,0-.42,0-.56s0-.22,0-.22a3.23,3.23,0,0,1,.76.09,2.63,2.63,0,0,1,1.27.73c.71.8,1,1.71.62,2.08a2.44,2.44,0,0,1,.32.73c.57-.45,1.21-.94,1.87-1.52a2,2,0,0,0-.29-.63c-.36.26-1.11-.08-1.72-.76a2.38,2.38,0,0,1-.55-1.16,3.35,3.35,0,0,1-.08-.64,2.87,2.87,0,0,1,1.77.7c.66.67.94,1.47.65,1.8a2.1,2.1,0,0,1,.3.62c.55-.51,1.16-1.06,1.76-1.66a1.88,1.88,0,0,0-.31-.6c-.33.24-1.08-.05-1.71-.67a2.71,2.71,0,0,1-.67-1.74,2.67,2.67,0,0,1,1.76.62c.65.64.95,1.4.68,1.72a1.86,1.86,0,0,1,.32.59l1.35-1.4a1.63,1.63,0,0,0-.18-.54c-.34.18-1-.16-1.45-.8a2.51,2.51,0,0,1-.35-1.63,3.57,3.57,0,0,1,.56.13,2,2,0,0,1,.95.62c.51.65.66,1.37.36,1.63a1.54,1.54,0,0,1,.18.51q.66-.72,1.32-1.5a1.35,1.35,0,0,0-.21-.49c-.29.18-.89-.1-1.37-.66a1.83,1.83,0,0,1-.4-1,2,2,0,0,1,0-.54,2.14,2.14,0,0,1,1.43.63c.49.59.66,1.25.41,1.5a1.55,1.55,0,0,1,.2.47l1.21-1.4a1.25,1.25,0,0,0-.16-.46c-.29.16-.86-.11-1.29-.65a1.57,1.57,0,0,1-.29-1,2.33,2.33,0,0,1,.06-.53,1.94,1.94,0,0,1,.52.09,1.5,1.5,0,0,1,.82.55c.4.58.51,1.22.25,1.45a1.82,1.82,0,0,1,.16.43c.21-.23.43-.46.64-.7s.45-.47.7-.69a1.26,1.26,0,0,0-.07-.49c-.34.14-.85-.12-1.18-.65a1.21,1.21,0,0,1-.1-.93,2,2,0,0,1,.18-.51,1.63,1.63,0,0,1,1.2.69c.3.57.27,1.15,0,1.37a1.25,1.25,0,0,1,.08.45c.43-.42.9-.77,1.37-1.16-.06-.17,0-.39.27-.62a2.15,2.15,0,0,1,.43-.34,3.85,3.85,0,0,1,.53-.3,2.93,2.93,0,0,1,1.77-.06,2.76,2.76,0,0,1-.29.5,2.57,2.57,0,0,1-.94.78c-.77.34-1.48.39-1.72.14l-.86.69a1.27,1.27,0,0,1,.43.24c.29-.21.84,0,1.25.51a1.82,1.82,0,0,1,.27,1.3,2.92,2.92,0,0,1-.46-.07,1.57,1.57,0,0,1-.77-.43c-.41-.45-.59-1-.34-1.27a1.12,1.12,0,0,0-.45-.22l-.62.57-.58.59a1.7,1.7,0,0,1,.49.22c.25-.23.84,0,1.33.49a2.17,2.17,0,0,1,.46.87,3.44,3.44,0,0,1,.09.47,2.9,2.9,0,0,1-.45-.07,2,2,0,0,1-.87-.41c-.52-.45-.79-1-.61-1.29a1.18,1.18,0,0,0-.5-.21c-.21.23-.42.45-.62.68h0l-.62.72a1.66,1.66,0,0,1,.53.18c.24-.26.89-.09,1.47.4a2,2,0,0,1,.58.87,2.43,2.43,0,0,1,.14.49,4.76,4.76,0,0,1-.5,0,1.91,1.91,0,0,1-1-.36c-.59-.44-.91-1-.75-1.32a1.37,1.37,0,0,0-.55-.18l-1.27,1.47a1.9,1.9,0,0,1,.57.15c.24-.32,1-.22,1.66.24a2.43,2.43,0,0,1,.85,1.46,3,3,0,0,1-.58.07,2,2,0,0,1-1.11-.28c-.66-.44-1-1.06-.87-1.41a1.55,1.55,0,0,0-.59-.15l-.64.71h0l-.61.66a1.82,1.82,0,0,1,.64.31c.31-.29,1.08,0,1.75.63a1,1,0,1,1-1.1,1.14c-.64-.62-.94-1.36-.71-1.7a1.87,1.87,0,0,0-.65-.31h0c-.52.54-1,1.06-1.53,1.52a2,2,0,0,1,.65.33c.35-.3,1.15,0,1.82.64a2.1,2.1,0,0,1,.58,1.16,2.68,2.68,0,0,1,0,.68,2.6,2.6,0,0,1-1.85-.62c-.64-.66-.91-1.43-.66-1.79a1.67,1.67,0,0,0-.67-.32c-.61.57-1.18,1.11-1.75,1.56a2.54,2.54,0,0,1,.69.39c.41-.31,1.3,0,2,.79a2.36,2.36,0,0,1,.58,1.37,3.11,3.11,0,0,1,0,.79h-.23a2.66,2.66,0,0,1-.53-.1,2.49,2.49,0,0,1-1.28-.72c-.68-.78-.95-1.66-.64-2.05a2.11,2.11,0,0,0-.71-.39,26.49,26.49,0,0,0-2.91,2.46"/><polygon class="cls-24" points="149.12 343.71 149.12 295.06 120.92 311.33 120.92 359.99 149.12 343.71"/><polygon class="cls-14" points="122.51 312.25 147.53 297.81 147.53 342.8 122.51 357.24 122.51 312.25"/><polygon class="cls-25" points="126.48 314.54 143.56 304.69 143.56 340.5 126.48 350.36 126.48 314.54"/><path class="cls-14" d="M108.91,274.64c4.51-2.61,8.18-.51,8.18,4.67s-3.67,11.51-8.18,14.12-8.19.51-8.19-4.67,3.67-11.52,8.19-14.12"/><path class="cls-26" d="M108.91,277c.23-.14.42,0,.42.24V284a.93.93,0,0,1-.42.73c-.24.14-.43,0-.43-.24v-6.8a.91.91,0,0,1,.43-.73"/><path class="cls-26" d="M106.09,281.94l3.11,1.78c.17.09.17.4,0,.69a.88.88,0,0,1-.29.31.28.28,0,0,1-.3,0L105.49,283c-.16-.1-.16-.4,0-.69s.44-.44.6-.35"/><path class="cls-27" d="M103,292.66l.2.09.07,0a3.76,3.76,0,0,0,.48.13h0l.34,0H105l.16,0,.18,0,.15,0,.19,0,.13,0,.2,0,.14,0,.22-.07.11,0,.32-.12h0l.34-.14.11-.05.24-.12.12-.07.32-.17.75-.48,0,0c.23-.16.45-.33.67-.5l.08-.06c.21-.18.42-.36.63-.56a.46.46,0,0,0,.07-.07c.21-.19.42-.4.62-.61a.12.12,0,0,1,0-.05l.63-.71v0c.2-.25.4-.5.6-.77l0,0c.17-.23.33-.47.49-.71s.21-.33.31-.49.17-.26.24-.39a2,2,0,0,0,.11-.2c.13-.23.26-.46.38-.69a.3.3,0,0,1,0-.08c.14-.28.28-.57.4-.86,0,0,0,0,0,0,.12-.29.24-.57.35-.86a.14.14,0,0,1,0-.06c.11-.29.21-.59.3-.88a.09.09,0,0,1,0-.05c.08-.29.16-.57.23-.86a.31.31,0,0,1,0-.08c.06-.29.12-.58.17-.87v0c0-.29.08-.58.11-.87V280c0-.29,0-.57,0-.86s0-.55,0-.81c0,0,0-.05,0-.07,0-.24-.06-.47-.1-.69,0,0,0-.06,0-.09a5.61,5.61,0,0,0-.16-.62l0-.11-.21-.53,0-.05a5.44,5.44,0,0,0-.29-.54l0-.07a3.8,3.8,0,0,0-.29-.38.69.69,0,0,1-.11-.13l-.28-.27-.12-.1a4.15,4.15,0,0,0-.43-.3h0l1,.6a3.3,3.3,0,0,1,.43.3l.12.11a2.37,2.37,0,0,1,.28.27l.12.12c.1.12.19.25.28.38a.18.18,0,0,1,0,.07h0a4.16,4.16,0,0,1,.28.51v0l0,.05c0,.12.11.23.15.35l.06.19,0,.1,0,.11c0,.12.07.24.1.37l0,.14,0,.09c0,.05,0,.09,0,.14l.06.35a1.36,1.36,0,0,0,0,.2v.07a.28.28,0,0,1,0,.09c0,.11,0,.23,0,.35s0,.23,0,.35v.36c0,.12,0,.24,0,.36s0,.11,0,.16a.15.15,0,0,1,0,.07.57.57,0,0,1,0,.13c0,.12,0,.24,0,.36s0,.25,0,.37v0h0a2.14,2.14,0,0,1-.06.35c0,.13-.05.25-.07.38s0,.1,0,.15a.31.31,0,0,1,0,.08l0,.16c0,.13-.07.26-.11.4s0,.19-.08.29l0,.05s0,0,0,.05-.08.26-.13.38-.08.26-.13.38l0,.08,0,.05-.08.24-.15.36c0,.08-.07.17-.11.26l0,0,0,.05-.17.36c-.06.13-.12.26-.19.39l0,.07a.25.25,0,0,1,0,.07,3,3,0,0,1-.16.31l-.21.38-.11.2a.2.2,0,0,0,0,.08l-.2.31c-.1.17-.2.33-.31.49l-.05.08c-.14.21-.29.43-.44.63l0,0h0l-.33.43-.27.34h0l-.29.33c-.1.11-.19.22-.29.32l0,0,0,.05-.21.22-.32.31-.09.09-.07.07a1.07,1.07,0,0,0-.16.14l-.33.29-.15.12-.07.06-.11.09-.33.25-.23.17,0,0,0,0-.31.2-.32.2-.07,0-.24.13-.09.05-.12.06-.09.05-.15.07-.11.05,0,0-.29.12h0l-.28.11h0l-.11,0-.15,0-.08,0-.13,0-.1,0-.11,0-.13,0-.06,0-.13,0-.15,0h-.17l-.16,0h-.83l-.35-.05h0a3.62,3.62,0,0,1-.47-.13h-.07l-.2-.08-.1,0-.28-.15-1-.6.28.15.09,0"/><path class="cls-27" d="M98.92,288.14V288a1.21,1.21,0,0,0,0-.19.76.76,0,0,0,0-.15c0-.06,0-.12,0-.18a.45.45,0,0,1,0-.11c0-.08,0-.17,0-.25s0-.09,0-.14v0c0-.15,0-.3.07-.45h0s0-.05,0-.08a2.25,2.25,0,0,1,.06-.36v-.07c0-.06,0-.12,0-.18s0-.15,0-.22l0-.13c0-.06,0-.13,0-.19l0-.15a1.33,1.33,0,0,0,0-.19,1.33,1.33,0,0,0,0-.19l0-.1a2.76,2.76,0,0,1,.08-.27c0-.05,0-.1,0-.16l0,0a4.26,4.26,0,0,1,.15-.47h0s0,0,0-.06l.14-.39a.14.14,0,0,1,0-.06L100,283c0-.07,0-.15.08-.22l.06-.14c0-.06,0-.12.07-.17a1.12,1.12,0,0,1,0-.13c0-.08.07-.16.11-.25s0-.09,0-.13l0-.05c.07-.14.13-.29.2-.43v0l.06-.13.16-.33,0-.05c0-.09.09-.18.14-.27l.11-.22a.05.05,0,0,0,0,0l.39-.69,0-.06,0-.06.6-1,0-.05.06-.08c.16-.25.33-.49.51-.73h0l0-.07c.1-.14.21-.29.33-.43l0,0c.08-.11.17-.21.26-.32l.08-.1h0c.12-.14.23-.28.35-.41v0l.11-.11c.07-.09.15-.17.23-.26l0,0,.15-.16.18-.18.06-.07.17-.16.15-.15.08-.07.18-.18.13-.12.1-.08.19-.16.11-.11.12-.09.18-.15.1-.08.15-.12a1.09,1.09,0,0,0,.17-.13l.07,0,.21-.15.15-.1,0,0,.38-.25h0l0,0,.35-.21.09,0,.29-.16.1-.06.15-.07.11-.06.19-.09.12-.06.06,0a2.63,2.63,0,0,1,.35-.15h0l.34-.13.05,0,.14,0,.17-.06.1,0,.16,0,.11,0,.14,0,.15,0h.08l.15,0,.18,0h.22l.19,0H112l.28,0h.15l.42.06h0l.09,0,.24.06.13,0,.16.05h0l.23.1.12.05a2.79,2.79,0,0,1,.34.18l1,.6-.34-.18-.11,0-.24-.09-.2-.07-.12,0-.25-.06-.09,0h0l-.42-.06h-.14l-.29,0h-.57l-.19,0-.22,0-.18,0-.23.05-.16,0-.25.06-.16.05-.27.08-.13.05-.39.14h0l-.41.17-.13.06-.29.15-.15.07-.39.22-.44.27h0l-.42.28-.14.1-.28.2-.17.13-.25.2L107,275l-.24.2-.18.16-.23.21-.19.17-.23.22-.16.17-.24.24-.15.16-.28.3-.1.11c-.12.15-.25.29-.37.43a.86.86,0,0,1-.07.1c-.1.12-.2.23-.29.35l-.32.43-.06.07-.51.73-.09.13c-.21.32-.41.63-.6,1l-.07.12c-.14.23-.27.46-.39.7l-.14.25-.13.27-.19.38-.06.13c-.08.17-.16.33-.23.5l-.06.13c0,.13-.1.25-.16.38l-.06.17c0,.12-.1.24-.14.36l-.06.16c-.06.15-.11.3-.16.46l0,.05c-.06.18-.12.35-.17.52l-.05.17c0,.12-.07.24-.1.36a1.17,1.17,0,0,0,0,.2l-.09.33c0,.06,0,.13,0,.2s0,.22-.08.34l0,.18c0,.15-.06.29-.08.43v.08c0,.17-.05.34-.08.51a.66.66,0,0,1,0,.14c0,.12,0,.24,0,.37s0,.11,0,.17,0,.23,0,.34,0,.11,0,.17,0,.32,0,.48,0,.33,0,.49a.66.66,0,0,1,0,.14l0,.32c0,.07,0,.13,0,.19a2.51,2.51,0,0,1,0,.27l0,.2a2,2,0,0,0,0,.24c0,.07,0,.14,0,.21s0,.15,0,.22a2.17,2.17,0,0,0,.07.24,1.05,1.05,0,0,0,0,.19l.09.28.06.16c.06.15.12.31.19.45l0,0c.1.2.2.38.31.56l0,.05c.09.14.19.27.29.4l.07.09a3.39,3.39,0,0,0,.31.34l0,0a3.47,3.47,0,0,0,.36.31l.09.07a3.51,3.51,0,0,0,.4.27h0l-1-.6a2.7,2.7,0,0,1-.39-.27l-.1-.07-.36-.31,0,0a3.39,3.39,0,0,1-.31-.34l-.08-.09a4.27,4.27,0,0,1-.29-.41h0l0,0c-.11-.18-.21-.36-.31-.56v0h0c-.07-.14-.14-.3-.2-.45s0,0,0,0a.36.36,0,0,1,0-.11c0-.09-.07-.18-.1-.28a.24.24,0,0,0,0-.08l0-.11-.06-.24,0-.11a.36.36,0,0,1,0-.11c0-.07,0-.14-.05-.21a.5.5,0,0,0,0-.12s0-.08,0-.13l0-.19v-.1c0-.06,0-.12,0-.17s0-.13,0-.19,0-.05,0-.07,0-.17,0-.26a.57.57,0,0,1,0-.13v0c0-.14,0-.28,0-.43v-.43a.25.25,0,0,1,0-.08"/></g><g class="cls-28"><rect class="cls-29" x="293.39" y="273.13" width="0.34" height="21.8"/><rect class="cls-30" x="292.45" y="273.13" width="0.94" height="21.8"/><rect class="cls-31" x="291.5" y="273.13" width="0.95" height="21.8"/><rect class="cls-32" x="290.55" y="273.13" width="0.95" height="21.8"/><rect class="cls-33" x="289.61" y="273.13" width="0.95" height="21.8"/><rect class="cls-34" x="288.66" y="273.13" width="0.95" height="21.8"/><rect class="cls-35" x="287.71" y="273.13" width="0.95" height="21.8"/><rect class="cls-36" x="286.77" y="273.13" width="0.95" height="21.8"/><rect class="cls-37" x="285.82" y="273.13" width="0.95" height="21.8"/><rect class="cls-38" x="284.87" y="273.13" width="0.95" height="21.8"/><rect class="cls-39" x="283.93" y="273.13" width="0.94" height="21.8"/><rect class="cls-40" x="282.98" y="273.13" width="0.95" height="21.8"/><rect class="cls-41" x="282.03" y="273.13" width="0.95" height="21.8"/><rect class="cls-42" x="281.08" y="273.13" width="0.95" height="21.8"/><rect class="cls-43" x="280.14" y="273.13" width="0.95" height="21.8"/><rect class="cls-44" x="279.19" y="273.13" width="0.95" height="21.8"/><rect class="cls-45" x="278.85" y="273.13" width="0.34" height="21.8"/><rect class="cls-14" x="295.28" y="270.84" width="0.02" height="26.39"/><rect class="cls-14" x="294.34" y="270.84" width="0.95" height="26.39"/><rect class="cls-29" x="293.39" y="270.84" width="0.95" height="26.39"/><rect class="cls-30" x="292.45" y="270.84" width="0.94" height="26.39"/><rect class="cls-31" x="291.5" y="270.84" width="0.95" height="26.39"/><rect class="cls-32" x="290.55" y="270.84" width="0.95" height="26.39"/><rect class="cls-33" x="289.61" y="270.84" width="0.95" height="26.39"/><rect class="cls-34" x="288.66" y="270.84" width="0.95" height="26.39"/><rect class="cls-35" x="287.71" y="270.84" width="0.95" height="26.39"/><rect class="cls-36" x="286.77" y="270.84" width="0.95" height="26.39"/><rect class="cls-37" x="285.82" y="270.84" width="0.95" height="26.39"/><rect class="cls-38" x="284.87" y="270.84" width="0.95" height="26.39"/><rect class="cls-39" x="283.93" y="270.84" width="0.94" height="26.39"/><rect class="cls-40" x="282.98" y="270.84" width="0.95" height="26.39"/><rect class="cls-41" x="282.03" y="270.84" width="0.95" height="26.39"/><rect class="cls-42" x="281.08" y="270.84" width="0.95" height="26.39"/><rect class="cls-43" x="280.14" y="270.84" width="0.95" height="26.39"/><rect class="cls-44" x="279.19" y="270.84" width="0.95" height="26.39"/><rect class="cls-45" x="278.24" y="270.84" width="0.95" height="26.39"/><rect class="cls-46" x="277.3" y="270.84" width="0.95" height="26.39"/><rect class="cls-46" x="277.28" y="270.84" width="0.01" height="26.39"/></g><g class="cls-11"><polygon class="cls-47" points="204.82 446.86 150.84 478.03 221.67 517.71 275.65 486.55 204.82 446.86"/><polygon class="cls-48" points="279.17 207.82 279.17 348.39 283.4 350.84 283.52 205.31 279.17 207.82"/><polygon class="cls-49" points="288.71 207.21 288.71 347.78 283.4 350.84 283.4 210.27 288.71 207.21"/><polygon class="cls-50" points="283.4 210.27 288.71 207.21 284.47 204.76 279.17 207.82 283.4 210.27"/><polygon class="cls-48" points="335.83 237.54 288.71 210.54 284.47 212.99 335.83 242.57 335.83 237.54"/><polygon class="cls-49" points="331.59 246.12 284.47 219.11 284.47 212.99 331.59 239.99 331.59 246.12"/><polygon class="cls-50" points="331.59 239.99 331.59 246.12 335.83 243.67 335.83 237.54 331.59 239.99"/><polygon class="cls-48" points="174.93 269.8 279 209.64 283.24 212.09 174.93 274.83 174.93 269.8"/><polygon class="cls-49" points="179.17 278.37 283.24 218.21 283.24 212.09 179.17 272.24 179.17 278.37"/><polygon class="cls-50" points="179.17 272.24 179.17 278.37 174.93 275.92 174.93 269.8 179.17 272.24"/><polygon class="cls-48" points="174.93 360.16 279 300 283.24 302.44 174.93 365.19 174.93 360.16"/><polygon class="cls-49" points="179.17 368.73 283.24 308.57 283.24 302.44 179.17 362.6 179.17 368.73"/><polygon class="cls-50" points="179.17 362.6 179.17 368.73 174.93 366.28 174.93 360.16 179.17 362.6"/><polygon class="cls-48" points="331.54 237.97 331.54 378.54 335.78 380.99 335.89 235.45 331.54 237.97"/><polygon class="cls-49" points="341.08 237.36 341.08 377.93 335.78 380.99 335.78 240.42 341.08 237.36"/><polygon class="cls-50" points="335.78 240.42 341.08 237.36 336.83 234.91 331.54 237.97 335.78 240.42"/><polygon class="cls-48" points="172.27 269.28 172.27 409.85 176.5 412.29 176.62 266.76 172.27 269.28"/><polygon class="cls-49" points="181.81 268.66 181.81 409.23 176.5 412.29 176.5 271.72 181.81 268.66"/><polygon class="cls-50" points="176.5 271.72 181.81 268.66 177.57 266.21 172.27 269.28 176.5 271.72"/><polygon class="cls-49" points="172.23 376.61 172.23 389.82 229.67 422.66 229.67 409.45 172.23 376.61"/><polygon class="cls-49" points="335.39 348.37 335.39 361.58 229.67 422.66 229.67 409.46 335.39 348.37"/><polygon class="cls-50" points="229.67 409.45 335.39 348.37 277.94 315.53 172.23 376.61 229.67 409.45"/><polygon class="cls-14" points="327.23 348.57 276.74 319.68 179.19 376.05 229.66 404.93 327.23 348.57"/><path class="cls-14" d="M327.22,348.57s-1.79-5.75-10.82-11-36.14-22.3-44-21.47S181.88,364.78,179.19,370s0,6.05,0,6.05Z"/><polygon class="cls-49" points="172.23 283.12 172.23 296.32 229.67 329.16 229.67 315.96 172.23 283.12"/><polygon class="cls-48" points="172.27 269.28 172.27 409.85 176.5 412.29 176.62 266.76 172.27 269.28"/><polygon class="cls-49" points="335.39 254.88 335.39 268.08 229.67 329.17 229.67 315.96 335.39 254.88"/><polygon class="cls-50" points="229.67 315.96 335.39 254.88 277.94 222.03 172.23 283.12 229.67 315.96"/><polygon class="cls-48" points="172.27 269.28 172.27 409.85 176.5 412.29 176.62 266.76 172.27 269.28"/><polygon class="cls-14" points="327.23 255.07 276.74 226.19 179.19 282.56 229.66 311.43 327.23 255.07"/><path class="cls-14" d="M327.22,255.07s-1.79-5.75-10.82-11-36.14-22.3-44-21.47-90.53,48.64-93.22,53.87,0,6,0,6Z"/><path class="cls-51" d="M309.85,325s-23.13-16.57-28.54-15.33-13.16,9.42-16.2,14.56,22.44,19.06,29.31,20.59,20.15-16.56,15.43-19.82"/><polygon class="cls-48" points="255.11 314.47 255 395.12 250.76 392.67 250.76 316.98 255.11 314.47"/><polygon class="cls-49" points="260.3 309.93 260.3 405.09 255 408.15 255 312.99 260.3 309.93"/><path class="cls-52" d="M311.5,232.7s-24.79-17.76-30.59-16.44-14.1,10.1-17.36,15.61S287.6,252.3,295,253.94s21.6-17.74,16.54-21.24"/><polygon class="cls-48" points="229.08 298.6 181.81 271.49 177.57 273.94 229.09 303.63 229.08 298.6"/><polygon class="cls-49" points="224.85 307.17 177.57 280.06 177.57 273.94 224.85 301.05 224.85 307.17"/><polygon class="cls-50" points="224.84 301.05 224.85 307.17 229.09 304.72 229.08 298.6 224.84 301.05"/><polygon class="cls-48" points="335.83 327.34 288.71 300.33 284.47 302.78 335.83 332.37 335.83 327.34"/><polygon class="cls-49" points="331.59 335.91 284.47 308.9 284.47 302.78 331.59 329.79 331.59 335.91"/><polygon class="cls-48" points="229.08 388.4 181.81 361.29 177.57 363.73 229.09 393.43 229.08 388.4"/><polygon class="cls-49" points="224.85 396.97 177.57 369.86 177.57 363.74 224.85 390.85 224.85 396.97"/><polygon class="cls-50" points="224.84 390.84 224.85 396.97 229.09 394.52 229.08 388.4 224.84 390.84"/><polygon class="cls-48" points="230.65 350.5 250.95 339.14 253.61 340.67 230.65 353.65 230.65 350.5"/><polygon class="cls-49" points="233.31 355.87 253.6 344.51 253.61 340.67 233.31 352.04 233.31 355.87"/><polygon class="cls-50" points="233.31 352.04 233.31 355.87 230.65 354.34 230.65 350.5 233.31 352.04"/><polygon class="cls-48" points="230.65 335.66 250.95 324.29 253.61 325.82 230.65 338.8 230.65 335.66"/><polygon class="cls-49" points="233.31 341.02 253.6 329.66 253.61 325.82 233.31 337.19 233.31 341.02"/><polygon class="cls-50" points="233.31 337.19 233.31 341.02 230.65 339.49 230.65 335.66 233.31 337.19"/><polygon class="cls-48" points="230.65 365.02 250.95 353.65 253.61 355.19 230.65 368.17 230.65 365.02"/><polygon class="cls-49" points="233.31 370.38 253.6 359.02 253.61 355.19 233.31 366.55 233.31 370.38"/><polygon class="cls-50" points="233.31 366.55 233.31 370.38 230.65 368.85 230.65 365.02 233.31 366.55"/><polygon class="cls-48" points="230.65 379.6 250.95 368.24 253.61 369.77 230.65 382.75 230.65 379.6"/><polygon class="cls-49" points="233.31 384.97 253.6 373.61 253.61 369.77 233.31 381.14 233.31 384.97"/><polygon class="cls-50" points="233.31 381.14 233.31 384.97 230.65 383.44 230.65 379.6 233.31 381.14"/><polygon class="cls-48" points="230.65 394.04 250.95 382.68 253.61 384.21 230.65 397.19 230.65 394.04"/><polygon class="cls-49" points="233.31 399.41 253.6 388.05 253.61 384.21 233.31 395.57 233.31 399.41"/><polygon class="cls-50" points="233.31 395.57 233.31 399.41 230.65 397.88 230.65 394.04 233.31 395.57"/><polygon class="cls-48" points="225.09 299.81 225.09 440.38 229.32 442.82 229.44 297.29 225.09 299.81"/><polygon class="cls-49" points="234.63 299.19 234.63 439.76 229.32 442.82 229.32 302.25 234.63 299.19"/><polygon class="cls-50" points="229.32 302.25 234.63 299.19 230.39 296.74 225.09 299.81 229.32 302.25"/><path class="cls-53" d="M229.17,423.53V409.17l.25-.15,106.47-61.51v14.36Zm1-13.78v12l104.72-60.5V349.24Z"/><path class="cls-54" d="M394.67,451.1s7,4.27,1.38,8.61-20.26,15-29.31,12.36-23.43-12.85-24.6-14.21-1.05-3.44,3.66-6.91c3.38-2.48,19.83-11.55,20.78-11.89s4-2.12,10.2,1.14c5.86,3.07,17.89,10.9,17.89,10.9"/><path class="cls-55" d="M410.89,443.72c.78.16,1.21,1.2,1.54,1.81a2.53,2.53,0,0,1-.35,3.07c-1,1.13-3,1.13-3.76,1.9a41.07,41.07,0,0,1-6,3.74c-1.13.6-3.63.67-4.4-.31a3.3,3.3,0,0,1,.13-3.12,32.12,32.12,0,0,0,3-3.25,11.5,11.5,0,0,0,1.59-1.76c.32-.43,1.53-2.53,2.26-2Z"/><path class="cls-56" d="M415.19,397.52c-.69,3.52-.39,7.1-.8,10.67-.51,4.23.33,9.21-1.62,13.15a5.45,5.45,0,0,1-4.87,2.94c-1.36-.11-4.3-.53-4.1-1.47s-.58-2.76-.54-3.63c.09-1.65.05-11.48-.06-14.65-.1-2.58-.05-4.19,0-7,0,0-.62-5.34,5.6-4.48s6.51,4,6.41,4.52"/><path class="cls-56" d="M413.55,421.14a48.19,48.19,0,0,1-.11-6.63c0-1.87-9.91.15-10.1,4.68,0,0,1.83,17.64.54,23.22l-.18.94a1.38,1.38,0,0,0,.38,1.44,6,6,0,0,0,2.22,1.11c1.73.42,4.05.24,5.26-1.06,3-3.19,3.15-16,2-23.7"/><path class="cls-55" d="M424.52,450.65c.78.16,1.21,1.2,1.54,1.82a2.38,2.38,0,0,1-.34,3c-.41.4-3,1.13-3.76,1.91a44.2,44.2,0,0,1-5,3.51,7.07,7.07,0,0,1-2.59,1.06,4.09,4.09,0,0,1-3.47-1.12c-.56-.72-.6-1.53-.12-1.94,1.64-1.42,2.36-2.89,3.4-4a17.75,17.75,0,0,0,2.09-2.25c.33-.43,1.54-2.53,2.26-2Z"/><path class="cls-56" d="M423.13,401.34c-.4,3.58.63,7.33.5,10.92-.15,4.26,1.09,9.15-.53,13.24-.49,1.23-2.23,3.34-4.61,3.33-1.37,0-4.33-.17-4.21-1.13s-.81-2.7-.83-3.58c-.05-1.64-.9-11.44-1.27-14.59a28.63,28.63,0,0,0-1.51-7.42s-.72-5.51,5.56-5.55c5.23,0,7,4.27,6.9,4.78"/><path class="cls-56" d="M424.56,428a47.92,47.92,0,0,1-.65-6.6c-.19-1.87-10.19-.92-10,3.61,0,0,3.6,19.31,2.76,25l-.1.94a1.4,1.4,0,0,0,.49,1.41,6.2,6.2,0,0,0,2.31.93c1.76.27,4.05-.1,5.16-1.5,2.71-3.42,1.82-16.23,0-23.77"/><path class="cls-57" d="M405.88,364.73c-1.68,6.79-4,13.59-6.47,13-.93-.23-4.34-1.58-3.73-3.75,1.44-5.06.78-7.95,1.84-12.2,1.67-6.79,3.7-7.55,6.21-6.93s3.83,3.11,2.15,9.91"/><path class="cls-58" d="M415.14,354.64c.58.12,6.21,5.79,8.93,8.88,2,2.26,2.24,7.62,2.21,8.32-.08,2.29-2.16,14.82-2.51,18.75-.28,3.12.35,7.49.35,9.58,0,1.93-2.84,5.27-8.56,5.27-3.6,0-13-1.77-13.6-7.54-.46-4.65.78-21.23.14-23.74s-5.55-15.39-1.68-18.82A7,7,0,0,1,404.6,354c4.28.21,9.82.53,10.54.68"/><path class="cls-58" d="M405.27,365.62a23.6,23.6,0,0,0,.28,8.12,69,69,0,0,1,1.29,7.43c2.22-9.08,2.49-9.41,5.36-13.91a45.79,45.79,0,0,1,3-4.23,4.81,4.81,0,0,0,.72-3.87c-.6-2.41-2.58-2.25-4.26-2.26-2.62,0-4.68,1.14-5.72,4.32,0,0-.44,2.92-.68,4.4"/><path class="cls-59" d="M408.71,356.52c-1.29.88-1.84,4.2-1.9,5.6a10.66,10.66,0,0,0,.35,3.86,4.11,4.11,0,0,1,1.35-2.14c.76-.49.7-.3,1.15.33.62.88,1,2.55,1.8,3.15a7.23,7.23,0,0,1,1.45-2.82,15.7,15.7,0,0,1,2.42-2.25c2.15-1.49,2.77-5.67.6-7.16-3.87-2.64-7.22,1.43-7.22,1.43"/><path class="cls-59" d="M425.25,377.91c-1.49,7.14-5.49,15.61-8,14.87-.92-.28-4.48-2.43-3.73-4.65,1.74-5.19,1.56-10.35,2.87-14.71,2.09-7,4.44-8.79,6.9-8.05s4.21,1.52,1.92,12.54"/><path class="cls-60" d="M415.24,349.8a37.49,37.49,0,0,0-.06,5.46,18.74,18.74,0,0,1,.44,2.84c0,1.84-2.73,2.51-3.31,3a27.47,27.47,0,0,0-3.42,2.29c-.36-1.53-1-2.92-.78-4.22.17-1-.05-2.58.32-3.61s1.48-1.78,1.48-3Z"/><path class="cls-61" d="M404.74,342.32a13.58,13.58,0,0,1-.69,3.24,2.12,2.12,0,0,0,.05,1.66,4.33,4.33,0,0,1,.07,3,7.47,7.47,0,0,0,.43,3.75c.28,1,.42,2.08,1.29,2.66,2.16,1.44,4.57-.12,6.74-.88s1.82-3.87,2.48-5.66c1.21-3.23.32-7.75-3.24-9.16a9.43,9.43,0,0,0-5.84-.31c-.57.22-1.69,1.47-1.16,2.09Z"/><path class="cls-62" d="M416.64,337.35c-2.1-1.87-6.31-1.23-9.73.39-1.72.81-2.1,3.18-2.1,3.18-.38.66,1.49,2,2,2.28a7.19,7.19,0,0,0,3.13.7,13.57,13.57,0,0,0,2,0,8.57,8.57,0,0,1,1.48-.19c1,.09,1,1.46,1.24,2.27a12.83,12.83,0,0,1,.46,2c0,.34-.52,4,0,4.14.73.13,3.58-3.31,3.76-5.22.12-1.26,1.49-6.17-2.23-9.48"/><path class="cls-61" d="M416.83,349.78c-.46,1.2-1.26,2-1.78,1.79a2,2,0,0,1-.63-2.53c.46-1.19,1.78-2,2.31-1.79s.57,1.34.1,2.53"/><path class="cls-63" d="M316.93,485.85a8.55,8.55,0,0,0,.27,1.84,2.75,2.75,0,0,0,2.34.95,5.54,5.54,0,0,0,3.07-1.07c.73-1,4.31-1.94,5.32-2.21a4.2,4.2,0,0,0,2.16-1.71c.4-.72,1-2.56-.1-3.67-.8-.78-2.65.71-4.88.8-5.64.22-8.39,2.18-8.18,5.07"/><path class="cls-63" d="M322.71,489.86a9.53,9.53,0,0,0,.36,1.82,2.75,2.75,0,0,0,2.39.84,5.57,5.57,0,0,0,3-1.22c.68-1,4.21-2.15,5.2-2.48a4.18,4.18,0,0,0,2.08-1.81c.37-.74.89-2.6-.28-3.65-.84-.75-2.61.83-4.84,1-5.62.5-8.26,2.6-7.92,5.47"/><path class="cls-56" d="M326.34,464.24a4.7,4.7,0,0,0-3.47,1.37c-.09.5-.17,1-.23,1.51-.75,6.43,1.09,13.14.24,19.17-.23,1.66,2.55,2.21,4.2,1.94,1.18-.2,2.52-.61,3-1.38a1.79,1.79,0,0,0,.51-1.44l-.62-1.77c-.36-2.26.29-10.36,1.16-18.9a27.39,27.39,0,0,0-4.82-.5"/><path class="cls-64" d="M316,503.24l-2-1.13a.42.42,0,0,0-.12-.08c-.76-.45-2,.27-2.81,1.62s-.79,2.79,0,3.24l2.15,1.21,1.51-2.6,0,0Z"/><path d="M313.13,508.05c.77.46,2-.27,2.81-1.61s.79-2.8,0-3.24-2,.27-2.81,1.61-.79,2.8,0,3.24"/><path class="cls-64" d="M295.26,491.19l-2-1.14-.12-.08c-.77-.44-2,.28-2.81,1.62s-.78,2.79,0,3.25l2.14,1.21,1.51-2.61h0Z"/><path d="M292.38,496c.77.45,2-.28,2.8-1.62s.79-2.79,0-3.24-2,.28-2.81,1.62-.79,2.8,0,3.24"/><path class="cls-64" d="M315.89,491.53l-2-1.15-.11-.08c-.77-.44-2,.28-2.81,1.63s-.79,2.79,0,3.24l2.15,1.22,1.5-2.62h0Z"/><path d="M313,496.34c.77.44,2-.28,2.81-1.62s.79-2.8,0-3.25-2,.28-2.8,1.63-.8,2.79,0,3.24"/><path class="cls-64" d="M295.27,503.05l-2-1.14-.12-.08c-.76-.45-2,.28-2.8,1.62s-.79,2.8,0,3.24l2.15,1.22L294,505.3h0Z"/><path d="M292.39,507.86c.77.45,2-.28,2.81-1.62s.79-2.79,0-3.24-2,.28-2.81,1.62-.79,2.79,0,3.24"/><polygon points="315.49 502.69 315.49 500.83 290.48 488.64 290.48 490.5 313.54 503.81 315.49 502.69"/><polygon points="290.33 502.69 290.33 500.83 315.33 488.64 315.33 490.5 292.27 503.81 290.33 502.69"/><polygon class="cls-64" points="315.49 500.83 292.42 487.52 290.48 488.64 313.54 501.95 315.49 500.83"/><polygon class="cls-64" points="290.33 500.83 313.39 487.52 315.33 488.64 292.27 501.95 290.33 500.83"/><path d="M304.45,495.92h0V477.19H301v18.73c0,.55.77,1,1.73,1s1.75-.44,1.75-1Z"/><path d="M284,473.09s-5.86,3.57-1.15,7.2,16.92,12.55,24.48,10.32,19.58-10.74,20.55-11.86.88-2.88-3.06-5.78c-2.82-2.08-16.56-9.64-17.35-9.93s-3.34-1.77-8.53.95c-4.89,2.57-14.94,9.1-14.94,9.1"/><path class="cls-65" d="M323.85,458a4.4,4.4,0,0,0-4.4-1.17c-11,3.92-23.1,7.88-23.1,7.88-3.89,1.71,1.79,13.57,3.52,13.9,9.4,1.77,20.66-13.85,22.77-14.33.83-.18,1.17.07,2-.21.8-4.06,0-4.91-.78-6.07"/><path class="cls-56" d="M330,461.54a4.37,4.37,0,0,0-4.39-1.17c-11,3.92-23.1,7.89-23.1,7.89-3.89,1.71,1.79,13.56,3.52,13.89,9.39,1.78,20.66-13.85,22.77-14.33.83-.18,1.17.07,2-.21.8-4.06,0-4.91-.79-6.07"/><path d="M351.11,521.15h0V469.61h-3.27v51.54c0,.52.73.93,1.63.94s1.64-.41,1.64-.93Z"/><path d="M282.17,480.2h0V437.82h-3.43V480.2c0,.54.77,1,1.71,1s1.72-.44,1.72-1Z"/><path d="M427.39,476.81h0V429.93h-3.27v46.88c0,.51.73.94,1.63.94s1.64-.41,1.64-.93Z"/><polygon class="cls-64" points="311.68 399.08 311.68 405.51 311.68 406.39 311.68 412.82 308.55 411.02 308.55 404.59 308.55 403.7 308.55 397.27 311.68 399.08"/><polygon points="314.82 397.26 314.82 403.68 314.82 404.58 314.82 411.01 311.69 412.81 311.69 406.38 311.69 405.5 311.69 399.06 314.82 397.26"/><polygon class="cls-64" points="311.68 406.17 311.68 412.6 311.68 413.49 311.68 419.92 308.55 418.11 308.55 411.68 308.55 410.79 308.55 404.36 311.68 406.17"/><polygon points="314.82 404.35 314.82 410.78 314.82 411.67 314.82 418.1 311.69 419.91 311.69 413.48 311.69 412.59 311.69 406.16 314.82 404.35"/><polygon class="cls-66" points="311.68 399.06 308.55 397.26 311.68 395.45 314.81 397.26 311.68 399.06"/><path d="M310.94,366.24a12.25,12.25,0,0,0-8.46,9.23c-.67,3.14-8.12,30.87-.16,36s21.07-4.4,21.85-8.59c1.64-8.74,0-43-13.23-36.63"/><path class="cls-64" d="M314.55,448.55l2-1.15.11-.07c.77-.45,2,.27,2.81,1.62s.79,2.79,0,3.24l-2.14,1.22-1.51-2.61h0Z"/><path d="M317.43,453.36c-.77.44-2-.28-2.81-1.62s-.79-2.8,0-3.24,2,.27,2.8,1.61.8,2.8,0,3.25"/><path class="cls-64" d="M335.3,436.49l2-1.14.11-.08c.77-.45,2,.28,2.81,1.63s.8,2.79,0,3.24l-2.15,1.21-1.51-2.61h0Z"/><path d="M338.18,441.3c-.77.45-2-.27-2.81-1.61s-.79-2.8,0-3.25,2,.28,2.81,1.62.79,2.8,0,3.24"/><path class="cls-64" d="M314.66,436.83l2-1.14a.48.48,0,0,1,.11-.09c.77-.44,2,.29,2.81,1.63s.79,2.79,0,3.24l-2.15,1.21-1.5-2.6h0Z"/><path d="M317.54,441.63c-.76.46-2-.27-2.8-1.61s-.8-2.8,0-3.24,2,.27,2.81,1.61.8,2.8,0,3.24"/><path class="cls-64" d="M335.29,448.35l2-1.14.11-.08c.77-.44,2,.28,2.81,1.62s.79,2.8,0,3.24c0,0-2.15,1.22-2.15,1.22l-1.5-2.61h0Z"/><path d="M338.17,453.16c-.77.45-2-.28-2.81-1.62s-.79-2.79,0-3.24,2,.28,2.8,1.62.8,2.79,0,3.24"/><polygon points="315.07 448 315.07 446.13 340.08 433.93 340.08 435.8 317.01 449.12 315.07 448"/><polygon points="340.23 448 340.23 446.13 315.22 433.93 315.22 435.8 338.29 449.12 340.23 448"/><polygon class="cls-64" points="315.07 446.13 338.14 432.81 340.08 433.93 317.01 447.25 315.07 446.13"/><polygon class="cls-64" points="340.23 446.13 317.16 432.81 315.22 433.93 338.29 447.25 340.23 446.13"/><path d="M326.11,441.22h0V422.49h3.49v18.73c0,.55-.78,1-1.74,1s-1.74-.44-1.75-1h0"/><path d="M345,417.17s5.86,3.57,1.16,7.2-16.92,12.56-24.48,10.32-17.94-9.52-18.92-10.64-.87-2.88,3.06-5.78c2.83-2.07,16.57-9.64,17.36-9.92s3.34-1.78,8.53.94c4.89,2.57,14.93,9.11,14.93,9.11Z"/><path class="cls-60" d="M326.34,380.2c3.62,6.38,8.13,11,10.66,15.2.5.83,4.72-3.91,3.49-5.92-2.87-4.69-6-10-8.26-13.94-3.61-6.37-4.43-7.13-6.68-5.85s-2.82,4.14.79,10.51"/><path class="cls-67" d="M324.48,380c.5,1.9,2.62,1.41,4.2,1.41a6.91,6.91,0,0,0,5.25-2.41q-.19-.88-.42-1.74c-1.8-7.1-4.44-8-6.95-7.37S322.78,373,324.48,380"/><path class="cls-56" d="M315.82,372.36c-.58.12-6.74,3.22-9.48,6.32-2,2.28-2.26,7.66-2.23,8.37.08,2.3,3.24,16.27,3.73,19.39s.12,6.55.12,8.65-.61,7.78-.43,8.72c.59,3.13,8.76,2.51,10.33,2.42,5.05-.31,11.4-4.13,10.88-6.6-1.51-7.1-.95-27.72-.3-30.25s5.58-15.47,1.68-18.92a7,7,0,0,0-4.2-1.39c-4.31.21-9.38,3.14-10.1,3.29"/><path class="cls-60" d="M315.22,364.88a38.07,38.07,0,0,1,.06,5.5,20.13,20.13,0,0,0-.45,2.85c0,1.85,2,2.64,3,3.17s4.76-.8,4.53-2.11c-.17-1.06,0-2.59-.32-3.64s-1.49-1.77-1.49-3Z"/><path class="cls-61" d="M322.61,356.58a13.57,13.57,0,0,0,1.24,3.1,2.16,2.16,0,0,1,.24,1.65,4.41,4.41,0,0,0,.45,3,7.49,7.49,0,0,1,.22,3.8c-.11,1-.06,2.13-.82,2.85-1.89,1.8-4.54.67-6.83.3s-2.46-3.53-3.44-5.19c-1.75-3-1.64-7.61,1.64-9.62a9.42,9.42,0,0,1,5.73-1.32c.6.12,1.92,1.16,1.51,1.86Z"/></g><g class="cls-68"><rect class="cls-69" x="274.82" y="349" width="21.86" height="22.07" transform="translate(-137.01 179.62) rotate(-28.45)"/></g><g class="cls-11"><path class="cls-61" d="M311.92,366.07c.67,1.1,1.6,1.75,2.09,1.46a2.07,2.07,0,0,0,.18-2.61c-.67-1.1-2.12-1.67-2.6-1.38s-.34,1.43.33,2.53"/><path class="cls-55" d="M388.33,487.07c.32.76.87,4.49.54,5.14a2.63,2.63,0,0,1-2.83,1.5c-1.56-.17-2.73-1.9-3.85-2.11a42.87,42.87,0,0,1-6.73-2.94c-1.19-.62-2.71-2.72-2.32-4a3.43,3.43,0,0,1,2.75-1.72,32.13,32.13,0,0,0,4.58.67,11.21,11.21,0,0,0,2.44.34c.56,0,3.07-.17,3,.77Z"/><path class="cls-70" d="M389.48,464.07c-.4-2.37-.15-4.26-.24-6.9-.07-1.95-10.32.35-10.42,5.07,0,0,2.25,18.32,1,24.15l-.16,1a1.46,1.46,0,0,0,.41,1.49,6.33,6.33,0,0,0,2.34,1.12c1.81.4,4.22.17,5.46-1.21,3-3.38,3-16.74,1.6-24.69"/><path class="cls-55" d="M371.32,493.87c.13.81,1,3.82-.3,6.32a2.3,2.3,0,0,1-3.1.79c-.54-.25-2.2-2.49-3.24-3a42,42,0,0,1-5.24-3.55,7.27,7.27,0,0,1-2-2.12,4.22,4.22,0,0,1-.18-3.79c.49-.81,1.26-1.14,1.83-.83,2,1.08,3.68,1.24,5.11,1.86a20,20,0,0,0,3,1.21,43.8,43.8,0,0,1,4.14,3.07"/><path class="cls-56" d="M378.91,471.27c.18-2.39.9-4.17,1.46-6.75.41-1.9-9.69-3.95-10.95.59,0,0-2.25,19.12-4.89,24.46l-.39.9s-1,1.74-.46,2.51a8.26,8.26,0,0,0,2.35,2.36c1.66.83,5.42,1.82,6.2.14,2.58-5.56,6-16.18,6.68-24.21"/><path class="cls-10" d="M374.79,497.38s-5.87,3.56-1.16,7.19,16.92,12.56,24.48,10.32,19.58-10.73,20.56-11.86.87-2.88-3.06-5.78c-2.82-2.07-16.57-9.64-17.36-9.92s-3.34-1.78-8.52.94c-4.9,2.57-14.94,9.11-14.94,9.11"/><path class="cls-64" d="M409.2,505.39l-2-1.14-.12-.08c-.77-.44-2,.28-2.8,1.62s-.8,2.79,0,3.24l2.15,1.22,1.5-2.61h0Z"/><path d="M406.33,510.2c.76.45,2-.28,2.8-1.62s.79-2.8,0-3.24-2,.28-2.81,1.62-.79,2.79,0,3.24"/><path class="cls-64" d="M388.45,493.34l-2-1.14-.11-.08c-.77-.45-2,.28-2.81,1.62s-.79,2.79,0,3.24l2.15,1.22,1.5-2.61h0Z"/><path d="M385.57,498.15c.77.44,2-.28,2.81-1.62s.79-2.8,0-3.24-2,.27-2.8,1.62-.8,2.79,0,3.24"/><path class="cls-64" d="M409.09,493.67l-2-1.14-.11-.08c-.77-.45-2,.28-2.81,1.62s-.79,2.79,0,3.24l2.16,1.22,1.5-2.61h0Z"/><path d="M406.21,498.48c.77.45,2-.28,2.81-1.62s.79-2.8,0-3.24-2,.28-2.81,1.62-.79,2.79,0,3.24"/><path class="cls-64" d="M388.46,505.19l-2-1.14-.12-.08c-.77-.44-2,.28-2.81,1.62s-.79,2.8,0,3.25l2.15,1.22,1.5-2.62h0Z"/><path d="M385.58,510c.77.45,2-.27,2.81-1.62s.79-2.79,0-3.24-2,.28-2.81,1.62-.79,2.8,0,3.24"/><polygon points="408.68 504.84 408.68 502.98 383.68 490.78 383.68 492.64 406.74 505.95 408.68 504.84"/><polygon points="383.52 504.84 383.52 502.98 408.53 490.78 408.53 492.64 385.46 505.95 383.52 504.84"/><polygon class="cls-64" points="408.68 502.98 385.62 489.66 383.68 490.78 406.74 504.1 408.68 502.98"/><polygon class="cls-64" points="383.52 502.98 406.59 489.66 408.53 490.78 385.46 504.1 383.52 502.98"/><path d="M397.65,498.06h0V479.33h-3.48v18.73c0,.55.77,1,1.73,1s1.74-.43,1.75-1Z"/><path d="M377.16,475.24s-5.87,3.57-1.16,7.2,16.93,12.55,24.48,10.31S420.07,482,421,480.89s.88-2.88-3.06-5.77c-2.82-2.08-16.56-9.65-17.36-9.93s-3.33-1.78-8.52.94c-4.89,2.57-14.94,9.11-14.94,9.11"/><path class="cls-71" d="M398.93,480.4c-2.42-2.85-5.53-4.92-8.16-7.57-3.13-3.16-7.72-5.7-9.67-9.84-.59-1.25-1-4.07.75-5.87,1-1,3.22-3.17,3.86-2.39s2.62,1.31,3.31,1.92c1.29,1.13,9.32,7.47,12,9.43,2.17,1.6,3.44,2.68,5.76,4.56,0,0,3.05,1.37-1.68,5.87s-5.79,4.3-6.14,3.89"/><path class="cls-56" d="M390.69,485.81a77.92,77.92,0,0,1-10-6.73c-3.4-2.85-8.2-5-10.52-8.92-.7-1.19-1.31-4,.22-5.91.89-1.13,2.63-2.65,3.63-2.74,1.6-.14,2.72,1.07,3.47,1.61,1.38,1,10,6.6,12.78,8.31,2.3,1.4,8.2,5.09,11.08,7.85,0,0,2.15,2.92-1.67,4.79-4.89,2.39-8.53,2-9,1.74"/><path class="cls-56" d="M408.28,471.28c1.68-.69,3.37,2.34,3.26,3.56-.31,3.33-6.37,7.34-9,8.73-2.88,1.5-7.27,3-9.73,2.88-1.23-.06-3.91-1.37-4.53-2.48-1.11-2,.28-7.78,1.52-9.88a7.1,7.1,0,0,1,1.74-1.9Z"/><polygon class="cls-49" points="349.6 482.04 431.94 434.19 431.94 431.31 356.11 387.53 273.77 435.38 273.77 438.27 349.6 482.04"/><polygon class="cls-14" points="329.56 442.39 318.57 448.73 333.27 457.22 344.26 450.88 329.56 442.39"/><polygon class="cls-49" points="349.6 482.04 431.94 434.19 431.94 431.31 356.11 387.53 273.77 435.38 273.77 438.27 349.6 482.04"/><polygon class="cls-50" points="349.6 479.15 431.92 431.3 356.11 387.53 273.78 435.38 349.6 479.15"/><path class="cls-61" d="M368.94,439.41a9.85,9.85,0,0,0,.14,1.32,12.38,12.38,0,0,1-.57,2.31,4.47,4.47,0,0,0,.16,2.53c.42.92,1.47,3.17,2.45,3.53,2.21.8,2.82-2.87,3.19-4.3.78-3-.85-8.07-4.92-7Z"/><polygon class="cls-56" points="376.21 420.1 387 441.79 373.63 449.51 362.83 427.81 376.21 420.1"/><polygon class="cls-14" points="364.02 427.71 375.55 421.05 385.26 440.57 373.73 447.22 364.02 427.71"/><polygon class="cls-72" points="367.27 425.57 372.39 422.62 373.15 424.22 368.03 427.17 367.27 425.57"/><path class="cls-61" d="M372.92,441a3.13,3.13,0,0,0-.18-.57c-.83,0-.89,1-1.16,1.5s-.79.87-.93,1.51.34,1.15.34,1.84-.36,1.25-.42,1.94c-.15,1.51,1.67,3,2.37,1.16a5.37,5.37,0,0,0-.13-4.27c-.38-.83-.13-1,.13-1.83.16-.52.33-1.59-.2-1.85a4.8,4.8,0,0,0-.33,1Z"/><path class="cls-73" d="M411.8,438.18c1.34,6.6,3,15.26.56,15.75-.91.19-4.58.47-4.94-1.66-.83-5-3.29-9.1-4.13-13.24-1.33-6.59.12-8.1,2.55-8.59s4.63,1.14,6,7.74"/><path class="cls-73" d="M408.26,453.93c-6.06-1.7-16.6-6.54-16-8.65.24-.79.82-3.29,2.82-3,3.13.35,10.08,4.13,16.41,5.71,1.39.35,2.19,1.61,1.56,3.72s-.54,3.47-4.83,2.27"/><path class="cls-74" d="M395.25,434a15,15,0,0,0-5.95,4.59c-1.67,2.18-1.58,7-1.52,7.69.21,2.07,1.27,22.44.78,24.28-.77,2.87-1.32,7.81,2.49,9.29a14.78,14.78,0,0,0,7.68.52c4.55-.57,11.1-4.17,10.71-6.42-.72-4.19-.92-22.39-.48-24.7s2.69-13.13-.35-17.36a3.8,3.8,0,0,0-3.25-1.39c-3.87.44-9.47,3.32-10.11,3.5"/><path class="cls-25" d="M394,449c-2.12,7.57-4.5,17.71-7,17.07-.95-.25-5-2-4.26-4.39,1.77-5.63,1.56-11.13,2.88-15.85,2.11-7.57,4.24-8.45,6.76-7.8s3.75,3.41,1.64,11"/><path class="cls-25" d="M381.36,465.71c-5-4.16-12.76-13.59-11.11-15.83.61-.84,2.4-3.55,4.2-2.57,2.84,1.54,7.67,8.45,13,12.56,1.16.9,3,.94,2.05,3.67s-4.6,5.11-8.13,2.17"/><path class="cls-61" d="M392.18,414.45c0,1.17-.83,2.64-1.07,3.76a2.16,2.16,0,0,0,.05,1.73,4.56,4.56,0,0,1,.07,3.13,7.69,7.69,0,0,0,.45,3.92c.29,1,.44,2.18,1.34,2.79,2.26,1.5,4.8.61,7.08-.18s1.87-4.79,2.58-6.66c1.26-3.38.33-8.1-3.4-9.58a9.84,9.84,0,0,0-6.11-.32c-.59.23.83.77,1.38,1.41Z"/><path class="cls-61" d="M395.56,427.91s1.48,4.47.57,5.73c-.35.48,1.45,1.55,3.13,1.58,2.68,0,5.77-1.4,4.86-3.61-.48-1.2-1.77-2.37-.95-7.21.25-1.52-7.61,3.51-7.61,3.51"/><path d="M403.77,411.21c-3.5-2.36-8.21-2-10.47.59a6,6,0,0,0-1.34,3.42c-.4.68,1.52.59,2,3.36,2.37,14.28,9.05,9.14,9.26,8.63,1.72-4.06,2.87-3.13,3.66-5.57,1.19-3.69,1.82-7.1-3.09-10.43"/><path class="cls-61" d="M396.18,424c-.48,1.26-.76,2.42-1.31,2.21a2.15,2.15,0,0,1-.65-2.64c.49-1.25.75-2.45,1.34-2.46,1.11,0,1.11,1.65.62,2.89"/><path class="cls-25" d="M406.23,431.21a3.09,3.09,0,0,1-1.11,3.82,7.58,7.58,0,0,1-4,2.1c-1.89.24-6.23-1.35-6.84-1.41a14.16,14.16,0,0,0-1.92-.15c1-.93,2-.92,3-2.31.15-.22.75-1,1-1.1.44-.11,0,.54.38.86a3.86,3.86,0,0,0,1.57.82c1.34.5,3.94.34,4.91-.72a3,3,0,0,0,.67-3.35c1.4.92,1.91.72,2.34,1.44"/><polygon class="cls-64" points="409.97 472.49 409.97 478.92 409.97 479.81 409.97 486.23 413.11 484.43 413.11 478 413.11 477.11 413.11 470.68 409.97 472.49"/><polygon points="408.16 471.43 408.16 478.13 408.16 479.57 408.16 485.18 409.97 486.22 409.97 479.8 409.97 478.91 409.97 472.47 408.16 471.43"/><path d="M407.09,431.77a12.24,12.24,0,0,0-8.46,9.23c-.67,3.14-8.12,30.87-.16,36s21.07-4.4,21.86-8.59c1.64-8.74,0-43-13.24-36.63"/><path class="cls-61" d="M305.48,390.07c1.8,7.1,6.25,19.68,8.75,19,.94-.24,4.31-5,3.65-7.29-1.53-5.29-2.3-10.29-3.43-14.73-1.8-7.11-4.44-8-6.95-7.37s-3.82,3.24-2,10.35"/><path class="cls-61" d="M315.07,409.13c6.91,1,16.53-3.89,21-4.81.89-.18,2-5.39-.13-4.69a59.75,59.75,0,0,1-20.56,2c-1.58-.18-2.67,1.23-2.82,3.65s.39,3.49,2.53,3.81"/><path class="cls-60" d="M339.68,395.68c6.62-2.23,8.78-11.45,15.39-14.62,1.62-.78-1.36-6.21-2.8-4.51C350,379.19,342.43,385,336,388.42c-1.4.74-1.27,2.79-.31,5s1.93,2.94,4,2.25"/><polygon class="cls-55" points="336.99 461.69 336.99 462.62 333.41 464.68 327.37 461.19 327.37 460.27 336.99 461.69"/><polygon class="cls-64" points="330.95 458.2 336.99 461.69 333.41 463.76 327.37 460.27 330.95 458.2"/><polygon class="cls-55" points="414.03 430.6 414.03 431.48 417.44 433.45 423.21 430.12 423.21 429.25 414.03 430.6"/><polygon class="cls-64" points="419.79 427.27 414.03 430.6 417.44 432.58 423.21 429.25 419.79 427.27"/><path class="cls-60" d="M340.59,397.86h0"/><path class="cls-58" d="M310.73,440.24c2.23,2.8,2.7,22.28-1.26,11.78-1.71-4.54,2.42,10.79,2.85,16.51.3,3.93.79,10.67.79,10.67-3.47,1.11-8.65-.67-10.13-.84-4.78-.55-9.32-5.24-9.62-7.45-.76-5.5-1-5.87,2.14-8.39,3.67-2.94-5.23-20.12-.65-27.35a3.86,3.86,0,0,1,3.41-1.35c4.06.43,10.14,3.49,12.47,6.42"/><path class="cls-59" d="M307.27,449.4c1.87,5.3,4.46,14.13,6.33,13.47.7-.25,2.93-2,2.27-3.71-1.54-3.93-1.26-6.79-1.76-10.26-1-6.93-3.12-9.29-5-8.64s-3.75,3.33-1.86,9.14"/><path class="cls-61" d="M308.06,419.84c0,1,.74,2.35,1,3.36.16.71-.34,3.4-.1,4.36a7,7,0,0,1-.41,3.52,4.71,4.71,0,0,1-1.21,2.49c-.92.78-4.39-.42-6.43-1.13s-1.59-3.33-2.21-5c-1.14-3-.3-7.26,3-8.58a8.77,8.77,0,0,1,5.47-.3c.54.2-.74.7-1.23,1.28Z"/><path class="cls-61" d="M305.06,431.75a5.84,5.84,0,0,0,0,3.94,2,2,0,0,1-1.65,2.13c-2.24.51-5.09-.16-4.72-2.18.2-1.09,1.07-2.3-.47-6.22-.49-1.23,6.83,2.33,6.83,2.33"/><path d="M297.87,416.41c4.32-1.48,7.16-1.32,9.19,1a5.46,5.46,0,0,1,1.2,3.07c.36.61-1.36.53-1.78,3-2.12,12.81-8.11,8.2-8.3,7.74-1.54-3.64-2.56-2.81-3.27-5-1.07-3.3-1.26-8,3-9.86"/><path d="M306.73,417s4.35,2.19,2.49,6.81-1.91,3.67-2,5-2.33-3-2.33-3.27Z"/><path class="cls-61" d="M306.14,427.44a2.57,2.57,0,0,0-.42-1.49c-.44-.48-.93-.24-1.12.34a4.89,4.89,0,0,0-.07,1.38c0,.37.37,3.07,1.61,1.54Z"/><path class="cls-56" d="M294.45,462.52s-1,3.81,6.12,5.28c12.44,2.56,11-4.25,11-4.25.35,1.26,1,4.66,1.51,6.39,2.11,7.89,1.21,10.15,1.21,10.15-3.46,2.9-9.17,2.82-10.55,2.67-6.74-.72-11.66-5-12.15-7.2-.83-3.74,1.14-7.31,2.85-13"/><polygon class="cls-64" points="291.33 470.35 291.33 476.78 291.33 477.67 291.33 484.1 288.2 482.29 288.2 475.86 288.2 474.97 288.2 468.54 291.33 470.35"/><polygon points="293.15 469.29 293.15 476 293.15 477.43 293.15 483.04 291.33 484.09 291.33 477.65 291.33 476.77 291.33 470.34 293.15 469.29"/><path d="M294.22,429.64a12.21,12.21,0,0,1,8.45,9.22c.68,3.14,8.13,30.87.16,36s-21.06-4.4-21.85-8.59c-1.64-8.74,0-43,13.24-36.62"/><path class="cls-57" d="M402.23,375.19a16.09,16.09,0,0,0-1.2-1.35c-1.55-1.75-3.15-1.7-4.24-.62-5,4.93-12.29,9.21-14.38,11.87-1.32,1.7.61,3.6,1.2,4.25,1.56,1.73,11.85-5.24,16.78-9.85a9.72,9.72,0,0,0,1.9-2.2c0-.82,0-1.54-.06-2.1"/><path d="M294.26,422.43s-.06,5.92-1.86,8.56c0,0,1.88,5.6,11.71,4.61,4.44-.46,4.94-2,4.94-2v-.23s-2.91-6.25-2.22-7.89Z"/><polygon class="cls-14" points="350.12 467.89 369.07 456.88 355.59 449 336.64 460.02 350.12 467.89"/><polygon class="cls-75" points="323.96 428.14 344.27 439.86 345.22 439.59 350.03 423.31 329.58 411.55 328.72 411.7 323.96 428.14"/><polygon class="cls-76" points="323.96 428.14 344.27 439.86 349.03 423.43 328.72 411.7 323.96 428.14"/><polygon class="cls-77" points="348.14 423.78 329.17 412.83 324.84 427.78 343.81 438.74 348.14 423.78"/><polygon class="cls-78" points="343.81 438.74 324.84 427.78 325.19 426.57 344.17 437.51 343.81 438.74"/><polygon class="cls-79" points="341.52 421.51 330.38 415.07 327.84 423.86 338.98 430.29 341.52 421.51"/><polygon class="cls-80" points="346.2 423.9 347.17 424.46 346.81 425.71 345.84 425.15 346.2 423.9"/><polygon class="cls-81" points="345.64 425.66 346.6 426.21 346.24 427.47 345.28 426.92 345.64 425.66"/><polygon class="cls-82" points="345.33 429.94 343.25 437.13 341.3 436.01 343.39 428.81 345.33 429.94"/><polygon class="cls-75" points="329.45 449.51 309.14 437.79 309.14 436.62 323.92 428.1 344.22 439.82 344.22 440.99 329.45 449.51"/><polygon class="cls-76" points="329.45 448.35 309.14 436.62 323.92 428.1 344.22 439.82 329.45 448.35"/><polygon class="cls-75" points="342.47 439.89 335.36 444 316.53 433.13 323.64 429.02 342.47 439.89"/><polygon class="cls-75" points="324.46 443.61 319.05 440.49 323.4 437.97 328.82 441.1 324.46 443.61"/><path class="cls-61" d="M330.94,452.12c1-.87,2.42-.83,2.75-2.24-.61-.37-.67.09-1.2.31a3.47,3.47,0,0,0-1.85,1.13Z"/><path class="cls-61" d="M325,452.92c.57,0,1.5-1.73,1.92-2.21s.87-1.25,1.48-1.34a3.15,3.15,0,0,1,2.82,2c.29,1.37-1.95,2-2.79,2.68a12.46,12.46,0,0,1-1.86.87c-.67.29-.74-.18-1.14-.62s-.76-.7-.57-1.21Z"/><path class="cls-61" d="M328.63,449.52a2,2,0,0,0,.58-.65,6.84,6.84,0,0,1,.47-.72,1.55,1.55,0,0,1,1-.64,7.85,7.85,0,0,1,1.12-.32c.31,0,.65.09.94.06s.5,0,.75-.09a1.36,1.36,0,0,1,.45,0,.57.57,0,0,1,0,.48c.12.13.09,0,.26,0s.33,0,.34.15a.55.55,0,0,1-.39.58.89.89,0,0,1,.23,0,.65.65,0,0,1-.34.81c-.2.1-.94.29-1.15.39a4,4,0,0,0-1,.91,3.33,3.33,0,0,1-1,.53c-.18.08-.76.24-.83.42Z"/><path class="cls-61" d="M326.15,452.14c.43-.65.36-1.54.91-2.29a18,18,0,0,0,1.76-2.69c.35,0,.53.38.49.74a14.9,14.9,0,0,1-.72,2Z"/><path class="cls-59" d="M313.6,462.87c5.66-1.15,12.13-6.74,13.82-8,.65-.47-1.7-3.51-2.38-2.38-1.1,1.86-7.58,3.49-10.29,5.6-.75.59-2.88.36-2,2.31Z"/><path class="cls-14" d="M358.28,411.58s-7.18,3.28-9.86,5.94l-13.15-7.17s8.57-7.29,9.88-6.45Z"/><path class="cls-14" d="M367,405.61s-6,3.32-8.67,6l-13.45-7.77s7.67-6.73,9-5.89Z"/><polygon class="cls-83" points="363.4 450.06 351.54 443.26 351.54 445.84 363.4 452.64 363.4 450.06"/><polygon class="cls-83" points="363.4 452.64 351.54 445.84 343.65 450.36 355.52 457.16 363.4 452.64"/><polygon class="cls-84" points="355.39 454.43 343.53 447.63 343.53 450.66 355.39 457.47 355.39 454.43"/><polygon class="cls-67" points="363.53 449.76 351.67 442.96 343.53 447.63 355.39 454.43 363.53 449.76"/><polygon class="cls-85" points="363.53 452.57 363.31 452.44 363.31 452.69 363.53 452.57"/><polygon class="cls-67" points="363.4 450.07 363.4 450.06 355.52 454.59 355.52 457.16 363.4 452.64 363.4 452.64 363.53 452.57 363.53 452.8 355.39 457.47 355.39 454.43 363.53 449.76 363.53 449.99 363.4 450.07"/><polygon class="cls-83" points="363.18 450.2 363.4 450.07 363.4 452.64 363.14 452.8 363.4 452.64 363.4 452.64 355.52 457.16 355.52 454.59 363.4 450.06 363.4 450.07 363.18 450.2"/><path class="cls-83" d="M353.14,453.84v1.79a.21.21,0,0,0,.1.16c.05,0,.09,0,.09-.05v-1.8a.17.17,0,0,0-.09-.15c-.05,0-.1,0-.1,0"/><path class="cls-83" d="M353.63,454.12v1.79a.17.17,0,0,0,.09.15s.09,0,.09-.05v-1.79a.24.24,0,0,0-.09-.16c-.05,0-.09,0-.09.06"/><path class="cls-83" d="M354.11,454.39v1.8a.19.19,0,0,0,.09.15c.05,0,.09,0,.09,0V454.5a.2.2,0,0,0-.09-.16.06.06,0,0,0-.09.05"/><path class="cls-83" d="M354.59,454.67v1.8a.19.19,0,0,0,.09.15c.05,0,.09,0,.09-.05v-1.8a.2.2,0,0,0-.09-.15c-.05,0-.09,0-.09.05"/><polygon class="cls-83" points="362.84 411.97 375.43 404.75 375.43 407.49 362.84 414.71 362.84 411.97"/><polygon class="cls-83" points="362.84 414.71 375.43 407.49 383.8 412.29 371.21 419.5 362.84 414.71"/><polygon class="cls-84" points="371.35 416.61 383.93 409.39 383.93 412.6 371.35 419.82 371.35 416.61"/><polygon class="cls-67" points="362.71 411.65 375.3 404.44 383.93 409.39 371.35 416.61 362.71 411.65"/><polygon class="cls-85" points="362.71 414.63 362.94 414.49 362.94 414.76 362.71 414.63"/><polygon class="cls-67" points="362.84 411.97 362.84 411.97 371.21 416.77 371.21 419.5 362.84 414.71 362.84 414.7 362.71 414.63 362.71 414.87 371.35 419.82 371.35 416.61 362.71 411.65 362.71 411.89 362.84 411.97"/><polygon class="cls-83" points="363.08 412.11 362.84 411.97 362.84 414.7 363.13 414.87 362.84 414.7 362.84 414.71 371.21 419.5 371.21 416.77 362.84 411.96 362.84 411.97 363.08 412.11"/><path class="cls-83" d="M373.73,416v1.91a.21.21,0,0,1-.1.16c-.06,0-.1,0-.1-.05v-1.91a.19.19,0,0,1,.1-.16c.05,0,.1,0,.1.05"/><path class="cls-83" d="M373.22,416.27v1.9a.23.23,0,0,1-.1.17.06.06,0,0,1-.1-.06v-1.9a.23.23,0,0,1,.1-.17.06.06,0,0,1,.1.06"/><path class="cls-83" d="M372.7,416.56v1.91a.2.2,0,0,1-.09.16c-.05,0-.1,0-.1-.06v-1.9a.21.21,0,0,1,.1-.16c.05,0,.09,0,.09.05"/><path class="cls-83" d="M372.19,416.86v1.9a.22.22,0,0,1-.09.17c-.06,0-.1,0-.1-.06V417a.21.21,0,0,1,.1-.17s.09,0,.09.06"/><g class="cls-86"><g class="cls-87"><g class="cls-86"><g class="cls-88"><polygon class="cls-83" points="362.59 446.02 350.73 439.22 350.73 441.8 362.59 448.6 362.59 446.02"/></g><g class="cls-89"><polygon class="cls-83" points="362.59 448.6 350.73 441.8 342.84 446.32 354.7 453.13 362.59 448.6"/></g><g class="cls-90"><polygon class="cls-59" points="354.58 450.39 342.72 443.59 342.72 446.62 354.58 453.43 354.58 450.39"/></g><g class="cls-91"><polygon class="cls-92" points="362.72 445.73 350.86 438.92 342.72 443.59 354.58 450.39 362.72 445.73"/></g><g class="cls-93"><polygon class="cls-94" points="362.72 448.53 362.5 448.4 362.5 448.65 362.72 448.53"/></g><g class="cls-95"><polygon class="cls-92" points="362.59 446.02 362.59 446.02 354.7 450.55 354.7 453.13 362.59 448.6 362.59 448.6 362.72 448.53 362.72 448.76 354.58 453.43 354.58 450.39 362.72 445.73 362.72 445.95 362.59 446.02"/></g><g class="cls-96"><polygon class="cls-83" points="362.37 446.16 362.59 446.02 362.59 448.6 362.32 448.75 362.59 448.6 362.59 448.6 354.7 453.13 354.7 450.55 362.59 446.02 362.37 446.16"/></g><g class="cls-97"><path class="cls-83" d="M352.33,449.79v1.8a.18.18,0,0,0,.1.15s.08,0,.08-.05V449.9a.19.19,0,0,0-.08-.15c-.05,0-.1,0-.1,0"/></g><g class="cls-98"><path class="cls-83" d="M352.82,450.08v1.79a.19.19,0,0,0,.08.15c.06,0,.1,0,.1,0v-1.79a.19.19,0,0,0-.1-.16s-.08,0-.08.06"/></g><g class="cls-99"><path class="cls-83" d="M353.3,450.35v1.79a.2.2,0,0,0,.09.16c.05,0,.09,0,.09-.05v-1.79a.2.2,0,0,0-.09-.16.06.06,0,0,0-.09.05"/></g><g class="cls-100"><path class="cls-83" d="M353.78,450.63v1.8a.2.2,0,0,0,.09.15.06.06,0,0,0,.09-.05v-1.79a.21.21,0,0,0-.09-.17c-.05,0-.09,0-.09.06"/></g></g></g></g><g class="cls-101"><g class="cls-87"><g class="cls-101"><g class="cls-102"><polygon class="cls-83" points="386.87 409.46 375.01 402.66 375.01 405.24 386.87 412.04 386.87 409.46"/></g><g class="cls-103"><polygon class="cls-83" points="386.87 412.04 375.01 405.24 367.12 409.76 378.98 416.56 386.87 412.04"/></g><g class="cls-104"><polygon class="cls-59" points="378.86 413.83 367 407.03 367 410.06 378.86 416.87 378.86 413.83"/></g><g class="cls-105"><polygon class="cls-92" points="386.99 409.17 375.13 402.36 367 407.03 378.86 413.83 386.99 409.17"/></g><g class="cls-106"><polygon class="cls-94" points="386.99 411.97 386.77 411.84 386.77 412.09 386.99 411.97"/></g><g class="cls-107"><polygon class="cls-92" points="386.87 409.46 386.87 409.46 378.98 413.99 378.98 416.56 386.87 412.04 386.87 412.04 386.99 411.97 386.99 412.2 378.86 416.87 378.86 413.83 386.99 409.17 386.99 409.39 386.87 409.46"/></g><g class="cls-108"><polygon class="cls-83" points="386.64 409.59 386.87 409.46 386.87 412.04 386.6 412.19 386.87 412.04 386.87 412.04 378.98 416.56 378.98 413.99 386.87 409.46 386.64 409.59"/></g><g class="cls-109"><path class="cls-83" d="M376.61,413.23V415a.2.2,0,0,0,.09.16c.05,0,.09,0,.09-.06v-1.79a.2.2,0,0,0-.09-.16c-.05,0-.09,0-.09.05"/></g><g class="cls-110"><path class="cls-83" d="M377.1,413.51v1.8a.19.19,0,0,0,.08.15c.05,0,.1,0,.1,0v-1.79a.21.21,0,0,0-.1-.16s-.08,0-.08.05"/></g><g class="cls-111"><path class="cls-83" d="M377.58,413.79v1.79a.23.23,0,0,0,.08.16s.1,0,.1-.05V413.9a.21.21,0,0,0-.1-.16s-.08,0-.08.05"/></g><g class="cls-112"><path class="cls-83" d="M378.06,414.07v1.79a.2.2,0,0,0,.09.16.06.06,0,0,0,.09,0v-1.79a.19.19,0,0,0-.09-.16s-.09,0-.09.05"/></g></g></g></g><path class="cls-61" d="M384,385.91h0a2.91,2.91,0,0,0-2.15-.36,4.15,4.15,0,0,0-1.76-.16,25.19,25.19,0,0,1-4.36.69c-.25.41.17.87.65,1a7.33,7.33,0,0,0,2.15.16.13.13,0,0,0,0,.06,4.48,4.48,0,0,1-.87.2,11.41,11.41,0,0,0-1.17.19,2.23,2.23,0,0,0-1.35.83c-.31.47-.78.73-1,1.23s-.25.86-.46,1.22-.34.59-.54.88a1.92,1.92,0,0,0-.24.57c.14.12.44.29.63.22.09.22-.05.12-.12.33s-.21.42,0,.52a.76.76,0,0,0,1-.17c0,.11-.13.19-.15.29a.89.89,0,0,0,1.21,0c.24-.19.89-1,1.14-1.21a4.59,4.59,0,0,1,1.59-.72l-.66.65c-.58.55-1.18.36-1.06,1.33,1.82.36,2.61-1.2,4-2,1.44.16,3.11-1.68,4.21-2.26.42-.23.75-2.57-.63-3.54"/><path class="cls-61" d="M340.43,403.72c1.75-.38,3.45.65,4.8-.81-.47-.85-.86-.34-1.65-.45a4.86,4.86,0,0,0-3,.1Z"/><path class="cls-61" d="M336.53,399.28c.8-.32,1.88-.9,2.68-.59,1.29.48,2.43,3,2,4.32-.59,1.84-3.71,1.12-5.16,1.31-.67.09-3.71-3.34.48-5"/><path class="cls-61" d="M339.42,399a2.75,2.75,0,0,0,1.14-.38,8.61,8.61,0,0,1,1.05-.53,2.19,2.19,0,0,1,1.59-.13,11.72,11.72,0,0,1,1.55.39c.38.21.71.55,1.09.71a9.51,9.51,0,0,0,1,.39,1.82,1.82,0,0,1,.53.33c0,.18-.19.49-.37.55.05.23.1.06.29.19s.41.22.32.41a.79.79,0,0,1-.88.43,2.75,2.75,0,0,1,.3.14.91.91,0,0,1-1,.74c-.3,0-1.31-.29-1.63-.31a5.23,5.23,0,0,0-1.83.4,4.31,4.31,0,0,1-1.52,0c-.28,0-1.08-.23-1.29-.06Z"/><path class="cls-61" d="M334.47,401.1c1-.48,1.69-2.2,2.86-2.73a25.07,25.07,0,0,0,3.93-2c.44.18.37.81.08,1.21-.55.76-1.89,1.45-2.18,1.84Z"/><path class="cls-61" d="M391.45,383c.39.14.77.3,1.15.46s.78.35,1.18.49l.08,0c1.31.93,3.74,1.29,4.89,1.71l1.43-3.14a16.83,16.83,0,0,0-1.68-2.91,4.84,4.84,0,0,0-1-1.22,4.19,4.19,0,0,0-1.69-.71c-.55-.16-1-.66-1.55-.83s-1.31-.27-1.2.56c.07.49,1.12.88,1.46,1.09a5,5,0,0,1,.9.71l-.38.28a3.12,3.12,0,0,1-.81-.28l-.84-.28c-.34-.11-.78-.12-1-.4a10.24,10.24,0,0,0-1.72-1.76c-.28-.21-.91-.17-.85.35a1.48,1.48,0,0,0,.36.66c.15.22.27.47.41.7l.08.12c-.17-.15-.32-.31-.47-.46s-.65-.81-1.07-.87-.73.43-.49.91a2.41,2.41,0,0,0,.25.37l-.19-.06c-.14,0-.46,0-.51.23s.15.42.22.52c.16.26.35.51.51.78a2.39,2.39,0,0,0,.55.66c-.23-.07-.55-.16-.63.07s.12.32.17.41a1,1,0,0,0,.34.39,11.31,11.31,0,0,0,1.31,1.07,5.24,5.24,0,0,0,.85.35"/><path class="cls-59" d="M415,392.48c-4.89-1-14.77-5.13-17.53-7.33,0,0,.77.23,1.44-1.23a4.89,4.89,0,0,0,.54-2.75c3.38.17,11.7,3.53,18.59,4.75,1.5.26,2.46,1.54,1.94,3.82s-.3,3.71-5,2.74"/><polygon class="cls-83" points="382.38 407.95 370.53 401.14 370.53 403.73 382.38 410.52 382.38 407.95"/><polygon class="cls-83" points="382.38 410.52 370.53 403.73 362.64 408.25 374.5 415.05 382.38 410.52"/><polygon class="cls-84" points="374.37 412.32 362.51 405.51 362.51 408.55 374.37 415.35 374.37 412.32"/><polygon class="cls-67" points="382.51 407.65 370.65 400.85 362.51 405.51 374.37 412.32 382.51 407.65"/><polygon class="cls-85" points="382.51 410.45 382.29 410.33 382.29 410.58 382.51 410.45"/><polygon class="cls-67" points="382.38 407.95 382.38 407.95 374.5 412.47 374.5 415.05 382.38 410.52 382.38 410.52 382.51 410.45 382.51 410.68 374.38 415.35 374.38 412.32 382.51 407.65 382.51 407.88 382.38 407.95"/><polygon class="cls-83" points="382.16 408.08 382.38 407.95 382.38 410.52 382.12 410.68 382.38 410.52 382.38 410.52 374.5 415.05 374.5 412.47 382.38 407.95 382.38 407.95 382.16 408.08"/><path class="cls-83" d="M372.13,411.72v1.79a.2.2,0,0,0,.09.16s.09,0,.09-.05v-1.79a.2.2,0,0,0-.09-.16c-.05,0-.09,0-.09.05"/><path class="cls-83" d="M372.61,412v1.79a.2.2,0,0,0,.09.16c.05,0,.09,0,.09-.05v-1.8a.2.2,0,0,0-.09-.16c-.05,0-.09,0-.09.06"/><path class="cls-83" d="M373.09,412.28v1.79a.2.2,0,0,0,.09.16c.05,0,.1,0,.1-.06v-1.79a.21.21,0,0,0-.1-.16c-.05,0-.09,0-.09.06"/><path class="cls-83" d="M373.57,412.55v1.8a.21.21,0,0,0,.09.15s.1,0,.1-.05v-1.8a.22.22,0,0,0-.1-.15s-.09,0-.09.05"/><path class="cls-113" d="M305.42,389.82c.5,1.91,2.62,1.42,4.2,1.42a6.91,6.91,0,0,0,5.25-2.41q-.19-.88-.42-1.74c-1.8-7.11-4.44-8-6.95-7.37s-3.78,3.19-2.08,10.1"/><path class="cls-60" d="M351.49,379.5c0-.77.92-3.79,1.5-4.28a12.17,12.17,0,0,0,1.48-1.84c.22-.29.44-.59.64-.89s.16-.59.45-.6.51.46.5.76a1.85,1.85,0,0,1-.33,1.17c-.45.53-.83,1-.71,1.32s.6-.26.88-.46a4.88,4.88,0,0,0,1.68-1.67c.34-.58.81-1.37,1.12-2,.18-.37,1.22-1.16,1.42-.49.1.31-.14.58-.25.85s-.17.58-.31.86c-.3.61-.64,1.17-.95,1.79-.14.28-.73.85-.55.93,0,0,1.53-1.33,1.79-1.45a9.15,9.15,0,0,1,1.15-1.59s.17-.84.72-.95.48.17.43.54a3,3,0,0,1-.24.92,1.16,1.16,0,0,1,.76-.63c.72-.13.42.8.33,1-.19.44-.72,1.52-.86,2-.27.86-1.08,1.35-1.68,2a1.73,1.73,0,0,1-.51.36s.41-.13.71-.19c.56-.11,1.74-1.93,2.1-.63-.59.42-1.32,1.57-2,1.77-.28.08-.7.57-1.12.72s-1.06.57-1.54.75-.39.28-.85.52a9.24,9.24,0,0,1-3.21,1.1c-1.27.11-2.56-.7-2.57-1.58Z"/></g><rect class="cls-14" x="41.34" y="725" width="272.66" height="14" rx="7"/><rect class="cls-14" x="319.38" y="725" width="58.25" height="14" rx="7"/></svg>