<?xml version="1.0" encoding="utf-8"?>
<!-- Generator: Adobe Illustrator 27.5.0, SVG Export Plug-In . SVG Version: 6.00 Build 0)  -->
<svg version="1.1" id="education" xmlns="http://www.w3.org/2000/svg" xmlns:xlink="http://www.w3.org/1999/xlink" x="0px" y="0px"
	 viewBox="0 0 450 450" style="enable-background:new 0 0 450 450;" xml:space="preserve">
<g>
	<g>
		<rect style="fill:#FFFFFF;" width="450" height="450"/>
	</g>
</g>
<g>
	<polygon style="fill:#C6C6C6;" points="433.174,314.492 406.295,298.839 410.876,296.183 219.292,184.618 35,291.479 
		46.81,298.357 18.85,314.57 34.006,323.396 33.961,323.42 225.548,434.985 409.838,328.122 409.753,328.072 	"/>
</g>
<g>
	<polygon style="fill:#B1B2B2;" points="165.306,298.185 285.212,229.193 226.928,195.715 107.026,264.712 	"/>
</g>
<g>
	<g>
		<polygon style="fill:#B1B2B2;" points="367.257,327.09 291.212,282.972 332.612,259.068 408.657,303.188 		"/>
	</g>
</g>
<g>
	<g>
		<g>
			<g>
				<polygon style="fill:#FFE6B3;" points="433.643,314.575 226.481,194.973 226.481,5.718 433.643,125.393 				"/>
			</g>
		</g>
		<g>
			<g>
				<polygon style="fill:#FFE9B8;" points="19.319,314.575 226.481,194.973 226.481,5.718 19.319,125.393 				"/>
			</g>
		</g>
		<g>
			<g>
				<g>
					<g>
						<g>
							<g>
								<polygon style="fill:#FFFFFF;" points="304.02,177.692 304.02,84.962 357.745,115.981 357.745,208.711 								"/>
							</g>
						</g>
					</g>
					<g>
						<g>
							<polygon style="fill:#52BBE7;" points="313.217,172.409 313.217,90.345 357.678,116.014 357.678,198.078 							"/>
						</g>
					</g>
					<g>
						<g>
							<polygon style="fill:#5BC9EF;" points="357.745,140.814 319.813,176.144 318.118,175.167 357.745,138.26 							"/>
						</g>
					</g>
					<g>
						<g>
							<polygon style="fill:#5BC9EF;" points="357.745,115.981 357.745,127.966 313.285,169.374 313.285,155.037 356.185,115.079 
															"/>
						</g>
					</g>
					<g>
						<g>
							<polygon style="fill:#FFFFFF;" points="308.807,87.727 313.285,90.312 313.285,122.571 357.745,148.238 357.745,153.423 
								308.807,125.169 							"/>
						</g>
					</g>
					<g>
						<g>
							<polygon style="fill:#FFFFFF;" points="313.285,90.312 313.285,172.374 357.745,198.044 357.745,203.227 308.807,174.973 
								308.807,87.727 							"/>
						</g>
					</g>
					<g>
						<g>
							<g>
								<polygon style="fill:#A99FB8;" points="307.97,115.245 357.745,143.981 357.745,146.717 305.603,116.613 								"/>
							</g>
						</g>
						<g>
							<g>
								<polygon style="fill:#A99FB8;" points="307.97,111.703 357.745,140.439 357.745,143.174 305.603,113.071 								"/>
							</g>
						</g>
						<g>
							<g>
								<polygon style="fill:#A99FB8;" points="307.97,108.165 357.745,136.901 357.745,139.636 305.603,109.533 								"/>
							</g>
						</g>
						<g>
							<g>
								<polygon style="fill:#A99FB8;" points="307.97,104.613 357.745,133.351 357.745,136.085 305.603,105.98 								"/>
							</g>
						</g>
						<g>
							<g>
								<polygon style="fill:#A99FB8;" points="307.97,101.075 357.745,129.81 357.745,132.546 305.603,102.441 								"/>
							</g>
						</g>
						<g>
							<g>
								<polygon style="fill:#A99FB8;" points="308.048,97.608 357.745,126.302 357.745,129.037 305.677,98.975 								"/>
							</g>
						</g>
						<g>
							<g>
								<polygon style="fill:#A99FB8;" points="308.048,94.07 357.745,122.762 357.745,125.497 305.677,95.438 								"/>
							</g>
						</g>
						<g>
							<g>
								<polygon style="fill:#A99FB8;" points="308.048,90.519 357.745,119.211 357.745,121.946 305.677,91.886 								"/>
							</g>
						</g>
						<g>
							<g>
								<polygon style="fill:#A99FB8;" points="307.783,87.134 357.745,115.981 357.745,118.407 305.677,88.347 								"/>
							</g>
						</g>
					</g>
				</g>
				<g>
					<g>
						<g>
							<g>
								<polygon style="fill:#FFFFFF;" points="357.678,209.069 357.678,116.34 411.402,147.358 411.402,240.09 								"/>
							</g>
						</g>
					</g>
					<g>
						<g>
							<polygon style="fill:#52BBE7;" points="366.875,203.786 366.875,121.722 411.335,147.391 411.335,229.455 							"/>
						</g>
					</g>
					<g>
						<g>
							<polygon style="fill:#5BC9EF;" points="411.402,172.191 373.469,207.521 371.775,206.544 411.402,169.636 							"/>
						</g>
					</g>
					<g>
						<g>
							<polygon style="fill:#5BC9EF;" points="411.402,147.358 411.402,159.342 366.943,200.752 366.943,186.414 409.843,146.456 
															"/>
						</g>
					</g>
					<g>
						<g>
							<polygon style="fill:#FFFFFF;" points="362.465,119.104 366.943,121.688 366.943,153.947 411.402,179.615 411.402,184.8 
								362.465,156.546 							"/>
						</g>
					</g>
					<g>
						<g>
							<polygon style="fill:#FFFFFF;" points="366.943,121.688 366.943,203.753 411.402,229.422 411.402,234.605 362.465,206.352 
								362.465,119.104 							"/>
						</g>
					</g>
					<g>
						<g>
							<g>
								<polygon style="fill:#A99FB8;" points="361.629,146.623 411.402,175.359 411.402,178.093 359.26,147.991 								"/>
							</g>
						</g>
						<g>
							<g>
								<polygon style="fill:#A99FB8;" points="361.629,143.081 411.402,171.817 411.402,174.55 359.26,144.449 								"/>
							</g>
						</g>
						<g>
							<g>
								<polygon style="fill:#A99FB8;" points="361.629,139.543 411.402,168.279 411.402,171.013 359.26,140.909 								"/>
							</g>
						</g>
						<g>
							<g>
								<polygon style="fill:#A99FB8;" points="361.629,135.99 411.402,164.727 411.402,167.462 359.26,137.358 								"/>
							</g>
						</g>
						<g>
							<g>
								<polygon style="fill:#A99FB8;" points="361.629,132.452 411.402,161.188 411.402,163.924 359.26,133.818 								"/>
							</g>
						</g>
						<g>
							<g>
								<polygon style="fill:#A99FB8;" points="361.704,128.986 411.402,157.679 411.402,160.414 359.336,130.352 								"/>
							</g>
						</g>
						<g>
							<g>
								<polygon style="fill:#A99FB8;" points="361.704,125.448 411.402,154.14 411.402,156.874 359.336,126.814 								"/>
							</g>
						</g>
						<g>
							<g>
								<polygon style="fill:#A99FB8;" points="361.704,121.895 411.402,150.588 411.402,153.323 359.336,123.264 								"/>
							</g>
						</g>
						<g>
							<g>
								<polygon style="fill:#A99FB8;" points="361.44,118.511 411.402,147.358 411.402,149.785 359.336,119.724 								"/>
							</g>
						</g>
					</g>
				</g>
			</g>
		</g>
	</g>
</g>
<g>
	<g>
		<g>
			<g>
				<g>
					<path style="fill:#C6C6C6;" d="M318.857,183.55c0.718,0.415,1.668,0.642,2.675,0.642c1.015,0,1.975-0.232,2.701-0.651
						c0.657-0.379,1.06-0.874,1.173-1.418h0.004l0.008-0.054c0.002-0.007,0.003-0.014,0.005-0.021l1.329-7.728H316.35l1.335,7.749
						C317.771,182.64,318.18,183.159,318.857,183.55z"/>
				</g>
			</g>
			<g>
				<g>
					<path style="fill:#A38671;" d="M321.523,177.186c1.365,0,2.656-0.313,3.634-0.876c1.047-0.605,1.623-1.43,1.623-2.324
						c0-0.888-0.569-1.706-1.601-2.302c-0.965-0.557-2.241-0.863-3.595-0.863c-1.365,0-2.655,0.311-3.633,0.876
						c-1.048,0.604-1.623,1.43-1.623,2.324c0,0.887,0.568,1.705,1.602,2.3C318.894,176.879,320.171,177.186,321.523,177.186z"/>
				</g>
			</g>
			<g>
				<g>
					<path style="fill:#8E725E;" d="M316.831,174.606c0.184,0.507,0.615,0.988,1.295,1.377c1.88,1.087,4.941,1.081,6.835-0.012
						c0.693-0.402,1.135-0.891,1.318-1.404c0.328-0.89-0.103-1.856-1.295-2.545c-1.885-1.087-4.943-1.079-6.84,0.012
						C316.933,172.733,316.494,173.711,316.831,174.606z"/>
				</g>
			</g>
			<g>
				<g>
					<path style="fill:#5E4534;" d="M316.831,174.606c0.184,0.507,0.615,0.988,1.295,1.377c1.88,1.087,4.941,1.081,6.835-0.012
						c0.693-0.402,1.135-0.891,1.318-1.404c-0.189-0.503-0.622-0.98-1.295-1.371c-1.885-1.088-4.943-1.082-6.84,0.011
						C317.457,173.606,317.015,174.095,316.831,174.606z"/>
				</g>
			</g>
		</g>
		<g>
			<g>
				<path style="fill:#A5C63B;" d="M308.719,148.436c0,0,0.355,0.04,0.805,0.188c0.451,0.147,1.013,0.384,1.471,0.832
					c0.849,0.822,1.309,1.776,1.07,2.208c0.457,0.253,0.885,0.531,1.313,0.816c0.015-0.258,0.067-0.475,0.151-0.665
					c-0.416-0.299-0.384-1.156,0.075-1.937c0.235-0.399,0.662-0.638,1.039-0.76c0.382-0.117,0.709-0.127,0.709-0.127
					s0.133,0.313,0.192,0.719c0.066,0.425,0.052,0.94-0.218,1.318c-0.516,0.72-1.268,1.059-1.707,0.84
					c-0.085,0.189-0.143,0.42-0.146,0.68c0.316,0.23,0.641,0.453,0.923,0.716l0.441,0.386l0.4,0.423
					c0.074-0.265,0.192-0.496,0.326-0.687c-0.164-0.204-0.204-0.507-0.124-0.881c0.083-0.371,0.279-0.809,0.588-1.216
					c0.311-0.415,0.809-0.607,1.246-0.673c0.437-0.069,0.804-0.017,0.804-0.017s0.028,0.088,0.049,0.248
					c0.02,0.16,0.039,0.378,0.03,0.618c-0.014,0.479-0.14,1.029-0.518,1.383c-0.717,0.669-1.593,0.902-1.992,0.614
					c-0.139,0.194-0.258,0.429-0.327,0.699c0.155,0.158,0.293,0.331,0.425,0.505c0.134,0.174,0.272,0.348,0.4,0.525h0.002v0.001
					c0.244,0.38,0.507,0.752,0.717,1.146c0.138-0.261,0.315-0.474,0.501-0.642c-0.271-0.451,0.183-1.331,1.01-2.029
					c0.426-0.355,0.994-0.443,1.444-0.423c0.455,0.017,0.81,0.136,0.81,0.136s-0.001,0.099-0.019,0.255
					c-0.014,0.157-0.048,0.369-0.126,0.592c-0.147,0.453-0.418,0.966-0.883,1.264c-0.884,0.564-1.83,0.671-2.17,0.299
					c-0.189,0.171-0.37,0.391-0.503,0.661c0.468,0.821,0.854,1.669,1.219,2.497c0.15-0.263,0.343-0.471,0.537-0.633
					c-0.269-0.514,0.285-1.418,1.246-2.084c0.496-0.337,1.101-0.396,1.586-0.355c0.246,0.021,0.459,0.061,0.603,0.093
					c0.148,0.032,0.238,0.062,0.238,0.062s-0.054,0.381-0.235,0.839c-0.184,0.451-0.513,0.955-1.021,1.269
					c-0.969,0.591-1.987,0.7-2.349,0.278c-0.204,0.171-0.399,0.391-0.546,0.671c0.18,0.419,0.357,0.833,0.534,1.243l0.023,0.008
					l-0.01,0.028c0.17,0.395,0.337,0.785,0.502,1.17c0.228-0.293,0.498-0.509,0.769-0.665c-0.193-0.572,0.606-1.418,1.816-1.91
					c1.227-0.517,2.653,0.087,2.653,0.087s-0.035,0.09-0.107,0.232c-0.074,0.14-0.184,0.342-0.329,0.563
					c-0.292,0.438-0.738,0.937-1.357,1.189c-1.172,0.48-2.307,0.447-2.621-0.042c-0.272,0.159-0.547,0.377-0.768,0.681l-0.001-0.003
					c0.408,0.987,0.797,1.941,1.101,2.882c0.245-0.29,0.528-0.503,0.81-0.654c-0.179-0.636,0.632-1.511,1.88-2.014
					c0.637-0.253,1.33-0.181,1.87-0.035c0.268,0.067,0.499,0.167,0.66,0.249c0.162,0.078,0.257,0.137,0.257,0.137
					s-0.141,0.427-0.448,0.897c-0.304,0.466-0.794,1.014-1.444,1.215c-0.619,0.2-1.224,0.251-1.705,0.19
					c-0.484-0.06-0.859-0.226-1.015-0.506c-0.285,0.154-0.575,0.37-0.813,0.673h-0.001c0.366,1.136,0.646,2.235,0.766,3.272
					c0.32-0.266,0.665-0.453,0.993-0.573c-0.044-0.386,0.167-0.784,0.596-1.165c0.424-0.377,1.043-0.726,1.771-0.931
					c0.744-0.212,1.525,0.01,2.125,0.324c0.299,0.154,0.552,0.328,0.731,0.464c0.172,0.146,0.27,0.251,0.27,0.251
					s-0.219,0.545-0.641,1.084c-0.412,0.533-1.078,1.093-1.845,1.165c-0.73,0.076-1.407-0.027-1.928-0.216
					c-0.538-0.184-0.921-0.456-1.042-0.811c-0.34,0.12-0.69,0.309-1.01,0.588c0.141,1.128,0.07,2.155,0.093,3.059
					c0.003,0.905-0.034,1.687-0.131,2.308c-0.081,0.551-0.211,0.955-0.357,1.247h-0.17c0.104-0.19,0.206-0.452,0.277-0.76
					c0.103-0.422,0.175-0.98,0.206-1.636c0.031-0.658,0.02-1.413,0.017-2.259c-0.363-0.197-0.742-0.301-1.091-0.32
					c-0.077,0.73-1.222,1.386-2.687,1.496c-0.772,0.058-1.495-0.183-2.029-0.569c-0.136-0.096-0.258-0.186-0.364-0.321
					c-0.054-0.064-0.103-0.122-0.15-0.176c-0.045-0.054-0.087-0.13-0.124-0.126c-0.15-0.054-0.233-0.087-0.233-0.087
					s0.295-0.164,0.787-0.395c0.507-0.219,1.133-0.57,1.903-0.691c0.745-0.121,1.443-0.118,1.979,0.014
					c0.515,0.128,0.856,0.392,0.913,0.716c0.345,0.022,0.726,0.096,1.099,0.288c-0.003-1.021-0.065-2.177-0.367-3.392
					c-0.341-0.094-0.67-0.094-0.971-0.051c0.049,0.607-0.883,1.279-2.152,1.553c-0.669,0.147-1.331,0.06-1.818-0.036
					c-0.243-0.049-0.444-0.103-0.582-0.145c-0.142-0.044-0.228-0.08-0.228-0.08s0.198-0.291,0.555-0.653
					c0.361-0.357,0.872-0.796,1.515-1.022c1.273-0.443,2.444-0.331,2.677,0.253c0.294-0.044,0.635-0.051,0.972,0.032
					c-0.262-1.051-0.606-2.161-1.055-3.288c-0.345-0.049-0.671-0.013-0.957,0.061c0.114,0.569-0.692,1.352-1.876,1.801
					c-1.251,0.466-2.627-0.072-2.627-0.072s0.593-1.398,1.823-1.917c1.205-0.505,2.365-0.474,2.635,0.063
					c0.285-0.075,0.606-0.113,0.948-0.075c-0.327-0.835-0.691-1.687-1.066-2.561c-0.28-0.082-0.552-0.099-0.8-0.079
					c0.035,0.557-0.768,1.19-1.872,1.45c-0.581,0.139-1.172-0.013-1.619-0.198c-0.449-0.195-0.737-0.388-0.737-0.388
					s0.714-1.239,1.877-1.508c1.138-0.264,2.163-0.031,2.33,0.521c0.234-0.02,0.492-0.009,0.76,0.058
					c-0.362-0.843-0.73-1.716-1.15-2.587c-0.271-0.057-0.531-0.049-0.765-0.007c0.066,0.481-0.657,1.084-1.659,1.388
					c-0.528,0.155-1.065,0.1-1.469,0.021c-0.401-0.081-0.668-0.197-0.668-0.197s0.153-0.251,0.429-0.564
					c0.277-0.31,0.675-0.688,1.188-0.89c0.997-0.399,1.971-0.34,2.15,0.136c0.224-0.041,0.471-0.053,0.733-0.01
					c-0.372-0.782-0.817-1.547-1.315-2.281c-0.246-0.02-0.482,0.026-0.683,0.095c0.135,0.439-0.488,1.09-1.375,1.487
					c-0.475,0.221-0.953,0.225-1.322,0.251c-0.366,0.014-0.605-0.018-0.605-0.018s0.032-0.06,0.089-0.164
					c0.058-0.101,0.144-0.244,0.248-0.397c0.213-0.309,0.518-0.716,0.946-0.999c0.423-0.278,0.852-0.454,1.217-0.503
					c0.357-0.042,0.64,0.05,0.762,0.251c0.19-0.066,0.407-0.112,0.645-0.11c-0.276-0.35-0.53-0.718-0.852-1.033
					c-0.158-0.16-0.299-0.332-0.469-0.48c-0.169-0.146-0.339-0.292-0.508-0.44c-0.248,0.015-0.467,0.105-0.646,0.215
					c0.244,0.404-0.146,1.12-0.84,1.659c-0.367,0.286-0.78,0.412-1.105,0.478c-0.343,0.066-0.586,0.064-0.586,0.064
					s0.029-0.263,0.129-0.617c0.082-0.355,0.235-0.802,0.563-1.131c0.32-0.321,0.687-0.547,1.007-0.641
					c0.317-0.094,0.604-0.058,0.771,0.114c0.166-0.104,0.37-0.195,0.602-0.229c-0.643-0.496-1.32-0.945-2.046-1.354
					c-0.393,0.316-1.37-0.077-2.3-0.977c-0.471-0.468-0.73-1.058-0.84-1.545C308.709,148.782,308.719,148.436,308.719,148.436z"/>
			</g>
		</g>
		<g>
			<g>
				<path style="fill:#8EB021;" d="M319.37,167.696c0.16-0.061,0.388-0.137,0.647-0.192c0.523-0.111,1.186-0.115,1.757,0.176
					c1.12,0.579,1.806,1.486,1.582,2.061c0.242,0.159,0.483,0.373,0.686,0.65c0.408-0.763,0.896-1.589,1.433-2.478
					c-0.154-0.253-0.348-0.452-0.549-0.604c-0.323,0.401-1.297,0.342-2.253-0.168c-0.504-0.27-0.832-0.747-1.031-1.16
					c-0.203-0.41-0.276-0.751-0.276-0.751s0.326-0.113,0.776-0.15c0.449-0.037,1.016,0.011,1.515,0.287
					c0.975,0.544,1.561,1.358,1.331,1.842c0.199,0.15,0.394,0.345,0.552,0.594c0.466-0.77,0.963-1.593,1.468-2.466
					c-0.149-0.248-0.342-0.441-0.54-0.591c-0.31,0.376-1.248,0.282-2.17-0.233c-0.971-0.542-1.298-1.794-1.298-1.794
					s1.247-0.372,2.218,0.17c0.948,0.529,1.523,1.31,1.309,1.763c0.195,0.146,0.385,0.336,0.544,0.578
					c0.371-0.646,0.751-1.319,1.13-2.014c-0.091-0.226-0.22-0.411-0.363-0.561c-0.345,0.309-1.174,0.108-1.912-0.479
					c-0.778-0.619-0.854-1.813-0.854-1.813s1.188-0.192,1.965,0.427c0.762,0.607,1.142,1.396,0.869,1.788
					c0.135,0.142,0.261,0.316,0.357,0.524c0.367-0.673,0.734-1.369,1.102-2.085c-0.1-0.207-0.232-0.379-0.375-0.513
					c-0.295,0.286-1.063,0.129-1.773-0.379c-0.747-0.538-0.892-1.611-0.892-1.611s1.069-0.206,1.817,0.331
					c0.732,0.525,1.13,1.227,0.904,1.586c0.137,0.129,0.269,0.29,0.37,0.485c0.323-0.643,0.652-1.297,0.989-1.968
					c-0.079-0.193-0.186-0.362-0.304-0.5c-0.31,0.289-1.063,0.186-1.718-0.3c-0.35-0.251-0.484-0.735-0.514-1.169
					c-0.024-0.428,0.067-0.789,0.067-0.789s0.316-0.105,0.706-0.079c0.388,0.017,0.82,0.15,1.086,0.492
					c0.265,0.333,0.436,0.698,0.511,1.009c0.073,0.314,0.073,0.592-0.072,0.764c0.104,0.128,0.209,0.288,0.29,0.471
					c0.368-0.666,0.865-1.282,1.445-1.825c0.017-0.217-0.012-0.409-0.069-0.576c-0.404,0.159-1.032-0.116-1.432-0.743
					c-0.207-0.323-0.168-0.796-0.056-1.153c0.056-0.182,0.127-0.345,0.184-0.461c0.059-0.12,0.099-0.182,0.099-0.182
					s0.302,0.016,0.634,0.132c0.329,0.112,0.676,0.35,0.824,0.703c0.287,0.704,0.212,1.419-0.17,1.661
					c0.053,0.156,0.083,0.338,0.076,0.538c0.528-0.484,1.115-0.913,1.722-1.311c-0.098-0.41,0.681-1.024,1.725-1.268
					c0.533-0.129,1.049-0.043,1.437,0.069c0.385,0.114,0.644,0.255,0.644,0.255s-0.167,0.241-0.466,0.512
					c-0.302,0.274-0.73,0.572-1.244,0.697c-0.949,0.221-1.796,0.184-2.042-0.146c-0.373,0.251-0.741,0.503-1.088,0.782
					c0.203,0.066,0.359,0.169,0.484,0.292c0.351-0.236,0.975,0.09,1.377,0.734c0.205,0.325,0.251,0.718,0.259,1.022
					c0,0.304-0.02,0.526-0.02,0.526s-0.208-0.04-0.469-0.146c-0.256-0.106-0.599-0.283-0.841-0.575
					c-0.479-0.561-0.653-1.21-0.371-1.508c-0.126-0.119-0.289-0.224-0.5-0.282c-0.529,0.424-1.015,0.892-1.423,1.405
					c0.227,0.024,0.425,0.11,0.59,0.212c0.265-0.294,0.978-0.027,1.531,0.597c0.287,0.316,0.459,0.707,0.578,0.999
					c0.06,0.147,0.105,0.271,0.135,0.356c0.031,0.087,0.051,0.139,0.051,0.139s-0.171-0.043-0.447-0.143
					c-0.256-0.097-0.625-0.236-0.978-0.484c-0.674-0.466-1.092-1.05-0.92-1.399c-0.169-0.103-0.366-0.177-0.601-0.193
					c-0.116,0.144-0.225,0.294-0.319,0.45c-0.104,0.152-0.197,0.308-0.276,0.47v0.002l0,0c-0.183,0.326-0.334,0.671-0.503,1.001
					c0.244-0.026,0.471,0.002,0.671,0.056c0.097-0.186,0.35-0.296,0.676-0.294c0.32,0.021,0.704,0.155,1.097,0.371
					c0.398,0.226,0.721,0.537,0.961,0.752c0.06,0.055,0.114,0.104,0.163,0.149c0.037,0.065,0.067,0.126,0.093,0.174
					c0.049,0.102,0.071,0.165,0.071,0.165s-0.997,0.435-1.846,0.079c-0.807-0.338-1.34-0.909-1.247-1.309
					c-0.205-0.055-0.439-0.081-0.686-0.045c-0.35,0.698-0.699,1.384-1.053,2.048c0.25-0.038,0.484-0.021,0.693,0.022
					c0.193-0.436,1.071-0.523,1.987-0.19c0.935,0.341,1.386,1.447,1.386,1.447s-1.065,0.556-1.999,0.216
					c-0.89-0.322-1.492-0.924-1.405-1.376c-0.217-0.045-0.464-0.06-0.722-0.008c-0.181,0.335-0.358,0.666-0.535,0.994l0.009,0.019
					l-0.023,0.008c-0.174,0.315-0.347,0.624-0.516,0.931c0.311-0.001,0.591,0.065,0.833,0.162c0.278-0.417,1.248-0.335,2.197,0.197
					c0.97,0.54,1.297,1.794,1.297,1.794s-1.246,0.373-2.216-0.171c-0.921-0.514-1.488-1.264-1.328-1.721
					c-0.244-0.097-0.53-0.163-0.842-0.153v-0.001c-0.435,0.772-0.862,1.511-1.281,2.215c0.317-0.005,0.604,0.061,0.852,0.157
					c0.294-0.444,1.296-0.371,2.272,0.173c0.997,0.557,1.315,1.871,1.315,1.871s-0.323,0.103-0.772,0.136
					c-0.451,0.038-1.023,0.006-1.52-0.275c-0.945-0.529-1.522-1.318-1.347-1.802c-0.252-0.098-0.546-0.164-0.867-0.148l0,0
					c-0.506,0.842-0.983,1.639-1.427,2.378c0.347-0.009,0.661,0.057,0.933,0.157c0.314-0.502,1.441-0.416,2.543,0.197
					c0.563,0.311,0.941,0.828,1.193,1.251c0.247,0.428,0.368,0.761,0.368,0.761s-1.366,0.368-2.522-0.188
					c-1.104-0.528-1.814-1.358-1.637-1.907c-0.277-0.1-0.605-0.167-0.953-0.142c-0.944,1.612-1.628,3.003-1.952,4.065
					c-0.093,0.261-0.137,0.51-0.198,0.721c-0.038,0.22-0.068,0.407-0.096,0.562c-0.009,0.109-0.016,0.194-0.022,0.27h-0.127
					c0.004-0.044,0.008-0.093,0.011-0.151c0.006-0.12,0.031-0.259,0.061-0.424c0.023-0.164,0.061-0.349,0.117-0.55
					c0.199-0.813,0.64-1.891,1.3-3.132c-0.196-0.281-0.438-0.496-0.682-0.654c-0.339,0.49-1.439,0.567-2.583,0.117
					c-0.599-0.238-1.009-0.769-1.258-1.261c-0.249-0.482-0.34-0.906-0.34-0.906S319.208,167.759,319.37,167.696z"/>
			</g>
		</g>
		<g>
			<g>
				<path style="fill:#8EB021;" d="M298.695,160.636c0.129-0.037,0.299-0.061,0.504-0.107c0.408-0.069,0.921-0.149,1.472-0.03
					c0.509,0.107,0.983,0.276,1.319,0.485c0.338,0.208,0.533,0.454,0.543,0.67c0.226-0.001,0.45,0.013,0.678,0.022
					c0.113,0.006,0.229,0.007,0.341,0.016l0.338,0.05c-0.094-0.207-0.138-0.413-0.147-0.6c-0.456-0.064-0.811-0.738-0.827-1.567
					c-0.005-0.42,0.243-0.783,0.518-1.039c0.271-0.255,0.561-0.399,0.561-0.399s0.276,0.184,0.52,0.514
					c0.247,0.318,0.455,0.738,0.388,1.148c-0.136,0.78-0.623,1.356-1.064,1.355c0.01,0.188,0.054,0.397,0.156,0.604
					c0.692,0.09,1.361,0.307,2.015,0.553c-0.044-0.243-0.036-0.473-0.001-0.678c-0.217-0.084-0.352-0.345-0.431-0.673
					c-0.075-0.33-0.085-0.758,0.011-1.204c0.095-0.455,0.427-0.802,0.761-1.026c0.339-0.228,0.646-0.314,0.646-0.314
					s0.214,0.276,0.376,0.66c0.173,0.379,0.246,0.879,0.082,1.312c-0.32,0.83-0.904,1.341-1.349,1.274
					c-0.038,0.209-0.043,0.44,0.007,0.689c0.358,0.164,0.727,0.314,1.068,0.506h0.002v0.001c0.363,0.186,0.713,0.389,1.055,0.597
					c-0.005-0.264,0.041-0.506,0.116-0.716c-0.387-0.248-0.406-1.115-0.015-2.012c0.198-0.455,0.598-0.761,0.961-0.945
					c0.359-0.184,0.677-0.249,0.677-0.249s0.502,1.181,0.017,2.049c-0.443,0.83-1.115,1.338-1.547,1.201
					c-0.076,0.215-0.125,0.465-0.108,0.732c0.719,0.447,1.414,0.895,2.091,1.333c-0.016-0.272,0.024-0.522,0.094-0.741
					c-0.448-0.251-0.429-1.177,0.024-2.127c0.228-0.487,0.672-0.806,1.036-1.022c0.36-0.218,0.659-0.319,0.659-0.319
					s0.412,1.147-0.018,2.126c-0.425,0.922-1.133,1.52-1.603,1.384c-0.071,0.228-0.109,0.491-0.078,0.772
					c0.343,0.222,0.685,0.441,1.021,0.658l0.023-0.008l0.007,0.025c0.322,0.217,0.641,0.429,0.952,0.638
					c0.03-0.331,0.128-0.626,0.254-0.875c-0.428-0.342-0.257-1.376,0.399-2.346c0.653-1.004,2.078-1.208,2.078-1.208
					s0.083,0.35,0.076,0.82c-0.004,0.471-0.086,1.085-0.435,1.569c-0.659,0.923-1.536,1.438-2.016,1.227
					c-0.128,0.253-0.228,0.551-0.246,0.884h-0.003c0.791,0.547,1.535,1.099,2.212,1.674c0.052-0.337,0.169-0.633,0.312-0.879
					c-0.436-0.402-0.239-1.474,0.471-2.44c0.364-0.493,0.929-0.78,1.423-0.897c0.493-0.126,0.902-0.122,0.902-0.122
					s0.1,0.396,0.09,0.901c-0.006,0.517-0.13,1.161-0.536,1.621c-0.776,0.874-1.738,1.275-2.243,1.014
					c-0.147,0.25-0.267,0.55-0.307,0.892l0,0c0.409,0.347,0.776,0.721,1.143,1.065c0.346,0.37,0.657,0.744,0.965,1.096
					c0.117-0.349,0.292-0.644,0.49-0.887c-0.22-0.265-0.227-0.687-0.071-1.178c0.156-0.495,0.468-1.037,0.934-1.531
					c0.476-0.513,1.18-0.701,1.784-0.722c0.604-0.029,1.101,0.089,1.101,0.089s0.02,0.124,0.03,0.32
					c0.013,0.193,0.008,0.479-0.036,0.791c-0.086,0.621-0.341,1.318-0.895,1.737c-0.523,0.399-1.09,0.645-1.579,0.749
					c-0.494,0.106-0.885,0.044-1.16-0.15c-0.206,0.248-0.377,0.543-0.501,0.912c0.292,0.419,0.572,0.814,0.822,1.196
					c0.245,0.383,0.478,0.749,0.697,1.091c0.433,0.685,0.76,1.307,0.927,1.834c0.175,0.525,0.205,0.967,0.175,1.265h-0.132
					c0.017-0.202,0.01-0.462-0.053-0.777c-0.077-0.387-0.243-0.836-0.514-1.356c-0.267-0.518-0.642-1.083-1.052-1.722
					c-0.368,0.039-0.699,0.143-0.98,0.283c0.308,0.608-0.262,1.627-1.319,2.418c-0.556,0.414-1.218,0.579-1.789,0.579
					c-0.555,0.022-1.101-0.27-1.053-0.194c0,0,0.125-0.286,0.372-0.706c0.248-0.421,0.605-0.986,1.134-1.439
					c0.519-0.438,1.051-0.753,1.517-0.892c0.462-0.14,0.858-0.101,1.061,0.121c0.274-0.152,0.608-0.259,0.977-0.297
					c-0.246-0.398-0.529-0.786-0.82-1.211c-0.3-0.416-0.676-0.801-1.04-1.23c-0.307,0.087-0.567,0.245-0.776,0.417
					c0.171,0.204,0.136,0.57-0.034,0.96c-0.173,0.394-0.496,0.825-0.918,1.225c-0.448,0.42-0.992,0.656-1.403,0.807
					c-0.201,0.072-0.383,0.123-0.521,0.156c-0.133,0.033-0.212,0.047-0.212,0.047s0.025-0.311,0.137-0.75
					c0.116-0.437,0.313-1.01,0.704-1.482c0.761-0.93,1.715-1.39,2.16-1.047c0.208-0.171,0.462-0.329,0.768-0.428
					c-0.354-0.333-0.708-0.693-1.1-1.03c-0.403-0.323-0.806-0.678-1.248-0.994c-0.285,0.128-0.517,0.31-0.699,0.503
					c0.367,0.371,0.113,1.352-0.586,2.253c-0.718,0.941-2.013,1.21-2.013,1.21s-0.036-0.325,0.006-0.779
					c0.051-0.453,0.146-1.037,0.488-1.528c0.668-0.966,1.559-1.508,2.011-1.227c0.181-0.191,0.406-0.374,0.685-0.512
					c-0.646-0.481-1.336-0.946-2.05-1.415c-0.249,0.079-0.462,0.201-0.636,0.34c0.306,0.397,0.01,1.266-0.686,2.007
					c-0.726,0.785-2.031,0.753-2.031,0.753s-0.024-0.319,0.036-0.745c0.061-0.426,0.219-0.945,0.592-1.331
					c0.732-0.75,1.613-1.089,2.012-0.764c0.164-0.132,0.363-0.253,0.596-0.336c-0.693-0.448-1.403-0.904-2.135-1.373
					c-0.236,0.083-0.434,0.207-0.595,0.346c0.27,0.344,0.029,1.15-0.599,1.855c-0.322,0.374-0.815,0.549-1.17,0.663
					c-0.364,0.108-0.645,0.128-0.645,0.128s-0.019-0.289,0.049-0.662c0.066-0.371,0.206-0.843,0.524-1.224
					c0.618-0.75,1.408-1.109,1.77-0.829c0.154-0.134,0.34-0.256,0.563-0.343c-0.656-0.419-1.321-0.846-2.033-1.212
					c-0.204,0.089-0.371,0.213-0.506,0.347c0.285,0.314,0.078,1.072-0.468,1.764c-0.284,0.366-0.675,0.587-0.981,0.724
					c-0.161,0.067-0.29,0.121-0.379,0.159c-0.094,0.037-0.147,0.052-0.147,0.052s-0.015-0.246,0.022-0.596
					c0.038-0.355,0.122-0.795,0.361-1.193c0.468-0.785,1.153-1.192,1.522-0.969c0.127-0.129,0.28-0.25,0.471-0.342
					c-0.716-0.362-1.462-0.686-2.245-0.87c-0.198,0.112-0.339,0.263-0.438,0.42c0.344,0.243,0.307,0.953-0.058,1.661
					c-0.188,0.372-0.483,0.64-0.707,0.82c-0.121,0.088-0.218,0.16-0.287,0.211c-0.073,0.049-0.114,0.078-0.114,0.078
					s-0.06-0.212-0.105-0.532c-0.042-0.32-0.083-0.738,0.034-1.134c0.224-0.785,0.756-1.283,1.162-1.145
					c0.091-0.146,0.218-0.291,0.393-0.408c-0.345-0.104-0.712-0.126-1.061-0.188c-0.36-0.03-0.719-0.041-1.077-0.046
					c-0.081,0.219-0.333,0.352-0.717,0.424c-0.377,0.065-0.898,0.066-1.484-0.058c-0.601-0.12-1.114-0.501-1.408-0.83
					c-0.299-0.354-0.41-0.639-0.41-0.639S298.566,160.668,298.695,160.636z"/>
			</g>
		</g>
		<g>
			<g>
				<path style="fill:#8EB021;" d="M317.168,167.564c0.606-0.249,1.41-0.44,2.203-0.25c1.553,0.376,2.676,1.279,2.553,2.037
					c0.343,0.128,0.697,0.325,1.021,0.614c0.311-1.049,0.657-2.214,1.029-3.472c-0.267-0.262-0.57-0.441-0.865-0.562
					c-0.266,0.599-1.479,0.82-2.811,0.491c-1.404-0.346-2.223-1.878-2.223-1.878s1.455-0.96,2.847-0.583
					c1.375,0.348,2.35,1.166,2.23,1.83c0.293,0.118,0.595,0.295,0.868,0.548c0.159-0.548,0.335-1.111,0.483-1.699
					c0.144-0.591,0.291-1.197,0.442-1.82c-0.271-0.244-0.577-0.404-0.87-0.508c-0.239,0.563-1.407,0.773-2.708,0.467
					c-0.685-0.16-1.245-0.569-1.638-0.929c-0.392-0.359-0.613-0.673-0.613-0.673s0.338-0.194,0.849-0.371
					c0.502-0.188,1.178-0.347,1.87-0.214c1.348,0.256,2.378,0.968,2.276,1.585c0.291,0.102,0.594,0.258,0.87,0.49
					c0.238-0.917,0.373-1.887,0.547-2.878c-0.201-0.231-0.435-0.398-0.667-0.518c-0.283,0.511-1.356,0.606-2.484,0.211
					c-0.595-0.208-1.04-0.649-1.339-1.034c-0.148-0.193-0.261-0.373-0.336-0.505c-0.074-0.135-0.112-0.224-0.112-0.224
					s1.326-0.736,2.52-0.328c1.167,0.397,1.967,1.184,1.801,1.76c0.22,0.113,0.443,0.267,0.647,0.477
					c0.161-0.96,0.29-1.948,0.417-2.957c-0.205-0.207-0.439-0.354-0.667-0.455c-0.227,0.468-1.207,0.605-2.272,0.299
					c-1.12-0.322-1.754-1.547-1.754-1.547s0.073-0.044,0.201-0.104c0.131-0.064,0.317-0.147,0.535-0.217
					c0.441-0.143,1.021-0.237,1.579-0.07c1.094,0.328,1.854,1.002,1.748,1.526c0.219,0.098,0.443,0.233,0.649,0.424
					c0.112-0.904,0.225-1.827,0.342-2.766c-0.183-0.191-0.389-0.33-0.594-0.426c-0.223,0.454-1.147,0.587-2.138,0.284
					c-1.044-0.319-1.595-1.564-1.595-1.564s0.282-0.175,0.695-0.305c0.403-0.092,0.939-0.155,1.463-0.001
					c1.027,0.29,1.732,0.967,1.613,1.479c0.192,0.092,0.391,0.219,0.57,0.393c0.105-0.951,0.22-1.894,0.256-2.859
					c-0.177-0.207-0.384-0.342-0.586-0.429c-0.196,0.476-1.033,0.658-1.934,0.419c-0.475-0.124-0.845-0.459-1.098-0.758
					c-0.125-0.151-0.221-0.286-0.285-0.398c-0.064-0.113-0.099-0.186-0.099-0.186s1.011-0.783,1.962-0.546
					c0.932,0.232,1.59,0.844,1.486,1.367c0.189,0.081,0.383,0.201,0.561,0.382c0.037-0.869,0.043-1.754,0.071-2.66
					c-0.496-0.194-0.597-1.424-0.023-2.77c0.168-0.341,0.384-0.633,0.609-0.869c0.213-0.241,0.508-0.407,0.732-0.535
					c0.465-0.253,0.814-0.318,0.814-0.318s0.048,0.382,0.019,0.866c-0.008,0.121-0.019,0.249-0.04,0.38
					c-0.007,0.139-0.02,0.281-0.043,0.425c-0.037,0.292-0.152,0.571-0.264,0.875c-0.115,0.275-0.247,0.533-0.39,0.765
					c-0.134,0.237-0.268,0.452-0.413,0.631c-0.289,0.357-0.586,0.582-0.84,0.582c-0.014,0.56-0.025,1.115-0.04,1.666
					c0.229-0.141,0.461-0.214,0.677-0.245c0.036-0.54,0.836-0.939,1.794-0.895c0.488,0.022,0.925,0.279,1.239,0.523
					c0.315,0.245,0.509,0.478,0.509,0.478s-0.051,0.055-0.142,0.15c-0.093,0.092-0.224,0.214-0.385,0.334
					c-0.326,0.243-0.773,0.483-1.263,0.474c-0.933-0.019-1.688-0.438-1.751-0.955c-0.219,0.032-0.454,0.11-0.682,0.263
					c-0.021,0.84-0.057,1.667-0.145,2.484c0.263-0.125,0.526-0.186,0.77-0.206c0.078-0.529,0.95-0.921,2.02-0.897
					c0.545,0.013,1.03,0.282,1.378,0.553c0.172,0.137,0.311,0.269,0.407,0.376c0.09,0.108,0.142,0.182,0.142,0.182
					s-0.98,1.126-2.058,0.979c-1.03-0.089-1.844-0.556-1.892-1.077c-0.248,0.019-0.518,0.083-0.777,0.218
					c-0.052,0.465-0.102,0.927-0.152,1.385l0.001,0.001l-0.001,0.001c-0.06,0.474-0.115,0.943-0.175,1.409
					c0.283-0.132,0.566-0.193,0.827-0.21c0.075-0.528,1.029-0.883,2.166-0.788c1.159,0.1,2.038,1.122,2.038,1.122
					s-1.004,0.877-2.17,0.81c-1.104-0.066-1.983-0.514-2.037-1.028c-0.267,0.018-0.558,0.083-0.84,0.227
					c-0.125,0.982-0.238,1.951-0.372,2.894c0.282-0.151,0.567-0.232,0.835-0.268c0.043-0.603,1.045-1.079,2.278-1.071
					c1.259,0.01,2.275,1.137,2.275,1.137s-1.022,1.112-2.282,1.106c-1.197-0.006-2.174-0.465-2.266-1.044
					c-0.278,0.038-0.576,0.128-0.861,0.298c-0.063,0.476-0.143,0.948-0.219,1.414l0.017,0.021l-0.025,0.019
					c-0.077,0.448-0.153,0.893-0.227,1.33c0.368-0.127,0.731-0.162,1.059-0.145c0.163-0.618,1.355-0.93,2.712-0.691
					c1.388,0.24,2.289,1.674,2.289,1.674s-0.337,0.256-0.846,0.474c-0.505,0.216-1.191,0.401-1.885,0.264
					c-1.301-0.268-2.289-0.957-2.287-1.578c-0.332-0.017-0.7,0.018-1.068,0.155v-0.002c-0.089,0.556-0.224,1.096-0.346,1.625
					c-0.131,0.526-0.255,1.043-0.38,1.55c0.384-0.115,0.755-0.134,1.087-0.102c0.198-0.655,1.442-0.949,2.826-0.653
					c0.704,0.153,1.27,0.626,1.653,1.072c0.386,0.445,0.593,0.859,0.593,0.859s-0.364,0.275-0.9,0.496
					c-0.27,0.119-0.578,0.194-0.91,0.226c-0.333,0.033-0.684,0.022-1.032-0.069c-1.331-0.337-2.289-1.106-2.255-1.782
					c-0.339-0.034-0.718-0.014-1.102,0.114l0,0c-0.314,1.211-0.674,2.33-0.977,3.376c0.419-0.117,0.824-0.133,1.189-0.094
					c0.239-0.721,1.647-0.988,3.195-0.596c0.79,0.2,1.422,0.718,1.853,1.18c0.217,0.233,0.385,0.451,0.497,0.612
					c0.113,0.163,0.175,0.262,0.175,0.262s-0.396,0.239-0.989,0.438c-0.596,0.197-1.392,0.355-2.184,0.172
					c-1.512-0.344-2.619-1.176-2.578-1.908c-0.371-0.038-0.787-0.02-1.212,0.116c-0.324,1.14-0.66,2.169-0.897,3.095
					c-0.242,0.925-0.509,1.718-0.645,2.392c-0.163,0.667-0.292,1.195-0.381,1.56c-0.028,0.111-0.053,0.202-0.073,0.279h-0.168
					c0.014-0.047,0.028-0.1,0.043-0.161c0.067-0.267,0.163-0.653,0.285-1.144c0.208-0.99,0.627-2.377,1.093-4.088
					c-0.314-0.297-0.669-0.495-1.012-0.624c-0.299,0.68-1.63,1.014-3.156,0.709c-0.799-0.16-1.449-0.686-1.897-1.186
					c-0.438-0.482-0.674-0.925-0.674-0.925S316.561,167.812,317.168,167.564z"/>
			</g>
		</g>
		<g>
			<g>
				<path style="fill:#A5C63B;" d="M324.389,174.227c-0.308,0.352-0.558,0.63-0.693,0.858c-0.026,0.04-0.049,0.072-0.07,0.104
					h-0.131c0.014-0.023,0.032-0.045,0.05-0.073c0.111-0.162,0.259-0.4,0.5-0.655c0.446-0.539,1.169-1.198,2.102-1.926
					c-0.058-0.283-0.173-0.53-0.31-0.733c-0.418,0.259-1.29-0.063-2.008-0.809c-0.376-0.392-0.518-0.933-0.556-1.385
					c-0.017-0.231-0.021-0.417-0.016-0.557c0.007-0.138,0.018-0.222,0.018-0.222s0.343-0.011,0.764,0.091
					c0.409,0.114,0.91,0.328,1.27,0.734c0.705,0.798,0.978,1.705,0.615,2.079c0.136,0.202,0.252,0.446,0.317,0.728
					c0.57-0.453,1.216-0.936,1.873-1.517c-0.059-0.246-0.168-0.455-0.29-0.628c-0.353,0.252-1.103-0.084-1.717-0.76
					c-0.322-0.36-0.478-0.796-0.556-1.165c-0.077-0.365-0.074-0.642-0.074-0.642s1.088,0.02,1.767,0.703
					c0.662,0.671,0.945,1.464,0.65,1.799c0.123,0.171,0.232,0.377,0.298,0.62c0.558-0.515,1.161-1.059,1.76-1.662
					c-0.068-0.236-0.184-0.436-0.31-0.6c-0.331,0.241-1.074-0.044-1.707-0.672c-0.671-0.645-0.674-1.741-0.674-1.741
					s1.086-0.03,1.76,0.622c0.658,0.639,0.958,1.401,0.689,1.726c0.128,0.163,0.242,0.36,0.318,0.59
					c0.44-0.448,0.889-0.918,1.348-1.406c-0.026-0.203-0.096-0.383-0.179-0.536c-0.342,0.179-0.977-0.165-1.451-0.802
					c-0.487-0.683-0.352-1.629-0.352-1.629s0.246,0.027,0.561,0.128c0.314,0.104,0.693,0.29,0.951,0.62
					c0.506,0.649,0.662,1.372,0.359,1.633c0.082,0.146,0.148,0.314,0.184,0.505c0.44-0.475,0.877-0.975,1.316-1.491
					c-0.039-0.189-0.115-0.357-0.207-0.496c-0.297,0.177-0.896-0.102-1.378-0.661c-0.252-0.294-0.353-0.67-0.391-0.976
					c-0.041-0.304-0.006-0.539-0.006-0.539s0.94,0.025,1.433,0.627c0.484,0.588,0.657,1.247,0.404,1.499
					c0.087,0.132,0.162,0.29,0.207,0.472c0.394-0.464,0.795-0.935,1.211-1.406c-0.026-0.175-0.089-0.329-0.16-0.459
					c-0.296,0.165-0.859-0.105-1.289-0.644c-0.225-0.286-0.292-0.655-0.299-0.958c0.002-0.301,0.064-0.535,0.064-0.535
					s0.235,0.006,0.517,0.088c0.284,0.085,0.615,0.249,0.822,0.549c0.402,0.587,0.517,1.227,0.247,1.457
					c0.07,0.122,0.126,0.266,0.161,0.43c0.214-0.232,0.43-0.468,0.648-0.706c0.23-0.227,0.449-0.469,0.692-0.691
					c0.014-0.181-0.017-0.344-0.07-0.481c-0.332,0.139-0.846-0.128-1.177-0.652c-0.179-0.278-0.166-0.634-0.1-0.927
					c0.063-0.292,0.178-0.517,0.178-0.517c0.014-0.027,0.904,0.117,1.201,0.696c0.296,0.568,0.273,1.144-0.035,1.363
					c0.049,0.131,0.08,0.281,0.077,0.45c0.429-0.42,0.903-0.769,1.364-1.155c-0.059-0.167,0.049-0.393,0.278-0.624
					c0.113-0.115,0.26-0.235,0.422-0.343c0.159-0.107,0.34-0.205,0.537-0.292c0.804-0.355,1.77-0.063,1.77-0.063
					s-0.095,0.224-0.297,0.496c-0.203,0.273-0.515,0.596-0.934,0.783c-0.77,0.346-1.482,0.389-1.72,0.138
					c-0.292,0.236-0.58,0.47-0.861,0.698c0.174,0.053,0.316,0.138,0.428,0.232c0.29-0.21,0.846,0.012,1.25,0.509
					c0.407,0.506,0.272,1.303,0.272,1.303s-0.203-0.006-0.462-0.072c-0.269-0.066-0.543-0.186-0.768-0.427
					c-0.413-0.452-0.589-1.021-0.346-1.268c-0.114-0.095-0.261-0.18-0.441-0.224c-0.21,0.193-0.418,0.385-0.621,0.573
					c-0.197,0.2-0.392,0.397-0.584,0.592c0.192,0.042,0.354,0.122,0.488,0.217c0.249-0.234,0.844-0.03,1.335,0.493
					c0.25,0.266,0.376,0.594,0.454,0.863c0.076,0.27,0.093,0.47,0.093,0.47s-0.189-0.006-0.452-0.07
					c-0.263-0.067-0.599-0.164-0.872-0.407c-0.515-0.451-0.786-1.02-0.604-1.294c-0.137-0.094-0.308-0.178-0.499-0.208
					c-0.208,0.232-0.423,0.452-0.623,0.685v0.001h-0.002c-0.207,0.241-0.42,0.472-0.618,0.713c0.203,0.03,0.381,0.102,0.529,0.188
					c0.239-0.262,0.895-0.093,1.476,0.392c0.297,0.247,0.473,0.591,0.579,0.872c0.104,0.279,0.138,0.492,0.138,0.492
					s-0.209,0.012-0.505-0.015c-0.292-0.031-0.666-0.118-0.974-0.354c-0.588-0.443-0.912-1.017-0.757-1.324
					c-0.152-0.087-0.337-0.159-0.547-0.182c-0.433,0.504-0.854,0.994-1.265,1.474c0.212,0.017,0.399,0.077,0.562,0.153
					c0.248-0.322,0.98-0.217,1.661,0.239c0.694,0.468,0.858,1.456,0.858,1.456s-0.244,0.06-0.581,0.07
					c-0.338,0.007-0.757-0.045-1.109-0.275c-0.666-0.441-1.031-1.059-0.873-1.415c-0.169-0.081-0.366-0.14-0.589-0.15
					c-0.216,0.239-0.43,0.475-0.642,0.709l0.003,0.016l-0.021,0.001c-0.208,0.221-0.413,0.437-0.615,0.651
					c0.252,0.066,0.467,0.18,0.643,0.31c0.315-0.281,1.084-0.006,1.747,0.629c0.672,0.653,0.668,1.752,0.668,1.752
					s-1.098,0.042-1.768-0.612c-0.637-0.62-0.94-1.356-0.709-1.697c-0.179-0.133-0.395-0.247-0.651-0.307v-0.001
					c-0.518,0.54-1.02,1.058-1.53,1.525c0.261,0.07,0.479,0.189,0.657,0.323c0.35-0.294,1.149-0.02,1.822,0.637
					c0.339,0.338,0.518,0.785,0.58,1.167c0.064,0.377,0.04,0.675,0.04,0.675s-1.193,0.08-1.857-0.615
					c-0.636-0.658-0.909-1.436-0.653-1.792c-0.181-0.136-0.404-0.257-0.671-0.32l0,0c-0.608,0.57-1.18,1.109-1.757,1.559
					c0.275,0.097,0.507,0.238,0.695,0.395c0.412-0.316,1.296,0.019,2.028,0.791c0.37,0.393,0.538,0.927,0.584,1.367
					c0.044,0.442-0.014,0.79-0.014,0.79s-0.087,0.005-0.23-0.001c-0.136-0.012-0.317-0.042-0.527-0.097
					c-0.415-0.107-0.921-0.318-1.278-0.724c-0.681-0.776-0.955-1.657-0.645-2.046c-0.192-0.16-0.429-0.307-0.712-0.395
					C326.047,172.742,325.024,173.542,324.389,174.227z"/>
			</g>
		</g>
	</g>
</g>
<g>
	<g>
		<g>
			<polygon style="fill:#785571;" points="89.07,196.066 89.07,147.408 60.879,163.684 60.879,212.342 			"/>
		</g>
	</g>
	<g>
		<g>
			<polygon style="fill:#FFFFFF;" points="62.468,164.601 87.483,150.159 87.483,195.149 62.468,209.59 			"/>
		</g>
	</g>
	<g>
		<g>
			<polygon style="fill:#A3C412;" points="66.439,166.895 83.512,157.037 83.512,192.855 66.439,202.714 			"/>
		</g>
	</g>
</g>
<g>
	<g>
		<path style="fill:#FED8A7;" d="M284.48,222.441c0,0,0.41,0.738-1.174,0.512c-1.584-0.227,2.227,1.635,2.227,1.635L284.48,222.441z
			"/>
	</g>
</g>
<g>
	<g>
		<path style="fill:#BABABA;" d="M415.07,306.62l-35.496-20.365L415.07,306.62z"/>
	</g>
</g>
<g>
	<g>
		<g>
			<g id="XMLID_9_">
				<g>
					<g>
						<path style="fill:#FFFFFF;" d="M48.862,126.992c4.512-2.605,8.185-0.511,8.185,4.667c0,5.179-3.673,11.514-8.185,14.119
							c-4.513,2.606-8.186,0.512-8.186-4.667C40.676,135.933,44.349,129.597,48.862,126.992z"/>
					</g>
				</g>
			</g>
		</g>
		<g>
			<g>
				<g>
					<g>
						<path style="fill:#503B2C;" d="M48.862,129.3c0.233-0.135,0.424-0.027,0.424,0.242v6.801c0,0.268-0.19,0.596-0.424,0.731
							c-0.235,0.135-0.423,0.026-0.423-0.241v-6.802C48.439,129.763,48.627,129.436,48.862,129.3z"/>
					</g>
				</g>
			</g>
			<g>
				<g>
					<g>
						<path style="fill:#503B2C;" d="M46.048,134.296l3.112,1.775c0.167,0.095,0.167,0.402,0,0.687
							c-0.082,0.144-0.19,0.253-0.298,0.316c-0.108,0.063-0.217,0.078-0.3,0.03l-3.112-1.775c-0.165-0.094-0.165-0.402,0-0.688
							C45.614,134.357,45.883,134.203,46.048,134.296z"/>
					</g>
				</g>
			</g>
		</g>
	</g>
	<g>
		<g>
			<path style="fill:#BDC3C7;" d="M42.967,145.017c0.065,0.029,0.132,0.057,0.197,0.081c0.025,0.009,0.05,0.017,0.074,0.024
				c0.154,0.053,0.31,0.098,0.474,0.129c0.012,0.003,0.026,0.005,0.039,0.008c0.113,0.021,0.228,0.037,0.345,0.05
				c0.04,0.004,0.081,0.007,0.122,0.01c0.077,0.005,0.155,0.01,0.233,0.012c0.044,0.001,0.088,0.002,0.134,0.002
				c0.062,0,0.125-0.003,0.188-0.006c0.052-0.003,0.103-0.005,0.155-0.009c0.052-0.004,0.104-0.01,0.158-0.017
				c0.06-0.006,0.118-0.013,0.178-0.021c0.049-0.006,0.1-0.016,0.149-0.025c0.064-0.011,0.127-0.022,0.192-0.035
				c0.043-0.009,0.086-0.019,0.129-0.029c0.068-0.016,0.137-0.032,0.206-0.051c0.043-0.011,0.088-0.023,0.131-0.036
				c0.074-0.022,0.149-0.045,0.225-0.068c0.037-0.013,0.072-0.024,0.109-0.037c0.107-0.037,0.216-0.076,0.325-0.12
				c0.004-0.001,0.009-0.003,0.012-0.004c0.114-0.046,0.228-0.095,0.341-0.146c0.034-0.017,0.071-0.034,0.107-0.051
				c0.08-0.038,0.163-0.078,0.243-0.12c0.04-0.02,0.08-0.04,0.12-0.063c0.109-0.056,0.218-0.114,0.326-0.178
				c0.251-0.145,0.497-0.303,0.743-0.472c0.015-0.011,0.03-0.021,0.044-0.032c0.228-0.159,0.452-0.329,0.671-0.507
				c0.026-0.02,0.051-0.041,0.076-0.061c0.213-0.175,0.423-0.359,0.632-0.551c0.024-0.023,0.047-0.046,0.072-0.069
				c0.21-0.198,0.416-0.403,0.617-0.616c0.015-0.018,0.033-0.035,0.048-0.053c0.215-0.228,0.425-0.465,0.628-0.71
				c0.004-0.004,0.007-0.008,0.01-0.013c0.207-0.25,0.409-0.506,0.602-0.77c0.007-0.01,0.015-0.021,0.021-0.03
				c0.17-0.233,0.336-0.472,0.495-0.714c0.106-0.16,0.206-0.324,0.307-0.488c0.081-0.132,0.165-0.262,0.243-0.395
				c0.037-0.064,0.071-0.129,0.109-0.195c0.128-0.228,0.256-0.458,0.375-0.692c0.012-0.026,0.025-0.05,0.038-0.076
				c0.145-0.284,0.279-0.572,0.407-0.862c0.005-0.014,0.011-0.029,0.018-0.043c0.124-0.284,0.238-0.571,0.346-0.858
				c0.007-0.019,0.014-0.038,0.022-0.057c0.108-0.294,0.207-0.59,0.297-0.886c0.004-0.016,0.008-0.033,0.014-0.049
				c0.085-0.285,0.162-0.57,0.229-0.855c0.006-0.026,0.013-0.054,0.019-0.08c0.067-0.292,0.125-0.583,0.171-0.874
				c0.001-0.006,0.003-0.011,0.004-0.016c0.046-0.294,0.08-0.585,0.105-0.874c0.002-0.023,0.003-0.046,0.005-0.069
				c0.021-0.289,0.036-0.576,0.035-0.858c-0.001-0.282-0.015-0.552-0.039-0.813c-0.002-0.024-0.004-0.047-0.007-0.071
				c-0.025-0.239-0.059-0.47-0.102-0.691c-0.005-0.029-0.011-0.059-0.018-0.088c-0.044-0.215-0.099-0.419-0.159-0.616
				c-0.012-0.037-0.024-0.074-0.037-0.109c-0.062-0.186-0.131-0.365-0.209-0.535c-0.007-0.017-0.013-0.036-0.021-0.053
				c-0.09-0.191-0.19-0.371-0.299-0.54c-0.015-0.024-0.032-0.045-0.049-0.068c-0.089-0.133-0.184-0.259-0.285-0.376
				c-0.038-0.044-0.077-0.085-0.115-0.127c-0.089-0.096-0.183-0.186-0.278-0.27c-0.04-0.035-0.079-0.071-0.12-0.104
				c-0.138-0.11-0.281-0.211-0.431-0.299v0v0l1.036,0.602c0.151,0.087,0.293,0.189,0.43,0.299c0.042,0.033,0.082,0.069,0.121,0.104
				c0.097,0.085,0.19,0.174,0.278,0.27c0.039,0.042,0.077,0.083,0.115,0.126c0.1,0.118,0.195,0.243,0.285,0.376
				c0.017,0.024,0.034,0.045,0.05,0.07c0.003,0.005,0.008,0.01,0.011,0.016c0.102,0.16,0.195,0.33,0.28,0.509
				c0.002,0.005,0.003,0.01,0.008,0.016c0.008,0.017,0.013,0.036,0.021,0.053c0.052,0.115,0.103,0.231,0.149,0.354
				c0.021,0.058,0.039,0.121,0.06,0.181c0.012,0.036,0.025,0.072,0.036,0.109c0.011,0.034,0.024,0.067,0.033,0.102
				c0.037,0.123,0.07,0.249,0.099,0.379c0.01,0.044,0.018,0.091,0.028,0.137c0.006,0.029,0.012,0.059,0.018,0.087
				c0.009,0.047,0.02,0.092,0.027,0.139c0.02,0.116,0.038,0.233,0.052,0.354c0.009,0.066,0.014,0.134,0.022,0.2
				c0.002,0.024,0.004,0.047,0.006,0.071c0.002,0.029,0.007,0.056,0.009,0.086c0.011,0.114,0.017,0.23,0.021,0.349
				c0.006,0.117,0.008,0.236,0.009,0.357c0,0.008,0,0.015,0,0.021c0,0.11-0.001,0.222-0.005,0.333
				c-0.003,0.118-0.009,0.238-0.017,0.357c-0.003,0.056-0.009,0.111-0.013,0.167c-0.002,0.023-0.002,0.046-0.005,0.07
				c-0.003,0.041-0.005,0.083-0.01,0.123c-0.011,0.121-0.026,0.242-0.041,0.363c-0.014,0.124-0.032,0.248-0.053,0.373
				c-0.001,0.004-0.001,0.008-0.001,0.013c-0.001,0.006-0.002,0.011-0.003,0.017c-0.018,0.114-0.039,0.229-0.06,0.344
				c-0.025,0.128-0.05,0.257-0.079,0.387c-0.009,0.047-0.021,0.095-0.032,0.142c-0.007,0.026-0.014,0.054-0.02,0.081
				c-0.013,0.056-0.025,0.111-0.039,0.167c-0.033,0.13-0.067,0.262-0.104,0.394c-0.027,0.098-0.057,0.196-0.085,0.294
				c-0.006,0.018-0.011,0.034-0.015,0.05c-0.006,0.016-0.009,0.032-0.015,0.048c-0.038,0.128-0.079,0.256-0.122,0.384
				c-0.044,0.126-0.086,0.253-0.133,0.378c-0.009,0.025-0.019,0.05-0.028,0.074c-0.007,0.019-0.015,0.038-0.021,0.058
				c-0.03,0.078-0.058,0.155-0.088,0.232c-0.046,0.122-0.096,0.242-0.146,0.362c-0.036,0.088-0.073,0.176-0.113,0.263
				c-0.007,0.015-0.012,0.03-0.019,0.043c-0.006,0.017-0.013,0.032-0.021,0.048c-0.053,0.121-0.107,0.241-0.163,0.361
				c-0.062,0.131-0.125,0.261-0.19,0.392c-0.01,0.019-0.02,0.04-0.032,0.06c-0.013,0.025-0.027,0.051-0.039,0.077
				c-0.052,0.104-0.105,0.208-0.16,0.31c-0.068,0.128-0.141,0.255-0.214,0.381c-0.036,0.065-0.071,0.131-0.11,0.195
				c-0.016,0.026-0.028,0.052-0.043,0.077c-0.063,0.107-0.132,0.211-0.199,0.317c-0.102,0.164-0.201,0.328-0.307,0.489
				c-0.017,0.025-0.033,0.053-0.049,0.079c-0.144,0.214-0.293,0.426-0.445,0.633c-0.008,0.011-0.014,0.023-0.021,0.033
				c-0.003,0.001-0.003,0.003-0.004,0.004c-0.107,0.146-0.217,0.29-0.329,0.432c-0.089,0.112-0.178,0.224-0.271,0.333
				c-0.002,0.004-0.007,0.008-0.01,0.012c-0.002,0.002-0.004,0.005-0.005,0.008c-0.094,0.113-0.191,0.224-0.287,0.335
				c-0.096,0.108-0.192,0.215-0.29,0.32c-0.016,0.017-0.03,0.032-0.046,0.048c-0.017,0.018-0.031,0.035-0.048,0.052
				c-0.07,0.074-0.141,0.147-0.21,0.22c-0.103,0.104-0.207,0.208-0.313,0.309c-0.031,0.03-0.063,0.059-0.095,0.088
				c-0.025,0.023-0.047,0.045-0.071,0.068c-0.053,0.049-0.105,0.1-0.159,0.147c-0.108,0.098-0.219,0.194-0.33,0.288
				c-0.047,0.04-0.095,0.078-0.143,0.117c-0.026,0.021-0.05,0.04-0.075,0.061c-0.037,0.03-0.075,0.062-0.111,0.091
				c-0.107,0.085-0.216,0.168-0.326,0.249c-0.078,0.057-0.157,0.112-0.234,0.167c-0.016,0.01-0.031,0.021-0.045,0.031
				c-0.014,0.01-0.027,0.021-0.042,0.03c-0.104,0.072-0.209,0.141-0.314,0.208c-0.104,0.066-0.208,0.129-0.313,0.191
				c-0.023,0.014-0.048,0.028-0.073,0.043c-0.078,0.045-0.157,0.089-0.234,0.131c-0.032,0.016-0.061,0.031-0.091,0.046
				c-0.039,0.021-0.079,0.042-0.12,0.062c-0.03,0.016-0.062,0.033-0.093,0.048c-0.05,0.025-0.1,0.048-0.151,0.072
				c-0.035,0.017-0.07,0.034-0.106,0.05c-0.014,0.006-0.029,0.014-0.042,0.02c-0.1,0.044-0.199,0.087-0.296,0.126
				c0,0-0.001,0-0.003,0c-0.004,0.001-0.007,0.003-0.013,0.005c-0.094,0.038-0.189,0.073-0.283,0.107
				c-0.014,0.005-0.026,0.009-0.041,0.013c-0.035,0.013-0.072,0.023-0.108,0.036c-0.05,0.016-0.099,0.034-0.148,0.048
				c-0.025,0.008-0.051,0.014-0.077,0.021c-0.043,0.012-0.087,0.024-0.13,0.036c-0.033,0.008-0.066,0.019-0.099,0.027
				c-0.036,0.009-0.071,0.016-0.108,0.023c-0.043,0.011-0.086,0.02-0.129,0.029c-0.021,0.005-0.044,0.011-0.066,0.016
				c-0.042,0.007-0.083,0.013-0.124,0.02c-0.051,0.009-0.101,0.018-0.151,0.025c-0.016,0.003-0.034,0.006-0.05,0.009
				c-0.042,0.005-0.083,0.008-0.125,0.013c-0.055,0.005-0.107,0.012-0.16,0.016c-0.016,0.001-0.03,0.004-0.045,0.005
				c-0.037,0.003-0.073,0.002-0.109,0.003c-0.065,0.003-0.128,0.006-0.19,0.006c-0.017,0.001-0.035,0.002-0.05,0.002
				c-0.029-0.001-0.054-0.003-0.081-0.004c-0.08-0.002-0.158-0.005-0.235-0.012c-0.024-0.001-0.047-0.001-0.07-0.003
				c-0.018-0.001-0.034-0.005-0.051-0.006c-0.118-0.013-0.233-0.029-0.346-0.051c-0.01-0.002-0.021-0.003-0.033-0.005
				c-0.002,0-0.003-0.001-0.005-0.001c-0.163-0.033-0.32-0.078-0.474-0.129c-0.013-0.005-0.028-0.007-0.041-0.012
				c-0.011-0.004-0.022-0.009-0.033-0.013c-0.066-0.025-0.132-0.052-0.196-0.08c-0.033-0.014-0.066-0.026-0.098-0.04
				c-0.094-0.045-0.188-0.093-0.277-0.146l-1.036-0.602c0.09,0.052,0.184,0.101,0.277,0.145
				C42.904,144.991,42.936,145.003,42.967,145.017z"/>
		</g>
	</g>
	<g>
		<g>
			<path style="fill:#BDC3C7;" d="M38.87,140.494c0.002-0.054,0.005-0.108,0.007-0.161c0.003-0.064,0.004-0.129,0.009-0.193
				c0.003-0.05,0.009-0.101,0.011-0.152c0.005-0.057,0.008-0.115,0.014-0.172c0.003-0.038,0.005-0.074,0.009-0.112
				c0.008-0.085,0.019-0.17,0.028-0.255c0.006-0.047,0.009-0.093,0.016-0.139c0.002-0.016,0.003-0.031,0.004-0.046
				c0.021-0.149,0.042-0.299,0.065-0.45c0.001-0.005,0.002-0.009,0.002-0.013c0.005-0.026,0.009-0.052,0.015-0.077
				c0.019-0.121,0.039-0.242,0.062-0.364c0.004-0.023,0.01-0.047,0.015-0.072c0.011-0.06,0.025-0.12,0.036-0.181
				c0.016-0.071,0.03-0.144,0.044-0.214c0.009-0.043,0.021-0.085,0.031-0.128c0.015-0.065,0.029-0.131,0.045-0.196
				c0.01-0.049,0.022-0.099,0.034-0.147c0.015-0.063,0.033-0.126,0.05-0.189c0.017-0.064,0.033-0.129,0.05-0.195
				c0.009-0.031,0.017-0.062,0.025-0.093c0.025-0.09,0.052-0.18,0.079-0.27c0.016-0.054,0.031-0.108,0.047-0.162
				c0.003-0.015,0.008-0.029,0.012-0.045c0.048-0.155,0.097-0.31,0.15-0.465c0.001-0.003,0.002-0.005,0.003-0.008
				c0.006-0.023,0.015-0.045,0.023-0.067c0.043-0.128,0.087-0.256,0.132-0.384c0.009-0.022,0.018-0.045,0.026-0.068
				c0.021-0.053,0.041-0.106,0.06-0.159c0.027-0.072,0.052-0.143,0.081-0.214c0.019-0.048,0.038-0.097,0.057-0.144
				c0.023-0.058,0.047-0.115,0.068-0.172c0.017-0.04,0.033-0.081,0.05-0.122c0.035-0.084,0.072-0.168,0.109-0.253
				c0.019-0.044,0.037-0.087,0.057-0.132c0.006-0.015,0.012-0.03,0.019-0.045c0.064-0.146,0.13-0.291,0.198-0.436
				c0.003-0.006,0.007-0.012,0.01-0.02c0.021-0.043,0.042-0.084,0.061-0.127c0.052-0.109,0.106-0.22,0.16-0.329
				c0.009-0.018,0.019-0.035,0.027-0.053c0.044-0.09,0.093-0.179,0.139-0.269c0.038-0.073,0.075-0.146,0.113-0.218
				c0.008-0.014,0.016-0.026,0.022-0.04c0.125-0.233,0.255-0.465,0.389-0.693c0.012-0.02,0.021-0.04,0.034-0.059
				c0.012-0.022,0.027-0.042,0.039-0.064c0.193-0.324,0.393-0.643,0.601-0.956c0.011-0.017,0.021-0.036,0.031-0.053
				c0.02-0.028,0.041-0.055,0.06-0.083c0.166-0.246,0.333-0.488,0.509-0.726c0.001-0.001,0.001-0.001,0.002-0.002
				c0.016-0.021,0.032-0.042,0.048-0.063c0.109-0.146,0.219-0.292,0.331-0.435c0.006-0.009,0.012-0.018,0.019-0.025
				c0.087-0.11,0.174-0.217,0.262-0.324c0.027-0.032,0.052-0.065,0.079-0.097c0.002-0.003,0.003-0.005,0.004-0.007
				c0.116-0.138,0.231-0.273,0.348-0.407c0.006-0.006,0.01-0.011,0.015-0.017c0.034-0.039,0.068-0.076,0.103-0.114
				c0.077-0.086,0.154-0.173,0.233-0.257c0.012-0.015,0.026-0.028,0.039-0.042c0.051-0.055,0.102-0.107,0.153-0.16
				c0.059-0.061,0.116-0.123,0.176-0.184c0.019-0.021,0.041-0.041,0.061-0.061c0.056-0.056,0.111-0.11,0.167-0.165
				c0.05-0.049,0.099-0.1,0.15-0.148c0.027-0.026,0.055-0.05,0.081-0.076c0.061-0.058,0.123-0.114,0.183-0.171
				c0.044-0.04,0.087-0.081,0.132-0.121c0.031-0.029,0.064-0.057,0.097-0.086c0.062-0.055,0.125-0.109,0.186-0.163
				c0.038-0.033,0.076-0.068,0.115-0.101c0.04-0.033,0.08-0.064,0.121-0.098c0.06-0.05,0.121-0.1,0.182-0.149
				c0.032-0.026,0.064-0.053,0.097-0.079c0.05-0.04,0.102-0.077,0.152-0.116c0.057-0.043,0.113-0.087,0.17-0.129
				c0.024-0.019,0.047-0.037,0.07-0.054c0.069-0.051,0.138-0.098,0.207-0.146c0.048-0.035,0.097-0.071,0.146-0.104
				c0.013-0.009,0.025-0.018,0.038-0.028c0.126-0.085,0.253-0.169,0.38-0.251c0,0,0.002-0.001,0.003-0.001
				c0.008-0.005,0.015-0.01,0.022-0.015c0.118-0.074,0.235-0.146,0.354-0.215c0.029-0.017,0.059-0.034,0.088-0.051
				c0.094-0.055,0.189-0.107,0.284-0.16c0.036-0.019,0.073-0.037,0.108-0.056c0.05-0.025,0.097-0.051,0.146-0.075
				c0.036-0.019,0.074-0.041,0.111-0.059c0.062-0.03,0.124-0.058,0.184-0.086c0.042-0.02,0.086-0.042,0.128-0.061
				c0.017-0.007,0.034-0.017,0.052-0.024c0.12-0.055,0.239-0.104,0.358-0.152c0.001,0,0.001-0.001,0.002-0.001
				c0.005-0.002,0.009-0.004,0.016-0.006c0.116-0.046,0.229-0.089,0.343-0.129c0.017-0.006,0.034-0.01,0.05-0.016
				c0.043-0.015,0.087-0.028,0.131-0.042c0.06-0.02,0.119-0.041,0.179-0.059c0.032-0.01,0.063-0.017,0.094-0.026
				c0.053-0.016,0.106-0.03,0.158-0.043c0.041-0.011,0.081-0.024,0.119-0.033c0.044-0.011,0.088-0.019,0.131-0.029
				c0.053-0.011,0.105-0.023,0.158-0.035c0.025-0.005,0.052-0.012,0.08-0.018c0.049-0.009,0.1-0.016,0.149-0.025
				c0.061-0.01,0.122-0.021,0.182-0.03c0.021-0.003,0.042-0.007,0.061-0.01c0.052-0.008,0.102-0.01,0.153-0.016
				c0.065-0.007,0.129-0.015,0.193-0.019c0.019-0.002,0.036-0.004,0.055-0.006c0.045-0.003,0.086-0.003,0.13-0.005
				c0.078-0.004,0.155-0.006,0.232-0.007c0.02,0,0.041-0.002,0.061-0.002c0.033,0,0.064,0.003,0.098,0.004
				c0.095,0.003,0.191,0.006,0.284,0.014c0.029,0.002,0.058,0.002,0.085,0.004c0.022,0.002,0.042,0.006,0.063,0.008
				c0.142,0.016,0.28,0.035,0.417,0.062c0.013,0.002,0.026,0.003,0.039,0.005c0.004,0.001,0.008,0.002,0.013,0.003
				c0.029,0.006,0.059,0.015,0.09,0.022c0.083,0.018,0.166,0.038,0.247,0.061c0.042,0.012,0.083,0.025,0.122,0.038
				c0.054,0.017,0.107,0.032,0.159,0.05c0.014,0.005,0.025,0.012,0.04,0.016c0.08,0.03,0.158,0.063,0.236,0.097
				c0.039,0.017,0.078,0.031,0.116,0.049c0.115,0.054,0.228,0.112,0.337,0.175l1.037,0.602c-0.11-0.063-0.223-0.122-0.338-0.175
				c-0.037-0.018-0.077-0.033-0.114-0.049c-0.079-0.035-0.159-0.068-0.24-0.098c-0.064-0.023-0.129-0.045-0.196-0.066
				c-0.042-0.012-0.083-0.026-0.125-0.038c-0.08-0.023-0.163-0.043-0.247-0.061c-0.03-0.008-0.061-0.016-0.091-0.021
				c-0.017-0.004-0.035-0.006-0.051-0.01c-0.136-0.025-0.276-0.044-0.417-0.06c-0.049-0.004-0.097-0.009-0.147-0.013
				c-0.093-0.007-0.188-0.011-0.284-0.013c-0.054-0.001-0.107-0.003-0.161-0.002c-0.076,0-0.153,0.003-0.23,0.007
				c-0.061,0.003-0.123,0.005-0.186,0.01c-0.063,0.005-0.128,0.013-0.192,0.02c-0.072,0.008-0.143,0.015-0.213,0.025
				c-0.061,0.008-0.123,0.02-0.184,0.03c-0.076,0.014-0.153,0.027-0.23,0.043c-0.052,0.011-0.105,0.023-0.157,0.035
				c-0.083,0.02-0.165,0.04-0.249,0.062c-0.054,0.014-0.106,0.029-0.159,0.043c-0.089,0.026-0.18,0.055-0.271,0.085
				c-0.044,0.014-0.088,0.028-0.131,0.043c-0.131,0.045-0.261,0.093-0.393,0.145c-0.006,0.003-0.011,0.005-0.017,0.007
				c-0.136,0.055-0.274,0.115-0.412,0.178c-0.042,0.019-0.085,0.039-0.127,0.059c-0.099,0.046-0.196,0.094-0.296,0.145
				c-0.048,0.024-0.097,0.05-0.146,0.076c-0.129,0.069-0.261,0.139-0.392,0.215c-0.149,0.086-0.295,0.176-0.441,0.268
				c-0.008,0.005-0.016,0.009-0.023,0.015c-0.142,0.089-0.281,0.184-0.421,0.28c-0.048,0.033-0.097,0.068-0.145,0.103
				c-0.093,0.066-0.185,0.132-0.278,0.201c-0.057,0.042-0.113,0.087-0.17,0.13c-0.082,0.064-0.166,0.129-0.249,0.195
				c-0.062,0.049-0.122,0.098-0.182,0.148c-0.08,0.066-0.159,0.132-0.238,0.199c-0.061,0.053-0.122,0.107-0.185,0.162
				c-0.077,0.069-0.152,0.138-0.229,0.207c-0.062,0.058-0.123,0.113-0.184,0.17c-0.078,0.073-0.154,0.148-0.23,0.223
				c-0.056,0.055-0.112,0.11-0.167,0.166c-0.081,0.081-0.158,0.163-0.238,0.246c-0.049,0.053-0.101,0.105-0.152,0.159
				c-0.091,0.098-0.181,0.198-0.272,0.299c-0.035,0.039-0.069,0.076-0.103,0.115c-0.125,0.141-0.248,0.284-0.368,0.43
				c-0.027,0.031-0.052,0.064-0.078,0.096c-0.095,0.116-0.19,0.232-0.283,0.351c-0.11,0.141-0.219,0.284-0.326,0.428
				c-0.02,0.024-0.038,0.049-0.057,0.073c-0.174,0.237-0.343,0.479-0.508,0.725c-0.031,0.044-0.062,0.09-0.091,0.135
				c-0.208,0.313-0.408,0.632-0.601,0.957c-0.024,0.04-0.049,0.081-0.073,0.121c-0.135,0.23-0.265,0.46-0.389,0.694
				c-0.047,0.085-0.09,0.17-0.135,0.257c-0.047,0.089-0.094,0.179-0.139,0.27c-0.065,0.127-0.126,0.254-0.188,0.382
				c-0.021,0.042-0.042,0.084-0.062,0.127c-0.078,0.167-0.153,0.333-0.226,0.5c-0.02,0.045-0.039,0.089-0.058,0.133
				c-0.053,0.124-0.105,0.249-0.157,0.374c-0.023,0.057-0.046,0.115-0.069,0.172c-0.048,0.12-0.094,0.24-0.14,0.361
				c-0.019,0.052-0.039,0.103-0.057,0.155c-0.057,0.153-0.111,0.306-0.162,0.46c-0.008,0.02-0.015,0.039-0.021,0.058
				c-0.058,0.173-0.113,0.346-0.165,0.519c-0.017,0.054-0.032,0.11-0.049,0.165c-0.036,0.12-0.07,0.24-0.103,0.359
				c-0.018,0.066-0.034,0.131-0.052,0.198c-0.028,0.111-0.056,0.222-0.083,0.333c-0.015,0.066-0.031,0.131-0.045,0.197
				c-0.026,0.114-0.051,0.227-0.075,0.342c-0.011,0.06-0.023,0.121-0.036,0.181c-0.027,0.146-0.054,0.291-0.077,0.435
				c-0.004,0.025-0.01,0.052-0.015,0.077c-0.027,0.171-0.049,0.34-0.072,0.509c-0.003,0.047-0.009,0.093-0.015,0.14
				c-0.013,0.123-0.026,0.244-0.037,0.366c-0.006,0.058-0.009,0.116-0.014,0.173c-0.009,0.114-0.015,0.229-0.021,0.342
				c-0.003,0.055-0.005,0.109-0.007,0.164c-0.006,0.161-0.01,0.322-0.01,0.481c0.001,0.168,0.006,0.332,0.013,0.493
				c0.002,0.046,0.006,0.091,0.009,0.136c0.006,0.11,0.014,0.219,0.022,0.327c0.006,0.064,0.014,0.125,0.02,0.188
				c0.011,0.091,0.021,0.181,0.033,0.27c0.008,0.066,0.019,0.132,0.03,0.196c0.013,0.083,0.027,0.164,0.042,0.244
				c0.013,0.072,0.027,0.144,0.043,0.214c0.014,0.073,0.031,0.144,0.048,0.214c0.021,0.083,0.041,0.165,0.064,0.246
				c0.018,0.064,0.036,0.126,0.054,0.188c0.03,0.096,0.061,0.19,0.094,0.283c0.018,0.051,0.036,0.103,0.055,0.154
				c0.06,0.156,0.122,0.31,0.192,0.456c0.007,0.014,0.014,0.026,0.021,0.04c0.095,0.196,0.195,0.38,0.306,0.556
				c0.009,0.015,0.018,0.03,0.028,0.046c0.09,0.144,0.19,0.279,0.292,0.408c0.024,0.031,0.05,0.061,0.074,0.091
				c0.099,0.119,0.201,0.233,0.309,0.339c0.009,0.009,0.018,0.019,0.026,0.028c0.115,0.111,0.238,0.215,0.362,0.312
				c0.03,0.024,0.061,0.047,0.092,0.069c0.128,0.095,0.259,0.185,0.396,0.265h-0.001h0.001l-1.036-0.602
				c-0.137-0.081-0.267-0.171-0.396-0.265c-0.032-0.022-0.063-0.045-0.093-0.069c-0.125-0.097-0.246-0.201-0.362-0.313
				c-0.008-0.009-0.016-0.019-0.025-0.028c-0.108-0.107-0.21-0.22-0.31-0.339c-0.023-0.03-0.049-0.061-0.073-0.091
				c-0.102-0.13-0.201-0.265-0.293-0.408c-0.003-0.005-0.006-0.009-0.01-0.014c-0.007-0.01-0.012-0.022-0.018-0.033
				c-0.111-0.175-0.213-0.36-0.307-0.555c-0.004-0.01-0.011-0.018-0.014-0.027c-0.003-0.004-0.005-0.008-0.006-0.013
				c-0.069-0.146-0.133-0.299-0.193-0.456c-0.005-0.014-0.012-0.027-0.017-0.041c-0.013-0.036-0.023-0.075-0.038-0.112
				c-0.033-0.092-0.064-0.186-0.094-0.283c-0.008-0.026-0.018-0.051-0.025-0.078c-0.011-0.036-0.019-0.073-0.029-0.11
				c-0.022-0.081-0.043-0.162-0.065-0.245c-0.008-0.035-0.018-0.068-0.027-0.102c-0.007-0.037-0.015-0.076-0.022-0.113
				c-0.015-0.07-0.029-0.142-0.043-0.214c-0.005-0.038-0.016-0.075-0.021-0.113c-0.007-0.043-0.013-0.087-0.021-0.131
				c-0.01-0.065-0.02-0.129-0.029-0.195c-0.005-0.034-0.01-0.066-0.015-0.101c-0.008-0.056-0.011-0.114-0.018-0.17
				c-0.007-0.062-0.013-0.123-0.019-0.185c-0.002-0.026-0.007-0.051-0.008-0.077c-0.008-0.083-0.011-0.169-0.017-0.253
				c-0.002-0.045-0.005-0.088-0.007-0.134c0-0.011-0.002-0.022-0.002-0.035c-0.006-0.141-0.009-0.285-0.01-0.432
				c0-0.008,0-0.017,0-0.025c-0.001-0.134,0.001-0.269,0.005-0.404C38.868,140.547,38.869,140.52,38.87,140.494z"/>
		</g>
	</g>
	<g>
		<g>
			<defs>
				<path id="SVGID_1_" d="M39.896,141.578c0.017,5.697,4.065,8.004,9.024,5.14c4.957-2.861,8.98-9.828,8.963-15.523
					c-0.016-5.699-4.063-8.005-9.021-5.144C43.902,128.914,39.88,135.88,39.896,141.578z M41.461,140.675
					c-0.013-4.706,3.308-10.462,7.405-12.827c4.096-2.365,7.438-0.457,7.452,4.249c0.013,4.706-3.306,10.457-7.403,12.823
					C44.82,147.285,41.475,145.382,41.461,140.675z"/>
			</defs>
			<clipPath id="SVGID_00000079456365375979207500000017447577761216524689_">
				<use xlink:href="#SVGID_1_"  style="overflow:visible;"/>
			</clipPath>
			<g style="clip-path:url(#SVGID_00000079456365375979207500000017447577761216524689_);">
				<rect x="55.988" y="125.484" style="fill:#FEFEFE;" width="0.342" height="21.801"/>
			</g>
			<g style="clip-path:url(#SVGID_00000079456365375979207500000017447577761216524689_);">
				<rect x="55.043" y="125.484" style="fill:#FDFDFD;" width="0.945" height="21.801"/>
			</g>
			<g style="clip-path:url(#SVGID_00000079456365375979207500000017447577761216524689_);">
				<rect x="54.097" y="125.484" style="fill:#FCFDFD;" width="0.946" height="21.801"/>
			</g>
			<g style="clip-path:url(#SVGID_00000079456365375979207500000017447577761216524689_);">
				<rect x="53.149" y="125.484" style="fill:#FBFCFC;" width="0.948" height="21.801"/>
			</g>
			<g style="clip-path:url(#SVGID_00000079456365375979207500000017447577761216524689_);">
				<rect x="52.203" y="125.484" style="fill:#FAFBFB;" width="0.946" height="21.801"/>
			</g>
			<g style="clip-path:url(#SVGID_00000079456365375979207500000017447577761216524689_);">
				<rect x="51.255" y="125.484" style="fill:#F9FAFA;" width="0.948" height="21.801"/>
			</g>
			<g style="clip-path:url(#SVGID_00000079456365375979207500000017447577761216524689_);">
				<rect x="50.309" y="125.484" style="fill:#F8F9FA;" width="0.946" height="21.801"/>
			</g>
			<g style="clip-path:url(#SVGID_00000079456365375979207500000017447577761216524689_);">
				<rect x="49.363" y="125.484" style="fill:#F7F8F9;" width="0.946" height="21.801"/>
			</g>
			<g style="clip-path:url(#SVGID_00000079456365375979207500000017447577761216524689_);">
				<rect x="48.415" y="125.484" style="fill:#F6F8F8;" width="0.948" height="21.801"/>
			</g>
			<g style="clip-path:url(#SVGID_00000079456365375979207500000017447577761216524689_);">
				<rect x="47.469" y="125.484" style="fill:#F4F7F7;" width="0.946" height="21.801"/>
			</g>
			<g style="clip-path:url(#SVGID_00000079456365375979207500000017447577761216524689_);">
				<rect x="46.523" y="125.484" style="fill:#F3F6F6;" width="0.945" height="21.801"/>
			</g>
			<g style="clip-path:url(#SVGID_00000079456365375979207500000017447577761216524689_);">
				<rect x="45.576" y="125.484" style="fill:#F2F5F6;" width="0.948" height="21.801"/>
			</g>
			<g style="clip-path:url(#SVGID_00000079456365375979207500000017447577761216524689_);">
				<rect x="44.629" y="125.484" style="fill:#F1F4F5;" width="0.946" height="21.801"/>
			</g>
			<g style="clip-path:url(#SVGID_00000079456365375979207500000017447577761216524689_);">
				<rect x="43.682" y="125.484" style="fill:#F0F3F4;" width="0.947" height="21.801"/>
			</g>
			<g style="clip-path:url(#SVGID_00000079456365375979207500000017447577761216524689_);">
				<rect x="42.735" y="125.484" style="fill:#EFF3F3;" width="0.947" height="21.801"/>
			</g>
			<g style="clip-path:url(#SVGID_00000079456365375979207500000017447577761216524689_);">
				<rect x="41.79" y="125.484" style="fill:#EEF2F3;" width="0.946" height="21.801"/>
			</g>
			<g style="clip-path:url(#SVGID_00000079456365375979207500000017447577761216524689_);">
				<rect x="41.448" y="125.484" style="fill:#EDF1F2;" width="0.341" height="21.801"/>
			</g>
			<g style="clip-path:url(#SVGID_00000079456365375979207500000017447577761216524689_);">
				<rect x="57.882" y="123.189" style="fill:#FFFFFF;" width="0.017" height="26.393"/>
			</g>
			<g style="clip-path:url(#SVGID_00000079456365375979207500000017447577761216524689_);">
				<rect x="56.936" y="123.189" style="fill:#FFFFFF;" width="0.947" height="26.393"/>
			</g>
			<g style="clip-path:url(#SVGID_00000079456365375979207500000017447577761216524689_);">
				<rect x="55.988" y="123.189" style="fill:#FEFEFE;" width="0.947" height="26.393"/>
			</g>
			<g style="clip-path:url(#SVGID_00000079456365375979207500000017447577761216524689_);">
				<rect x="55.043" y="123.189" style="fill:#FDFDFD;" width="0.945" height="26.393"/>
			</g>
			<g style="clip-path:url(#SVGID_00000079456365375979207500000017447577761216524689_);">
				<rect x="54.097" y="123.189" style="fill:#FCFDFD;" width="0.946" height="26.393"/>
			</g>
			<g style="clip-path:url(#SVGID_00000079456365375979207500000017447577761216524689_);">
				<rect x="53.149" y="123.189" style="fill:#FBFCFC;" width="0.948" height="26.393"/>
			</g>
			<g style="clip-path:url(#SVGID_00000079456365375979207500000017447577761216524689_);">
				<rect x="52.203" y="123.189" style="fill:#FAFBFB;" width="0.946" height="26.393"/>
			</g>
			<g style="clip-path:url(#SVGID_00000079456365375979207500000017447577761216524689_);">
				<rect x="51.255" y="123.189" style="fill:#F9FAFA;" width="0.948" height="26.393"/>
			</g>
			<g style="clip-path:url(#SVGID_00000079456365375979207500000017447577761216524689_);">
				<rect x="50.309" y="123.189" style="fill:#F8F9FA;" width="0.946" height="26.393"/>
			</g>
			<g style="clip-path:url(#SVGID_00000079456365375979207500000017447577761216524689_);">
				<rect x="49.363" y="123.189" style="fill:#F7F8F9;" width="0.946" height="26.393"/>
			</g>
			<g style="clip-path:url(#SVGID_00000079456365375979207500000017447577761216524689_);">
				<rect x="48.415" y="123.189" style="fill:#F6F8F8;" width="0.948" height="26.393"/>
			</g>
			<g style="clip-path:url(#SVGID_00000079456365375979207500000017447577761216524689_);">
				<rect x="47.469" y="123.189" style="fill:#F4F7F7;" width="0.946" height="26.393"/>
			</g>
			<g style="clip-path:url(#SVGID_00000079456365375979207500000017447577761216524689_);">
				<rect x="46.523" y="123.189" style="fill:#F3F6F6;" width="0.945" height="26.393"/>
			</g>
			<g style="clip-path:url(#SVGID_00000079456365375979207500000017447577761216524689_);">
				<rect x="45.576" y="123.189" style="fill:#F2F5F6;" width="0.948" height="26.393"/>
			</g>
			<g style="clip-path:url(#SVGID_00000079456365375979207500000017447577761216524689_);">
				<rect x="44.629" y="123.189" style="fill:#F1F4F5;" width="0.946" height="26.393"/>
			</g>
			<g style="clip-path:url(#SVGID_00000079456365375979207500000017447577761216524689_);">
				<rect x="43.682" y="123.189" style="fill:#F0F3F4;" width="0.947" height="26.393"/>
			</g>
			<g style="clip-path:url(#SVGID_00000079456365375979207500000017447577761216524689_);">
				<rect x="42.735" y="123.189" style="fill:#EFF3F3;" width="0.947" height="26.393"/>
			</g>
			<g style="clip-path:url(#SVGID_00000079456365375979207500000017447577761216524689_);">
				<rect x="41.79" y="123.189" style="fill:#EEF2F3;" width="0.946" height="26.393"/>
			</g>
			<g style="clip-path:url(#SVGID_00000079456365375979207500000017447577761216524689_);">
				<rect x="40.842" y="123.189" style="fill:#EDF1F2;" width="0.947" height="26.393"/>
			</g>
			<g style="clip-path:url(#SVGID_00000079456365375979207500000017447577761216524689_);">
				<rect x="39.896" y="123.189" style="fill:#ECF0F1;" width="0.947" height="26.393"/>
			</g>
			<g style="clip-path:url(#SVGID_00000079456365375979207500000017447577761216524689_);">
				<rect x="39.88" y="123.189" style="fill:#ECF0F1;" width="0.015" height="26.393"/>
			</g>
		</g>
	</g>
</g>
<g>
	<g>
		<polygon style="fill:#D3DB8D;" points="201.851,302.241 147.874,333.403 218.707,373.089 272.684,341.927 		"/>
	</g>
</g>
<g>
	<g>
		<g>
			<g>
				<path style="fill:#231F20;" d="M365.481,323.639L365.481,323.639v-60.822h3.197v60.822l0,0c0,0.502-0.713,0.912-1.596,0.915
					c-0.884,0.006-1.601-0.398-1.602-0.906C365.481,323.646,365.481,323.639,365.481,323.639z"/>
			</g>
		</g>
		<g>
			<g>
				<path style="fill:#231F20;" d="M397.763,305.056L397.763,305.056v-48.79h3.193v48.79l0,0c0,0.504-0.713,0.914-1.59,0.915
					c-0.887,0.007-1.601-0.401-1.603-0.905C397.763,305.063,397.763,305.06,397.763,305.056z"/>
			</g>
		</g>
		<g>
			<g>
				<path style="fill:#231F20;" d="M295.643,284.348L295.643,284.348v-47.766h3.196v47.766l0,0c0,0.502-0.712,0.912-1.596,0.915
					c-0.883,0.006-1.6-0.398-1.601-0.906C295.643,284.354,295.643,284.348,295.643,284.348z"/>
			</g>
		</g>
		<g>
			<g>
				<path style="fill:#231F20;" d="M327.923,263.756L327.923,263.756v-48.79h3.194v48.79l0,0c0,0.504-0.713,0.913-1.59,0.914
					c-0.888,0.008-1.602-0.4-1.604-0.905C327.923,263.762,327.923,263.76,327.923,263.756z"/>
			</g>
		</g>
		<g>
			<g>
				<g>
					<g>
						<polygon style="fill:#E3E3E3;" points="367.241,283.141 291.198,239.025 291.198,235.761 332.6,211.859 408.643,255.976 
							408.643,259.24 						"/>
					</g>
				</g>
				<g>
					<g>
						<polygon style="fill:#FFFFFF;" points="367.257,279.885 291.212,235.767 332.612,211.863 408.657,255.982 						"/>
					</g>
				</g>
				<g>
					<g>
						<g>
							<path style="fill:#D2F7FF;" d="M339.374,255.321c0,0,5.332,2.957,7.724,5.327l11.992-6.935c0,0-6.835-5.997-8.011-5.244
								L339.374,255.321z"/>
						</g>
					</g>
				</g>
				<g>
					<path d="M359.77,257.026c0.079,0.123,0.093,0.288,0.024,0.431c-0.106,0.218-0.37,0.306-0.586,0.202l-7.064-3.429
						c-0.217-0.105-0.308-0.369-0.201-0.585c0.105-0.22,0.367-0.311,0.586-0.207l7.063,3.431
						C359.666,256.905,359.727,256.961,359.77,257.026z"/>
				</g>
			</g>
		</g>
	</g>
</g>
<g>
	<g style="enable-background:new    ;">
		<g>
			<g>
				<g>
					<polygon style="fill:#F1F1F1;" points="333.355,242.678 346.578,235.096 346.578,237.965 333.355,245.552 					"/>
				</g>
			</g>
		</g>
		<g>
			<g>
				<g>
					<polygon style="fill:#F1F1F1;" points="333.355,245.552 346.578,237.965 355.376,243.011 342.15,250.594 					"/>
				</g>
			</g>
		</g>
		<g>
			<g>
				<g>
					<polygon style="fill:#962F25;" points="342.289,247.548 355.512,239.963 355.512,243.348 342.289,250.933 					"/>
				</g>
			</g>
		</g>
		<g>
			<g>
				<g>
					<polygon style="fill:#DD4225;" points="333.216,242.345 346.44,234.761 355.512,239.963 342.289,247.548 					"/>
				</g>
			</g>
		</g>
		<g>
			<g>
				<g>
					<polygon style="fill:#C7C5C3;" points="333.216,245.469 333.462,245.329 333.462,245.61 					"/>
				</g>
			</g>
			<g>
				<g>
					<polygon style="fill:#DD4225;" points="333.355,242.681 333.355,242.678 342.15,247.725 342.15,250.594 333.355,245.552 
						333.355,245.55 333.216,245.469 333.216,245.727 342.289,250.933 342.289,247.548 333.216,242.345 333.216,242.598 					"/>
				</g>
			</g>
			<g>
				<g>
					<polygon style="fill:#F1F1F1;" points="333.609,242.826 333.355,242.681 333.355,245.55 333.653,245.722 333.355,245.55 
						333.355,245.552 342.15,250.594 342.15,247.725 333.355,242.678 333.355,242.681 					"/>
				</g>
			</g>
			<g>
				<g>
					<g>
						<g>
							<path style="fill:#F1F1F1;" d="M344.794,246.885v1.999c0,0.063-0.047,0.143-0.103,0.173c-0.055,0.034-0.1,0.008-0.1-0.055
								V247c0-0.064,0.045-0.142,0.1-0.175C344.747,246.793,344.794,246.821,344.794,246.885z"/>
						</g>
					</g>
				</g>
				<g>
					<g>
						<g>
							<path style="fill:#F1F1F1;" d="M344.256,247.193v2.001c0,0.065-0.044,0.144-0.099,0.176c-0.058,0.03-0.101,0.004-0.101-0.062
								v-1.998c0-0.065,0.043-0.143,0.101-0.176C344.212,247.104,344.256,247.13,344.256,247.193z"/>
						</g>
					</g>
				</g>
				<g>
					<g>
						<g>
							<path style="fill:#F1F1F1;" d="M343.718,247.501v2.002c0,0.064-0.044,0.144-0.099,0.177
								c-0.057,0.031-0.102,0.003-0.102-0.061v-1.999c0-0.064,0.045-0.143,0.102-0.175
								C343.674,247.413,343.718,247.439,343.718,247.501z"/>
						</g>
					</g>
				</g>
				<g>
					<g>
						<g>
							<path style="fill:#F1F1F1;" d="M343.182,247.814v2.001c0,0.064-0.044,0.142-0.1,0.175c-0.055,0.03-0.101,0.004-0.101-0.059
								v-2.001c0-0.064,0.046-0.144,0.101-0.176C343.138,247.722,343.182,247.749,343.182,247.814z"/>
						</g>
					</g>
				</g>
			</g>
		</g>
	</g>
</g>
<g>
	<g>
		<g>
			<polygon style="fill:#454A71;" points="367.458,253.367 388.083,265.273 389.053,265.001 393.94,248.459 373.176,236.521 
				372.293,236.673 			"/>
		</g>
		<g>
			<polygon style="fill:#676F95;" points="367.458,253.367 388.083,265.273 392.917,248.581 372.293,236.673 			"/>
		</g>
		<g>
			<polygon style="fill:#082263;" points="392.02,248.942 372.754,237.818 368.356,253.007 387.622,264.131 			"/>
		</g>
		<g>
			<polygon style="fill:#08A6DE;" points="387.622,264.131 368.356,253.007 368.715,251.769 387.981,262.89 			"/>
		</g>
		<g>
			<polygon style="fill:#CED3E0;" points="382.945,244.681 373.161,239.03 370.928,246.745 380.711,252.394 			"/>
		</g>
		<g>
			<polygon style="fill:#F7941E;" points="378.168,250.364 373.079,247.425 371.918,251.436 377.007,254.373 			"/>
		</g>
		<g>
			<polygon style="fill:#4BE0FF;" points="390.052,249.061 391.029,249.628 390.66,250.899 389.682,250.334 			"/>
		</g>
		<g>
			<polygon style="fill:#49A9FF;" points="389.478,250.848 390.457,251.415 390.089,252.685 389.109,252.122 			"/>
		</g>
		<g>
			<polygon style="fill:#6B7BA1;" points="384.43,256.947 380.7,254.794 382.89,247.238 386.618,249.392 			"/>
		</g>
		<g>
			<polygon style="fill:#00AEEF;" points="389.165,255.19 387.049,262.496 385.071,261.355 387.188,254.051 			"/>
		</g>
	</g>
	<g>
		<g>
			<polygon style="fill:#454A71;" points="373.038,275.075 352.414,263.167 352.414,261.983 367.418,253.322 388.042,265.229 
				388.042,266.413 			"/>
		</g>
		<g>
			<polygon style="fill:#676F95;" points="373.038,273.892 352.414,261.983 367.418,253.322 388.042,265.229 			"/>
		</g>
		<g>
			<polygon style="fill:#454A71;" points="386.259,265.305 379.038,269.475 359.914,258.434 367.135,254.265 			"/>
		</g>
		<g>
			<polygon style="fill:#454A71;" points="367.973,269.08 362.47,265.904 366.893,263.35 372.398,266.528 			"/>
		</g>
	</g>
</g>
<g>
	<g>
		<g>
			<polygon style="fill:#DB9645;" points="219.124,60.176 219.124,200.744 223.36,203.192 223.478,57.659 			"/>
		</g>
		<g>
			<polygon style="fill:#B58143;" points="228.665,59.561 228.665,200.129 223.36,203.192 223.36,62.624 			"/>
		</g>
		<g>
			<polygon style="fill:#D6A15C;" points="223.36,62.624 228.665,59.561 224.427,57.112 219.124,60.176 			"/>
		</g>
	</g>
	<g>
		<g>
			<polygon style="fill:#DB9645;" points="275.786,89.896 228.665,62.893 224.427,65.338 275.788,94.926 			"/>
		</g>
		<g>
			<polygon style="fill:#B58143;" points="271.549,98.467 224.427,71.462 224.427,65.338 271.549,92.345 			"/>
		</g>
		<g>
			<polygon style="fill:#D6A15C;" points="271.549,92.345 271.549,98.467 275.79,96.019 275.786,89.896 			"/>
		</g>
	</g>
	<g>
		<g>
			<polygon style="fill:#DB9645;" points="114.887,122.15 218.957,61.99 223.193,64.437 114.887,127.18 			"/>
		</g>
		<g>
			<polygon style="fill:#B58143;" points="119.123,130.72 223.19,70.56 223.193,64.437 119.123,124.596 			"/>
		</g>
		<g>
			<polygon style="fill:#D6A15C;" points="119.123,124.596 119.123,130.72 114.887,128.273 114.887,122.15 			"/>
		</g>
	</g>
	<g>
		<g>
			<polygon style="fill:#DB9645;" points="114.887,212.509 218.957,152.349 223.193,154.797 114.887,217.54 			"/>
		</g>
		<g>
			<polygon style="fill:#B58143;" points="119.123,221.08 223.19,160.92 223.193,154.797 119.123,214.956 			"/>
		</g>
		<g>
			<polygon style="fill:#D6A15C;" points="119.123,214.956 119.123,221.08 114.887,218.631 114.887,212.509 			"/>
		</g>
	</g>
	<g>
		<g>
			<polygon style="fill:#DB9645;" points="271.492,90.323 271.492,230.892 275.731,233.339 275.849,87.807 			"/>
		</g>
		<g>
			<polygon style="fill:#B58143;" points="281.031,89.709 281.031,230.276 275.731,233.339 275.731,92.771 			"/>
		</g>
		<g>
			<polygon style="fill:#D6A15C;" points="275.731,92.771 281.031,89.709 276.79,87.26 271.492,90.323 			"/>
		</g>
	</g>
	<g>
		<g>
			<polygon style="fill:#DB9645;" points="112.221,121.628 112.221,262.198 116.457,264.645 116.579,119.111 			"/>
		</g>
		<g>
			<polygon style="fill:#B58143;" points="121.763,121.012 121.763,261.584 116.457,264.645 116.457,124.076 			"/>
		</g>
		<g>
			<polygon style="fill:#D6A15C;" points="116.457,124.076 121.763,121.012 117.521,118.565 112.221,121.628 			"/>
		</g>
	</g>
	<g>
		<g>
			<polygon style="fill:#B58143;" points="112.184,228.965 112.184,242.168 169.622,275.012 169.622,261.803 			"/>
		</g>
		<g>
			<polygon style="fill:#B58143;" points="275.345,200.725 275.345,213.933 169.622,275.012 169.622,261.81 			"/>
		</g>
		<g>
			<polygon style="fill:#D6A15C;" points="169.622,261.803 275.345,200.725 217.899,167.882 112.184,228.965 			"/>
		</g>
	</g>
	<g>
		<polygon style="fill:#FFFFFF;" points="267.18,200.917 216.695,172.035 119.141,228.4 169.62,257.277 		"/>
	</g>
	<g>
		<path style="fill:#FFFFFF;" d="M267.18,200.917c0,0-1.79-5.749-10.824-10.963c-9.031-5.217-36.141-22.299-43.989-21.468
			c-7.85,0.833-90.527,48.642-93.226,53.869c-2.698,5.222,0,6.045,0,6.045L267.18,200.917z"/>
	</g>
	<g>
		<g>
			<polygon style="fill:#B58143;" points="112.184,135.47 112.184,148.675 169.622,181.517 169.622,168.308 			"/>
		</g>
		<g>
			<polygon style="fill:#DB9645;" points="112.221,121.628 112.221,262.198 116.457,264.645 116.579,119.111 			"/>
		</g>
		<g>
			<polygon style="fill:#B58143;" points="275.345,107.23 275.345,120.438 169.622,181.517 169.622,168.315 			"/>
		</g>
		<g>
			<polygon style="fill:#D6A15C;" points="169.622,168.308 275.345,107.23 217.899,74.387 112.184,135.47 			"/>
		</g>
		<g>
			<polygon style="fill:#DB9645;" points="112.221,121.628 112.221,262.198 116.457,264.645 116.579,119.111 			"/>
		</g>
	</g>
	<g>
		<polygon style="fill:#FFFFFF;" points="267.18,107.421 216.695,78.54 119.141,134.907 169.62,163.783 		"/>
	</g>
	<g>
		<path style="fill:#FFFFFF;" d="M267.18,107.421c0,0-1.79-5.748-10.824-10.961c-9.031-5.217-36.141-22.3-43.989-21.469
			c-7.85,0.832-90.527,48.642-93.226,53.868c-2.698,5.225,0,6.048,0,6.048L267.18,107.421z"/>
	</g>
	<g>
		<path style="fill:#B3EFFF;" d="M244.813,179.522c0,0-20.562-14.73-25.373-13.633c-4.812,1.094-11.697,8.376-14.399,12.95
			c-2.701,4.573,19.95,16.945,26.056,18.305C237.202,198.504,249.011,182.422,244.813,179.522z"/>
	</g>
	<g>
		<path style="fill:#381806;" d="M222.482,169.588c0,0-0.153,3.871-2.297,5.329c-2.144,1.455-1.957,2.944-4.305,3.309
			c-2.347,0.364-3.783,0.697-3.601,1.02c0.181,0.326-3.874-1.129-2.827-4.194c0.489-1.438,8.352-1.72,12.817-6.35L222.482,169.588z"
			/>
	</g>
	<g>
		<g>
			<g>
				<g>
					<g>
						<path style="fill:#08273A;" d="M199.166,195.586c0,0-0.564,2.566-0.398,7.668c0.182,5.719-0.373,14.979-0.27,15.92
							c0.187,1.715-2.208,3.414-4.553,1.998c-2.344-1.415-5.042-31.168-3.498-32.7C191.991,186.941,196.797,191.777,199.166,195.586
							z"/>
					</g>
					<g>
						<path style="fill:#F7C28D;" d="M176.773,224.995c-1.216-1.632-2.493-1.696-3.461-0.528c-0.711,0.857-1.191,2.703-1.698,3.424
							c-0.84,1.179-1.977,0.814-2.495,2.316c-0.35,1.02-1.325,3.758-0.682,4.648c0.394,0.535,3.52-1.474,3.887-2.098
							c1.014-1.712,1.894-1.957,2.789-2.938c0.497-0.546,1.394-1.591,2.567-2.05L176.773,224.995z"/>
					</g>
					<g>
						<path style="fill:#FFC999;" d="M170.836,224.892c-2.285,1.624-4.501,1.648-4.908,2.434c-0.61,1.161,0.071,3.287-0.062,4.522
							c-0.153,1.438-1.33,1.674-1.053,3.237c0.193,1.061,2.102,4.167,3.224,3.99c0.654-0.101,0.807-2.599,0.828-3.323
							c0.048-1.991,0.69-2.631,0.997-3.925c0.17-0.715,0.252-2.141,1.201-2.858L170.836,224.892z"/>
					</g>
					<g>
						<path style="fill:#08273A;" d="M195.614,215.901c0,0-1.429,1.374-3.058,1.306c-1.628-0.068-5.15,1.274-5.821,1.73
							c-2.188,1.483-8.113,5.271-9.743,5.581c-1.636,0.318-1.73,0.432-1.823,1.367c-0.16,1.664,0.723,2.7,1.338,2.342
							c0.618-0.36,7.006-2.414,9.564-2.964c3.68-0.789,9.044-2.905,10.534-3.691L195.614,215.901z"/>
					</g>
					<g>
						<path style="fill:#084373;" d="M194.696,189.018c0,0-3.631,10.247-5.091,18.709c-0.731,4.263-1.556,7.646-1.686,8.205
							c-0.392,1.678-3.22,2.479-4.955,0.363c-1.737-2.12-1.337-23.617,0.769-28.009
							C187.052,181.364,193.688,180.513,194.696,189.018z"/>
					</g>
					<g>
						<path style="fill:#084373;" d="M185.173,211.636c0,0-0.944,1.739-2.514,2.171c-1.576,0.425-4.523,2.772-5.026,3.413
							c-1.637,2.076-6.131,7.474-7.595,8.272c-1.465,0.795-1.959,1.711-1.615,2.592c0.475,1.207,1.799,1.613,2.279,1.083
							c0.481-0.525,5.943-4.42,8.217-5.716c3.264-1.863,7.602-6.586,8.301-6.347L185.173,211.636z"/>
					</g>
					<g>
						<path d="M211.478,172.931c1.774-0.275,2.374,2.819,3.677,3.862c1.526,1.221,2.535,3.239,3.447,4.983
							c0.284,0.537,0.609,1.233,0.672,1.831c0.141,1.241-3.482,4.042-4.333,5.884c-0.669,1.46-2.267,2.44-6.242,2.181
							c-7.402-0.477-7.623,1.889-8.926,3.428c-3.52,4.158-13.572-11.421-9.67-12.43c4.361-1.128,7.145-1.009,9.901-2.486
							C204.604,177.721,209.779,173.196,211.478,172.931z"/>
					</g>
					<g>
						<g>
							<path style="fill:#F7C28D;" d="M217.579,186.311c1.33-2.287,1.365-3.514,1.324-3.917c0.176,0.397,0.328,0.826,0.371,1.212
								C219.336,184.173,218.543,185.194,217.579,186.311L217.579,186.311z"/>
						</g>
						<g>
							<path style="fill:#F7C28D;" d="M214.169,179.375c0.136-0.339-0.063-2.96,0.208-3.486c0.925,0.522,0.707,1.628,3.453,0.403
								c1.526-0.683-1.301,2.072,0.369,4.716c-0.278,1.068-2.454,2.383-2.454,2.383S213.924,179.989,214.169,179.375z"/>
						</g>
					</g>
					<g>
						<path style="fill:#F7C28D;" d="M213.559,182.093c0.094-0.774,0.988-3.871,0.818-6.204c0,0,0.778,0.974,1.39,1.465
							c0.496,0.398,1.952,2.503,1.267,4.583C216.409,183.836,213.263,184.57,213.559,182.093z"/>
					</g>
					<g>
						<path style="fill:#F7C28D;" d="M219.609,178.629c-0.238,0.299-0.079,0.877-0.487,1.058c-0.613,0.273-1.607,1.305-2.13,1.706
							c-0.512,0.389-1.243-0.171-1.854-0.326c-1.032-0.263-0.887-1.378-0.617-2.28c0.475-1.583,1.246-1.435,2.697-2.248
							c0.448-0.252,1.279-0.742,1.747-0.591c1.354,0.439,0.369,2.824-0.008,3.486L219.609,178.629z"/>
					</g>
					<g>
						<g>
							<path style="fill:#FFC999;" d="M226.977,169.23c2.366,0.068,2.816,3.02,3.692,5.211c0.885,2.222,0.404,3.34-3.347,5.607
								c-0.187,0.116-1.989,0.675-3.343,1.54c-1.011,0.646-2.674,0.442-3.838,0.601c-0.698,0.094-0.859,0.193-1.294-0.426
								c-0.385-0.547-0.596-1.252-0.702-1.887c-0.199-1.225-0.564-2.604-0.164-3.792c0.436-1.293,1.634-2.087,2.616-2.889
								C222.228,171.859,224.758,169.17,226.977,169.23z"/>
						</g>
						<g>
							<g>
								<path style="fill:#381806;" d="M230.654,177.591c2.277-3.712,0.1-6.695-1.069-8.03c-1.338-1.53-3.809-1.914-5.709-1.522
									c-2.078,0.43-3.401,2.106-4.029,4.035c-0.167,0.504-0.293,1.042-0.409,1.558c-0.083,0.357-0.368,0.895-0.572,1.195
									c1.41-0.929,5.025-3.669,8.112-2.849c-0.028,0.102-0.191,1.111,0.239,2.039c0.332,0.712,0.953,1.126,1.411,1.741
									c0.345,0.466,0.543,1.008,0.622,1.583c0.105,0.78-0.091,1.417-0.085,1.498C229.593,178.868,230.454,177.915,230.654,177.591
									z"/>
							</g>
						</g>
						<g>
							<path style="fill:#FFC999;" d="M220.836,173.683c-0.45,0.734-1.071,1.17-1.384,0.978c-0.311-0.191-0.203-0.942,0.25-1.678
								c0.453-0.732,1.072-1.172,1.388-0.978C221.401,172.196,221.29,172.946,220.836,173.683z"/>
						</g>
					</g>
				</g>
			</g>
		</g>
	</g>
	<g>
		<path style="fill:#B3EFFF;" d="M202.406,178.226c0,0,8.355-0.077,11.919,11.771c3.567,11.846,11.46,10.012,15.694,12.552
			c4.227,2.536,7.631,12.341,4.792,11.982c-10.384-1.314-17.113-0.453-19.695,4.639c-2.582,5.089-4.555,8.07-5.401,9.13
			c-3.62,4.523-15.792,8.085-17.484,8.367c-1.692,0.284-13.732,7.544-18.029,8.416c-4.3,0.875-21.088-18.011-29.02-20.191
			c-7.935-2.183-18.368-8.434-14.987-11.864c3.386-3.431,19.175-8.652,23.546-11.611c4.37-2.958,21.879-14.171,29.197-17.305
			c7.318-3.136,11.019-2.825,13.67-3.097C199.26,180.744,202.406,178.226,202.406,178.226z"/>
	</g>
	<g>
		<g>
			<polygon style="fill:#DB9645;" points="195.061,166.82 194.953,247.473 190.714,245.024 190.714,169.331 			"/>
		</g>
		<g>
			<polygon style="fill:#B58143;" points="200.256,162.279 200.256,257.442 194.953,260.507 194.953,165.34 			"/>
		</g>
	</g>
	<g>
		<path style="fill:#B3EFFF;" d="M214.994,134.723c-0.834-1.765-26.055-14.755-30.25-15.621
			c-4.198-0.865-36.863,13.165-39.787,19.459c-2.929,6.292,27.94,22.82,36.27,18.898c8.333-3.919,38.004-17.955,34.01-21.875
			L214.994,134.723z"/>
	</g>
	<g>
		<path style="fill:#B3EFFF;" d="M251.224,94.486c0,0-26.475-18.966-32.67-17.555c-6.196,1.412-15.063,10.788-18.542,16.674
			c-3.474,5.889,25.663,25.197,33.549,23.569C254.755,112.803,256.629,98.221,251.224,94.486z"/>
	</g>
	<g>
		<path style="fill:#BBD32D;" d="M251.45,85.051c0,0-24.786-17.757-30.584-16.436c-5.803,1.32-14.101,10.099-17.357,15.61
			c-3.255,5.514,24.05,20.426,31.407,22.066C242.272,107.931,256.51,88.547,251.45,85.051z"/>
	</g>
	<g>
		<g>
			<path style="fill:#260F03;" d="M220.877,73.222c0,0,4.527-2.961,6.699,0.119c2.172,3.082-0.836,7.549-2.372,10.068
				c-1.267,2.08-1.517,2.407-1.653,4.228c-0.14,1.82,0.939,3.91,1.29,4.331c0.354,0.419-2.318-1.011-3.427-4.26
				c-1.129-3.305,0.472-11.145-0.008-11.634C220.923,75.581,218.992,72.266,220.877,73.222z"/>
		</g>
		<g>
			<g>
				<g>
					<g>
						<path style="fill:#F7C28D;" d="M207.266,89.432c-2.618,0.823-8.546,2.775-12.119,1.813c-1.665-0.449-1.114-3.499-1.117-4.062
							c-0.021-1.763,3.854,4.786,11.89-2.866c2.081-1.981,5.35-0.517,5.366,1.247C211.305,87.326,211.547,88.082,207.266,89.432z"/>
					</g>
					<g>
						<path style="fill:#08273A;" d="M196.441,103.184c0,0-2.585,0.494-7.679,0.187c-5.71-0.342-14.982-0.041-15.921-0.171
							c-1.708-0.235-3.473,2.112-2.122,4.496c1.352,2.381,31.015,5.899,32.591,4.398
							C204.883,110.596,200.181,105.656,196.441,103.184z"/>
					</g>
					<g>
						<path style="fill:#F7C28D;" d="M166.428,124.755c1.593,1.263,1.624,2.541,0.43,3.477c-0.876,0.686-2.735,1.115-3.471,1.603
							c-1.203,0.804-0.865,1.954-2.386,2.428c-1.025,0.321-3.789,1.22-4.663,0.552c-0.523-0.406,1.571-3.476,2.205-3.827
							c1.74-0.966,2.01-1.835,3.014-2.704c0.556-0.481,1.628-1.353,2.117-2.508L166.428,124.755z"/>
					</g>
					<g>
						<path style="fill:#FFC999;" d="M166.367,130.694c-1.69,2.238-1.772,4.451-2.571,4.839c-1.181,0.575-3.286-0.162-4.528-0.062
							c-1.437,0.113-1.707,1.281-3.263,0.958c-1.053-0.22-4.106-2.211-3.898-3.329c0.121-0.651,2.62-0.734,3.344-0.734
							c1.992,0.004,2.649-0.621,3.95-0.892c0.72-0.149,2.146-0.193,2.892-1.123L166.367,130.694z"/>
					</g>
					<g>
						<path style="fill:#08273A;" d="M176.032,106.176c0,0-1.411,1.39-1.388,3.02c0.025,1.63-1.416,5.112-1.889,5.772
							c-1.544,2.145-5.491,7.96-5.85,9.584c-0.36,1.627-0.476,1.718-1.418,1.782c-1.667,0.117-2.678-0.796-2.302-1.403
							c0.375-0.608,2.605-6.936,3.226-9.476c0.889-3.656,3.15-8.964,3.979-10.428L176.032,106.176z"/>
					</g>
					<g>
						<path style="fill:#0D3659;" d="M202.882,107.835c0,0-10.347,3.347-18.842,4.569c-4.281,0.616-7.687,1.346-8.251,1.462
							c-1.686,0.348-2.567,3.149-0.498,4.943c2.069,1.795,23.571,1.985,28.019,0.003
							C210.322,115.685,211.357,109.075,202.882,107.835z"/>
					</g>
					<g>
						<path style="fill:#0D3659;" d="M180.008,116.727c0,0-1.767,0.896-2.239,2.454c-0.469,1.561-2.896,4.445-3.55,4.931
							c-2.117,1.578-7.642,5.923-8.477,7.362c-0.837,1.443-1.768,1.911-2.634,1.542c-1.192-0.508-1.565-1.842-1.024-2.307
							c0.542-0.464,4.585-5.818,5.941-8.052c1.953-3.215,6.792-7.417,6.574-8.123L180.008,116.727z"/>
					</g>
					<g>
						<path style="fill:#FFFFFF;" d="M219.425,91.504c0.325-1.767-2.75-2.451-3.76-3.785c-1.178-1.56-3.165-2.622-4.888-3.584
							c-0.524-0.296-1.213-0.638-1.808-0.721c-1.239-0.175-4.137,3.368-6.004,4.167c-1.474,0.631-2.498,2.201-2.353,6.18
							c0.276,7.411-2.098,7.569-3.671,8.829c-4.252,3.405,11.043,13.881,12.16,10.01c1.248-4.326,1.205-7.115,2.759-9.831
							C214.446,98.242,219.113,93.19,219.425,91.504z"/>
					</g>
					<g>
						<g>
							<path style="fill:#F7C28D;" d="M206.22,85.032c2.321-1.263,3.552-1.263,3.951-1.213c-0.393-0.188-0.818-0.351-1.202-0.404
								c-0.564-0.08-1.606,0.686-2.749,1.619V85.032z"/>
						</g>
						<g>
							<path style="fill:#F7C28D;" d="M213.057,88.634c0.344-0.126,2.961,0.144,3.494-0.109c-0.499-0.944-1.609-0.752-0.308-3.465
								c0.725-1.506-2.109,1.242-4.704-0.5c-1.08,0.25-2.906,2.311-2.906,2.311S212.436,88.862,213.057,88.634z"/>
						</g>
					</g>
					<g>
						<path style="fill:#FFC999;" d="M219.284,95.586c-0.743,2.517-3.236,9.633-5.963,11.876c-1.273,1.045-2.279-0.408-2.745-0.724
							c-1.461-0.986,3.888-9.522,3.768-13.007c-0.094-2.787,2.842-4.837,4.305-3.847C220.108,90.871,220.495,91.475,219.284,95.586z
							"/>
					</g>
					<g>
						<path style="fill:#F7C28D;" d="M206.288,89.4c-0.864,0.961,1.551-0.002,4.034-0.231c0.779-0.073,3.897-0.881,6.229-0.644
							c0,0-0.951-0.808-1.427-1.433c-0.383-0.507-2.447-2.02-4.547-1.393C208.658,86.273,206.697,88.95,206.288,89.4z"/>
					</g>
					<g>
						<path style="fill:#F7C28D;" d="M213.954,83.217c-0.306,0.227-0.88,0.054-1.073,0.455c-0.287,0.607-1.348,1.574-1.763,2.085
							c-0.403,0.5,0.136,1.244,0.276,1.861c0.233,1.038,1.35,0.923,2.263,0.679c1.593-0.431,1.466-1.206,2.317-2.631
							c0.265-0.445,0.779-1.262,0.641-1.733c-0.401-1.365-2.813-0.447-3.485-0.087L213.954,83.217z"/>
					</g>
					<g>
						<g>
							<path style="fill:#FFC999;" d="M223.552,76.11c0-2.367-2.941-2.897-5.106-3.833c-2.197-0.945-3.328-0.5-5.702,3.189
								c-0.12,0.185-0.728,1.967-1.628,3.298c-0.672,0.993-0.517,2.662-0.708,3.823c-0.113,0.693-0.216,0.851,0.392,1.305
								c0.537,0.399,1.236,0.63,1.868,0.752c1.216,0.233,2.585,0.635,3.786,0.268c1.302-0.396,2.128-1.576,2.958-2.534
								C220.795,80.786,223.552,78.329,223.552,76.11z"/>
						</g>
						<g>
							<g>
								<path style="fill:#381806;" d="M215.294,72.205c3.776-2.174,6.695,0.083,8,1.289c1.492,1.383,1.808,3.86,1.367,5.746
									c-0.488,2.068-2.199,3.342-4.148,3.92c-0.505,0.152-1.047,0.265-1.57,0.367c-0.357,0.072-0.903,0.341-1.207,0.538
									c0.965-1.383,3.806-4.924,3.072-8.03c-0.101,0.028-1.116,0.16-2.034-0.297c-0.702-0.35-1.098-0.984-1.7-1.457
									c-0.458-0.357-0.995-0.573-1.567-0.665c-0.777-0.128-1.416,0.048-1.499,0.044C213.988,73.229,214.969,72.393,215.294,72.205
									z"/>
							</g>
						</g>
						<g>
							<path style="fill:#FFC999;" d="M218.93,82.125c-0.743,0.432-1.196,1.04-1.014,1.358c0.185,0.32,0.938,0.227,1.684-0.203
								c0.747-0.435,1.203-1.042,1.017-1.362C220.435,81.603,219.682,81.692,218.93,82.125z"/>
						</g>
					</g>
					<g>
						<path style="fill:#FFC999;" d="M212.551,102.692c-0.958-1.949-6.062-5.157-6.662-8.308c-0.627-3.273-2.334,1.943-1.404,2.433
							c1.917,1.011,2.008,7.002,6.42,10.209C212.841,108.434,214.336,106.347,212.551,102.692z"/>
					</g>
					<g>
						<polygon style="fill:#D7D7D7;" points="202.508,98.305 192.689,96.803 192.689,83.745 202.508,85.246 						"/>
					</g>
					<g>
						<polygon style="fill:#D7D7D7;" points="192.689,96.803 192.689,83.745 191.29,80.464 190.828,80.731 191.29,93.523 						"/>
					</g>
					<g>
						<polygon style="fill:#118EFB;" points="203.31,100.467 192.254,98.779 192.254,84.082 203.31,85.771 						"/>
					</g>
					<g>
						<polygon style="fill:#5CA2E1;" points="192.254,98.779 192.254,84.082 190.682,80.388 190.53,80.464 190.682,95.086 						"/>
					</g>
					<g>
						<polygon style="fill:#084373;" points="203.158,100.543 192.104,98.856 192.104,84.156 203.158,85.845 						"/>
					</g>
					<g>
						<polygon style="fill:#336382;" points="192.104,98.856 192.104,84.156 190.53,80.464 190.53,95.163 						"/>
					</g>
					<g>
						<path style="fill:#FFC999;" d="M205.122,97.478c0.369,0.405,1.386-1.469,1.017-2.189c-0.187-0.679-0.932-3.302-1.017-3.475
							c-0.147-0.294-0.253-0.467-0.432-0.749c-0.247-0.386-0.735-0.638-1.165-0.819c-0.402-0.174-0.702-0.489-1.116-0.607
							c-0.322-0.09-0.675-0.075-0.979-0.189c-0.26-0.097-0.506-0.167-0.755-0.291c-0.119-0.055-0.338-0.091-0.46-0.097
							c-0.056,0.116-0.105,0.366-0.013,0.499c-0.135,0.099-0.097-0.023-0.265-0.048c-0.123-0.017-0.34-0.098-0.375,0.058
							c-0.093,0.447,0.345,0.688,0.345,0.688c-0.079-0.012-0.155-0.069-0.244-0.072c-0.174,0.464,0.071,0.749,0.27,0.911
							c0.191,0.156,0.93,0.54,1.132,0.696c0.377,0.288,0.628,0.713,0.889,1.096c-0.187-0.128-0.389-0.256-0.62-0.409
							c-0.53-0.354-0.539-0.836-1.195-0.618c0.169,1.403,1.46,1.786,2.37,2.74C202.716,95.705,204.438,96.732,205.122,97.478z"/>
					</g>
					<g>
						<path style="fill:#F7C28D;" d="M190.511,86.029c-0.211-0.127-0.602,0.11-0.632,0.348c-0.032,0.221,0.141,0.475,0.228,0.667
							c0.142,0.325,0.245,0.66,0.334,0.999c0.061,0.226,0.737,1.498,1.049,1.018c0.155-0.236,0.085-0.167,0.041-0.413
							c-0.081-0.41-0.228-0.727-0.387-1.1C190.972,87.144,190.884,86.323,190.511,86.029L190.511,86.029z"/>
					</g>
					<g>
						<path style="fill:#F7C28D;" d="M190.393,87.419c-0.086-0.116-0.344-0.37-0.54-0.312c-0.473,0.145-0.15,0.986-0.071,1.221
							c0.233,0.681,0.652,1.912,1.497,2.034c0.087-0.393,0.089-0.784-0.084-1.135L190.393,87.419z"/>
					</g>
					<g>
						<path style="fill:#F7C28D;" d="M189.788,88.38c-0.251-0.257-0.617,0.153-0.583,0.44c0.025,0.176,0.19,0.36,0.272,0.512
							c0.152,0.28,0.293,0.489,0.512,0.72c0.248,0.261,0.497,0.566,0.892,0.602c0.542,0.051,0.144-0.838-0.132-1.003L189.788,88.38z
							"/>
					</g>
					<g>
						<path style="fill:#F7C28D;" d="M189.434,89.294c-0.4-0.176-0.294,0.669-0.22,0.831c0.184,0.405,0.485,0.592,0.882,0.731
							c0.174,0.061,0.355,0.173,0.542,0.202c0.135,0.02,0.192,0.048,0.248-0.091c0.094-0.233-0.26-0.372-0.361-0.536L189.434,89.294
							z"/>
					</g>
				</g>
			</g>
		</g>
	</g>
	<g>
		<path style="fill:#FFC999;" d="M207.296,176.413c-1.385,2.226-5.038,8.825-4.898,12.352c0.065,1.645,1.825,1.43,2.366,1.568
			c1.709,0.435,4.52-9.239,7.205-11.469c2.143-1.783,1.719-5.339,0.006-5.774C210.268,172.659,209.559,172.771,207.296,176.413z"/>
	</g>
	<g>
		<path style="fill:#FFC999;" d="M206.47,186.165c2.095-0.581,7.884,1.094,10.638-0.553c2.859-1.712,0.102,3.034-0.886,2.667
			c-2.028-0.759-6.561,3.157-11.891,1.998C201.995,189.77,202.554,187.263,206.47,186.165z"/>
	</g>
	<g>
		<path style="fill:#FFC999;" d="M215.305,188.243c-0.543-0.007,0.181-2.011,0.958-2.217c0.632-0.313,3.088-1.503,3.273-1.554
			c0.318-0.085,0.521-0.119,0.846-0.174c0.452-0.072,0.967,0.124,1.389,0.326c0.398,0.184,0.829,0.199,1.196,0.43
			c0.279,0.178,0.504,0.449,0.789,0.602c0.249,0.132,0.462,0.268,0.722,0.372c0.121,0.049,0.294,0.193,0.377,0.28
			c-0.047,0.119-0.202,0.322-0.361,0.34c0.014,0.166,0.08,0.058,0.208,0.165c0.094,0.081,0.301,0.192,0.21,0.321
			c-0.272,0.367-0.745,0.197-0.745,0.197c0.062,0.054,0.158,0.071,0.215,0.136c-0.227,0.438-0.603,0.443-0.86,0.402
			c-0.242-0.039-1.019-0.331-1.27-0.381c-0.466-0.091-0.951,0.006-1.407,0.067c0.219,0.055,0.449,0.118,0.714,0.187
			c0.617,0.161,0.985-0.152,1.259,0.484c-1.161,0.807-2.306,0.098-3.624,0.053C218.233,188.861,216.317,188.257,215.305,188.243z"/>
	</g>
	<g>
		<g>
			<polygon style="fill:#DB9645;" points="169.037,150.955 121.763,123.845 117.527,126.291 169.04,155.983 			"/>
		</g>
		<g>
			<polygon style="fill:#B58143;" points="164.802,159.524 117.529,132.417 117.527,126.291 164.8,153.401 			"/>
		</g>
		<g>
			<polygon style="fill:#D6A15C;" points="164.8,153.401 164.802,159.524 169.04,157.075 169.037,150.955 			"/>
		</g>
	</g>
	<g>
		<g>
			<polygon style="fill:#DB9645;" points="275.786,179.691 228.665,152.686 224.427,155.133 275.788,184.72 			"/>
		</g>
		<g>
			<polygon style="fill:#B58143;" points="271.549,188.262 224.427,161.256 224.427,155.133 271.549,182.139 			"/>
		</g>
		<g>
			<polygon style="fill:#D6A15C;" points="271.549,182.139 271.549,188.262 275.79,185.812 275.786,179.691 			"/>
		</g>
	</g>
	<g>
		<g>
			<polygon style="fill:#DB9645;" points="169.037,240.75 121.763,213.639 117.527,216.086 169.04,245.777 			"/>
		</g>
		<g>
			<polygon style="fill:#B58143;" points="164.802,249.318 117.529,222.211 117.527,216.086 164.8,243.196 			"/>
		</g>
		<g>
			<polygon style="fill:#D6A15C;" points="164.8,243.196 164.802,249.318 169.04,246.87 169.037,240.75 			"/>
		</g>
	</g>
	<g>
		<g>
			<polygon style="fill:#DB9645;" points="170.602,202.854 190.908,191.493 193.562,193.023 170.602,206.004 			"/>
		</g>
		<g>
			<polygon style="fill:#B58143;" points="173.26,208.22 193.56,196.859 193.562,193.023 173.26,204.387 			"/>
		</g>
		<g>
			<polygon style="fill:#D6A15C;" points="173.26,204.387 173.26,208.22 170.602,206.689 170.602,202.854 			"/>
		</g>
	</g>
	<g>
		<g>
			<polygon style="fill:#DB9645;" points="170.602,188.008 190.908,176.643 193.562,178.174 170.602,191.156 			"/>
		</g>
		<g>
			<polygon style="fill:#B58143;" points="173.26,193.373 193.56,182.009 193.562,178.174 173.26,189.54 			"/>
		</g>
		<g>
			<polygon style="fill:#D6A15C;" points="173.26,189.54 173.26,193.373 170.602,191.841 170.602,188.008 			"/>
		</g>
	</g>
	<g>
		<g>
			<polygon style="fill:#DB9645;" points="170.602,217.368 190.908,206.004 193.562,207.538 170.602,220.519 			"/>
		</g>
		<g>
			<polygon style="fill:#B58143;" points="173.26,222.734 193.56,211.372 193.562,207.538 173.26,218.901 			"/>
		</g>
		<g>
			<polygon style="fill:#D6A15C;" points="173.26,218.901 173.26,222.734 170.602,221.201 170.602,217.368 			"/>
		</g>
	</g>
	<g>
		<g>
			<polygon style="fill:#DB9645;" points="170.602,231.954 190.908,220.591 193.562,222.124 170.602,235.104 			"/>
		</g>
		<g>
			<polygon style="fill:#B58143;" points="173.26,237.321 193.56,225.959 193.562,222.124 173.26,233.488 			"/>
		</g>
		<g>
			<polygon style="fill:#D6A15C;" points="173.26,233.488 173.26,237.321 170.602,235.787 170.602,231.954 			"/>
		</g>
	</g>
	<g>
		<g>
			<polygon style="fill:#DB9645;" points="170.602,246.395 190.908,235.03 193.562,236.56 170.602,249.542 			"/>
		</g>
		<g>
			<polygon style="fill:#B58143;" points="173.26,251.761 193.56,240.398 193.562,236.56 173.26,247.926 			"/>
		</g>
		<g>
			<polygon style="fill:#D6A15C;" points="173.26,247.926 173.26,251.761 170.602,250.227 170.602,246.395 			"/>
		</g>
	</g>
	<g>
		<g>
			<polygon style="fill:#DB9645;" points="165.042,152.158 165.042,292.728 169.278,295.176 169.398,149.64 			"/>
		</g>
		<g>
			<polygon style="fill:#B58143;" points="174.581,151.542 174.581,292.11 169.278,295.176 169.278,154.605 			"/>
		</g>
		<g>
			<polygon style="fill:#D6A15C;" points="169.278,154.605 174.581,151.542 170.342,149.094 165.042,152.158 			"/>
		</g>
	</g>
	<g>
		<path style="fill:#BC8133;" d="M169.122,275.878v-14.357l0.25-0.143l106.473-61.519v14.363L169.122,275.878z M170.122,262.098
			v12.048l104.723-60.502v-12.053L170.122,262.098z"/>
	</g>
</g>
<g>
	<g>
		<path style="fill:#B1B2B2;" d="M334.623,303.452c0,0,7.018,4.271,1.386,8.612c-5.523,4.255-20.264,15.032-29.311,12.358
			c-9.054-2.675-23.437-12.855-24.604-14.208c-1.169-1.356-1.047-3.442,3.664-6.908c3.38-2.487,19.827-11.556,20.777-11.895
			c0.943-0.326,3.993-2.121,10.202,1.141C322.591,295.626,334.623,303.452,334.623,303.452L334.623,303.452z"/>
	</g>
</g>
<g>
	<g>
		<g>
			<path style="fill:#848484;" d="M284.627,307.695l1.661,0.957l0.227-2.049c-0.455-8.857-1.122-29.337,0.877-31.341
				c1.435-1.012,3.498-1.952,6.71-4.07c3.047-2.002,7.655-5.038,8.592-5.168c4.086,1.119,5.529,18.414,6.679,27.383l1.629,0.885
				l0.451-2.087c-0.925-8.113-3.267-28.311-8.759-28.311c-1.246,0-3.935,1.677-9.763,5.519c-2.852,1.878-5.912,3.596-6.85,4.218
				C282.287,276.158,284.159,298.202,284.627,307.695L284.627,307.695z"/>
		</g>
		<g>
			<path style="fill:#696C6D;" d="M286.288,308.652l1.855-1.162c-0.458-8.858-1.125-29.338,0.874-31.342
				c1.437-1.009,3.499-1.952,6.709-4.067c3.051-2.008,7.657-5.042,8.593-5.169c4.084,1.119,5.532,18.412,6.682,27.38l2.075-1.198
				c-0.919-8.115-3.266-28.318-8.757-28.318c-1.247,0-3.935,1.684-9.765,5.525c-2.849,1.876-5.907,3.594-6.847,4.222
				C283.916,277.044,285.82,299.161,286.288,308.652L286.288,308.652z"/>
		</g>
	</g>
	<g>
		<g>
			<g>
				<path style="fill:#0D1321;" d="M326.123,273.387c0,0,5.456,3.318,1.075,6.696c-4.294,3.314-15.759,11.694-22.799,9.615
					c-7.042-2.081-18.232-9.997-19.142-11.051c-0.905-1.055-0.813-2.681,2.852-5.376c2.629-1.938,15.423-8.984,16.162-9.248
					c0.733-0.256,3.11-1.651,7.937,0.885C316.765,267.298,326.123,273.387,326.123,273.387L326.123,273.387z"/>
			</g>
		</g>
	</g>
	<g>
		<g>
			<path style="fill:#848484;" d="M308.223,321.294l1.596,0.921l0.263-1.979c-0.455-8.855-1.121-29.34,0.877-31.341
				c1.436-1.016,3.498-1.956,6.711-4.065c3.047-2.014,7.65-5.039,8.589-5.171c4.088,1.122,5.529,18.418,6.682,27.381l1.628,0.887
				l0.446-2.085c-0.922-8.118-3.265-28.318-8.756-28.318c-1.246,0-3.931,1.687-9.762,5.521c-2.849,1.878-5.911,3.599-6.851,4.225
				C305.854,289.791,307.758,311.803,308.223,321.294L308.223,321.294z"/>
		</g>
		<g>
			<polygon style="fill:#848484;" points="327.094,278.332 329.013,279.441 329.31,278.924 327.39,277.822 			"/>
		</g>
		<g>
			<path style="fill:#A5A5A5;" d="M309.818,322.215l1.893-1.093c-0.458-8.855-1.126-29.339,0.873-31.339
				c1.435-1.008,3.498-1.953,6.712-4.071c3.048-2.005,7.653-5.033,8.591-5.169c4.085,1.117,5.531,18.416,6.681,27.383l2.073-1.198
				c-0.918-8.116-3.261-28.316-8.754-28.316c-1.25,0-3.932,1.682-9.767,5.521c-2.847,1.876-5.905,3.593-6.849,4.217
				C307.478,290.672,309.349,312.716,309.818,322.215L309.818,322.215z"/>
		</g>
	</g>
	<g>
		<path style="fill:#848484;" d="M289.875,281.433c-0.72-1.196-0.738-8.015-0.701-11.469l-2.1-1.377c0,0-0.336,13.033,0.73,14.808
			c0.546,0.909,1.502,2.255,4.446,1.288l-0.64-1.857C290.468,282.679,290.215,282.002,289.875,281.433z"/>
	</g>
	<g>
		
			<rect x="289.484" y="283.731" transform="matrix(0.5006 -0.8657 0.8657 0.5006 -101.7343 393.1316)" style="fill:#848484;" width="0.735" height="2.012"/>
	</g>
	<g>
		<path style="fill:#A5A5A5;" d="M292.462,283.741v-0.003c-0.553-0.245-0.678-0.741-0.851-1.284c-0.426-1.328-0.74-8.012-0.7-11.468
			l-2.103-1.381c0,0-0.334,13.033,0.728,14.809c0.535,0.895,1.997,2.593,6.213,1.285C294.621,285.06,293.508,284.4,292.462,283.741z
			"/>
	</g>
	<g>
		<path style="fill:#848484;" d="M297.398,285.105c-0.72-1.198-0.739-8.018-0.699-11.471l-2.101-1.377
			c0,0-0.337,13.033,0.731,14.807c0.543,0.911,1.502,2.258,4.443,1.29l-0.642-1.857
			C297.987,286.355,297.738,285.672,297.398,285.105z"/>
	</g>
	<g>
		
			<rect x="297.009" y="287.403" transform="matrix(0.5 -0.866 0.866 0.5 -101.0776 401.7496)" style="fill:#848484;" width="0.734" height="2.01"/>
	</g>
	<g>
		<path style="fill:#A5A5A5;" d="M299.983,287.419v-0.01c-0.552-0.247-0.675-0.734-0.852-1.281
			c-0.425-1.331-0.736-8.017-0.698-11.472l-2.102-1.379c0,0-0.336,13.038,0.729,14.808c0.533,0.892,1.993,2.591,6.205,1.283
			C302.145,288.728,301.028,288.072,299.983,287.419z"/>
	</g>
	<g>
		<g>
			<path d="M286.7,248.784c0,0-6.63-3.642-5.679,2.164c1.098,6.687,0.353,13.136,5.121,17.664c4.765,4.53,15.911,9.656,17.13,9.898
				c1.23,0.225,3.569,1.059,2.896-4.617c-0.344-2.906-2.302-11.666-2.428-12.356c-0.128-0.686-0.109-3.151-4.242-5.761
				C295.607,253.314,286.7,248.784,286.7,248.784L286.7,248.784z"/>
		</g>
	</g>
</g>
</svg>
